<?xml version="1.0" encoding="utf-8" standalone="no"?>
<!DOCTYPE svg PUBLIC "-//W3C//DTD SVG 1.1//EN"
  "http://www.w3.org/Graphics/SVG/1.1/DTD/svg11.dtd">
<svg xmlns:xlink="http://www.w3.org/1999/xlink" width="1008pt" height="288pt" viewBox="0 0 1008 288" xmlns="http://www.w3.org/2000/svg" version="1.1">
 <metadata>
  <rdf:RDF xmlns:dc="http://purl.org/dc/elements/1.1/" xmlns:cc="http://creativecommons.org/ns#" xmlns:rdf="http://www.w3.org/1999/02/22-rdf-syntax-ns#">
   <cc:Work>
    <dc:type rdf:resource="http://purl.org/dc/dcmitype/StillImage"/>
    <dc:date>2023-09-10T18:21:13.481567</dc:date>
    <dc:format>image/svg+xml</dc:format>
    <dc:creator>
     <cc:Agent>
      <dc:title>Matplotlib v3.7.1, https://matplotlib.org/</dc:title>
     </cc:Agent>
    </dc:creator>
   </cc:Work>
  </rdf:RDF>
 </metadata>
 <defs>
  <style type="text/css">*{stroke-linejoin: round; stroke-linecap: butt}</style>
 </defs>
 <g id="figure_1">
  <g id="patch_1">
   <path d="M 0 288 
L 1008 288 
L 1008 0 
L 0 0 
z
" style="fill: #ffffff"/>
  </g>
  <g id="axes_1">
   <g id="patch_2">
    <path d="M 44.722428 135.461165 
L 1004.99976 135.461165 
L 1004.99976 23.82072 
L 44.722428 23.82072 
z
" style="fill: #eaeaf2"/>
   </g>
   <g id="matplotlib.axis_1">
    <g id="xtick_1">
     <g id="line2d_1">
      <path d="M 51.731751 135.461165 
L 51.731751 23.82072 
" clip-path="url(#p3bf0ab7f75)" style="fill: none; stroke: #ffffff; stroke-width: 0.8; stroke-linecap: round"/>
     </g>
    </g>
    <g id="xtick_2">
     <g id="line2d_2">
      <path d="M 226.964841 135.461165 
L 226.964841 23.82072 
" clip-path="url(#p3bf0ab7f75)" style="fill: none; stroke: #ffffff; stroke-width: 0.8; stroke-linecap: round"/>
     </g>
    </g>
    <g id="xtick_3">
     <g id="line2d_3">
      <path d="M 402.197931 135.461165 
L 402.197931 23.82072 
" clip-path="url(#p3bf0ab7f75)" style="fill: none; stroke: #ffffff; stroke-width: 0.8; stroke-linecap: round"/>
     </g>
    </g>
    <g id="xtick_4">
     <g id="line2d_4">
      <path d="M 577.431021 135.461165 
L 577.431021 23.82072 
" clip-path="url(#p3bf0ab7f75)" style="fill: none; stroke: #ffffff; stroke-width: 0.8; stroke-linecap: round"/>
     </g>
    </g>
    <g id="xtick_5">
     <g id="line2d_5">
      <path d="M 752.664111 135.461165 
L 752.664111 23.82072 
" clip-path="url(#p3bf0ab7f75)" style="fill: none; stroke: #ffffff; stroke-width: 0.8; stroke-linecap: round"/>
     </g>
    </g>
   </g>
   <g id="matplotlib.axis_2">
    <g id="ytick_1">
     <g id="line2d_6">
      <path d="M 44.722428 130.386599 
L 1004.99976 130.386599 
" clip-path="url(#p3bf0ab7f75)" style="fill: none; stroke: #ffffff; stroke-width: 0.8; stroke-linecap: round"/>
     </g>
     <g id="text_1">
      <!-- 0.00 -->
      <g style="fill: #262626" transform="translate(18.26149 133.965505) scale(0.1 -0.1)">
       <defs>
        <path id="ArialMT-30" d="M 266 2259 
Q 266 3072 433 3567 
Q 600 4063 929 4331 
Q 1259 4600 1759 4600 
Q 2128 4600 2406 4451 
Q 2684 4303 2865 4023 
Q 3047 3744 3150 3342 
Q 3253 2941 3253 2259 
Q 3253 1453 3087 958 
Q 2922 463 2592 192 
Q 2263 -78 1759 -78 
Q 1097 -78 719 397 
Q 266 969 266 2259 
z
M 844 2259 
Q 844 1131 1108 757 
Q 1372 384 1759 384 
Q 2147 384 2411 759 
Q 2675 1134 2675 2259 
Q 2675 3391 2411 3762 
Q 2147 4134 1753 4134 
Q 1366 4134 1134 3806 
Q 844 3388 844 2259 
z
" transform="scale(0.015625)"/>
        <path id="ArialMT-2e" d="M 581 0 
L 581 641 
L 1222 641 
L 1222 0 
L 581 0 
z
" transform="scale(0.015625)"/>
       </defs>
       <use xlink:href="#ArialMT-30"/>
       <use xlink:href="#ArialMT-2e" x="55.615234"/>
       <use xlink:href="#ArialMT-30" x="83.398438"/>
       <use xlink:href="#ArialMT-30" x="139.013672"/>
      </g>
     </g>
    </g>
    <g id="ytick_2">
     <g id="line2d_7">
      <path d="M 44.722428 105.013771 
L 1004.99976 105.013771 
" clip-path="url(#p3bf0ab7f75)" style="fill: none; stroke: #ffffff; stroke-width: 0.8; stroke-linecap: round"/>
     </g>
     <g id="text_2">
      <!-- 0.25 -->
      <g style="fill: #262626" transform="translate(18.26149 108.592677) scale(0.1 -0.1)">
       <defs>
        <path id="ArialMT-32" d="M 3222 541 
L 3222 0 
L 194 0 
Q 188 203 259 391 
Q 375 700 629 1000 
Q 884 1300 1366 1694 
Q 2113 2306 2375 2664 
Q 2638 3022 2638 3341 
Q 2638 3675 2398 3904 
Q 2159 4134 1775 4134 
Q 1369 4134 1125 3890 
Q 881 3647 878 3216 
L 300 3275 
Q 359 3922 746 4261 
Q 1134 4600 1788 4600 
Q 2447 4600 2831 4234 
Q 3216 3869 3216 3328 
Q 3216 3053 3103 2787 
Q 2991 2522 2730 2228 
Q 2469 1934 1863 1422 
Q 1356 997 1212 845 
Q 1069 694 975 541 
L 3222 541 
z
" transform="scale(0.015625)"/>
        <path id="ArialMT-35" d="M 266 1200 
L 856 1250 
Q 922 819 1161 601 
Q 1400 384 1738 384 
Q 2144 384 2425 690 
Q 2706 997 2706 1503 
Q 2706 1984 2436 2262 
Q 2166 2541 1728 2541 
Q 1456 2541 1237 2417 
Q 1019 2294 894 2097 
L 366 2166 
L 809 4519 
L 3088 4519 
L 3088 3981 
L 1259 3981 
L 1013 2750 
Q 1425 3038 1878 3038 
Q 2478 3038 2890 2622 
Q 3303 2206 3303 1553 
Q 3303 931 2941 478 
Q 2500 -78 1738 -78 
Q 1113 -78 717 272 
Q 322 622 266 1200 
z
" transform="scale(0.015625)"/>
       </defs>
       <use xlink:href="#ArialMT-30"/>
       <use xlink:href="#ArialMT-2e" x="55.615234"/>
       <use xlink:href="#ArialMT-32" x="83.398438"/>
       <use xlink:href="#ArialMT-35" x="139.013672"/>
      </g>
     </g>
    </g>
    <g id="ytick_3">
     <g id="line2d_8">
      <path d="M 44.722428 79.640942 
L 1004.99976 79.640942 
" clip-path="url(#p3bf0ab7f75)" style="fill: none; stroke: #ffffff; stroke-width: 0.8; stroke-linecap: round"/>
     </g>
     <g id="text_3">
      <!-- 0.50 -->
      <g style="fill: #262626" transform="translate(18.26149 83.219849) scale(0.1 -0.1)">
       <use xlink:href="#ArialMT-30"/>
       <use xlink:href="#ArialMT-2e" x="55.615234"/>
       <use xlink:href="#ArialMT-35" x="83.398438"/>
       <use xlink:href="#ArialMT-30" x="139.013672"/>
      </g>
     </g>
    </g>
    <g id="ytick_4">
     <g id="line2d_9">
      <path d="M 44.722428 54.268114 
L 1004.99976 54.268114 
" clip-path="url(#p3bf0ab7f75)" style="fill: none; stroke: #ffffff; stroke-width: 0.8; stroke-linecap: round"/>
     </g>
     <g id="text_4">
      <!-- 0.75 -->
      <g style="fill: #262626" transform="translate(18.26149 57.84702) scale(0.1 -0.1)">
       <defs>
        <path id="ArialMT-37" d="M 303 3981 
L 303 4522 
L 3269 4522 
L 3269 4084 
Q 2831 3619 2401 2847 
Q 1972 2075 1738 1259 
Q 1569 684 1522 0 
L 944 0 
Q 953 541 1156 1306 
Q 1359 2072 1739 2783 
Q 2119 3494 2547 3981 
L 303 3981 
z
" transform="scale(0.015625)"/>
       </defs>
       <use xlink:href="#ArialMT-30"/>
       <use xlink:href="#ArialMT-2e" x="55.615234"/>
       <use xlink:href="#ArialMT-37" x="83.398438"/>
       <use xlink:href="#ArialMT-35" x="139.013672"/>
      </g>
     </g>
    </g>
    <g id="ytick_5">
     <g id="line2d_10">
      <path d="M 44.722428 28.895286 
L 1004.99976 28.895286 
" clip-path="url(#p3bf0ab7f75)" style="fill: none; stroke: #ffffff; stroke-width: 0.8; stroke-linecap: round"/>
     </g>
     <g id="text_5">
      <!-- 1.00 -->
      <g style="fill: #262626" transform="translate(18.26149 32.474192) scale(0.1 -0.1)">
       <defs>
        <path id="ArialMT-31" d="M 2384 0 
L 1822 0 
L 1822 3584 
Q 1619 3391 1289 3197 
Q 959 3003 697 2906 
L 697 3450 
Q 1169 3672 1522 3987 
Q 1875 4303 2022 4600 
L 2384 4600 
L 2384 0 
z
" transform="scale(0.015625)"/>
       </defs>
       <use xlink:href="#ArialMT-31"/>
       <use xlink:href="#ArialMT-2e" x="55.615234"/>
       <use xlink:href="#ArialMT-30" x="83.398438"/>
       <use xlink:href="#ArialMT-30" x="139.013672"/>
      </g>
     </g>
    </g>
    <g id="text_6">
     <!-- Change-point Probability -->
     <g style="fill: #262626" transform="translate(11.735865 145.343755) rotate(-90) scale(0.12 -0.12)">
      <defs>
       <path id="ArialMT-43" d="M 3763 1606 
L 4369 1453 
Q 4178 706 3683 314 
Q 3188 -78 2472 -78 
Q 1731 -78 1267 223 
Q 803 525 561 1097 
Q 319 1669 319 2325 
Q 319 3041 592 3573 
Q 866 4106 1370 4382 
Q 1875 4659 2481 4659 
Q 3169 4659 3637 4309 
Q 4106 3959 4291 3325 
L 3694 3184 
Q 3534 3684 3231 3912 
Q 2928 4141 2469 4141 
Q 1941 4141 1586 3887 
Q 1231 3634 1087 3207 
Q 944 2781 944 2328 
Q 944 1744 1114 1308 
Q 1284 872 1643 656 
Q 2003 441 2422 441 
Q 2931 441 3284 734 
Q 3638 1028 3763 1606 
z
" transform="scale(0.015625)"/>
       <path id="ArialMT-68" d="M 422 0 
L 422 4581 
L 984 4581 
L 984 2938 
Q 1378 3394 1978 3394 
Q 2347 3394 2619 3248 
Q 2891 3103 3008 2847 
Q 3125 2591 3125 2103 
L 3125 0 
L 2563 0 
L 2563 2103 
Q 2563 2525 2380 2717 
Q 2197 2909 1863 2909 
Q 1613 2909 1392 2779 
Q 1172 2650 1078 2428 
Q 984 2206 984 1816 
L 984 0 
L 422 0 
z
" transform="scale(0.015625)"/>
       <path id="ArialMT-61" d="M 2588 409 
Q 2275 144 1986 34 
Q 1697 -75 1366 -75 
Q 819 -75 525 192 
Q 231 459 231 875 
Q 231 1119 342 1320 
Q 453 1522 633 1644 
Q 813 1766 1038 1828 
Q 1203 1872 1538 1913 
Q 2219 1994 2541 2106 
Q 2544 2222 2544 2253 
Q 2544 2597 2384 2738 
Q 2169 2928 1744 2928 
Q 1347 2928 1158 2789 
Q 969 2650 878 2297 
L 328 2372 
Q 403 2725 575 2942 
Q 747 3159 1072 3276 
Q 1397 3394 1825 3394 
Q 2250 3394 2515 3294 
Q 2781 3194 2906 3042 
Q 3031 2891 3081 2659 
Q 3109 2516 3109 2141 
L 3109 1391 
Q 3109 606 3145 398 
Q 3181 191 3288 0 
L 2700 0 
Q 2613 175 2588 409 
z
M 2541 1666 
Q 2234 1541 1622 1453 
Q 1275 1403 1131 1340 
Q 988 1278 909 1158 
Q 831 1038 831 891 
Q 831 666 1001 516 
Q 1172 366 1500 366 
Q 1825 366 2078 508 
Q 2331 650 2450 897 
Q 2541 1088 2541 1459 
L 2541 1666 
z
" transform="scale(0.015625)"/>
       <path id="ArialMT-6e" d="M 422 0 
L 422 3319 
L 928 3319 
L 928 2847 
Q 1294 3394 1984 3394 
Q 2284 3394 2536 3286 
Q 2788 3178 2913 3003 
Q 3038 2828 3088 2588 
Q 3119 2431 3119 2041 
L 3119 0 
L 2556 0 
L 2556 2019 
Q 2556 2363 2490 2533 
Q 2425 2703 2258 2804 
Q 2091 2906 1866 2906 
Q 1506 2906 1245 2678 
Q 984 2450 984 1813 
L 984 0 
L 422 0 
z
" transform="scale(0.015625)"/>
       <path id="ArialMT-67" d="M 319 -275 
L 866 -356 
Q 900 -609 1056 -725 
Q 1266 -881 1628 -881 
Q 2019 -881 2231 -725 
Q 2444 -569 2519 -288 
Q 2563 -116 2559 434 
Q 2191 0 1641 0 
Q 956 0 581 494 
Q 206 988 206 1678 
Q 206 2153 378 2554 
Q 550 2956 876 3175 
Q 1203 3394 1644 3394 
Q 2231 3394 2613 2919 
L 2613 3319 
L 3131 3319 
L 3131 450 
Q 3131 -325 2973 -648 
Q 2816 -972 2473 -1159 
Q 2131 -1347 1631 -1347 
Q 1038 -1347 672 -1080 
Q 306 -813 319 -275 
z
M 784 1719 
Q 784 1066 1043 766 
Q 1303 466 1694 466 
Q 2081 466 2343 764 
Q 2606 1063 2606 1700 
Q 2606 2309 2336 2618 
Q 2066 2928 1684 2928 
Q 1309 2928 1046 2623 
Q 784 2319 784 1719 
z
" transform="scale(0.015625)"/>
       <path id="ArialMT-65" d="M 2694 1069 
L 3275 997 
Q 3138 488 2766 206 
Q 2394 -75 1816 -75 
Q 1088 -75 661 373 
Q 234 822 234 1631 
Q 234 2469 665 2931 
Q 1097 3394 1784 3394 
Q 2450 3394 2872 2941 
Q 3294 2488 3294 1666 
Q 3294 1616 3291 1516 
L 816 1516 
Q 847 969 1125 678 
Q 1403 388 1819 388 
Q 2128 388 2347 550 
Q 2566 713 2694 1069 
z
M 847 1978 
L 2700 1978 
Q 2663 2397 2488 2606 
Q 2219 2931 1791 2931 
Q 1403 2931 1139 2672 
Q 875 2413 847 1978 
z
" transform="scale(0.015625)"/>
       <path id="ArialMT-2d" d="M 203 1375 
L 203 1941 
L 1931 1941 
L 1931 1375 
L 203 1375 
z
" transform="scale(0.015625)"/>
       <path id="ArialMT-70" d="M 422 -1272 
L 422 3319 
L 934 3319 
L 934 2888 
Q 1116 3141 1344 3267 
Q 1572 3394 1897 3394 
Q 2322 3394 2647 3175 
Q 2972 2956 3137 2557 
Q 3303 2159 3303 1684 
Q 3303 1175 3120 767 
Q 2938 359 2589 142 
Q 2241 -75 1856 -75 
Q 1575 -75 1351 44 
Q 1128 163 984 344 
L 984 -1272 
L 422 -1272 
z
M 931 1641 
Q 931 1000 1190 694 
Q 1450 388 1819 388 
Q 2194 388 2461 705 
Q 2728 1022 2728 1688 
Q 2728 2322 2467 2637 
Q 2206 2953 1844 2953 
Q 1484 2953 1207 2617 
Q 931 2281 931 1641 
z
" transform="scale(0.015625)"/>
       <path id="ArialMT-6f" d="M 213 1659 
Q 213 2581 725 3025 
Q 1153 3394 1769 3394 
Q 2453 3394 2887 2945 
Q 3322 2497 3322 1706 
Q 3322 1066 3130 698 
Q 2938 331 2570 128 
Q 2203 -75 1769 -75 
Q 1072 -75 642 372 
Q 213 819 213 1659 
z
M 791 1659 
Q 791 1022 1069 705 
Q 1347 388 1769 388 
Q 2188 388 2466 706 
Q 2744 1025 2744 1678 
Q 2744 2294 2464 2611 
Q 2184 2928 1769 2928 
Q 1347 2928 1069 2612 
Q 791 2297 791 1659 
z
" transform="scale(0.015625)"/>
       <path id="ArialMT-69" d="M 425 3934 
L 425 4581 
L 988 4581 
L 988 3934 
L 425 3934 
z
M 425 0 
L 425 3319 
L 988 3319 
L 988 0 
L 425 0 
z
" transform="scale(0.015625)"/>
       <path id="ArialMT-74" d="M 1650 503 
L 1731 6 
Q 1494 -44 1306 -44 
Q 1000 -44 831 53 
Q 663 150 594 308 
Q 525 466 525 972 
L 525 2881 
L 113 2881 
L 113 3319 
L 525 3319 
L 525 4141 
L 1084 4478 
L 1084 3319 
L 1650 3319 
L 1650 2881 
L 1084 2881 
L 1084 941 
Q 1084 700 1114 631 
Q 1144 563 1211 522 
Q 1278 481 1403 481 
Q 1497 481 1650 503 
z
" transform="scale(0.015625)"/>
       <path id="ArialMT-20" transform="scale(0.015625)"/>
       <path id="ArialMT-50" d="M 494 0 
L 494 4581 
L 2222 4581 
Q 2678 4581 2919 4538 
Q 3256 4481 3484 4323 
Q 3713 4166 3852 3881 
Q 3991 3597 3991 3256 
Q 3991 2672 3619 2267 
Q 3247 1863 2275 1863 
L 1100 1863 
L 1100 0 
L 494 0 
z
M 1100 2403 
L 2284 2403 
Q 2872 2403 3119 2622 
Q 3366 2841 3366 3238 
Q 3366 3525 3220 3729 
Q 3075 3934 2838 4000 
Q 2684 4041 2272 4041 
L 1100 4041 
L 1100 2403 
z
" transform="scale(0.015625)"/>
       <path id="ArialMT-72" d="M 416 0 
L 416 3319 
L 922 3319 
L 922 2816 
Q 1116 3169 1280 3281 
Q 1444 3394 1641 3394 
Q 1925 3394 2219 3213 
L 2025 2691 
Q 1819 2813 1613 2813 
Q 1428 2813 1281 2702 
Q 1134 2591 1072 2394 
Q 978 2094 978 1738 
L 978 0 
L 416 0 
z
" transform="scale(0.015625)"/>
       <path id="ArialMT-62" d="M 941 0 
L 419 0 
L 419 4581 
L 981 4581 
L 981 2947 
Q 1338 3394 1891 3394 
Q 2197 3394 2470 3270 
Q 2744 3147 2920 2923 
Q 3097 2700 3197 2384 
Q 3297 2069 3297 1709 
Q 3297 856 2875 390 
Q 2453 -75 1863 -75 
Q 1275 -75 941 416 
L 941 0 
z
M 934 1684 
Q 934 1088 1097 822 
Q 1363 388 1816 388 
Q 2184 388 2453 708 
Q 2722 1028 2722 1663 
Q 2722 2313 2464 2622 
Q 2206 2931 1841 2931 
Q 1472 2931 1203 2611 
Q 934 2291 934 1684 
z
" transform="scale(0.015625)"/>
       <path id="ArialMT-6c" d="M 409 0 
L 409 4581 
L 972 4581 
L 972 0 
L 409 0 
z
" transform="scale(0.015625)"/>
       <path id="ArialMT-79" d="M 397 -1278 
L 334 -750 
Q 519 -800 656 -800 
Q 844 -800 956 -737 
Q 1069 -675 1141 -563 
Q 1194 -478 1313 -144 
Q 1328 -97 1363 -6 
L 103 3319 
L 709 3319 
L 1400 1397 
Q 1534 1031 1641 628 
Q 1738 1016 1872 1384 
L 2581 3319 
L 3144 3319 
L 1881 -56 
Q 1678 -603 1566 -809 
Q 1416 -1088 1222 -1217 
Q 1028 -1347 759 -1347 
Q 597 -1347 397 -1278 
z
" transform="scale(0.015625)"/>
      </defs>
      <use xlink:href="#ArialMT-43"/>
      <use xlink:href="#ArialMT-68" x="72.216797"/>
      <use xlink:href="#ArialMT-61" x="127.832031"/>
      <use xlink:href="#ArialMT-6e" x="183.447266"/>
      <use xlink:href="#ArialMT-67" x="239.0625"/>
      <use xlink:href="#ArialMT-65" x="294.677734"/>
      <use xlink:href="#ArialMT-2d" x="350.292969"/>
      <use xlink:href="#ArialMT-70" x="383.59375"/>
      <use xlink:href="#ArialMT-6f" x="439.208984"/>
      <use xlink:href="#ArialMT-69" x="494.824219"/>
      <use xlink:href="#ArialMT-6e" x="517.041016"/>
      <use xlink:href="#ArialMT-74" x="572.65625"/>
      <use xlink:href="#ArialMT-20" x="600.439453"/>
      <use xlink:href="#ArialMT-50" x="628.222656"/>
      <use xlink:href="#ArialMT-72" x="694.921875"/>
      <use xlink:href="#ArialMT-6f" x="728.222656"/>
      <use xlink:href="#ArialMT-62" x="783.837891"/>
      <use xlink:href="#ArialMT-61" x="839.453125"/>
      <use xlink:href="#ArialMT-62" x="895.068359"/>
      <use xlink:href="#ArialMT-69" x="950.683594"/>
      <use xlink:href="#ArialMT-6c" x="972.900391"/>
      <use xlink:href="#ArialMT-69" x="995.117188"/>
      <use xlink:href="#ArialMT-74" x="1017.333984"/>
      <use xlink:href="#ArialMT-79" x="1045.117188"/>
     </g>
    </g>
   </g>
   <g id="line2d_11">
    <path d="M 51.731751 117.347125 
L 55.236413 101.490984 
L 58.741075 106.928926 
L 62.245736 120.549327 
L 65.750398 113.487482 
L 69.25506 96.511877 
L 72.759722 127.555527 
L 76.264384 112.348022 
L 79.769045 99.446403 
L 83.273707 115.680878 
L 86.778369 114.250883 
L 90.283031 109.803979 
L 93.787693 97.730195 
L 97.292354 113.946514 
L 100.797016 112.462733 
L 104.301678 112.389422 
L 107.80634 92.290932 
L 111.311002 92.436661 
L 114.815663 101.439918 
L 118.320325 106.143282 
L 121.824987 103.469994 
L 125.329649 97.735201 
L 128.834311 116.206834 
L 132.338972 100.132322 
L 135.843634 118.627887 
L 139.348296 113.937756 
L 142.852958 102.177916 
L 146.35762 119.958509 
L 149.862281 110.149269 
L 153.366943 115.642927 
L 156.871605 111.02887 
L 160.376267 130.386599 
L 163.880929 122.568389 
L 167.38559 114.410673 
L 170.890252 102.022951 
L 174.394914 110.404789 
L 177.899576 109.061366 
L 181.404238 103.844105 
L 184.908899 115.778283 
L 188.413561 106.923987 
L 191.918223 77.152418 
L 195.422885 84.173222 
L 198.927547 73.997393 
L 202.432208 66.653809 
L 205.93687 68.444339 
L 209.441532 71.111821 
L 212.946194 52.810474 
L 216.450856 67.878572 
L 219.955517 63.571378 
L 223.460179 53.984451 
L 226.964841 80.872669 
L 230.469503 78.929283 
L 233.974165 57.748185 
L 237.478826 77.09682 
L 240.983488 70.795808 
L 244.48815 62.88186 
L 247.992812 64.241482 
L 251.497474 57.663126 
L 255.002135 59.636543 
L 258.506797 62.881277 
L 262.011459 76.903819 
L 265.516121 64.971069 
L 269.020783 68.629446 
L 272.525444 81.117633 
L 276.030106 60.232925 
L 279.534768 64.876875 
L 283.03943 70.675482 
L 286.544092 72.79612 
L 290.048753 80.143536 
L 293.553415 69.502937 
L 297.058077 67.455887 
L 300.562739 77.348727 
L 304.067401 62.174773 
L 307.572062 79.373952 
L 311.076724 87.183342 
L 314.581386 63.107099 
L 318.086048 74.092289 
L 321.590709 71.981133 
L 325.095371 77.397154 
L 328.600033 83.246759 
L 332.104695 61.46658 
L 335.609357 76.265609 
L 339.114018 58.378174 
L 342.61868 64.87633 
L 346.123342 73.417783 
L 349.628004 79.287928 
L 353.132666 76.59745 
L 356.637327 80.251797 
L 360.141989 55.134129 
L 363.646651 69.769996 
L 367.151313 62.266109 
L 370.655975 80.669169 
L 374.160636 69.643679 
L 377.665298 62.055581 
L 381.16996 73.571951 
L 384.674622 63.17266 
L 388.179284 79.27777 
L 391.683945 81.400855 
L 395.188607 68.133671 
L 398.693269 73.908151 
L 402.197931 66.134282 
L 405.702593 86.077948 
L 409.207254 65.599826 
L 412.711916 51.242817 
L 416.216578 71.209224 
L 419.72124 70.761866 
L 423.225902 69.654988 
L 426.730563 85.195595 
L 430.235225 67.777828 
L 433.739887 83.24255 
L 437.244549 74.27737 
L 440.749211 61.560727 
L 444.253872 76.618422 
L 447.758534 67.20613 
L 451.263196 63.312538 
L 454.767858 68.899918 
L 458.27252 81.457771 
L 461.777181 73.55265 
L 465.281843 56.106229 
L 468.786505 86.436925 
L 472.291167 73.121117 
L 475.795829 75.224551 
L 479.30049 70.102605 
L 482.805152 65.326158 
L 486.309814 58.776001 
L 489.814476 73.078842 
L 493.319138 64.838017 
L 496.823799 67.217616 
L 500.328461 67.410913 
L 503.833123 75.314496 
L 507.337785 78.613628 
L 510.842447 79.395571 
L 514.347108 76.779956 
L 517.85177 68.573005 
L 521.356432 65.229225 
L 524.861094 68.559438 
L 528.365756 75.20055 
L 531.870417 57.274263 
L 535.375079 59.459775 
L 538.879741 73.716503 
L 542.384403 51.915755 
L 545.889065 44.656358 
L 549.393726 36.000589 
L 552.898388 43.114496 
L 556.40305 41.410998 
L 559.907712 47.261995 
L 563.412374 42.174338 
L 566.917035 33.890124 
L 570.421697 47.472007 
L 573.926359 44.556692 
L 577.431021 43.715472 
L 580.935683 43.487798 
L 584.440344 56.395243 
L 587.945006 59.934787 
L 591.449668 53.40946 
L 594.95433 44.369168 
L 598.458991 41.431494 
L 601.963653 49.687216 
L 605.468315 35.163555 
L 608.972977 46.737479 
L 612.477639 45.492937 
L 615.9823 47.124089 
L 619.486962 44.627341 
L 622.991624 40.284952 
L 626.496286 40.580465 
L 630.000948 52.48661 
L 633.505609 34.049073 
L 637.010271 53.983206 
L 640.514933 45.044491 
L 644.019595 47.736363 
L 647.524257 53.632777 
L 651.028918 46.219424 
L 654.53358 51.286849 
L 658.038242 45.092599 
L 661.542904 42.579195 
L 665.047566 34.442888 
L 668.552227 43.307701 
L 672.056889 50.300389 
L 675.561551 48.628696 
L 679.066213 44.582038 
L 682.570875 44.93614 
L 686.075536 34.536824 
L 689.580198 35.025807 
L 693.08486 48.379898 
L 696.589522 49.82399 
L 700.094184 65.112534 
L 703.598845 49.826108 
L 707.103507 53.09281 
L 710.608169 48.348601 
L 714.112831 42.666749 
L 721.122154 45.875711 
L 724.626816 44.128318 
L 728.131478 46.607628 
L 731.63614 44.147829 
L 735.140802 70.243196 
L 738.645463 47.697517 
L 742.150125 46.491411 
L 745.654787 48.245358 
L 749.159449 47.306649 
L 752.664111 40.293812 
L 756.168772 50.200516 
L 759.673434 28.895286 
L 763.178096 40.408097 
L 766.682758 45.6956 
L 770.18742 47.220753 
L 773.692081 46.306217 
L 777.196743 52.615136 
L 780.701405 46.372293 
L 784.206067 43.526178 
L 787.710729 41.23597 
L 791.21539 41.234842 
L 794.720052 47.740025 
L 798.224714 56.427164 
L 801.729376 50.740966 
L 805.234038 33.375166 
L 808.738699 38.826564 
L 812.243361 42.833949 
L 815.748023 51.442752 
L 819.252685 45.619839 
L 819.252685 45.619839 
" clip-path="url(#p3bf0ab7f75)" style="fill: none; stroke: #000000; stroke-opacity: 0.5; stroke-width: 1.5; stroke-linecap: round"/>
   </g>
   <g id="line2d_12">
    <path d="M 542.384403 135.461165 
L 542.384403 23.82072 
" clip-path="url(#p3bf0ab7f75)" style="fill: none; stroke: #ff0000; stroke-opacity: 0.7; stroke-width: 1.5; stroke-linecap: round"/>
   </g>
   <g id="line2d_13">
    <path d="M 191.918223 135.461165 
L 191.918223 23.82072 
" clip-path="url(#p3bf0ab7f75)" style="fill: none; stroke: #ff0000; stroke-opacity: 0.7; stroke-width: 1.5; stroke-linecap: round"/>
   </g>
   <g id="patch_3">
    <path d="M 44.722428 135.461165 
L 44.722428 23.82072 
" style="fill: none; stroke: #ffffff; stroke-linejoin: miter; stroke-linecap: square"/>
   </g>
   <g id="patch_4">
    <path d="M 1004.99976 135.461165 
L 1004.99976 23.82072 
" style="fill: none; stroke: #ffffff; stroke-linejoin: miter; stroke-linecap: square"/>
   </g>
   <g id="patch_5">
    <path d="M 44.722428 135.461165 
L 1004.99976 135.461165 
" style="fill: none; stroke: #ffffff; stroke-linejoin: miter; stroke-linecap: square"/>
   </g>
   <g id="patch_6">
    <path d="M 44.722428 23.82072 
L 1004.99976 23.82072 
" style="fill: none; stroke: #ffffff; stroke-linejoin: miter; stroke-linecap: square"/>
   </g>
   <g id="legend_1">
    <g id="text_7">
     <!-- PELT method penalty= 40 -->
     <g style="fill: #262626" transform="translate(881.010697 68.037036) scale(0.1 -0.1)">
      <defs>
       <path id="ArialMT-45" d="M 506 0 
L 506 4581 
L 3819 4581 
L 3819 4041 
L 1113 4041 
L 1113 2638 
L 3647 2638 
L 3647 2100 
L 1113 2100 
L 1113 541 
L 3925 541 
L 3925 0 
L 506 0 
z
" transform="scale(0.015625)"/>
       <path id="ArialMT-4c" d="M 469 0 
L 469 4581 
L 1075 4581 
L 1075 541 
L 3331 541 
L 3331 0 
L 469 0 
z
" transform="scale(0.015625)"/>
       <path id="ArialMT-54" d="M 1659 0 
L 1659 4041 
L 150 4041 
L 150 4581 
L 3781 4581 
L 3781 4041 
L 2266 4041 
L 2266 0 
L 1659 0 
z
" transform="scale(0.015625)"/>
       <path id="ArialMT-6d" d="M 422 0 
L 422 3319 
L 925 3319 
L 925 2853 
Q 1081 3097 1340 3245 
Q 1600 3394 1931 3394 
Q 2300 3394 2536 3241 
Q 2772 3088 2869 2813 
Q 3263 3394 3894 3394 
Q 4388 3394 4653 3120 
Q 4919 2847 4919 2278 
L 4919 0 
L 4359 0 
L 4359 2091 
Q 4359 2428 4304 2576 
Q 4250 2725 4106 2815 
Q 3963 2906 3769 2906 
Q 3419 2906 3187 2673 
Q 2956 2441 2956 1928 
L 2956 0 
L 2394 0 
L 2394 2156 
Q 2394 2531 2256 2718 
Q 2119 2906 1806 2906 
Q 1569 2906 1367 2781 
Q 1166 2656 1075 2415 
Q 984 2175 984 1722 
L 984 0 
L 422 0 
z
" transform="scale(0.015625)"/>
       <path id="ArialMT-64" d="M 2575 0 
L 2575 419 
Q 2259 -75 1647 -75 
Q 1250 -75 917 144 
Q 584 363 401 755 
Q 219 1147 219 1656 
Q 219 2153 384 2558 
Q 550 2963 881 3178 
Q 1213 3394 1622 3394 
Q 1922 3394 2156 3267 
Q 2391 3141 2538 2938 
L 2538 4581 
L 3097 4581 
L 3097 0 
L 2575 0 
z
M 797 1656 
Q 797 1019 1065 703 
Q 1334 388 1700 388 
Q 2069 388 2326 689 
Q 2584 991 2584 1609 
Q 2584 2291 2321 2609 
Q 2059 2928 1675 2928 
Q 1300 2928 1048 2622 
Q 797 2316 797 1656 
z
" transform="scale(0.015625)"/>
       <path id="ArialMT-3d" d="M 3381 2694 
L 356 2694 
L 356 3219 
L 3381 3219 
L 3381 2694 
z
M 3381 1303 
L 356 1303 
L 356 1828 
L 3381 1828 
L 3381 1303 
z
" transform="scale(0.015625)"/>
       <path id="ArialMT-34" d="M 2069 0 
L 2069 1097 
L 81 1097 
L 81 1613 
L 2172 4581 
L 2631 4581 
L 2631 1613 
L 3250 1613 
L 3250 1097 
L 2631 1097 
L 2631 0 
L 2069 0 
z
M 2069 1613 
L 2069 3678 
L 634 1613 
L 2069 1613 
z
" transform="scale(0.015625)"/>
      </defs>
      <use xlink:href="#ArialMT-50"/>
      <use xlink:href="#ArialMT-45" x="66.699219"/>
      <use xlink:href="#ArialMT-4c" x="133.398438"/>
      <use xlink:href="#ArialMT-54" x="181.638672"/>
      <use xlink:href="#ArialMT-20" x="240.972656"/>
      <use xlink:href="#ArialMT-6d" x="268.755859"/>
      <use xlink:href="#ArialMT-65" x="352.056641"/>
      <use xlink:href="#ArialMT-74" x="407.671875"/>
      <use xlink:href="#ArialMT-68" x="435.455078"/>
      <use xlink:href="#ArialMT-6f" x="491.070312"/>
      <use xlink:href="#ArialMT-64" x="546.685547"/>
      <use xlink:href="#ArialMT-20" x="602.300781"/>
      <use xlink:href="#ArialMT-70" x="630.083984"/>
      <use xlink:href="#ArialMT-65" x="685.699219"/>
      <use xlink:href="#ArialMT-6e" x="741.314453"/>
      <use xlink:href="#ArialMT-61" x="796.929688"/>
      <use xlink:href="#ArialMT-6c" x="852.544922"/>
      <use xlink:href="#ArialMT-74" x="874.761719"/>
      <use xlink:href="#ArialMT-79" x="902.544922"/>
      <use xlink:href="#ArialMT-3d" x="952.544922"/>
      <use xlink:href="#ArialMT-20" x="1010.943359"/>
      <use xlink:href="#ArialMT-34" x="1038.726562"/>
      <use xlink:href="#ArialMT-30" x="1094.341797"/>
     </g>
    </g>
    <g id="line2d_14">
     <path d="M 894.391948 78.799536 
L 904.391948 78.799536 
L 914.391948 78.799536 
" style="fill: none; stroke: #000000; stroke-opacity: 0.5; stroke-width: 1.5; stroke-linecap: round"/>
    </g>
    <g id="text_8">
     <!-- dataseries -->
     <g style="fill: #262626" transform="translate(922.391948 82.299536) scale(0.1 -0.1)">
      <defs>
       <path id="ArialMT-73" d="M 197 991 
L 753 1078 
Q 800 744 1014 566 
Q 1228 388 1613 388 
Q 2000 388 2187 545 
Q 2375 703 2375 916 
Q 2375 1106 2209 1216 
Q 2094 1291 1634 1406 
Q 1016 1563 777 1677 
Q 538 1791 414 1992 
Q 291 2194 291 2438 
Q 291 2659 392 2848 
Q 494 3038 669 3163 
Q 800 3259 1026 3326 
Q 1253 3394 1513 3394 
Q 1903 3394 2198 3281 
Q 2494 3169 2634 2976 
Q 2775 2784 2828 2463 
L 2278 2388 
Q 2241 2644 2061 2787 
Q 1881 2931 1553 2931 
Q 1166 2931 1000 2803 
Q 834 2675 834 2503 
Q 834 2394 903 2306 
Q 972 2216 1119 2156 
Q 1203 2125 1616 2013 
Q 2213 1853 2448 1751 
Q 2684 1650 2818 1456 
Q 2953 1263 2953 975 
Q 2953 694 2789 445 
Q 2625 197 2315 61 
Q 2006 -75 1616 -75 
Q 969 -75 630 194 
Q 291 463 197 991 
z
" transform="scale(0.015625)"/>
      </defs>
      <use xlink:href="#ArialMT-64"/>
      <use xlink:href="#ArialMT-61" x="55.615234"/>
      <use xlink:href="#ArialMT-74" x="111.230469"/>
      <use xlink:href="#ArialMT-61" x="139.013672"/>
      <use xlink:href="#ArialMT-73" x="194.628906"/>
      <use xlink:href="#ArialMT-65" x="244.628906"/>
      <use xlink:href="#ArialMT-72" x="300.244141"/>
      <use xlink:href="#ArialMT-69" x="333.544922"/>
      <use xlink:href="#ArialMT-65" x="355.761719"/>
      <use xlink:href="#ArialMT-73" x="411.376953"/>
     </g>
    </g>
    <g id="line2d_15">
     <path d="M 894.391948 92.944849 
L 904.391948 92.944849 
L 914.391948 92.944849 
" style="fill: none; stroke: #ff0000; stroke-opacity: 0.7; stroke-width: 1.5; stroke-linecap: round"/>
    </g>
    <g id="text_9">
     <!-- PELT method -->
     <g style="fill: #262626" transform="translate(922.391948 96.444849) scale(0.1 -0.1)">
      <use xlink:href="#ArialMT-50"/>
      <use xlink:href="#ArialMT-45" x="66.699219"/>
      <use xlink:href="#ArialMT-4c" x="133.398438"/>
      <use xlink:href="#ArialMT-54" x="181.638672"/>
      <use xlink:href="#ArialMT-20" x="240.972656"/>
      <use xlink:href="#ArialMT-6d" x="268.755859"/>
      <use xlink:href="#ArialMT-65" x="352.056641"/>
      <use xlink:href="#ArialMT-74" x="407.671875"/>
      <use xlink:href="#ArialMT-68" x="435.455078"/>
      <use xlink:href="#ArialMT-6f" x="491.070312"/>
      <use xlink:href="#ArialMT-64" x="546.685547"/>
     </g>
    </g>
   </g>
  </g>
  <g id="axes_2">
   <g id="patch_7">
    <path d="M 44.722428 253.593198 
L 1004.99976 253.593198 
L 1004.99976 141.952753 
L 44.722428 141.952753 
z
" style="fill: #eaeaf2"/>
   </g>
   <g id="matplotlib.axis_3">
    <g id="xtick_6">
     <g id="line2d_16">
      <path d="M 51.731751 253.593198 
L 51.731751 141.952753 
" clip-path="url(#p2eb7a4917c)" style="fill: none; stroke: #ffffff; stroke-width: 0.8; stroke-linecap: round"/>
     </g>
     <g id="text_10">
      <!-- 0 -->
      <g style="fill: #262626" transform="translate(48.951282 267.75101) scale(0.1 -0.1)">
       <use xlink:href="#ArialMT-30"/>
      </g>
     </g>
    </g>
    <g id="xtick_7">
     <g id="line2d_17">
      <path d="M 226.964841 253.593198 
L 226.964841 141.952753 
" clip-path="url(#p2eb7a4917c)" style="fill: none; stroke: #ffffff; stroke-width: 0.8; stroke-linecap: round"/>
     </g>
     <g id="text_11">
      <!-- 50 -->
      <g style="fill: #262626" transform="translate(221.403903 267.75101) scale(0.1 -0.1)">
       <use xlink:href="#ArialMT-35"/>
       <use xlink:href="#ArialMT-30" x="55.615234"/>
      </g>
     </g>
    </g>
    <g id="xtick_8">
     <g id="line2d_18">
      <path d="M 402.197931 253.593198 
L 402.197931 141.952753 
" clip-path="url(#p2eb7a4917c)" style="fill: none; stroke: #ffffff; stroke-width: 0.8; stroke-linecap: round"/>
     </g>
     <g id="text_12">
      <!-- 100 -->
      <g style="fill: #262626" transform="translate(393.856525 267.75101) scale(0.1 -0.1)">
       <use xlink:href="#ArialMT-31"/>
       <use xlink:href="#ArialMT-30" x="55.615234"/>
       <use xlink:href="#ArialMT-30" x="111.230469"/>
      </g>
     </g>
    </g>
    <g id="xtick_9">
     <g id="line2d_19">
      <path d="M 577.431021 253.593198 
L 577.431021 141.952753 
" clip-path="url(#p2eb7a4917c)" style="fill: none; stroke: #ffffff; stroke-width: 0.8; stroke-linecap: round"/>
     </g>
     <g id="text_13">
      <!-- 150 -->
      <g style="fill: #262626" transform="translate(569.089614 267.75101) scale(0.1 -0.1)">
       <use xlink:href="#ArialMT-31"/>
       <use xlink:href="#ArialMT-35" x="55.615234"/>
       <use xlink:href="#ArialMT-30" x="111.230469"/>
      </g>
     </g>
    </g>
    <g id="xtick_10">
     <g id="line2d_20">
      <path d="M 752.664111 253.593198 
L 752.664111 141.952753 
" clip-path="url(#p2eb7a4917c)" style="fill: none; stroke: #ffffff; stroke-width: 0.8; stroke-linecap: round"/>
     </g>
     <g id="text_14">
      <!-- 200 -->
      <g style="fill: #262626" transform="translate(744.322704 267.75101) scale(0.1 -0.1)">
       <use xlink:href="#ArialMT-32"/>
       <use xlink:href="#ArialMT-30" x="55.615234"/>
       <use xlink:href="#ArialMT-30" x="111.230469"/>
      </g>
     </g>
    </g>
    <g id="text_15">
     <!-- Dataseries index (t) -->
     <g style="fill: #262626" transform="translate(472.844844 282.474135) scale(0.12 -0.12)">
      <defs>
       <path id="ArialMT-44" d="M 494 0 
L 494 4581 
L 2072 4581 
Q 2606 4581 2888 4516 
Q 3281 4425 3559 4188 
Q 3922 3881 4101 3404 
Q 4281 2928 4281 2316 
Q 4281 1794 4159 1391 
Q 4038 988 3847 723 
Q 3656 459 3429 307 
Q 3203 156 2883 78 
Q 2563 0 2147 0 
L 494 0 
z
M 1100 541 
L 2078 541 
Q 2531 541 2789 625 
Q 3047 709 3200 863 
Q 3416 1078 3536 1442 
Q 3656 1806 3656 2325 
Q 3656 3044 3420 3430 
Q 3184 3816 2847 3947 
Q 2603 4041 2063 4041 
L 1100 4041 
L 1100 541 
z
" transform="scale(0.015625)"/>
       <path id="ArialMT-78" d="M 47 0 
L 1259 1725 
L 138 3319 
L 841 3319 
L 1350 2541 
Q 1494 2319 1581 2169 
Q 1719 2375 1834 2534 
L 2394 3319 
L 3066 3319 
L 1919 1756 
L 3153 0 
L 2463 0 
L 1781 1031 
L 1600 1309 
L 728 0 
L 47 0 
z
" transform="scale(0.015625)"/>
       <path id="ArialMT-28" d="M 1497 -1347 
Q 1031 -759 709 28 
Q 388 816 388 1659 
Q 388 2403 628 3084 
Q 909 3875 1497 4659 
L 1900 4659 
Q 1522 4009 1400 3731 
Q 1209 3300 1100 2831 
Q 966 2247 966 1656 
Q 966 153 1900 -1347 
L 1497 -1347 
z
" transform="scale(0.015625)"/>
       <path id="ArialMT-29" d="M 791 -1347 
L 388 -1347 
Q 1322 153 1322 1656 
Q 1322 2244 1188 2822 
Q 1081 3291 891 3722 
Q 769 4003 388 4659 
L 791 4659 
Q 1378 3875 1659 3084 
Q 1900 2403 1900 1659 
Q 1900 816 1576 28 
Q 1253 -759 791 -1347 
z
" transform="scale(0.015625)"/>
      </defs>
      <use xlink:href="#ArialMT-44"/>
      <use xlink:href="#ArialMT-61" x="72.216797"/>
      <use xlink:href="#ArialMT-74" x="127.832031"/>
      <use xlink:href="#ArialMT-61" x="155.615234"/>
      <use xlink:href="#ArialMT-73" x="211.230469"/>
      <use xlink:href="#ArialMT-65" x="261.230469"/>
      <use xlink:href="#ArialMT-72" x="316.845703"/>
      <use xlink:href="#ArialMT-69" x="350.146484"/>
      <use xlink:href="#ArialMT-65" x="372.363281"/>
      <use xlink:href="#ArialMT-73" x="427.978516"/>
      <use xlink:href="#ArialMT-20" x="477.978516"/>
      <use xlink:href="#ArialMT-69" x="505.761719"/>
      <use xlink:href="#ArialMT-6e" x="527.978516"/>
      <use xlink:href="#ArialMT-64" x="583.59375"/>
      <use xlink:href="#ArialMT-65" x="639.208984"/>
      <use xlink:href="#ArialMT-78" x="694.824219"/>
      <use xlink:href="#ArialMT-20" x="744.824219"/>
      <use xlink:href="#ArialMT-28" x="772.607422"/>
      <use xlink:href="#ArialMT-74" x="805.908203"/>
      <use xlink:href="#ArialMT-29" x="833.691406"/>
     </g>
    </g>
   </g>
   <g id="matplotlib.axis_4">
    <g id="ytick_6">
     <g id="line2d_21">
      <path d="M 44.722428 248.518632 
L 1004.99976 248.518632 
" clip-path="url(#p2eb7a4917c)" style="fill: none; stroke: #ffffff; stroke-width: 0.8; stroke-linecap: round"/>
     </g>
     <g id="text_16">
      <!-- 0.00 -->
      <g style="fill: #262626" transform="translate(18.26149 252.097538) scale(0.1 -0.1)">
       <use xlink:href="#ArialMT-30"/>
       <use xlink:href="#ArialMT-2e" x="55.615234"/>
       <use xlink:href="#ArialMT-30" x="83.398438"/>
       <use xlink:href="#ArialMT-30" x="139.013672"/>
      </g>
     </g>
    </g>
    <g id="ytick_7">
     <g id="line2d_22">
      <path d="M 44.722428 223.145804 
L 1004.99976 223.145804 
" clip-path="url(#p2eb7a4917c)" style="fill: none; stroke: #ffffff; stroke-width: 0.8; stroke-linecap: round"/>
     </g>
     <g id="text_17">
      <!-- 0.25 -->
      <g style="fill: #262626" transform="translate(18.26149 226.72471) scale(0.1 -0.1)">
       <use xlink:href="#ArialMT-30"/>
       <use xlink:href="#ArialMT-2e" x="55.615234"/>
       <use xlink:href="#ArialMT-32" x="83.398438"/>
       <use xlink:href="#ArialMT-35" x="139.013672"/>
      </g>
     </g>
    </g>
    <g id="ytick_8">
     <g id="line2d_23">
      <path d="M 44.722428 197.772975 
L 1004.99976 197.772975 
" clip-path="url(#p2eb7a4917c)" style="fill: none; stroke: #ffffff; stroke-width: 0.8; stroke-linecap: round"/>
     </g>
     <g id="text_18">
      <!-- 0.50 -->
      <g style="fill: #262626" transform="translate(18.26149 201.351881) scale(0.1 -0.1)">
       <use xlink:href="#ArialMT-30"/>
       <use xlink:href="#ArialMT-2e" x="55.615234"/>
       <use xlink:href="#ArialMT-35" x="83.398438"/>
       <use xlink:href="#ArialMT-30" x="139.013672"/>
      </g>
     </g>
    </g>
    <g id="ytick_9">
     <g id="line2d_24">
      <path d="M 44.722428 172.400147 
L 1004.99976 172.400147 
" clip-path="url(#p2eb7a4917c)" style="fill: none; stroke: #ffffff; stroke-width: 0.8; stroke-linecap: round"/>
     </g>
     <g id="text_19">
      <!-- 0.75 -->
      <g style="fill: #262626" transform="translate(18.26149 175.979053) scale(0.1 -0.1)">
       <use xlink:href="#ArialMT-30"/>
       <use xlink:href="#ArialMT-2e" x="55.615234"/>
       <use xlink:href="#ArialMT-37" x="83.398438"/>
       <use xlink:href="#ArialMT-35" x="139.013672"/>
      </g>
     </g>
    </g>
    <g id="ytick_10">
     <g id="line2d_25">
      <path d="M 44.722428 147.027319 
L 1004.99976 147.027319 
" clip-path="url(#p2eb7a4917c)" style="fill: none; stroke: #ffffff; stroke-width: 0.8; stroke-linecap: round"/>
     </g>
     <g id="text_20">
      <!-- 1.00 -->
      <g style="fill: #262626" transform="translate(18.26149 150.606225) scale(0.1 -0.1)">
       <use xlink:href="#ArialMT-31"/>
       <use xlink:href="#ArialMT-2e" x="55.615234"/>
       <use xlink:href="#ArialMT-30" x="83.398438"/>
       <use xlink:href="#ArialMT-30" x="139.013672"/>
      </g>
     </g>
    </g>
   </g>
   <g id="line2d_26">
    <path d="M 51.731751 235.479158 
L 55.236413 219.623017 
L 58.741075 225.060959 
L 62.245736 238.68136 
L 65.750398 231.619515 
L 69.25506 214.64391 
L 72.759722 245.68756 
L 76.264384 230.480055 
L 79.769045 217.578436 
L 83.273707 233.81291 
L 86.778369 232.382916 
L 90.283031 227.936012 
L 93.787693 215.862228 
L 97.292354 232.078547 
L 100.797016 230.594766 
L 104.301678 230.521455 
L 107.80634 210.422965 
L 111.311002 210.568694 
L 114.815663 219.571951 
L 118.320325 224.275314 
L 121.824987 221.602027 
L 125.329649 215.867233 
L 128.834311 234.338867 
L 132.338972 218.264355 
L 135.843634 236.75992 
L 139.348296 232.069789 
L 142.852958 220.309949 
L 146.35762 238.090542 
L 149.862281 228.281302 
L 153.366943 233.77496 
L 156.871605 229.160902 
L 160.376267 248.518632 
L 163.880929 240.700422 
L 167.38559 232.542706 
L 170.890252 220.154984 
L 174.394914 228.536822 
L 177.899576 227.193399 
L 181.404238 221.976138 
L 184.908899 233.910316 
L 188.413561 225.05602 
L 191.918223 195.284451 
L 195.422885 202.305255 
L 198.927547 192.129425 
L 202.432208 184.785842 
L 205.93687 186.576372 
L 209.441532 189.243854 
L 212.946194 170.942507 
L 216.450856 186.010605 
L 219.955517 181.703411 
L 223.460179 172.116484 
L 226.964841 199.004702 
L 230.469503 197.061316 
L 233.974165 175.880218 
L 237.478826 195.228853 
L 240.983488 188.927841 
L 244.48815 181.013893 
L 247.992812 182.373515 
L 251.497474 175.795159 
L 255.002135 177.768575 
L 258.506797 181.01331 
L 262.011459 195.035852 
L 265.516121 183.103101 
L 269.020783 186.761479 
L 272.525444 199.249666 
L 276.030106 178.364958 
L 279.534768 183.008908 
L 283.03943 188.807515 
L 286.544092 190.928153 
L 290.048753 198.275569 
L 293.553415 187.63497 
L 297.058077 185.58792 
L 300.562739 195.480759 
L 304.067401 180.306806 
L 307.572062 197.505985 
L 311.076724 205.315375 
L 314.581386 181.239131 
L 318.086048 192.224322 
L 321.590709 190.113166 
L 325.095371 195.529187 
L 328.600033 201.378792 
L 332.104695 179.598613 
L 335.609357 194.397642 
L 339.114018 176.510206 
L 342.61868 183.008363 
L 346.123342 191.549816 
L 349.628004 197.419961 
L 353.132666 194.729483 
L 356.637327 198.38383 
L 360.141989 173.266162 
L 363.646651 187.902029 
L 367.151313 180.398142 
L 370.655975 198.801202 
L 374.160636 187.775712 
L 377.665298 180.187614 
L 381.16996 191.703984 
L 384.674622 181.304693 
L 388.179284 197.409803 
L 391.683945 199.532888 
L 395.188607 186.265704 
L 398.693269 192.040184 
L 402.197931 184.266314 
L 405.702593 204.209981 
L 409.207254 183.731859 
L 412.711916 169.37485 
L 416.216578 189.341257 
L 419.72124 188.893899 
L 423.225902 187.787021 
L 426.730563 203.327628 
L 430.235225 185.909861 
L 433.739887 201.374583 
L 437.244549 192.409403 
L 440.749211 179.69276 
L 444.253872 194.750455 
L 447.758534 185.338163 
L 451.263196 181.444571 
L 454.767858 187.031951 
L 458.27252 199.589804 
L 461.777181 191.684683 
L 465.281843 174.238262 
L 468.786505 204.568958 
L 472.291167 191.25315 
L 475.795829 193.356584 
L 479.30049 188.234638 
L 482.805152 183.458191 
L 486.309814 176.908034 
L 489.814476 191.210875 
L 493.319138 182.970049 
L 496.823799 185.349649 
L 500.328461 185.542946 
L 503.833123 193.446529 
L 507.337785 196.745661 
L 510.842447 197.527604 
L 514.347108 194.911989 
L 517.85177 186.705038 
L 521.356432 183.361258 
L 524.861094 186.691471 
L 528.365756 193.332582 
L 531.870417 175.406296 
L 535.375079 177.591808 
L 538.879741 191.848536 
L 542.384403 170.047788 
L 545.889065 162.788391 
L 549.393726 154.132622 
L 552.898388 161.246529 
L 556.40305 159.54303 
L 559.907712 165.394028 
L 563.412374 160.306371 
L 566.917035 152.022157 
L 570.421697 165.60404 
L 573.926359 162.688725 
L 577.431021 161.847505 
L 580.935683 161.619831 
L 584.440344 174.527276 
L 587.945006 178.066819 
L 591.449668 171.541493 
L 594.95433 162.501201 
L 598.458991 159.563527 
L 601.963653 167.819249 
L 605.468315 153.295587 
L 608.972977 164.869512 
L 612.477639 163.62497 
L 615.9823 165.256122 
L 619.486962 162.759374 
L 622.991624 158.416985 
L 626.496286 158.712498 
L 630.000948 170.618643 
L 633.505609 152.181106 
L 637.010271 172.115239 
L 640.514933 163.176524 
L 644.019595 165.868396 
L 647.524257 171.76481 
L 651.028918 164.351457 
L 654.53358 169.418882 
L 658.038242 163.224632 
L 661.542904 160.711228 
L 665.047566 152.574921 
L 668.552227 161.439734 
L 672.056889 168.432422 
L 675.561551 166.760729 
L 679.066213 162.714071 
L 682.570875 163.068173 
L 686.075536 152.668857 
L 689.580198 153.15784 
L 693.08486 166.511931 
L 696.589522 167.956023 
L 700.094184 183.244567 
L 703.598845 167.958141 
L 707.103507 171.224843 
L 710.608169 166.480634 
L 714.112831 160.798782 
L 721.122154 164.007744 
L 724.626816 162.260351 
L 728.131478 164.739661 
L 731.63614 162.279862 
L 735.140802 188.375229 
L 738.645463 165.82955 
L 742.150125 164.623444 
L 745.654787 166.377391 
L 749.159449 165.438682 
L 752.664111 158.425845 
L 756.168772 168.332549 
L 759.673434 147.027319 
L 763.178096 158.54013 
L 766.682758 163.827632 
L 770.18742 165.352786 
L 773.692081 164.43825 
L 777.196743 170.747169 
L 780.701405 164.504326 
L 784.206067 161.658211 
L 787.710729 159.368003 
L 791.21539 159.366875 
L 794.720052 165.872058 
L 798.224714 174.559197 
L 801.729376 168.872999 
L 805.234038 151.507199 
L 808.738699 156.958597 
L 812.243361 160.965982 
L 815.748023 169.574785 
L 819.252685 163.751872 
L 819.252685 163.751872 
" clip-path="url(#p2eb7a4917c)" style="fill: none; stroke: #000000; stroke-opacity: 0.5; stroke-width: 1.5; stroke-linecap: round"/>
   </g>
   <g id="line2d_27">
    <path d="M 191.918223 253.593198 
L 191.918223 141.952753 
" clip-path="url(#p2eb7a4917c)" style="fill: none; stroke: #008000; stroke-opacity: 0.7; stroke-width: 1.5; stroke-linecap: round"/>
   </g>
   <g id="line2d_28">
    <path d="M 542.384403 253.593198 
L 542.384403 141.952753 
" clip-path="url(#p2eb7a4917c)" style="fill: none; stroke: #008000; stroke-opacity: 0.7; stroke-width: 1.5; stroke-linecap: round"/>
   </g>
   <g id="patch_8">
    <path d="M 44.722428 253.593197 
L 44.722428 141.952753 
" style="fill: none; stroke: #ffffff; stroke-linejoin: miter; stroke-linecap: square"/>
   </g>
   <g id="patch_9">
    <path d="M 1004.99976 253.593197 
L 1004.99976 141.952753 
" style="fill: none; stroke: #ffffff; stroke-linejoin: miter; stroke-linecap: square"/>
   </g>
   <g id="patch_10">
    <path d="M 44.722428 253.593198 
L 1004.99976 253.593198 
" style="fill: none; stroke: #ffffff; stroke-linejoin: miter; stroke-linecap: square"/>
   </g>
   <g id="patch_11">
    <path d="M 44.722428 141.952753 
L 1004.99976 141.952753 
" style="fill: none; stroke: #ffffff; stroke-linejoin: miter; stroke-linecap: square"/>
   </g>
   <g id="legend_2">
    <g id="text_21">
     <!-- True Change Points t=40 &amp; t=140 -->
     <g style="fill: #262626" transform="translate(847.39351 193.287819) scale(0.1 -0.1)">
      <defs>
       <path id="ArialMT-75" d="M 2597 0 
L 2597 488 
Q 2209 -75 1544 -75 
Q 1250 -75 995 37 
Q 741 150 617 320 
Q 494 491 444 738 
Q 409 903 409 1263 
L 409 3319 
L 972 3319 
L 972 1478 
Q 972 1038 1006 884 
Q 1059 663 1231 536 
Q 1403 409 1656 409 
Q 1909 409 2131 539 
Q 2353 669 2445 892 
Q 2538 1116 2538 1541 
L 2538 3319 
L 3100 3319 
L 3100 0 
L 2597 0 
z
" transform="scale(0.015625)"/>
       <path id="ArialMT-26" d="M 3041 541 
Q 2763 231 2434 76 
Q 2106 -78 1725 -78 
Q 1022 -78 609 397 
Q 275 784 275 1263 
Q 275 1688 548 2030 
Q 822 2372 1366 2631 
Q 1056 2988 953 3209 
Q 850 3431 850 3638 
Q 850 4050 1173 4354 
Q 1497 4659 1988 4659 
Q 2456 4659 2754 4371 
Q 3053 4084 3053 3681 
Q 3053 3028 2188 2566 
L 3009 1519 
Q 3150 1794 3228 2156 
L 3813 2031 
Q 3663 1431 3406 1044 
Q 3722 625 4122 341 
L 3744 -106 
Q 3403 113 3041 541 
z
M 1897 2928 
Q 2263 3144 2370 3306 
Q 2478 3469 2478 3666 
Q 2478 3900 2329 4048 
Q 2181 4197 1959 4197 
Q 1731 4197 1579 4050 
Q 1428 3903 1428 3691 
Q 1428 3584 1483 3467 
Q 1538 3350 1647 3219 
L 1897 2928 
z
M 2688 984 
L 1656 2263 
Q 1200 1991 1040 1758 
Q 881 1525 881 1297 
Q 881 1019 1103 719 
Q 1325 419 1731 419 
Q 1984 419 2254 576 
Q 2525 734 2688 984 
z
" transform="scale(0.015625)"/>
      </defs>
      <use xlink:href="#ArialMT-54"/>
      <use xlink:href="#ArialMT-72" x="57.333984"/>
      <use xlink:href="#ArialMT-75" x="90.634766"/>
      <use xlink:href="#ArialMT-65" x="146.25"/>
      <use xlink:href="#ArialMT-20" x="201.865234"/>
      <use xlink:href="#ArialMT-43" x="229.648438"/>
      <use xlink:href="#ArialMT-68" x="301.865234"/>
      <use xlink:href="#ArialMT-61" x="357.480469"/>
      <use xlink:href="#ArialMT-6e" x="413.095703"/>
      <use xlink:href="#ArialMT-67" x="468.710938"/>
      <use xlink:href="#ArialMT-65" x="524.326172"/>
      <use xlink:href="#ArialMT-20" x="579.941406"/>
      <use xlink:href="#ArialMT-50" x="607.724609"/>
      <use xlink:href="#ArialMT-6f" x="674.423828"/>
      <use xlink:href="#ArialMT-69" x="730.039062"/>
      <use xlink:href="#ArialMT-6e" x="752.255859"/>
      <use xlink:href="#ArialMT-74" x="807.871094"/>
      <use xlink:href="#ArialMT-73" x="835.654297"/>
      <use xlink:href="#ArialMT-20" x="885.654297"/>
      <use xlink:href="#ArialMT-74" x="913.4375"/>
      <use xlink:href="#ArialMT-3d" x="941.220703"/>
      <use xlink:href="#ArialMT-34" x="999.619141"/>
      <use xlink:href="#ArialMT-30" x="1055.234375"/>
      <use xlink:href="#ArialMT-20" x="1110.849609"/>
      <use xlink:href="#ArialMT-26" x="1138.632812"/>
      <use xlink:href="#ArialMT-20" x="1205.332031"/>
      <use xlink:href="#ArialMT-74" x="1233.115234"/>
      <use xlink:href="#ArialMT-3d" x="1260.898438"/>
      <use xlink:href="#ArialMT-31" x="1319.296875"/>
      <use xlink:href="#ArialMT-34" x="1374.912109"/>
      <use xlink:href="#ArialMT-30" x="1430.527344"/>
     </g>
    </g>
    <g id="line2d_29">
     <path d="M 906.307572 204.050319 
L 916.307572 204.050319 
L 926.307572 204.050319 
" style="fill: none; stroke: #008000; stroke-opacity: 0.7; stroke-width: 1.5; stroke-linecap: round"/>
    </g>
    <g id="text_22">
     <!--   -->
     <g style="fill: #262626" transform="translate(934.307572 207.550319) scale(0.1 -0.1)">
      <use xlink:href="#ArialMT-20"/>
     </g>
    </g>
   </g>
  </g>
  <g id="text_23">
   <!-- PELT change-point analysis, penalty -->
   <g style="fill: #262626" transform="translate(374.8825 14.45274) scale(0.16 -0.16)">
    <defs>
     <path id="ArialMT-63" d="M 2588 1216 
L 3141 1144 
Q 3050 572 2676 248 
Q 2303 -75 1759 -75 
Q 1078 -75 664 370 
Q 250 816 250 1647 
Q 250 2184 428 2587 
Q 606 2991 970 3192 
Q 1334 3394 1763 3394 
Q 2303 3394 2647 3120 
Q 2991 2847 3088 2344 
L 2541 2259 
Q 2463 2594 2264 2762 
Q 2066 2931 1784 2931 
Q 1359 2931 1093 2626 
Q 828 2322 828 1663 
Q 828 994 1084 691 
Q 1341 388 1753 388 
Q 2084 388 2306 591 
Q 2528 794 2588 1216 
z
" transform="scale(0.015625)"/>
     <path id="ArialMT-2c" d="M 569 0 
L 569 641 
L 1209 641 
L 1209 0 
Q 1209 -353 1084 -570 
Q 959 -788 688 -906 
L 531 -666 
Q 709 -588 793 -436 
Q 878 -284 888 0 
L 569 0 
z
" transform="scale(0.015625)"/>
    </defs>
    <use xlink:href="#ArialMT-50"/>
    <use xlink:href="#ArialMT-45" x="66.699219"/>
    <use xlink:href="#ArialMT-4c" x="133.398438"/>
    <use xlink:href="#ArialMT-54" x="181.638672"/>
    <use xlink:href="#ArialMT-20" x="240.972656"/>
    <use xlink:href="#ArialMT-63" x="268.755859"/>
    <use xlink:href="#ArialMT-68" x="318.755859"/>
    <use xlink:href="#ArialMT-61" x="374.371094"/>
    <use xlink:href="#ArialMT-6e" x="429.986328"/>
    <use xlink:href="#ArialMT-67" x="485.601562"/>
    <use xlink:href="#ArialMT-65" x="541.216797"/>
    <use xlink:href="#ArialMT-2d" x="596.832031"/>
    <use xlink:href="#ArialMT-70" x="630.132812"/>
    <use xlink:href="#ArialMT-6f" x="685.748047"/>
    <use xlink:href="#ArialMT-69" x="741.363281"/>
    <use xlink:href="#ArialMT-6e" x="763.580078"/>
    <use xlink:href="#ArialMT-74" x="819.195312"/>
    <use xlink:href="#ArialMT-20" x="846.978516"/>
    <use xlink:href="#ArialMT-61" x="874.761719"/>
    <use xlink:href="#ArialMT-6e" x="930.376953"/>
    <use xlink:href="#ArialMT-61" x="985.992188"/>
    <use xlink:href="#ArialMT-6c" x="1041.607422"/>
    <use xlink:href="#ArialMT-79" x="1063.824219"/>
    <use xlink:href="#ArialMT-73" x="1113.824219"/>
    <use xlink:href="#ArialMT-69" x="1163.824219"/>
    <use xlink:href="#ArialMT-73" x="1186.041016"/>
    <use xlink:href="#ArialMT-2c" x="1236.041016"/>
    <use xlink:href="#ArialMT-20" x="1263.824219"/>
    <use xlink:href="#ArialMT-70" x="1291.607422"/>
    <use xlink:href="#ArialMT-65" x="1347.222656"/>
    <use xlink:href="#ArialMT-6e" x="1402.837891"/>
    <use xlink:href="#ArialMT-61" x="1458.453125"/>
    <use xlink:href="#ArialMT-6c" x="1514.068359"/>
    <use xlink:href="#ArialMT-74" x="1536.285156"/>
    <use xlink:href="#ArialMT-79" x="1564.068359"/>
   </g>
  </g>
 </g>
 <defs>
  <clipPath id="p3bf0ab7f75">
   <rect x="44.722428" y="23.82072" width="960.277333" height="111.640445"/>
  </clipPath>
  <clipPath id="p2eb7a4917c">
   <rect x="44.722428" y="141.952753" width="960.277333" height="111.640445"/>
  </clipPath>
 </defs>
</svg>
