<?xml version="1.0" encoding="utf-8" standalone="no"?>
<!DOCTYPE svg PUBLIC "-//W3C//DTD SVG 1.1//EN"
  "http://www.w3.org/Graphics/SVG/1.1/DTD/svg11.dtd">
<svg xmlns:xlink="http://www.w3.org/1999/xlink" width="1008pt" height="648pt" viewBox="0 0 1008 648" xmlns="http://www.w3.org/2000/svg" version="1.1">
 <metadata>
  <rdf:RDF xmlns:dc="http://purl.org/dc/elements/1.1/" xmlns:cc="http://creativecommons.org/ns#" xmlns:rdf="http://www.w3.org/1999/02/22-rdf-syntax-ns#">
   <cc:Work>
    <dc:type rdf:resource="http://purl.org/dc/dcmitype/StillImage"/>
    <dc:date>2023-09-10T21:10:06.523289</dc:date>
    <dc:format>image/svg+xml</dc:format>
    <dc:creator>
     <cc:Agent>
      <dc:title>Matplotlib v3.7.1, https://matplotlib.org/</dc:title>
     </cc:Agent>
    </dc:creator>
   </cc:Work>
  </rdf:RDF>
 </metadata>
 <defs>
  <style type="text/css">*{stroke-linejoin: round; stroke-linecap: butt}</style>
 </defs>
 <g id="figure_1">
  <g id="patch_1">
   <path d="M 0 648 
L 1008 648 
L 1008 0 
L 0 0 
z
" style="fill: #ffffff"/>
  </g>
  <g id="axes_1">
   <g id="patch_2">
    <path d="M 44.722428 136.786621 
L 1004.99976 136.786621 
L 1004.99976 24.02572 
L 44.722428 24.02572 
z
" style="fill: #eaeaf2"/>
   </g>
   <g id="matplotlib.axis_1">
    <g id="xtick_1">
     <g id="line2d_1">
      <path d="M 59.610448 136.786621 
L 59.610448 24.02572 
" clip-path="url(#pa8ef3b66d2)" style="fill: none; stroke: #ffffff; stroke-width: 0.8; stroke-linecap: round"/>
     </g>
    </g>
    <g id="xtick_2">
     <g id="line2d_2">
      <path d="M 245.710706 136.786621 
L 245.710706 24.02572 
" clip-path="url(#pa8ef3b66d2)" style="fill: none; stroke: #ffffff; stroke-width: 0.8; stroke-linecap: round"/>
     </g>
    </g>
    <g id="xtick_3">
     <g id="line2d_3">
      <path d="M 431.810965 136.786621 
L 431.810965 24.02572 
" clip-path="url(#pa8ef3b66d2)" style="fill: none; stroke: #ffffff; stroke-width: 0.8; stroke-linecap: round"/>
     </g>
    </g>
    <g id="xtick_4">
     <g id="line2d_4">
      <path d="M 617.911223 136.786621 
L 617.911223 24.02572 
" clip-path="url(#pa8ef3b66d2)" style="fill: none; stroke: #ffffff; stroke-width: 0.8; stroke-linecap: round"/>
     </g>
    </g>
    <g id="xtick_5">
     <g id="line2d_5">
      <path d="M 804.011481 136.786621 
L 804.011481 24.02572 
" clip-path="url(#pa8ef3b66d2)" style="fill: none; stroke: #ffffff; stroke-width: 0.8; stroke-linecap: round"/>
     </g>
    </g>
   </g>
   <g id="matplotlib.axis_2">
    <g id="ytick_1">
     <g id="line2d_6">
      <path d="M 44.722428 131.661126 
L 1004.99976 131.661126 
" clip-path="url(#pa8ef3b66d2)" style="fill: none; stroke: #ffffff; stroke-width: 0.8; stroke-linecap: round"/>
     </g>
     <g id="text_1">
      <!-- 0.00 -->
      <g style="fill: #262626" transform="translate(18.26149 135.240032) scale(0.1 -0.1)">
       <defs>
        <path id="ArialMT-30" d="M 266 2259 
Q 266 3072 433 3567 
Q 600 4063 929 4331 
Q 1259 4600 1759 4600 
Q 2128 4600 2406 4451 
Q 2684 4303 2865 4023 
Q 3047 3744 3150 3342 
Q 3253 2941 3253 2259 
Q 3253 1453 3087 958 
Q 2922 463 2592 192 
Q 2263 -78 1759 -78 
Q 1097 -78 719 397 
Q 266 969 266 2259 
z
M 844 2259 
Q 844 1131 1108 757 
Q 1372 384 1759 384 
Q 2147 384 2411 759 
Q 2675 1134 2675 2259 
Q 2675 3391 2411 3762 
Q 2147 4134 1753 4134 
Q 1366 4134 1134 3806 
Q 844 3388 844 2259 
z
" transform="scale(0.015625)"/>
        <path id="ArialMT-2e" d="M 581 0 
L 581 641 
L 1222 641 
L 1222 0 
L 581 0 
z
" transform="scale(0.015625)"/>
       </defs>
       <use xlink:href="#ArialMT-30"/>
       <use xlink:href="#ArialMT-2e" x="55.615234"/>
       <use xlink:href="#ArialMT-30" x="83.398438"/>
       <use xlink:href="#ArialMT-30" x="139.013672"/>
      </g>
     </g>
    </g>
    <g id="ytick_2">
     <g id="line2d_7">
      <path d="M 44.722428 106.033648 
L 1004.99976 106.033648 
" clip-path="url(#pa8ef3b66d2)" style="fill: none; stroke: #ffffff; stroke-width: 0.8; stroke-linecap: round"/>
     </g>
     <g id="text_2">
      <!-- 0.25 -->
      <g style="fill: #262626" transform="translate(18.26149 109.612554) scale(0.1 -0.1)">
       <defs>
        <path id="ArialMT-32" d="M 3222 541 
L 3222 0 
L 194 0 
Q 188 203 259 391 
Q 375 700 629 1000 
Q 884 1300 1366 1694 
Q 2113 2306 2375 2664 
Q 2638 3022 2638 3341 
Q 2638 3675 2398 3904 
Q 2159 4134 1775 4134 
Q 1369 4134 1125 3890 
Q 881 3647 878 3216 
L 300 3275 
Q 359 3922 746 4261 
Q 1134 4600 1788 4600 
Q 2447 4600 2831 4234 
Q 3216 3869 3216 3328 
Q 3216 3053 3103 2787 
Q 2991 2522 2730 2228 
Q 2469 1934 1863 1422 
Q 1356 997 1212 845 
Q 1069 694 975 541 
L 3222 541 
z
" transform="scale(0.015625)"/>
        <path id="ArialMT-35" d="M 266 1200 
L 856 1250 
Q 922 819 1161 601 
Q 1400 384 1738 384 
Q 2144 384 2425 690 
Q 2706 997 2706 1503 
Q 2706 1984 2436 2262 
Q 2166 2541 1728 2541 
Q 1456 2541 1237 2417 
Q 1019 2294 894 2097 
L 366 2166 
L 809 4519 
L 3088 4519 
L 3088 3981 
L 1259 3981 
L 1013 2750 
Q 1425 3038 1878 3038 
Q 2478 3038 2890 2622 
Q 3303 2206 3303 1553 
Q 3303 931 2941 478 
Q 2500 -78 1738 -78 
Q 1113 -78 717 272 
Q 322 622 266 1200 
z
" transform="scale(0.015625)"/>
       </defs>
       <use xlink:href="#ArialMT-30"/>
       <use xlink:href="#ArialMT-2e" x="55.615234"/>
       <use xlink:href="#ArialMT-32" x="83.398438"/>
       <use xlink:href="#ArialMT-35" x="139.013672"/>
      </g>
     </g>
    </g>
    <g id="ytick_3">
     <g id="line2d_8">
      <path d="M 44.722428 80.406171 
L 1004.99976 80.406171 
" clip-path="url(#pa8ef3b66d2)" style="fill: none; stroke: #ffffff; stroke-width: 0.8; stroke-linecap: round"/>
     </g>
     <g id="text_3">
      <!-- 0.50 -->
      <g style="fill: #262626" transform="translate(18.26149 83.985077) scale(0.1 -0.1)">
       <use xlink:href="#ArialMT-30"/>
       <use xlink:href="#ArialMT-2e" x="55.615234"/>
       <use xlink:href="#ArialMT-35" x="83.398438"/>
       <use xlink:href="#ArialMT-30" x="139.013672"/>
      </g>
     </g>
    </g>
    <g id="ytick_4">
     <g id="line2d_9">
      <path d="M 44.722428 54.778693 
L 1004.99976 54.778693 
" clip-path="url(#pa8ef3b66d2)" style="fill: none; stroke: #ffffff; stroke-width: 0.8; stroke-linecap: round"/>
     </g>
     <g id="text_4">
      <!-- 0.75 -->
      <g style="fill: #262626" transform="translate(18.26149 58.357599) scale(0.1 -0.1)">
       <defs>
        <path id="ArialMT-37" d="M 303 3981 
L 303 4522 
L 3269 4522 
L 3269 4084 
Q 2831 3619 2401 2847 
Q 1972 2075 1738 1259 
Q 1569 684 1522 0 
L 944 0 
Q 953 541 1156 1306 
Q 1359 2072 1739 2783 
Q 2119 3494 2547 3981 
L 303 3981 
z
" transform="scale(0.015625)"/>
       </defs>
       <use xlink:href="#ArialMT-30"/>
       <use xlink:href="#ArialMT-2e" x="55.615234"/>
       <use xlink:href="#ArialMT-37" x="83.398438"/>
       <use xlink:href="#ArialMT-35" x="139.013672"/>
      </g>
     </g>
    </g>
    <g id="ytick_5">
     <g id="line2d_10">
      <path d="M 44.722428 29.151216 
L 1004.99976 29.151216 
" clip-path="url(#pa8ef3b66d2)" style="fill: none; stroke: #ffffff; stroke-width: 0.8; stroke-linecap: round"/>
     </g>
     <g id="text_5">
      <!-- 1.00 -->
      <g style="fill: #262626" transform="translate(18.26149 32.730122) scale(0.1 -0.1)">
       <defs>
        <path id="ArialMT-31" d="M 2384 0 
L 1822 0 
L 1822 3584 
Q 1619 3391 1289 3197 
Q 959 3003 697 2906 
L 697 3450 
Q 1169 3672 1522 3987 
Q 1875 4303 2022 4600 
L 2384 4600 
L 2384 0 
z
" transform="scale(0.015625)"/>
       </defs>
       <use xlink:href="#ArialMT-31"/>
       <use xlink:href="#ArialMT-2e" x="55.615234"/>
       <use xlink:href="#ArialMT-30" x="83.398438"/>
       <use xlink:href="#ArialMT-30" x="139.013672"/>
      </g>
     </g>
    </g>
   </g>
   <g id="PolyCollection_1"/>
   <g id="PolyCollection_2"/>
   <g id="line2d_11">
    <path d="M 59.610448 131.661126 
L 60.354849 100.522526 
L 61.09925 111.514674 
L 61.843651 116.060033 
L 62.588052 118.623138 
L 63.332453 120.328206 
L 64.076854 121.577794 
L 64.821255 122.549573 
L 66.310057 123.98309 
L 67.79886 124.993599 
L 69.287662 125.739295 
L 71.520865 126.544585 
L 74.498469 127.277684 
L 78.220474 127.911645 
L 83.431281 128.528084 
L 89.386489 128.989783 
L 97.574901 129.37248 
L 117.673729 129.995605 
L 132.561749 130.272206 
L 158.615786 130.437326 
L 221.145472 130.840228 
L 256.132321 130.845614 
L 332.061226 131.159807 
L 386.402502 130.980542 
L 420.644949 131.197862 
L 469.775417 131.485721 
L 497.318256 131.413339 
L 574.735963 130.989628 
L 614.189218 131.312409 
L 657.364478 131.571103 
L 715.427758 131.653903 
L 803.26708 131.661126 
L 803.26708 131.661126 
" clip-path="url(#pa8ef3b66d2)" style="fill: none; stroke: #0000ff; stroke-opacity: 0.7; stroke-width: 1.5; stroke-linecap: round"/>
   </g>
   <g id="line2d_12">
    <path d="M 59.610448 131.661126 
L 803.26708 29.151216 
L 803.26708 29.151216 
" clip-path="url(#pa8ef3b66d2)" style="fill: none; stroke: #000000; stroke-opacity: 0.4; stroke-width: 1.5; stroke-linecap: round"/>
   </g>
   <g id="patch_3">
    <path d="M 44.722428 136.786621 
L 44.722428 24.02572 
" style="fill: none; stroke: #ffffff; stroke-linejoin: miter; stroke-linecap: square"/>
   </g>
   <g id="patch_4">
    <path d="M 1004.99976 136.786621 
L 1004.99976 24.02572 
" style="fill: none; stroke: #ffffff; stroke-linejoin: miter; stroke-linecap: square"/>
   </g>
   <g id="patch_5">
    <path d="M 44.722428 136.786621 
L 1004.99976 136.786621 
" style="fill: none; stroke: #ffffff; stroke-linejoin: miter; stroke-linecap: square"/>
   </g>
   <g id="patch_6">
    <path d="M 44.722428 24.02572 
L 1004.99976 24.02572 
" style="fill: none; stroke: #ffffff; stroke-linejoin: miter; stroke-linecap: square"/>
   </g>
   <g id="legend_1">
    <g id="patch_7">
     <path d="M 826.135697 96.171014 
L 997.99976 96.171014 
Q 999.99976 96.171014 999.99976 94.171014 
L 999.99976 66.641327 
Q 999.99976 64.641327 997.99976 64.641327 
L 826.135697 64.641327 
Q 824.135697 64.641327 824.135697 66.641327 
L 824.135697 94.171014 
Q 824.135697 96.171014 826.135697 96.171014 
z
" style="fill: #eaeaf2; opacity: 0.8; stroke: #cccccc; stroke-width: 0.5; stroke-linejoin: miter"/>
    </g>
    <g id="line2d_13">
     <path d="M 828.135697 72.421014 
L 838.135697 72.421014 
L 848.135697 72.421014 
" style="fill: none; stroke: #0000ff; stroke-opacity: 0.7; stroke-width: 1.5; stroke-linecap: round"/>
    </g>
    <g id="text_6">
     <!-- uniform   prior | full cov  method -->
     <g style="fill: #262626" transform="translate(856.135697 75.921014) scale(0.1 -0.1)">
      <defs>
       <path id="ArialMT-75" d="M 2597 0 
L 2597 488 
Q 2209 -75 1544 -75 
Q 1250 -75 995 37 
Q 741 150 617 320 
Q 494 491 444 738 
Q 409 903 409 1263 
L 409 3319 
L 972 3319 
L 972 1478 
Q 972 1038 1006 884 
Q 1059 663 1231 536 
Q 1403 409 1656 409 
Q 1909 409 2131 539 
Q 2353 669 2445 892 
Q 2538 1116 2538 1541 
L 2538 3319 
L 3100 3319 
L 3100 0 
L 2597 0 
z
" transform="scale(0.015625)"/>
       <path id="ArialMT-6e" d="M 422 0 
L 422 3319 
L 928 3319 
L 928 2847 
Q 1294 3394 1984 3394 
Q 2284 3394 2536 3286 
Q 2788 3178 2913 3003 
Q 3038 2828 3088 2588 
Q 3119 2431 3119 2041 
L 3119 0 
L 2556 0 
L 2556 2019 
Q 2556 2363 2490 2533 
Q 2425 2703 2258 2804 
Q 2091 2906 1866 2906 
Q 1506 2906 1245 2678 
Q 984 2450 984 1813 
L 984 0 
L 422 0 
z
" transform="scale(0.015625)"/>
       <path id="ArialMT-69" d="M 425 3934 
L 425 4581 
L 988 4581 
L 988 3934 
L 425 3934 
z
M 425 0 
L 425 3319 
L 988 3319 
L 988 0 
L 425 0 
z
" transform="scale(0.015625)"/>
       <path id="ArialMT-66" d="M 556 0 
L 556 2881 
L 59 2881 
L 59 3319 
L 556 3319 
L 556 3672 
Q 556 4006 616 4169 
Q 697 4388 901 4523 
Q 1106 4659 1475 4659 
Q 1713 4659 2000 4603 
L 1916 4113 
Q 1741 4144 1584 4144 
Q 1328 4144 1222 4034 
Q 1116 3925 1116 3625 
L 1116 3319 
L 1763 3319 
L 1763 2881 
L 1116 2881 
L 1116 0 
L 556 0 
z
" transform="scale(0.015625)"/>
       <path id="ArialMT-6f" d="M 213 1659 
Q 213 2581 725 3025 
Q 1153 3394 1769 3394 
Q 2453 3394 2887 2945 
Q 3322 2497 3322 1706 
Q 3322 1066 3130 698 
Q 2938 331 2570 128 
Q 2203 -75 1769 -75 
Q 1072 -75 642 372 
Q 213 819 213 1659 
z
M 791 1659 
Q 791 1022 1069 705 
Q 1347 388 1769 388 
Q 2188 388 2466 706 
Q 2744 1025 2744 1678 
Q 2744 2294 2464 2611 
Q 2184 2928 1769 2928 
Q 1347 2928 1069 2612 
Q 791 2297 791 1659 
z
" transform="scale(0.015625)"/>
       <path id="ArialMT-72" d="M 416 0 
L 416 3319 
L 922 3319 
L 922 2816 
Q 1116 3169 1280 3281 
Q 1444 3394 1641 3394 
Q 1925 3394 2219 3213 
L 2025 2691 
Q 1819 2813 1613 2813 
Q 1428 2813 1281 2702 
Q 1134 2591 1072 2394 
Q 978 2094 978 1738 
L 978 0 
L 416 0 
z
" transform="scale(0.015625)"/>
       <path id="ArialMT-6d" d="M 422 0 
L 422 3319 
L 925 3319 
L 925 2853 
Q 1081 3097 1340 3245 
Q 1600 3394 1931 3394 
Q 2300 3394 2536 3241 
Q 2772 3088 2869 2813 
Q 3263 3394 3894 3394 
Q 4388 3394 4653 3120 
Q 4919 2847 4919 2278 
L 4919 0 
L 4359 0 
L 4359 2091 
Q 4359 2428 4304 2576 
Q 4250 2725 4106 2815 
Q 3963 2906 3769 2906 
Q 3419 2906 3187 2673 
Q 2956 2441 2956 1928 
L 2956 0 
L 2394 0 
L 2394 2156 
Q 2394 2531 2256 2718 
Q 2119 2906 1806 2906 
Q 1569 2906 1367 2781 
Q 1166 2656 1075 2415 
Q 984 2175 984 1722 
L 984 0 
L 422 0 
z
" transform="scale(0.015625)"/>
       <path id="ArialMT-20" transform="scale(0.015625)"/>
       <path id="ArialMT-70" d="M 422 -1272 
L 422 3319 
L 934 3319 
L 934 2888 
Q 1116 3141 1344 3267 
Q 1572 3394 1897 3394 
Q 2322 3394 2647 3175 
Q 2972 2956 3137 2557 
Q 3303 2159 3303 1684 
Q 3303 1175 3120 767 
Q 2938 359 2589 142 
Q 2241 -75 1856 -75 
Q 1575 -75 1351 44 
Q 1128 163 984 344 
L 984 -1272 
L 422 -1272 
z
M 931 1641 
Q 931 1000 1190 694 
Q 1450 388 1819 388 
Q 2194 388 2461 705 
Q 2728 1022 2728 1688 
Q 2728 2322 2467 2637 
Q 2206 2953 1844 2953 
Q 1484 2953 1207 2617 
Q 931 2281 931 1641 
z
" transform="scale(0.015625)"/>
       <path id="ArialMT-7c" d="M 588 -1347 
L 588 4659 
L 1078 4659 
L 1078 -1347 
L 588 -1347 
z
" transform="scale(0.015625)"/>
       <path id="ArialMT-6c" d="M 409 0 
L 409 4581 
L 972 4581 
L 972 0 
L 409 0 
z
" transform="scale(0.015625)"/>
       <path id="ArialMT-63" d="M 2588 1216 
L 3141 1144 
Q 3050 572 2676 248 
Q 2303 -75 1759 -75 
Q 1078 -75 664 370 
Q 250 816 250 1647 
Q 250 2184 428 2587 
Q 606 2991 970 3192 
Q 1334 3394 1763 3394 
Q 2303 3394 2647 3120 
Q 2991 2847 3088 2344 
L 2541 2259 
Q 2463 2594 2264 2762 
Q 2066 2931 1784 2931 
Q 1359 2931 1093 2626 
Q 828 2322 828 1663 
Q 828 994 1084 691 
Q 1341 388 1753 388 
Q 2084 388 2306 591 
Q 2528 794 2588 1216 
z
" transform="scale(0.015625)"/>
       <path id="ArialMT-76" d="M 1344 0 
L 81 3319 
L 675 3319 
L 1388 1331 
Q 1503 1009 1600 663 
Q 1675 925 1809 1294 
L 2547 3319 
L 3125 3319 
L 1869 0 
L 1344 0 
z
" transform="scale(0.015625)"/>
       <path id="ArialMT-65" d="M 2694 1069 
L 3275 997 
Q 3138 488 2766 206 
Q 2394 -75 1816 -75 
Q 1088 -75 661 373 
Q 234 822 234 1631 
Q 234 2469 665 2931 
Q 1097 3394 1784 3394 
Q 2450 3394 2872 2941 
Q 3294 2488 3294 1666 
Q 3294 1616 3291 1516 
L 816 1516 
Q 847 969 1125 678 
Q 1403 388 1819 388 
Q 2128 388 2347 550 
Q 2566 713 2694 1069 
z
M 847 1978 
L 2700 1978 
Q 2663 2397 2488 2606 
Q 2219 2931 1791 2931 
Q 1403 2931 1139 2672 
Q 875 2413 847 1978 
z
" transform="scale(0.015625)"/>
       <path id="ArialMT-74" d="M 1650 503 
L 1731 6 
Q 1494 -44 1306 -44 
Q 1000 -44 831 53 
Q 663 150 594 308 
Q 525 466 525 972 
L 525 2881 
L 113 2881 
L 113 3319 
L 525 3319 
L 525 4141 
L 1084 4478 
L 1084 3319 
L 1650 3319 
L 1650 2881 
L 1084 2881 
L 1084 941 
Q 1084 700 1114 631 
Q 1144 563 1211 522 
Q 1278 481 1403 481 
Q 1497 481 1650 503 
z
" transform="scale(0.015625)"/>
       <path id="ArialMT-68" d="M 422 0 
L 422 4581 
L 984 4581 
L 984 2938 
Q 1378 3394 1978 3394 
Q 2347 3394 2619 3248 
Q 2891 3103 3008 2847 
Q 3125 2591 3125 2103 
L 3125 0 
L 2563 0 
L 2563 2103 
Q 2563 2525 2380 2717 
Q 2197 2909 1863 2909 
Q 1613 2909 1392 2779 
Q 1172 2650 1078 2428 
Q 984 2206 984 1816 
L 984 0 
L 422 0 
z
" transform="scale(0.015625)"/>
       <path id="ArialMT-64" d="M 2575 0 
L 2575 419 
Q 2259 -75 1647 -75 
Q 1250 -75 917 144 
Q 584 363 401 755 
Q 219 1147 219 1656 
Q 219 2153 384 2558 
Q 550 2963 881 3178 
Q 1213 3394 1622 3394 
Q 1922 3394 2156 3267 
Q 2391 3141 2538 2938 
L 2538 4581 
L 3097 4581 
L 3097 0 
L 2575 0 
z
M 797 1656 
Q 797 1019 1065 703 
Q 1334 388 1700 388 
Q 2069 388 2326 689 
Q 2584 991 2584 1609 
Q 2584 2291 2321 2609 
Q 2059 2928 1675 2928 
Q 1300 2928 1048 2622 
Q 797 2316 797 1656 
z
" transform="scale(0.015625)"/>
      </defs>
      <use xlink:href="#ArialMT-75"/>
      <use xlink:href="#ArialMT-6e" x="55.615234"/>
      <use xlink:href="#ArialMT-69" x="111.230469"/>
      <use xlink:href="#ArialMT-66" x="133.447266"/>
      <use xlink:href="#ArialMT-6f" x="161.230469"/>
      <use xlink:href="#ArialMT-72" x="216.845703"/>
      <use xlink:href="#ArialMT-6d" x="250.146484"/>
      <use xlink:href="#ArialMT-20" x="333.447266"/>
      <use xlink:href="#ArialMT-20" x="361.230469"/>
      <use xlink:href="#ArialMT-20" x="389.013672"/>
      <use xlink:href="#ArialMT-70" x="416.796875"/>
      <use xlink:href="#ArialMT-72" x="472.412109"/>
      <use xlink:href="#ArialMT-69" x="505.712891"/>
      <use xlink:href="#ArialMT-6f" x="527.929688"/>
      <use xlink:href="#ArialMT-72" x="583.544922"/>
      <use xlink:href="#ArialMT-20" x="616.845703"/>
      <use xlink:href="#ArialMT-7c" x="644.628906"/>
      <use xlink:href="#ArialMT-20" x="670.605469"/>
      <use xlink:href="#ArialMT-66" x="698.388672"/>
      <use xlink:href="#ArialMT-75" x="726.171875"/>
      <use xlink:href="#ArialMT-6c" x="781.787109"/>
      <use xlink:href="#ArialMT-6c" x="804.003906"/>
      <use xlink:href="#ArialMT-20" x="826.220703"/>
      <use xlink:href="#ArialMT-63" x="854.003906"/>
      <use xlink:href="#ArialMT-6f" x="904.003906"/>
      <use xlink:href="#ArialMT-76" x="959.619141"/>
      <use xlink:href="#ArialMT-20" x="1009.619141"/>
      <use xlink:href="#ArialMT-20" x="1037.402344"/>
      <use xlink:href="#ArialMT-6d" x="1065.185547"/>
      <use xlink:href="#ArialMT-65" x="1148.486328"/>
      <use xlink:href="#ArialMT-74" x="1204.101562"/>
      <use xlink:href="#ArialMT-68" x="1231.884766"/>
      <use xlink:href="#ArialMT-6f" x="1287.5"/>
      <use xlink:href="#ArialMT-64" x="1343.115234"/>
     </g>
    </g>
    <g id="line2d_14">
     <path d="M 828.135697 86.683514 
L 838.135697 86.683514 
L 848.135697 86.683514 
" style="fill: none; stroke: #000000; stroke-opacity: 0.4; stroke-width: 1.5; stroke-linecap: round"/>
    </g>
    <g id="text_7">
     <!-- dataseries -->
     <g style="fill: #262626" transform="translate(856.135697 90.183514) scale(0.1 -0.1)">
      <defs>
       <path id="ArialMT-61" d="M 2588 409 
Q 2275 144 1986 34 
Q 1697 -75 1366 -75 
Q 819 -75 525 192 
Q 231 459 231 875 
Q 231 1119 342 1320 
Q 453 1522 633 1644 
Q 813 1766 1038 1828 
Q 1203 1872 1538 1913 
Q 2219 1994 2541 2106 
Q 2544 2222 2544 2253 
Q 2544 2597 2384 2738 
Q 2169 2928 1744 2928 
Q 1347 2928 1158 2789 
Q 969 2650 878 2297 
L 328 2372 
Q 403 2725 575 2942 
Q 747 3159 1072 3276 
Q 1397 3394 1825 3394 
Q 2250 3394 2515 3294 
Q 2781 3194 2906 3042 
Q 3031 2891 3081 2659 
Q 3109 2516 3109 2141 
L 3109 1391 
Q 3109 606 3145 398 
Q 3181 191 3288 0 
L 2700 0 
Q 2613 175 2588 409 
z
M 2541 1666 
Q 2234 1541 1622 1453 
Q 1275 1403 1131 1340 
Q 988 1278 909 1158 
Q 831 1038 831 891 
Q 831 666 1001 516 
Q 1172 366 1500 366 
Q 1825 366 2078 508 
Q 2331 650 2450 897 
Q 2541 1088 2541 1459 
L 2541 1666 
z
" transform="scale(0.015625)"/>
       <path id="ArialMT-73" d="M 197 991 
L 753 1078 
Q 800 744 1014 566 
Q 1228 388 1613 388 
Q 2000 388 2187 545 
Q 2375 703 2375 916 
Q 2375 1106 2209 1216 
Q 2094 1291 1634 1406 
Q 1016 1563 777 1677 
Q 538 1791 414 1992 
Q 291 2194 291 2438 
Q 291 2659 392 2848 
Q 494 3038 669 3163 
Q 800 3259 1026 3326 
Q 1253 3394 1513 3394 
Q 1903 3394 2198 3281 
Q 2494 3169 2634 2976 
Q 2775 2784 2828 2463 
L 2278 2388 
Q 2241 2644 2061 2787 
Q 1881 2931 1553 2931 
Q 1166 2931 1000 2803 
Q 834 2675 834 2503 
Q 834 2394 903 2306 
Q 972 2216 1119 2156 
Q 1203 2125 1616 2013 
Q 2213 1853 2448 1751 
Q 2684 1650 2818 1456 
Q 2953 1263 2953 975 
Q 2953 694 2789 445 
Q 2625 197 2315 61 
Q 2006 -75 1616 -75 
Q 969 -75 630 194 
Q 291 463 197 991 
z
" transform="scale(0.015625)"/>
      </defs>
      <use xlink:href="#ArialMT-64"/>
      <use xlink:href="#ArialMT-61" x="55.615234"/>
      <use xlink:href="#ArialMT-74" x="111.230469"/>
      <use xlink:href="#ArialMT-61" x="139.013672"/>
      <use xlink:href="#ArialMT-73" x="194.628906"/>
      <use xlink:href="#ArialMT-65" x="244.628906"/>
      <use xlink:href="#ArialMT-72" x="300.244141"/>
      <use xlink:href="#ArialMT-69" x="333.544922"/>
      <use xlink:href="#ArialMT-65" x="355.761719"/>
      <use xlink:href="#ArialMT-73" x="411.376953"/>
     </g>
    </g>
   </g>
  </g>
  <g id="axes_2">
   <g id="patch_8">
    <path d="M 44.722428 255.988265 
L 1004.99976 255.988265 
L 1004.99976 143.227364 
L 44.722428 143.227364 
z
" style="fill: #eaeaf2"/>
   </g>
   <g id="matplotlib.axis_3">
    <g id="xtick_6">
     <g id="line2d_15">
      <path d="M 59.610448 255.988265 
L 59.610448 143.227364 
" clip-path="url(#p2c6902c4e2)" style="fill: none; stroke: #ffffff; stroke-width: 0.8; stroke-linecap: round"/>
     </g>
    </g>
    <g id="xtick_7">
     <g id="line2d_16">
      <path d="M 245.710706 255.988265 
L 245.710706 143.227364 
" clip-path="url(#p2c6902c4e2)" style="fill: none; stroke: #ffffff; stroke-width: 0.8; stroke-linecap: round"/>
     </g>
    </g>
    <g id="xtick_8">
     <g id="line2d_17">
      <path d="M 431.810965 255.988265 
L 431.810965 143.227364 
" clip-path="url(#p2c6902c4e2)" style="fill: none; stroke: #ffffff; stroke-width: 0.8; stroke-linecap: round"/>
     </g>
    </g>
    <g id="xtick_9">
     <g id="line2d_18">
      <path d="M 617.911223 255.988265 
L 617.911223 143.227364 
" clip-path="url(#p2c6902c4e2)" style="fill: none; stroke: #ffffff; stroke-width: 0.8; stroke-linecap: round"/>
     </g>
    </g>
    <g id="xtick_10">
     <g id="line2d_19">
      <path d="M 804.011481 255.988265 
L 804.011481 143.227364 
" clip-path="url(#p2c6902c4e2)" style="fill: none; stroke: #ffffff; stroke-width: 0.8; stroke-linecap: round"/>
     </g>
    </g>
   </g>
   <g id="matplotlib.axis_4">
    <g id="ytick_6">
     <g id="line2d_20">
      <path d="M 44.722428 250.86277 
L 1004.99976 250.86277 
" clip-path="url(#p2c6902c4e2)" style="fill: none; stroke: #ffffff; stroke-width: 0.8; stroke-linecap: round"/>
     </g>
     <g id="text_8">
      <!-- 0.00 -->
      <g style="fill: #262626" transform="translate(18.26149 254.441676) scale(0.1 -0.1)">
       <use xlink:href="#ArialMT-30"/>
       <use xlink:href="#ArialMT-2e" x="55.615234"/>
       <use xlink:href="#ArialMT-30" x="83.398438"/>
       <use xlink:href="#ArialMT-30" x="139.013672"/>
      </g>
     </g>
    </g>
    <g id="ytick_7">
     <g id="line2d_21">
      <path d="M 44.722428 225.235292 
L 1004.99976 225.235292 
" clip-path="url(#p2c6902c4e2)" style="fill: none; stroke: #ffffff; stroke-width: 0.8; stroke-linecap: round"/>
     </g>
     <g id="text_9">
      <!-- 0.25 -->
      <g style="fill: #262626" transform="translate(18.26149 228.814199) scale(0.1 -0.1)">
       <use xlink:href="#ArialMT-30"/>
       <use xlink:href="#ArialMT-2e" x="55.615234"/>
       <use xlink:href="#ArialMT-32" x="83.398438"/>
       <use xlink:href="#ArialMT-35" x="139.013672"/>
      </g>
     </g>
    </g>
    <g id="ytick_8">
     <g id="line2d_22">
      <path d="M 44.722428 199.607815 
L 1004.99976 199.607815 
" clip-path="url(#p2c6902c4e2)" style="fill: none; stroke: #ffffff; stroke-width: 0.8; stroke-linecap: round"/>
     </g>
     <g id="text_10">
      <!-- 0.50 -->
      <g style="fill: #262626" transform="translate(18.26149 203.186721) scale(0.1 -0.1)">
       <use xlink:href="#ArialMT-30"/>
       <use xlink:href="#ArialMT-2e" x="55.615234"/>
       <use xlink:href="#ArialMT-35" x="83.398438"/>
       <use xlink:href="#ArialMT-30" x="139.013672"/>
      </g>
     </g>
    </g>
    <g id="ytick_9">
     <g id="line2d_23">
      <path d="M 44.722428 173.980337 
L 1004.99976 173.980337 
" clip-path="url(#p2c6902c4e2)" style="fill: none; stroke: #ffffff; stroke-width: 0.8; stroke-linecap: round"/>
     </g>
     <g id="text_11">
      <!-- 0.75 -->
      <g style="fill: #262626" transform="translate(18.26149 177.559243) scale(0.1 -0.1)">
       <use xlink:href="#ArialMT-30"/>
       <use xlink:href="#ArialMT-2e" x="55.615234"/>
       <use xlink:href="#ArialMT-37" x="83.398438"/>
       <use xlink:href="#ArialMT-35" x="139.013672"/>
      </g>
     </g>
    </g>
    <g id="ytick_10">
     <g id="line2d_24">
      <path d="M 44.722428 148.35286 
L 1004.99976 148.35286 
" clip-path="url(#p2c6902c4e2)" style="fill: none; stroke: #ffffff; stroke-width: 0.8; stroke-linecap: round"/>
     </g>
     <g id="text_12">
      <!-- 1.00 -->
      <g style="fill: #262626" transform="translate(18.26149 151.931766) scale(0.1 -0.1)">
       <use xlink:href="#ArialMT-31"/>
       <use xlink:href="#ArialMT-2e" x="55.615234"/>
       <use xlink:href="#ArialMT-30" x="83.398438"/>
       <use xlink:href="#ArialMT-30" x="139.013672"/>
      </g>
     </g>
    </g>
   </g>
   <g id="PolyCollection_3"/>
   <g id="PolyCollection_4"/>
   <g id="line2d_25">
    <path d="M 59.610448 250.86277 
L 60.354849 243.314523 
L 61.09925 243.67 
L 64.076854 243.445924 
L 65.565656 243.783523 
L 67.054458 244.402403 
L 71.520865 246.536967 
L 73.754068 247.269199 
L 75.987271 247.726403 
L 78.964875 248.030749 
L 83.431281 248.182804 
L 90.875292 248.428418 
L 110.974119 249.397686 
L 120.651333 249.458704 
L 140.750161 249.530805 
L 183.925421 250.100203 
L 233.055889 250.011988 
L 290.374768 250.488805 
L 316.428805 250.298436 
L 347.693648 250.110034 
L 371.514481 250.210607 
L 452.654194 250.756699 
L 479.452631 250.635083 
L 547.937526 250.133594 
L 576.224765 250.366806 
L 623.12203 250.745084 
L 670.019295 250.849009 
L 803.26708 250.86277 
L 803.26708 250.86277 
" clip-path="url(#p2c6902c4e2)" style="fill: none; stroke: #0000ff; stroke-opacity: 0.7; stroke-width: 1.5; stroke-linecap: round"/>
   </g>
   <g id="line2d_26">
    <path d="M 59.610448 250.86277 
L 803.26708 148.35286 
L 803.26708 148.35286 
" clip-path="url(#p2c6902c4e2)" style="fill: none; stroke: #000000; stroke-opacity: 0.4; stroke-width: 1.5; stroke-linecap: round"/>
   </g>
   <g id="patch_9">
    <path d="M 44.722428 255.988265 
L 44.722428 143.227364 
" style="fill: none; stroke: #ffffff; stroke-linejoin: miter; stroke-linecap: square"/>
   </g>
   <g id="patch_10">
    <path d="M 1004.99976 255.988265 
L 1004.99976 143.227364 
" style="fill: none; stroke: #ffffff; stroke-linejoin: miter; stroke-linecap: square"/>
   </g>
   <g id="patch_11">
    <path d="M 44.722428 255.988265 
L 1004.99976 255.988265 
" style="fill: none; stroke: #ffffff; stroke-linejoin: miter; stroke-linecap: square"/>
   </g>
   <g id="patch_12">
    <path d="M 44.722428 143.227364 
L 1004.99976 143.227364 
" style="fill: none; stroke: #ffffff; stroke-linejoin: miter; stroke-linecap: square"/>
   </g>
   <g id="legend_2">
    <g id="patch_13">
     <path d="M 821.13101 215.372658 
L 997.99976 215.372658 
Q 999.99976 215.372658 999.99976 213.372658 
L 999.99976 185.842971 
Q 999.99976 183.842971 997.99976 183.842971 
L 821.13101 183.842971 
Q 819.13101 183.842971 819.13101 185.842971 
L 819.13101 213.372658 
Q 819.13101 215.372658 821.13101 215.372658 
z
" style="fill: #eaeaf2; opacity: 0.8; stroke: #cccccc; stroke-width: 0.5; stroke-linejoin: miter"/>
    </g>
    <g id="line2d_27">
     <path d="M 823.13101 191.622658 
L 833.13101 191.622658 
L 843.13101 191.622658 
" style="fill: none; stroke: #0000ff; stroke-opacity: 0.7; stroke-width: 1.5; stroke-linecap: round"/>
    </g>
    <g id="text_13">
     <!-- geometric prior | full cov  method -->
     <g style="fill: #262626" transform="translate(851.13101 195.122658) scale(0.1 -0.1)">
      <defs>
       <path id="ArialMT-67" d="M 319 -275 
L 866 -356 
Q 900 -609 1056 -725 
Q 1266 -881 1628 -881 
Q 2019 -881 2231 -725 
Q 2444 -569 2519 -288 
Q 2563 -116 2559 434 
Q 2191 0 1641 0 
Q 956 0 581 494 
Q 206 988 206 1678 
Q 206 2153 378 2554 
Q 550 2956 876 3175 
Q 1203 3394 1644 3394 
Q 2231 3394 2613 2919 
L 2613 3319 
L 3131 3319 
L 3131 450 
Q 3131 -325 2973 -648 
Q 2816 -972 2473 -1159 
Q 2131 -1347 1631 -1347 
Q 1038 -1347 672 -1080 
Q 306 -813 319 -275 
z
M 784 1719 
Q 784 1066 1043 766 
Q 1303 466 1694 466 
Q 2081 466 2343 764 
Q 2606 1063 2606 1700 
Q 2606 2309 2336 2618 
Q 2066 2928 1684 2928 
Q 1309 2928 1046 2623 
Q 784 2319 784 1719 
z
" transform="scale(0.015625)"/>
      </defs>
      <use xlink:href="#ArialMT-67"/>
      <use xlink:href="#ArialMT-65" x="55.615234"/>
      <use xlink:href="#ArialMT-6f" x="111.230469"/>
      <use xlink:href="#ArialMT-6d" x="166.845703"/>
      <use xlink:href="#ArialMT-65" x="250.146484"/>
      <use xlink:href="#ArialMT-74" x="305.761719"/>
      <use xlink:href="#ArialMT-72" x="333.544922"/>
      <use xlink:href="#ArialMT-69" x="366.845703"/>
      <use xlink:href="#ArialMT-63" x="389.0625"/>
      <use xlink:href="#ArialMT-20" x="439.0625"/>
      <use xlink:href="#ArialMT-70" x="466.845703"/>
      <use xlink:href="#ArialMT-72" x="522.460938"/>
      <use xlink:href="#ArialMT-69" x="555.761719"/>
      <use xlink:href="#ArialMT-6f" x="577.978516"/>
      <use xlink:href="#ArialMT-72" x="633.59375"/>
      <use xlink:href="#ArialMT-20" x="666.894531"/>
      <use xlink:href="#ArialMT-7c" x="694.677734"/>
      <use xlink:href="#ArialMT-20" x="720.654297"/>
      <use xlink:href="#ArialMT-66" x="748.4375"/>
      <use xlink:href="#ArialMT-75" x="776.220703"/>
      <use xlink:href="#ArialMT-6c" x="831.835938"/>
      <use xlink:href="#ArialMT-6c" x="854.052734"/>
      <use xlink:href="#ArialMT-20" x="876.269531"/>
      <use xlink:href="#ArialMT-63" x="904.052734"/>
      <use xlink:href="#ArialMT-6f" x="954.052734"/>
      <use xlink:href="#ArialMT-76" x="1009.667969"/>
      <use xlink:href="#ArialMT-20" x="1059.667969"/>
      <use xlink:href="#ArialMT-20" x="1087.451172"/>
      <use xlink:href="#ArialMT-6d" x="1115.234375"/>
      <use xlink:href="#ArialMT-65" x="1198.535156"/>
      <use xlink:href="#ArialMT-74" x="1254.150391"/>
      <use xlink:href="#ArialMT-68" x="1281.933594"/>
      <use xlink:href="#ArialMT-6f" x="1337.548828"/>
      <use xlink:href="#ArialMT-64" x="1393.164062"/>
     </g>
    </g>
    <g id="line2d_28">
     <path d="M 823.13101 205.885158 
L 833.13101 205.885158 
L 843.13101 205.885158 
" style="fill: none; stroke: #000000; stroke-opacity: 0.4; stroke-width: 1.5; stroke-linecap: round"/>
    </g>
    <g id="text_14">
     <!-- dataseries -->
     <g style="fill: #262626" transform="translate(851.13101 209.385158) scale(0.1 -0.1)">
      <use xlink:href="#ArialMT-64"/>
      <use xlink:href="#ArialMT-61" x="55.615234"/>
      <use xlink:href="#ArialMT-74" x="111.230469"/>
      <use xlink:href="#ArialMT-61" x="139.013672"/>
      <use xlink:href="#ArialMT-73" x="194.628906"/>
      <use xlink:href="#ArialMT-65" x="244.628906"/>
      <use xlink:href="#ArialMT-72" x="300.244141"/>
      <use xlink:href="#ArialMT-69" x="333.544922"/>
      <use xlink:href="#ArialMT-65" x="355.761719"/>
      <use xlink:href="#ArialMT-73" x="411.376953"/>
     </g>
    </g>
   </g>
  </g>
  <g id="axes_3">
   <g id="patch_14">
    <path d="M 44.722428 375.189909 
L 1004.99976 375.189909 
L 1004.99976 262.429008 
L 44.722428 262.429008 
z
" style="fill: #eaeaf2"/>
   </g>
   <g id="matplotlib.axis_5">
    <g id="xtick_11">
     <g id="line2d_29">
      <path d="M 59.610448 375.189909 
L 59.610448 262.429008 
" clip-path="url(#p2ad19bc79a)" style="fill: none; stroke: #ffffff; stroke-width: 0.8; stroke-linecap: round"/>
     </g>
    </g>
    <g id="xtick_12">
     <g id="line2d_30">
      <path d="M 245.710706 375.189909 
L 245.710706 262.429008 
" clip-path="url(#p2ad19bc79a)" style="fill: none; stroke: #ffffff; stroke-width: 0.8; stroke-linecap: round"/>
     </g>
    </g>
    <g id="xtick_13">
     <g id="line2d_31">
      <path d="M 431.810965 375.189909 
L 431.810965 262.429008 
" clip-path="url(#p2ad19bc79a)" style="fill: none; stroke: #ffffff; stroke-width: 0.8; stroke-linecap: round"/>
     </g>
    </g>
    <g id="xtick_14">
     <g id="line2d_32">
      <path d="M 617.911223 375.189909 
L 617.911223 262.429008 
" clip-path="url(#p2ad19bc79a)" style="fill: none; stroke: #ffffff; stroke-width: 0.8; stroke-linecap: round"/>
     </g>
    </g>
    <g id="xtick_15">
     <g id="line2d_33">
      <path d="M 804.011481 375.189909 
L 804.011481 262.429008 
" clip-path="url(#p2ad19bc79a)" style="fill: none; stroke: #ffffff; stroke-width: 0.8; stroke-linecap: round"/>
     </g>
    </g>
   </g>
   <g id="matplotlib.axis_6">
    <g id="ytick_11">
     <g id="line2d_34">
      <path d="M 44.722428 370.064414 
L 1004.99976 370.064414 
" clip-path="url(#p2ad19bc79a)" style="fill: none; stroke: #ffffff; stroke-width: 0.8; stroke-linecap: round"/>
     </g>
     <g id="text_15">
      <!-- 0.00 -->
      <g style="fill: #262626" transform="translate(18.26149 373.64332) scale(0.1 -0.1)">
       <use xlink:href="#ArialMT-30"/>
       <use xlink:href="#ArialMT-2e" x="55.615234"/>
       <use xlink:href="#ArialMT-30" x="83.398438"/>
       <use xlink:href="#ArialMT-30" x="139.013672"/>
      </g>
     </g>
    </g>
    <g id="ytick_12">
     <g id="line2d_35">
      <path d="M 44.722428 344.436936 
L 1004.99976 344.436936 
" clip-path="url(#p2ad19bc79a)" style="fill: none; stroke: #ffffff; stroke-width: 0.8; stroke-linecap: round"/>
     </g>
     <g id="text_16">
      <!-- 0.25 -->
      <g style="fill: #262626" transform="translate(18.26149 348.015843) scale(0.1 -0.1)">
       <use xlink:href="#ArialMT-30"/>
       <use xlink:href="#ArialMT-2e" x="55.615234"/>
       <use xlink:href="#ArialMT-32" x="83.398438"/>
       <use xlink:href="#ArialMT-35" x="139.013672"/>
      </g>
     </g>
    </g>
    <g id="ytick_13">
     <g id="line2d_36">
      <path d="M 44.722428 318.809459 
L 1004.99976 318.809459 
" clip-path="url(#p2ad19bc79a)" style="fill: none; stroke: #ffffff; stroke-width: 0.8; stroke-linecap: round"/>
     </g>
     <g id="text_17">
      <!-- 0.50 -->
      <g style="fill: #262626" transform="translate(18.26149 322.388365) scale(0.1 -0.1)">
       <use xlink:href="#ArialMT-30"/>
       <use xlink:href="#ArialMT-2e" x="55.615234"/>
       <use xlink:href="#ArialMT-35" x="83.398438"/>
       <use xlink:href="#ArialMT-30" x="139.013672"/>
      </g>
     </g>
    </g>
    <g id="ytick_14">
     <g id="line2d_37">
      <path d="M 44.722428 293.181981 
L 1004.99976 293.181981 
" clip-path="url(#p2ad19bc79a)" style="fill: none; stroke: #ffffff; stroke-width: 0.8; stroke-linecap: round"/>
     </g>
     <g id="text_18">
      <!-- 0.75 -->
      <g style="fill: #262626" transform="translate(18.26149 296.760887) scale(0.1 -0.1)">
       <use xlink:href="#ArialMT-30"/>
       <use xlink:href="#ArialMT-2e" x="55.615234"/>
       <use xlink:href="#ArialMT-37" x="83.398438"/>
       <use xlink:href="#ArialMT-35" x="139.013672"/>
      </g>
     </g>
    </g>
    <g id="ytick_15">
     <g id="line2d_38">
      <path d="M 44.722428 267.554504 
L 1004.99976 267.554504 
" clip-path="url(#p2ad19bc79a)" style="fill: none; stroke: #ffffff; stroke-width: 0.8; stroke-linecap: round"/>
     </g>
     <g id="text_19">
      <!-- 1.00 -->
      <g style="fill: #262626" transform="translate(18.26149 271.13341) scale(0.1 -0.1)">
       <use xlink:href="#ArialMT-31"/>
       <use xlink:href="#ArialMT-2e" x="55.615234"/>
       <use xlink:href="#ArialMT-30" x="83.398438"/>
       <use xlink:href="#ArialMT-30" x="139.013672"/>
      </g>
     </g>
    </g>
    <g id="text_20">
     <!-- Change-point Probability -->
     <g style="fill: #262626" transform="translate(11.735865 384.512271) rotate(-90) scale(0.12 -0.12)">
      <defs>
       <path id="ArialMT-43" d="M 3763 1606 
L 4369 1453 
Q 4178 706 3683 314 
Q 3188 -78 2472 -78 
Q 1731 -78 1267 223 
Q 803 525 561 1097 
Q 319 1669 319 2325 
Q 319 3041 592 3573 
Q 866 4106 1370 4382 
Q 1875 4659 2481 4659 
Q 3169 4659 3637 4309 
Q 4106 3959 4291 3325 
L 3694 3184 
Q 3534 3684 3231 3912 
Q 2928 4141 2469 4141 
Q 1941 4141 1586 3887 
Q 1231 3634 1087 3207 
Q 944 2781 944 2328 
Q 944 1744 1114 1308 
Q 1284 872 1643 656 
Q 2003 441 2422 441 
Q 2931 441 3284 734 
Q 3638 1028 3763 1606 
z
" transform="scale(0.015625)"/>
       <path id="ArialMT-2d" d="M 203 1375 
L 203 1941 
L 1931 1941 
L 1931 1375 
L 203 1375 
z
" transform="scale(0.015625)"/>
       <path id="ArialMT-50" d="M 494 0 
L 494 4581 
L 2222 4581 
Q 2678 4581 2919 4538 
Q 3256 4481 3484 4323 
Q 3713 4166 3852 3881 
Q 3991 3597 3991 3256 
Q 3991 2672 3619 2267 
Q 3247 1863 2275 1863 
L 1100 1863 
L 1100 0 
L 494 0 
z
M 1100 2403 
L 2284 2403 
Q 2872 2403 3119 2622 
Q 3366 2841 3366 3238 
Q 3366 3525 3220 3729 
Q 3075 3934 2838 4000 
Q 2684 4041 2272 4041 
L 1100 4041 
L 1100 2403 
z
" transform="scale(0.015625)"/>
       <path id="ArialMT-62" d="M 941 0 
L 419 0 
L 419 4581 
L 981 4581 
L 981 2947 
Q 1338 3394 1891 3394 
Q 2197 3394 2470 3270 
Q 2744 3147 2920 2923 
Q 3097 2700 3197 2384 
Q 3297 2069 3297 1709 
Q 3297 856 2875 390 
Q 2453 -75 1863 -75 
Q 1275 -75 941 416 
L 941 0 
z
M 934 1684 
Q 934 1088 1097 822 
Q 1363 388 1816 388 
Q 2184 388 2453 708 
Q 2722 1028 2722 1663 
Q 2722 2313 2464 2622 
Q 2206 2931 1841 2931 
Q 1472 2931 1203 2611 
Q 934 2291 934 1684 
z
" transform="scale(0.015625)"/>
       <path id="ArialMT-79" d="M 397 -1278 
L 334 -750 
Q 519 -800 656 -800 
Q 844 -800 956 -737 
Q 1069 -675 1141 -563 
Q 1194 -478 1313 -144 
Q 1328 -97 1363 -6 
L 103 3319 
L 709 3319 
L 1400 1397 
Q 1534 1031 1641 628 
Q 1738 1016 1872 1384 
L 2581 3319 
L 3144 3319 
L 1881 -56 
Q 1678 -603 1566 -809 
Q 1416 -1088 1222 -1217 
Q 1028 -1347 759 -1347 
Q 597 -1347 397 -1278 
z
" transform="scale(0.015625)"/>
      </defs>
      <use xlink:href="#ArialMT-43"/>
      <use xlink:href="#ArialMT-68" x="72.216797"/>
      <use xlink:href="#ArialMT-61" x="127.832031"/>
      <use xlink:href="#ArialMT-6e" x="183.447266"/>
      <use xlink:href="#ArialMT-67" x="239.0625"/>
      <use xlink:href="#ArialMT-65" x="294.677734"/>
      <use xlink:href="#ArialMT-2d" x="350.292969"/>
      <use xlink:href="#ArialMT-70" x="383.59375"/>
      <use xlink:href="#ArialMT-6f" x="439.208984"/>
      <use xlink:href="#ArialMT-69" x="494.824219"/>
      <use xlink:href="#ArialMT-6e" x="517.041016"/>
      <use xlink:href="#ArialMT-74" x="572.65625"/>
      <use xlink:href="#ArialMT-20" x="600.439453"/>
      <use xlink:href="#ArialMT-50" x="628.222656"/>
      <use xlink:href="#ArialMT-72" x="694.921875"/>
      <use xlink:href="#ArialMT-6f" x="728.222656"/>
      <use xlink:href="#ArialMT-62" x="783.837891"/>
      <use xlink:href="#ArialMT-61" x="839.453125"/>
      <use xlink:href="#ArialMT-62" x="895.068359"/>
      <use xlink:href="#ArialMT-69" x="950.683594"/>
      <use xlink:href="#ArialMT-6c" x="972.900391"/>
      <use xlink:href="#ArialMT-69" x="995.117188"/>
      <use xlink:href="#ArialMT-74" x="1017.333984"/>
      <use xlink:href="#ArialMT-79" x="1045.117188"/>
     </g>
    </g>
   </g>
   <g id="PolyCollection_5"/>
   <g id="PolyCollection_6"/>
   <g id="line2d_39">
    <path d="M 59.610448 370.064414 
L 61.843651 370.043439 
L 62.588052 267.948386 
L 63.332453 370.064397 
L 65.565656 370.064361 
L 66.310057 369.695837 
L 67.054458 370.064412 
L 126.606541 370.059112 
L 127.350942 267.554504 
L 128.095343 370.064414 
L 199.557842 370.059244 
L 200.302243 267.554504 
L 201.046644 370.064414 
L 272.509144 370.059329 
L 273.253545 267.554504 
L 273.997946 370.064414 
L 345.460445 370.059444 
L 346.204846 267.554504 
L 346.949247 370.064414 
L 418.411746 370.059584 
L 419.156147 267.554504 
L 419.900548 370.064414 
L 491.363047 370.059744 
L 492.107448 267.554504 
L 492.851849 370.064414 
L 564.314348 370.059916 
L 565.05875 267.554504 
L 565.803151 370.064414 
L 658.85328 369.967421 
L 663.319686 369.718426 
L 666.29729 369.368143 
L 669.274894 368.823426 
L 673.7413 367.721461 
L 677.463306 366.854277 
L 679.696509 366.535687 
L 681.929712 366.450905 
L 684.162915 366.617157 
L 686.396118 367.000153 
L 690.118123 367.910354 
L 694.584529 368.970624 
L 697.562133 369.466287 
L 701.284139 369.826396 
L 705.750545 370.002321 
L 714.683357 370.062389 
L 803.26708 370.064414 
L 803.26708 370.064414 
" clip-path="url(#p2ad19bc79a)" style="fill: none; stroke: #0000ff; stroke-opacity: 0.7; stroke-width: 1.5; stroke-linecap: round"/>
   </g>
   <g id="line2d_40">
    <path d="M 59.610448 370.064414 
L 803.26708 267.554504 
L 803.26708 267.554504 
" clip-path="url(#p2ad19bc79a)" style="fill: none; stroke: #000000; stroke-opacity: 0.4; stroke-width: 1.5; stroke-linecap: round"/>
   </g>
   <g id="patch_15">
    <path d="M 44.722428 375.189909 
L 44.722428 262.429008 
" style="fill: none; stroke: #ffffff; stroke-linejoin: miter; stroke-linecap: square"/>
   </g>
   <g id="patch_16">
    <path d="M 1004.99976 375.189909 
L 1004.99976 262.429008 
" style="fill: none; stroke: #ffffff; stroke-linejoin: miter; stroke-linecap: square"/>
   </g>
   <g id="patch_17">
    <path d="M 44.722428 375.189909 
L 1004.99976 375.189909 
" style="fill: none; stroke: #ffffff; stroke-linejoin: miter; stroke-linecap: square"/>
   </g>
   <g id="patch_18">
    <path d="M 44.722428 262.429008 
L 1004.99976 262.429008 
" style="fill: none; stroke: #ffffff; stroke-linejoin: miter; stroke-linecap: square"/>
   </g>
   <g id="legend_3">
    <g id="patch_19">
     <path d="M 820.009135 334.574302 
L 997.99976 334.574302 
Q 999.99976 334.574302 999.99976 332.574302 
L 999.99976 305.044615 
Q 999.99976 303.044615 997.99976 303.044615 
L 820.009135 303.044615 
Q 818.009135 303.044615 818.009135 305.044615 
L 818.009135 332.574302 
Q 818.009135 334.574302 820.009135 334.574302 
z
" style="fill: #eaeaf2; opacity: 0.8; stroke: #cccccc; stroke-width: 0.5; stroke-linejoin: miter"/>
    </g>
    <g id="line2d_41">
     <path d="M 822.009135 310.824302 
L 832.009135 310.824302 
L 842.009135 310.824302 
" style="fill: none; stroke: #0000ff; stroke-opacity: 0.7; stroke-width: 1.5; stroke-linecap: round"/>
    </g>
    <g id="text_21">
     <!-- uniform   prior | gaussian method -->
     <g style="fill: #262626" transform="translate(850.009135 314.324302) scale(0.1 -0.1)">
      <use xlink:href="#ArialMT-75"/>
      <use xlink:href="#ArialMT-6e" x="55.615234"/>
      <use xlink:href="#ArialMT-69" x="111.230469"/>
      <use xlink:href="#ArialMT-66" x="133.447266"/>
      <use xlink:href="#ArialMT-6f" x="161.230469"/>
      <use xlink:href="#ArialMT-72" x="216.845703"/>
      <use xlink:href="#ArialMT-6d" x="250.146484"/>
      <use xlink:href="#ArialMT-20" x="333.447266"/>
      <use xlink:href="#ArialMT-20" x="361.230469"/>
      <use xlink:href="#ArialMT-20" x="389.013672"/>
      <use xlink:href="#ArialMT-70" x="416.796875"/>
      <use xlink:href="#ArialMT-72" x="472.412109"/>
      <use xlink:href="#ArialMT-69" x="505.712891"/>
      <use xlink:href="#ArialMT-6f" x="527.929688"/>
      <use xlink:href="#ArialMT-72" x="583.544922"/>
      <use xlink:href="#ArialMT-20" x="616.845703"/>
      <use xlink:href="#ArialMT-7c" x="644.628906"/>
      <use xlink:href="#ArialMT-20" x="670.605469"/>
      <use xlink:href="#ArialMT-67" x="698.388672"/>
      <use xlink:href="#ArialMT-61" x="754.003906"/>
      <use xlink:href="#ArialMT-75" x="809.619141"/>
      <use xlink:href="#ArialMT-73" x="865.234375"/>
      <use xlink:href="#ArialMT-73" x="915.234375"/>
      <use xlink:href="#ArialMT-69" x="965.234375"/>
      <use xlink:href="#ArialMT-61" x="987.451172"/>
      <use xlink:href="#ArialMT-6e" x="1043.066406"/>
      <use xlink:href="#ArialMT-20" x="1098.681641"/>
      <use xlink:href="#ArialMT-6d" x="1126.464844"/>
      <use xlink:href="#ArialMT-65" x="1209.765625"/>
      <use xlink:href="#ArialMT-74" x="1265.380859"/>
      <use xlink:href="#ArialMT-68" x="1293.164062"/>
      <use xlink:href="#ArialMT-6f" x="1348.779297"/>
      <use xlink:href="#ArialMT-64" x="1404.394531"/>
     </g>
    </g>
    <g id="line2d_42">
     <path d="M 822.009135 325.086802 
L 832.009135 325.086802 
L 842.009135 325.086802 
" style="fill: none; stroke: #000000; stroke-opacity: 0.4; stroke-width: 1.5; stroke-linecap: round"/>
    </g>
    <g id="text_22">
     <!-- dataseries -->
     <g style="fill: #262626" transform="translate(850.009135 328.586802) scale(0.1 -0.1)">
      <use xlink:href="#ArialMT-64"/>
      <use xlink:href="#ArialMT-61" x="55.615234"/>
      <use xlink:href="#ArialMT-74" x="111.230469"/>
      <use xlink:href="#ArialMT-61" x="139.013672"/>
      <use xlink:href="#ArialMT-73" x="194.628906"/>
      <use xlink:href="#ArialMT-65" x="244.628906"/>
      <use xlink:href="#ArialMT-72" x="300.244141"/>
      <use xlink:href="#ArialMT-69" x="333.544922"/>
      <use xlink:href="#ArialMT-65" x="355.761719"/>
      <use xlink:href="#ArialMT-73" x="411.376953"/>
     </g>
    </g>
   </g>
  </g>
  <g id="axes_4">
   <g id="patch_20">
    <path d="M 44.722428 494.391553 
L 1004.99976 494.391553 
L 1004.99976 381.630652 
L 44.722428 381.630652 
z
" style="fill: #eaeaf2"/>
   </g>
   <g id="matplotlib.axis_7">
    <g id="xtick_16">
     <g id="line2d_43">
      <path d="M 59.610448 494.391553 
L 59.610448 381.630652 
" clip-path="url(#p21bbdae663)" style="fill: none; stroke: #ffffff; stroke-width: 0.8; stroke-linecap: round"/>
     </g>
    </g>
    <g id="xtick_17">
     <g id="line2d_44">
      <path d="M 245.710706 494.391553 
L 245.710706 381.630652 
" clip-path="url(#p21bbdae663)" style="fill: none; stroke: #ffffff; stroke-width: 0.8; stroke-linecap: round"/>
     </g>
    </g>
    <g id="xtick_18">
     <g id="line2d_45">
      <path d="M 431.810965 494.391553 
L 431.810965 381.630652 
" clip-path="url(#p21bbdae663)" style="fill: none; stroke: #ffffff; stroke-width: 0.8; stroke-linecap: round"/>
     </g>
    </g>
    <g id="xtick_19">
     <g id="line2d_46">
      <path d="M 617.911223 494.391553 
L 617.911223 381.630652 
" clip-path="url(#p21bbdae663)" style="fill: none; stroke: #ffffff; stroke-width: 0.8; stroke-linecap: round"/>
     </g>
    </g>
    <g id="xtick_20">
     <g id="line2d_47">
      <path d="M 804.011481 494.391553 
L 804.011481 381.630652 
" clip-path="url(#p21bbdae663)" style="fill: none; stroke: #ffffff; stroke-width: 0.8; stroke-linecap: round"/>
     </g>
    </g>
   </g>
   <g id="matplotlib.axis_8">
    <g id="ytick_16">
     <g id="line2d_48">
      <path d="M 44.722428 489.266058 
L 1004.99976 489.266058 
" clip-path="url(#p21bbdae663)" style="fill: none; stroke: #ffffff; stroke-width: 0.8; stroke-linecap: round"/>
     </g>
     <g id="text_23">
      <!-- 0.00 -->
      <g style="fill: #262626" transform="translate(18.26149 492.844964) scale(0.1 -0.1)">
       <use xlink:href="#ArialMT-30"/>
       <use xlink:href="#ArialMT-2e" x="55.615234"/>
       <use xlink:href="#ArialMT-30" x="83.398438"/>
       <use xlink:href="#ArialMT-30" x="139.013672"/>
      </g>
     </g>
    </g>
    <g id="ytick_17">
     <g id="line2d_49">
      <path d="M 44.722428 463.855149 
L 1004.99976 463.855149 
" clip-path="url(#p21bbdae663)" style="fill: none; stroke: #ffffff; stroke-width: 0.8; stroke-linecap: round"/>
     </g>
     <g id="text_24">
      <!-- 0.25 -->
      <g style="fill: #262626" transform="translate(18.26149 467.434056) scale(0.1 -0.1)">
       <use xlink:href="#ArialMT-30"/>
       <use xlink:href="#ArialMT-2e" x="55.615234"/>
       <use xlink:href="#ArialMT-32" x="83.398438"/>
       <use xlink:href="#ArialMT-35" x="139.013672"/>
      </g>
     </g>
    </g>
    <g id="ytick_18">
     <g id="line2d_50">
      <path d="M 44.722428 438.444241 
L 1004.99976 438.444241 
" clip-path="url(#p21bbdae663)" style="fill: none; stroke: #ffffff; stroke-width: 0.8; stroke-linecap: round"/>
     </g>
     <g id="text_25">
      <!-- 0.50 -->
      <g style="fill: #262626" transform="translate(18.26149 442.023147) scale(0.1 -0.1)">
       <use xlink:href="#ArialMT-30"/>
       <use xlink:href="#ArialMT-2e" x="55.615234"/>
       <use xlink:href="#ArialMT-35" x="83.398438"/>
       <use xlink:href="#ArialMT-30" x="139.013672"/>
      </g>
     </g>
    </g>
    <g id="ytick_19">
     <g id="line2d_51">
      <path d="M 44.722428 413.033333 
L 1004.99976 413.033333 
" clip-path="url(#p21bbdae663)" style="fill: none; stroke: #ffffff; stroke-width: 0.8; stroke-linecap: round"/>
     </g>
     <g id="text_26">
      <!-- 0.75 -->
      <g style="fill: #262626" transform="translate(18.26149 416.612239) scale(0.1 -0.1)">
       <use xlink:href="#ArialMT-30"/>
       <use xlink:href="#ArialMT-2e" x="55.615234"/>
       <use xlink:href="#ArialMT-37" x="83.398438"/>
       <use xlink:href="#ArialMT-35" x="139.013672"/>
      </g>
     </g>
    </g>
    <g id="ytick_20">
     <g id="line2d_52">
      <path d="M 44.722428 387.622424 
L 1004.99976 387.622424 
" clip-path="url(#p21bbdae663)" style="fill: none; stroke: #ffffff; stroke-width: 0.8; stroke-linecap: round"/>
     </g>
     <g id="text_27">
      <!-- 1.00 -->
      <g style="fill: #262626" transform="translate(18.26149 391.20133) scale(0.1 -0.1)">
       <use xlink:href="#ArialMT-31"/>
       <use xlink:href="#ArialMT-2e" x="55.615234"/>
       <use xlink:href="#ArialMT-30" x="83.398438"/>
       <use xlink:href="#ArialMT-30" x="139.013672"/>
      </g>
     </g>
    </g>
   </g>
   <g id="PolyCollection_7"/>
   <g id="PolyCollection_8"/>
   <g id="line2d_53">
    <path d="M 59.610448 489.266058 
L 64.821255 489.264556 
L 65.565656 388.897034 
L 66.310057 489.266056 
L 68.543261 489.266044 
L 69.287662 488.139996 
L 70.032063 489.266057 
L 70.776464 489.266057 
L 71.520865 489.141357 
L 72.265266 489.266058 
L 74.498469 489.266058 
L 127.350942 489.265524 
L 128.095343 386.827872 
L 128.839744 489.266058 
L 199.557842 489.26554 
L 200.302243 386.756148 
L 201.046644 489.266058 
L 271.764743 489.265553 
L 272.509144 387.6645 
L 273.253545 489.266058 
L 343.971643 489.265573 
L 344.716044 389.526962 
L 345.460445 489.266058 
L 416.178543 489.2656 
L 416.922944 392.290781 
L 417.667345 489.266058 
L 488.385443 489.265631 
L 489.129844 395.878897 
L 489.874245 489.266058 
L 561.336744 489.265666 
L 562.081145 400.184603 
L 562.825546 489.266058 
L 658.108879 489.172391 
L 662.575285 488.933912 
L 666.29729 488.495374 
L 670.019295 487.799171 
L 676.718904 486.454476 
L 678.952108 486.249234 
L 681.185311 486.258096 
L 683.418514 486.47894 
L 686.396118 487.018837 
L 693.840128 488.517891 
L 697.562133 488.944559 
L 702.02854 489.17529 
L 709.47255 489.259897 
L 762.325023 489.266058 
L 803.26708 489.266058 
L 803.26708 489.266058 
" clip-path="url(#p21bbdae663)" style="fill: none; stroke: #0000ff; stroke-opacity: 0.7; stroke-width: 1.5; stroke-linecap: round"/>
   </g>
   <g id="line2d_54">
    <path d="M 59.610448 489.266058 
L 803.26708 387.622424 
L 803.26708 387.622424 
" clip-path="url(#p21bbdae663)" style="fill: none; stroke: #000000; stroke-opacity: 0.4; stroke-width: 1.5; stroke-linecap: round"/>
   </g>
   <g id="patch_21">
    <path d="M 44.722428 494.391553 
L 44.722428 381.630652 
" style="fill: none; stroke: #ffffff; stroke-linejoin: miter; stroke-linecap: square"/>
   </g>
   <g id="patch_22">
    <path d="M 1004.99976 494.391553 
L 1004.99976 381.630652 
" style="fill: none; stroke: #ffffff; stroke-linejoin: miter; stroke-linecap: square"/>
   </g>
   <g id="patch_23">
    <path d="M 44.722428 494.391553 
L 1004.99976 494.391553 
" style="fill: none; stroke: #ffffff; stroke-linejoin: miter; stroke-linecap: square"/>
   </g>
   <g id="patch_24">
    <path d="M 44.722428 381.630652 
L 1004.99976 381.630652 
" style="fill: none; stroke: #ffffff; stroke-linejoin: miter; stroke-linecap: square"/>
   </g>
   <g id="legend_4">
    <g id="patch_25">
     <path d="M 815.004448 453.775947 
L 997.99976 453.775947 
Q 999.99976 453.775947 999.99976 451.775947 
L 999.99976 424.246259 
Q 999.99976 422.246259 997.99976 422.246259 
L 815.004448 422.246259 
Q 813.004448 422.246259 813.004448 424.246259 
L 813.004448 451.775947 
Q 813.004448 453.775947 815.004448 453.775947 
z
" style="fill: #eaeaf2; opacity: 0.8; stroke: #cccccc; stroke-width: 0.5; stroke-linejoin: miter"/>
    </g>
    <g id="line2d_55">
     <path d="M 817.004448 430.025947 
L 827.004448 430.025947 
L 837.004448 430.025947 
" style="fill: none; stroke: #0000ff; stroke-opacity: 0.7; stroke-width: 1.5; stroke-linecap: round"/>
    </g>
    <g id="text_28">
     <!-- geometric prior | gaussian method -->
     <g style="fill: #262626" transform="translate(845.004448 433.525947) scale(0.1 -0.1)">
      <use xlink:href="#ArialMT-67"/>
      <use xlink:href="#ArialMT-65" x="55.615234"/>
      <use xlink:href="#ArialMT-6f" x="111.230469"/>
      <use xlink:href="#ArialMT-6d" x="166.845703"/>
      <use xlink:href="#ArialMT-65" x="250.146484"/>
      <use xlink:href="#ArialMT-74" x="305.761719"/>
      <use xlink:href="#ArialMT-72" x="333.544922"/>
      <use xlink:href="#ArialMT-69" x="366.845703"/>
      <use xlink:href="#ArialMT-63" x="389.0625"/>
      <use xlink:href="#ArialMT-20" x="439.0625"/>
      <use xlink:href="#ArialMT-70" x="466.845703"/>
      <use xlink:href="#ArialMT-72" x="522.460938"/>
      <use xlink:href="#ArialMT-69" x="555.761719"/>
      <use xlink:href="#ArialMT-6f" x="577.978516"/>
      <use xlink:href="#ArialMT-72" x="633.59375"/>
      <use xlink:href="#ArialMT-20" x="666.894531"/>
      <use xlink:href="#ArialMT-7c" x="694.677734"/>
      <use xlink:href="#ArialMT-20" x="720.654297"/>
      <use xlink:href="#ArialMT-67" x="748.4375"/>
      <use xlink:href="#ArialMT-61" x="804.052734"/>
      <use xlink:href="#ArialMT-75" x="859.667969"/>
      <use xlink:href="#ArialMT-73" x="915.283203"/>
      <use xlink:href="#ArialMT-73" x="965.283203"/>
      <use xlink:href="#ArialMT-69" x="1015.283203"/>
      <use xlink:href="#ArialMT-61" x="1037.5"/>
      <use xlink:href="#ArialMT-6e" x="1093.115234"/>
      <use xlink:href="#ArialMT-20" x="1148.730469"/>
      <use xlink:href="#ArialMT-6d" x="1176.513672"/>
      <use xlink:href="#ArialMT-65" x="1259.814453"/>
      <use xlink:href="#ArialMT-74" x="1315.429688"/>
      <use xlink:href="#ArialMT-68" x="1343.212891"/>
      <use xlink:href="#ArialMT-6f" x="1398.828125"/>
      <use xlink:href="#ArialMT-64" x="1454.443359"/>
     </g>
    </g>
    <g id="line2d_56">
     <path d="M 817.004448 444.288447 
L 827.004448 444.288447 
L 837.004448 444.288447 
" style="fill: none; stroke: #000000; stroke-opacity: 0.4; stroke-width: 1.5; stroke-linecap: round"/>
    </g>
    <g id="text_29">
     <!-- dataseries -->
     <g style="fill: #262626" transform="translate(845.004448 447.788447) scale(0.1 -0.1)">
      <use xlink:href="#ArialMT-64"/>
      <use xlink:href="#ArialMT-61" x="55.615234"/>
      <use xlink:href="#ArialMT-74" x="111.230469"/>
      <use xlink:href="#ArialMT-61" x="139.013672"/>
      <use xlink:href="#ArialMT-73" x="194.628906"/>
      <use xlink:href="#ArialMT-65" x="244.628906"/>
      <use xlink:href="#ArialMT-72" x="300.244141"/>
      <use xlink:href="#ArialMT-69" x="333.544922"/>
      <use xlink:href="#ArialMT-65" x="355.761719"/>
      <use xlink:href="#ArialMT-73" x="411.376953"/>
     </g>
    </g>
   </g>
  </g>
  <g id="axes_5">
   <g id="patch_26">
    <path d="M 44.722428 613.593197 
L 1004.99976 613.593197 
L 1004.99976 500.832296 
L 44.722428 500.832296 
z
" style="fill: #eaeaf2"/>
   </g>
   <g id="matplotlib.axis_9">
    <g id="xtick_21">
     <g id="line2d_57">
      <path d="M 59.610448 613.593197 
L 59.610448 500.832296 
" clip-path="url(#pf17420fc94)" style="fill: none; stroke: #ffffff; stroke-width: 0.8; stroke-linecap: round"/>
     </g>
     <g id="text_30">
      <!-- 0 -->
      <g style="fill: #262626" transform="translate(56.829979 627.75101) scale(0.1 -0.1)">
       <use xlink:href="#ArialMT-30"/>
      </g>
     </g>
    </g>
    <g id="xtick_22">
     <g id="line2d_58">
      <path d="M 245.710706 613.593197 
L 245.710706 500.832296 
" clip-path="url(#pf17420fc94)" style="fill: none; stroke: #ffffff; stroke-width: 0.8; stroke-linecap: round"/>
     </g>
     <g id="text_31">
      <!-- 250 -->
      <g style="fill: #262626" transform="translate(237.3693 627.75101) scale(0.1 -0.1)">
       <use xlink:href="#ArialMT-32"/>
       <use xlink:href="#ArialMT-35" x="55.615234"/>
       <use xlink:href="#ArialMT-30" x="111.230469"/>
      </g>
     </g>
    </g>
    <g id="xtick_23">
     <g id="line2d_59">
      <path d="M 431.810965 613.593197 
L 431.810965 500.832296 
" clip-path="url(#pf17420fc94)" style="fill: none; stroke: #ffffff; stroke-width: 0.8; stroke-linecap: round"/>
     </g>
     <g id="text_32">
      <!-- 500 -->
      <g style="fill: #262626" transform="translate(423.469558 627.75101) scale(0.1 -0.1)">
       <use xlink:href="#ArialMT-35"/>
       <use xlink:href="#ArialMT-30" x="55.615234"/>
       <use xlink:href="#ArialMT-30" x="111.230469"/>
      </g>
     </g>
    </g>
    <g id="xtick_24">
     <g id="line2d_60">
      <path d="M 617.911223 613.593197 
L 617.911223 500.832296 
" clip-path="url(#pf17420fc94)" style="fill: none; stroke: #ffffff; stroke-width: 0.8; stroke-linecap: round"/>
     </g>
     <g id="text_33">
      <!-- 750 -->
      <g style="fill: #262626" transform="translate(609.569817 627.75101) scale(0.1 -0.1)">
       <use xlink:href="#ArialMT-37"/>
       <use xlink:href="#ArialMT-35" x="55.615234"/>
       <use xlink:href="#ArialMT-30" x="111.230469"/>
      </g>
     </g>
    </g>
    <g id="xtick_25">
     <g id="line2d_61">
      <path d="M 804.011481 613.593197 
L 804.011481 500.832296 
" clip-path="url(#pf17420fc94)" style="fill: none; stroke: #ffffff; stroke-width: 0.8; stroke-linecap: round"/>
     </g>
     <g id="text_34">
      <!-- 1000 -->
      <g style="fill: #262626" transform="translate(792.889606 627.75101) scale(0.1 -0.1)">
       <use xlink:href="#ArialMT-31"/>
       <use xlink:href="#ArialMT-30" x="55.615234"/>
       <use xlink:href="#ArialMT-30" x="111.230469"/>
       <use xlink:href="#ArialMT-30" x="166.845703"/>
      </g>
     </g>
    </g>
    <g id="text_35">
     <!-- dataseries index (t) -->
     <g style="fill: #262626" transform="translate(473.841406 642.474135) scale(0.12 -0.12)">
      <defs>
       <path id="ArialMT-78" d="M 47 0 
L 1259 1725 
L 138 3319 
L 841 3319 
L 1350 2541 
Q 1494 2319 1581 2169 
Q 1719 2375 1834 2534 
L 2394 3319 
L 3066 3319 
L 1919 1756 
L 3153 0 
L 2463 0 
L 1781 1031 
L 1600 1309 
L 728 0 
L 47 0 
z
" transform="scale(0.015625)"/>
       <path id="ArialMT-28" d="M 1497 -1347 
Q 1031 -759 709 28 
Q 388 816 388 1659 
Q 388 2403 628 3084 
Q 909 3875 1497 4659 
L 1900 4659 
Q 1522 4009 1400 3731 
Q 1209 3300 1100 2831 
Q 966 2247 966 1656 
Q 966 153 1900 -1347 
L 1497 -1347 
z
" transform="scale(0.015625)"/>
       <path id="ArialMT-29" d="M 791 -1347 
L 388 -1347 
Q 1322 153 1322 1656 
Q 1322 2244 1188 2822 
Q 1081 3291 891 3722 
Q 769 4003 388 4659 
L 791 4659 
Q 1378 3875 1659 3084 
Q 1900 2403 1900 1659 
Q 1900 816 1576 28 
Q 1253 -759 791 -1347 
z
" transform="scale(0.015625)"/>
      </defs>
      <use xlink:href="#ArialMT-64"/>
      <use xlink:href="#ArialMT-61" x="55.615234"/>
      <use xlink:href="#ArialMT-74" x="111.230469"/>
      <use xlink:href="#ArialMT-61" x="139.013672"/>
      <use xlink:href="#ArialMT-73" x="194.628906"/>
      <use xlink:href="#ArialMT-65" x="244.628906"/>
      <use xlink:href="#ArialMT-72" x="300.244141"/>
      <use xlink:href="#ArialMT-69" x="333.544922"/>
      <use xlink:href="#ArialMT-65" x="355.761719"/>
      <use xlink:href="#ArialMT-73" x="411.376953"/>
      <use xlink:href="#ArialMT-20" x="461.376953"/>
      <use xlink:href="#ArialMT-69" x="489.160156"/>
      <use xlink:href="#ArialMT-6e" x="511.376953"/>
      <use xlink:href="#ArialMT-64" x="566.992188"/>
      <use xlink:href="#ArialMT-65" x="622.607422"/>
      <use xlink:href="#ArialMT-78" x="678.222656"/>
      <use xlink:href="#ArialMT-20" x="728.222656"/>
      <use xlink:href="#ArialMT-28" x="756.005859"/>
      <use xlink:href="#ArialMT-74" x="789.306641"/>
      <use xlink:href="#ArialMT-29" x="817.089844"/>
     </g>
    </g>
   </g>
   <g id="matplotlib.axis_10">
    <g id="ytick_21">
     <g id="line2d_62">
      <path d="M 44.722428 608.467702 
L 1004.99976 608.467702 
" clip-path="url(#pf17420fc94)" style="fill: none; stroke: #ffffff; stroke-width: 0.8; stroke-linecap: round"/>
     </g>
     <g id="text_36">
      <!-- 0.00 -->
      <g style="fill: #262626" transform="translate(18.26149 612.046608) scale(0.1 -0.1)">
       <use xlink:href="#ArialMT-30"/>
       <use xlink:href="#ArialMT-2e" x="55.615234"/>
       <use xlink:href="#ArialMT-30" x="83.398438"/>
       <use xlink:href="#ArialMT-30" x="139.013672"/>
      </g>
     </g>
    </g>
    <g id="ytick_22">
     <g id="line2d_63">
      <path d="M 44.722428 582.840224 
L 1004.99976 582.840224 
" clip-path="url(#pf17420fc94)" style="fill: none; stroke: #ffffff; stroke-width: 0.8; stroke-linecap: round"/>
     </g>
     <g id="text_37">
      <!-- 0.25 -->
      <g style="fill: #262626" transform="translate(18.26149 586.419131) scale(0.1 -0.1)">
       <use xlink:href="#ArialMT-30"/>
       <use xlink:href="#ArialMT-2e" x="55.615234"/>
       <use xlink:href="#ArialMT-32" x="83.398438"/>
       <use xlink:href="#ArialMT-35" x="139.013672"/>
      </g>
     </g>
    </g>
    <g id="ytick_23">
     <g id="line2d_64">
      <path d="M 44.722428 557.212747 
L 1004.99976 557.212747 
" clip-path="url(#pf17420fc94)" style="fill: none; stroke: #ffffff; stroke-width: 0.8; stroke-linecap: round"/>
     </g>
     <g id="text_38">
      <!-- 0.50 -->
      <g style="fill: #262626" transform="translate(18.26149 560.791653) scale(0.1 -0.1)">
       <use xlink:href="#ArialMT-30"/>
       <use xlink:href="#ArialMT-2e" x="55.615234"/>
       <use xlink:href="#ArialMT-35" x="83.398438"/>
       <use xlink:href="#ArialMT-30" x="139.013672"/>
      </g>
     </g>
    </g>
    <g id="ytick_24">
     <g id="line2d_65">
      <path d="M 44.722428 531.585269 
L 1004.99976 531.585269 
" clip-path="url(#pf17420fc94)" style="fill: none; stroke: #ffffff; stroke-width: 0.8; stroke-linecap: round"/>
     </g>
     <g id="text_39">
      <!-- 0.75 -->
      <g style="fill: #262626" transform="translate(18.26149 535.164176) scale(0.1 -0.1)">
       <use xlink:href="#ArialMT-30"/>
       <use xlink:href="#ArialMT-2e" x="55.615234"/>
       <use xlink:href="#ArialMT-37" x="83.398438"/>
       <use xlink:href="#ArialMT-35" x="139.013672"/>
      </g>
     </g>
    </g>
    <g id="ytick_25">
     <g id="line2d_66">
      <path d="M 44.722428 505.957792 
L 1004.99976 505.957792 
" clip-path="url(#pf17420fc94)" style="fill: none; stroke: #ffffff; stroke-width: 0.8; stroke-linecap: round"/>
     </g>
     <g id="text_40">
      <!-- 1.00 -->
      <g style="fill: #262626" transform="translate(18.26149 509.536698) scale(0.1 -0.1)">
       <use xlink:href="#ArialMT-31"/>
       <use xlink:href="#ArialMT-2e" x="55.615234"/>
       <use xlink:href="#ArialMT-30" x="83.398438"/>
       <use xlink:href="#ArialMT-30" x="139.013672"/>
      </g>
     </g>
    </g>
   </g>
   <g id="line2d_67">
    <path d="M 59.610448 608.467702 
L 803.26708 505.957792 
L 803.26708 505.957792 
" clip-path="url(#pf17420fc94)" style="fill: none; stroke: #000000; stroke-opacity: 0.4; stroke-width: 1.5; stroke-linecap: round"/>
   </g>
   <g id="line2d_68">
    <path d="M 729.571378 613.593197 
L 729.571378 500.832296 
" clip-path="url(#pf17420fc94)" style="fill: none; stroke: #ff0000; stroke-opacity: 0.5; stroke-width: 1.5; stroke-linecap: round"/>
   </g>
   <g id="line2d_69">
    <path d="M 655.131275 613.593197 
L 655.131275 500.832296 
" clip-path="url(#pf17420fc94)" style="fill: none; stroke: #ff0000; stroke-opacity: 0.5; stroke-width: 1.5; stroke-linecap: round"/>
   </g>
   <g id="line2d_70">
    <path d="M 580.691171 613.593197 
L 580.691171 500.832296 
" clip-path="url(#pf17420fc94)" style="fill: none; stroke: #ff0000; stroke-opacity: 0.5; stroke-width: 1.5; stroke-linecap: round"/>
   </g>
   <g id="line2d_71">
    <path d="M 506.251068 613.593197 
L 506.251068 500.832296 
" clip-path="url(#pf17420fc94)" style="fill: none; stroke: #ff0000; stroke-opacity: 0.5; stroke-width: 1.5; stroke-linecap: round"/>
   </g>
   <g id="line2d_72">
    <path d="M 431.810965 613.593197 
L 431.810965 500.832296 
" clip-path="url(#pf17420fc94)" style="fill: none; stroke: #ff0000; stroke-opacity: 0.5; stroke-width: 1.5; stroke-linecap: round"/>
   </g>
   <g id="line2d_73">
    <path d="M 357.370861 613.593197 
L 357.370861 500.832296 
" clip-path="url(#pf17420fc94)" style="fill: none; stroke: #ff0000; stroke-opacity: 0.5; stroke-width: 1.5; stroke-linecap: round"/>
   </g>
   <g id="line2d_74">
    <path d="M 282.930758 613.593197 
L 282.930758 500.832296 
" clip-path="url(#pf17420fc94)" style="fill: none; stroke: #ff0000; stroke-opacity: 0.5; stroke-width: 1.5; stroke-linecap: round"/>
   </g>
   <g id="line2d_75">
    <path d="M 208.490655 613.593197 
L 208.490655 500.832296 
" clip-path="url(#pf17420fc94)" style="fill: none; stroke: #ff0000; stroke-opacity: 0.5; stroke-width: 1.5; stroke-linecap: round"/>
   </g>
   <g id="line2d_76">
    <path d="M 134.050551 613.593197 
L 134.050551 500.832296 
" clip-path="url(#pf17420fc94)" style="fill: none; stroke: #ff0000; stroke-opacity: 0.5; stroke-width: 1.5; stroke-linecap: round"/>
   </g>
   <g id="patch_27">
    <path d="M 44.722428 613.593198 
L 44.722428 500.832296 
" style="fill: none; stroke: #ffffff; stroke-linejoin: miter; stroke-linecap: square"/>
   </g>
   <g id="patch_28">
    <path d="M 1004.99976 613.593198 
L 1004.99976 500.832296 
" style="fill: none; stroke: #ffffff; stroke-linejoin: miter; stroke-linecap: square"/>
   </g>
   <g id="patch_29">
    <path d="M 44.722428 613.593197 
L 1004.99976 613.593197 
" style="fill: none; stroke: #ffffff; stroke-linejoin: miter; stroke-linecap: square"/>
   </g>
   <g id="patch_30">
    <path d="M 44.722428 500.832296 
L 1004.99976 500.832296 
" style="fill: none; stroke: #ffffff; stroke-linejoin: miter; stroke-linecap: square"/>
   </g>
   <g id="legend_5">
    <g id="patch_31">
     <path d="M 871.203214 564.657794 
L 963.429776 564.657794 
Q 965.429776 564.657794 965.429776 562.657794 
L 965.429776 549.512482 
Q 965.429776 547.512482 963.429776 547.512482 
L 871.203214 547.512482 
Q 869.203214 547.512482 869.203214 549.512482 
L 869.203214 562.657794 
Q 869.203214 564.657794 871.203214 564.657794 
z
" style="fill: #eaeaf2; opacity: 0.8; stroke: #cccccc; stroke-width: 0.5; stroke-linejoin: miter"/>
    </g>
    <g id="line2d_77">
     <path d="M 873.203214 555.170294 
L 883.203214 555.170294 
L 893.203214 555.170294 
" style="fill: none; stroke: #ff0000; stroke-opacity: 0.5; stroke-width: 1.5; stroke-linecap: round"/>
    </g>
    <g id="text_41">
     <!-- PELT method -->
     <g style="fill: #262626" transform="translate(901.203214 558.670294) scale(0.1 -0.1)">
      <defs>
       <path id="ArialMT-45" d="M 506 0 
L 506 4581 
L 3819 4581 
L 3819 4041 
L 1113 4041 
L 1113 2638 
L 3647 2638 
L 3647 2100 
L 1113 2100 
L 1113 541 
L 3925 541 
L 3925 0 
L 506 0 
z
" transform="scale(0.015625)"/>
       <path id="ArialMT-4c" d="M 469 0 
L 469 4581 
L 1075 4581 
L 1075 541 
L 3331 541 
L 3331 0 
L 469 0 
z
" transform="scale(0.015625)"/>
       <path id="ArialMT-54" d="M 1659 0 
L 1659 4041 
L 150 4041 
L 150 4581 
L 3781 4581 
L 3781 4041 
L 2266 4041 
L 2266 0 
L 1659 0 
z
" transform="scale(0.015625)"/>
      </defs>
      <use xlink:href="#ArialMT-50"/>
      <use xlink:href="#ArialMT-45" x="66.699219"/>
      <use xlink:href="#ArialMT-4c" x="133.398438"/>
      <use xlink:href="#ArialMT-54" x="181.638672"/>
      <use xlink:href="#ArialMT-20" x="240.972656"/>
      <use xlink:href="#ArialMT-6d" x="268.755859"/>
      <use xlink:href="#ArialMT-65" x="352.056641"/>
      <use xlink:href="#ArialMT-74" x="407.671875"/>
      <use xlink:href="#ArialMT-68" x="435.455078"/>
      <use xlink:href="#ArialMT-6f" x="491.070312"/>
      <use xlink:href="#ArialMT-64" x="546.685547"/>
     </g>
    </g>
   </g>
  </g>
  <g id="text_42">
   <!-- Offline Bayesian Change Point analysis for one change-point dataseries: priors and methods comparison -->
   <g style="fill: #262626" transform="translate(132.84125 14.65774) scale(0.16 -0.16)">
    <defs>
     <path id="ArialMT-4f" d="M 309 2231 
Q 309 3372 921 4017 
Q 1534 4663 2503 4663 
Q 3138 4663 3647 4359 
Q 4156 4056 4423 3514 
Q 4691 2972 4691 2284 
Q 4691 1588 4409 1038 
Q 4128 488 3612 205 
Q 3097 -78 2500 -78 
Q 1853 -78 1343 234 
Q 834 547 571 1087 
Q 309 1628 309 2231 
z
M 934 2222 
Q 934 1394 1379 917 
Q 1825 441 2497 441 
Q 3181 441 3623 922 
Q 4066 1403 4066 2288 
Q 4066 2847 3877 3264 
Q 3688 3681 3323 3911 
Q 2959 4141 2506 4141 
Q 1863 4141 1398 3698 
Q 934 3256 934 2222 
z
" transform="scale(0.015625)"/>
     <path id="ArialMT-42" d="M 469 0 
L 469 4581 
L 2188 4581 
Q 2713 4581 3030 4442 
Q 3347 4303 3526 4014 
Q 3706 3725 3706 3409 
Q 3706 3116 3547 2856 
Q 3388 2597 3066 2438 
Q 3481 2316 3704 2022 
Q 3928 1728 3928 1328 
Q 3928 1006 3792 729 
Q 3656 453 3456 303 
Q 3256 153 2954 76 
Q 2653 0 2216 0 
L 469 0 
z
M 1075 2656 
L 2066 2656 
Q 2469 2656 2644 2709 
Q 2875 2778 2992 2937 
Q 3109 3097 3109 3338 
Q 3109 3566 3000 3739 
Q 2891 3913 2687 3977 
Q 2484 4041 1991 4041 
L 1075 4041 
L 1075 2656 
z
M 1075 541 
L 2216 541 
Q 2509 541 2628 563 
Q 2838 600 2978 687 
Q 3119 775 3209 942 
Q 3300 1109 3300 1328 
Q 3300 1584 3169 1773 
Q 3038 1963 2805 2039 
Q 2572 2116 2134 2116 
L 1075 2116 
L 1075 541 
z
" transform="scale(0.015625)"/>
     <path id="ArialMT-3a" d="M 578 2678 
L 578 3319 
L 1219 3319 
L 1219 2678 
L 578 2678 
z
M 578 0 
L 578 641 
L 1219 641 
L 1219 0 
L 578 0 
z
" transform="scale(0.015625)"/>
    </defs>
    <use xlink:href="#ArialMT-4f"/>
    <use xlink:href="#ArialMT-66" x="77.783203"/>
    <use xlink:href="#ArialMT-66" x="103.816406"/>
    <use xlink:href="#ArialMT-6c" x="131.599609"/>
    <use xlink:href="#ArialMT-69" x="153.816406"/>
    <use xlink:href="#ArialMT-6e" x="176.033203"/>
    <use xlink:href="#ArialMT-65" x="231.648438"/>
    <use xlink:href="#ArialMT-20" x="287.263672"/>
    <use xlink:href="#ArialMT-42" x="315.046875"/>
    <use xlink:href="#ArialMT-61" x="381.746094"/>
    <use xlink:href="#ArialMT-79" x="437.361328"/>
    <use xlink:href="#ArialMT-65" x="487.361328"/>
    <use xlink:href="#ArialMT-73" x="542.976562"/>
    <use xlink:href="#ArialMT-69" x="592.976562"/>
    <use xlink:href="#ArialMT-61" x="615.193359"/>
    <use xlink:href="#ArialMT-6e" x="670.808594"/>
    <use xlink:href="#ArialMT-20" x="726.423828"/>
    <use xlink:href="#ArialMT-43" x="754.207031"/>
    <use xlink:href="#ArialMT-68" x="826.423828"/>
    <use xlink:href="#ArialMT-61" x="882.039062"/>
    <use xlink:href="#ArialMT-6e" x="937.654297"/>
    <use xlink:href="#ArialMT-67" x="993.269531"/>
    <use xlink:href="#ArialMT-65" x="1048.884766"/>
    <use xlink:href="#ArialMT-20" x="1104.5"/>
    <use xlink:href="#ArialMT-50" x="1132.283203"/>
    <use xlink:href="#ArialMT-6f" x="1198.982422"/>
    <use xlink:href="#ArialMT-69" x="1254.597656"/>
    <use xlink:href="#ArialMT-6e" x="1276.814453"/>
    <use xlink:href="#ArialMT-74" x="1332.429688"/>
    <use xlink:href="#ArialMT-20" x="1360.212891"/>
    <use xlink:href="#ArialMT-61" x="1387.996094"/>
    <use xlink:href="#ArialMT-6e" x="1443.611328"/>
    <use xlink:href="#ArialMT-61" x="1499.226562"/>
    <use xlink:href="#ArialMT-6c" x="1554.841797"/>
    <use xlink:href="#ArialMT-79" x="1577.058594"/>
    <use xlink:href="#ArialMT-73" x="1627.058594"/>
    <use xlink:href="#ArialMT-69" x="1677.058594"/>
    <use xlink:href="#ArialMT-73" x="1699.275391"/>
    <use xlink:href="#ArialMT-20" x="1749.275391"/>
    <use xlink:href="#ArialMT-66" x="1777.058594"/>
    <use xlink:href="#ArialMT-6f" x="1804.841797"/>
    <use xlink:href="#ArialMT-72" x="1860.457031"/>
    <use xlink:href="#ArialMT-20" x="1893.757812"/>
    <use xlink:href="#ArialMT-6f" x="1921.541016"/>
    <use xlink:href="#ArialMT-6e" x="1977.15625"/>
    <use xlink:href="#ArialMT-65" x="2032.771484"/>
    <use xlink:href="#ArialMT-20" x="2088.386719"/>
    <use xlink:href="#ArialMT-63" x="2116.169922"/>
    <use xlink:href="#ArialMT-68" x="2166.169922"/>
    <use xlink:href="#ArialMT-61" x="2221.785156"/>
    <use xlink:href="#ArialMT-6e" x="2277.400391"/>
    <use xlink:href="#ArialMT-67" x="2333.015625"/>
    <use xlink:href="#ArialMT-65" x="2388.630859"/>
    <use xlink:href="#ArialMT-2d" x="2444.246094"/>
    <use xlink:href="#ArialMT-70" x="2477.546875"/>
    <use xlink:href="#ArialMT-6f" x="2533.162109"/>
    <use xlink:href="#ArialMT-69" x="2588.777344"/>
    <use xlink:href="#ArialMT-6e" x="2610.994141"/>
    <use xlink:href="#ArialMT-74" x="2666.609375"/>
    <use xlink:href="#ArialMT-20" x="2694.392578"/>
    <use xlink:href="#ArialMT-64" x="2722.175781"/>
    <use xlink:href="#ArialMT-61" x="2777.791016"/>
    <use xlink:href="#ArialMT-74" x="2833.40625"/>
    <use xlink:href="#ArialMT-61" x="2861.189453"/>
    <use xlink:href="#ArialMT-73" x="2916.804688"/>
    <use xlink:href="#ArialMT-65" x="2966.804688"/>
    <use xlink:href="#ArialMT-72" x="3022.419922"/>
    <use xlink:href="#ArialMT-69" x="3055.720703"/>
    <use xlink:href="#ArialMT-65" x="3077.9375"/>
    <use xlink:href="#ArialMT-73" x="3133.552734"/>
    <use xlink:href="#ArialMT-3a" x="3183.552734"/>
    <use xlink:href="#ArialMT-20" x="3211.335938"/>
    <use xlink:href="#ArialMT-70" x="3239.119141"/>
    <use xlink:href="#ArialMT-72" x="3294.734375"/>
    <use xlink:href="#ArialMT-69" x="3328.035156"/>
    <use xlink:href="#ArialMT-6f" x="3350.251953"/>
    <use xlink:href="#ArialMT-72" x="3405.867188"/>
    <use xlink:href="#ArialMT-73" x="3439.167969"/>
    <use xlink:href="#ArialMT-20" x="3489.167969"/>
    <use xlink:href="#ArialMT-61" x="3516.951172"/>
    <use xlink:href="#ArialMT-6e" x="3572.566406"/>
    <use xlink:href="#ArialMT-64" x="3628.181641"/>
    <use xlink:href="#ArialMT-20" x="3683.796875"/>
    <use xlink:href="#ArialMT-6d" x="3711.580078"/>
    <use xlink:href="#ArialMT-65" x="3794.880859"/>
    <use xlink:href="#ArialMT-74" x="3850.496094"/>
    <use xlink:href="#ArialMT-68" x="3878.279297"/>
    <use xlink:href="#ArialMT-6f" x="3933.894531"/>
    <use xlink:href="#ArialMT-64" x="3989.509766"/>
    <use xlink:href="#ArialMT-73" x="4045.125"/>
    <use xlink:href="#ArialMT-20" x="4095.125"/>
    <use xlink:href="#ArialMT-63" x="4122.908203"/>
    <use xlink:href="#ArialMT-6f" x="4172.908203"/>
    <use xlink:href="#ArialMT-6d" x="4228.523438"/>
    <use xlink:href="#ArialMT-70" x="4311.824219"/>
    <use xlink:href="#ArialMT-61" x="4367.439453"/>
    <use xlink:href="#ArialMT-72" x="4423.054688"/>
    <use xlink:href="#ArialMT-69" x="4456.355469"/>
    <use xlink:href="#ArialMT-73" x="4478.572266"/>
    <use xlink:href="#ArialMT-6f" x="4528.572266"/>
    <use xlink:href="#ArialMT-6e" x="4584.1875"/>
   </g>
  </g>
 </g>
 <defs>
  <clipPath id="pa8ef3b66d2">
   <rect x="44.722428" y="24.02572" width="960.277333" height="112.760901"/>
  </clipPath>
  <clipPath id="p2c6902c4e2">
   <rect x="44.722428" y="143.227364" width="960.277333" height="112.760901"/>
  </clipPath>
  <clipPath id="p2ad19bc79a">
   <rect x="44.722428" y="262.429008" width="960.277333" height="112.760901"/>
  </clipPath>
  <clipPath id="p21bbdae663">
   <rect x="44.722428" y="381.630652" width="960.277333" height="112.760901"/>
  </clipPath>
  <clipPath id="pf17420fc94">
   <rect x="44.722428" y="500.832296" width="960.277333" height="112.760901"/>
  </clipPath>
 </defs>
</svg>
