<?xml version="1.0" encoding="utf-8" standalone="no"?>
<!DOCTYPE svg PUBLIC "-//W3C//DTD SVG 1.1//EN"
  "http://www.w3.org/Graphics/SVG/1.1/DTD/svg11.dtd">
<svg xmlns:xlink="http://www.w3.org/1999/xlink" width="1080pt" height="648pt" viewBox="0 0 1080 648" xmlns="http://www.w3.org/2000/svg" version="1.1">
 <metadata>
  <rdf:RDF xmlns:dc="http://purl.org/dc/elements/1.1/" xmlns:cc="http://creativecommons.org/ns#" xmlns:rdf="http://www.w3.org/1999/02/22-rdf-syntax-ns#">
   <cc:Work>
    <dc:type rdf:resource="http://purl.org/dc/dcmitype/StillImage"/>
    <dc:date>2023-09-18T16:36:03.883887</dc:date>
    <dc:format>image/svg+xml</dc:format>
    <dc:creator>
     <cc:Agent>
      <dc:title>Matplotlib v3.7.1, https://matplotlib.org/</dc:title>
     </cc:Agent>
    </dc:creator>
   </cc:Work>
  </rdf:RDF>
 </metadata>
 <defs>
  <style type="text/css">*{stroke-linejoin: round; stroke-linecap: butt}</style>
 </defs>
 <g id="figure_1">
  <g id="patch_1">
   <path d="M 0 648 
L 1080 648 
L 1080 0 
L 0 0 
z
" style="fill: #ffffff"/>
  </g>
  <g id="axes_1">
   <g id="patch_2">
    <path d="M 135 576.72 
L 972 576.72 
L 972 77.76 
L 135 77.76 
z
" style="fill: #eaeaf2"/>
   </g>
   <g id="matplotlib.axis_1">
    <g id="text_1">
     <!-- Probability (shifted for clarity with unregularized scale) -->
     <g style="fill: #262626" transform="translate(374.26875 591.639531) scale(0.15 -0.15)">
      <defs>
       <path id="ArialMT-50" d="M 494 0 
L 494 4581 
L 2222 4581 
Q 2678 4581 2919 4538 
Q 3256 4481 3484 4323 
Q 3713 4166 3852 3881 
Q 3991 3597 3991 3256 
Q 3991 2672 3619 2267 
Q 3247 1863 2275 1863 
L 1100 1863 
L 1100 0 
L 494 0 
z
M 1100 2403 
L 2284 2403 
Q 2872 2403 3119 2622 
Q 3366 2841 3366 3238 
Q 3366 3525 3220 3729 
Q 3075 3934 2838 4000 
Q 2684 4041 2272 4041 
L 1100 4041 
L 1100 2403 
z
" transform="scale(0.015625)"/>
       <path id="ArialMT-72" d="M 416 0 
L 416 3319 
L 922 3319 
L 922 2816 
Q 1116 3169 1280 3281 
Q 1444 3394 1641 3394 
Q 1925 3394 2219 3213 
L 2025 2691 
Q 1819 2813 1613 2813 
Q 1428 2813 1281 2702 
Q 1134 2591 1072 2394 
Q 978 2094 978 1738 
L 978 0 
L 416 0 
z
" transform="scale(0.015625)"/>
       <path id="ArialMT-6f" d="M 213 1659 
Q 213 2581 725 3025 
Q 1153 3394 1769 3394 
Q 2453 3394 2887 2945 
Q 3322 2497 3322 1706 
Q 3322 1066 3130 698 
Q 2938 331 2570 128 
Q 2203 -75 1769 -75 
Q 1072 -75 642 372 
Q 213 819 213 1659 
z
M 791 1659 
Q 791 1022 1069 705 
Q 1347 388 1769 388 
Q 2188 388 2466 706 
Q 2744 1025 2744 1678 
Q 2744 2294 2464 2611 
Q 2184 2928 1769 2928 
Q 1347 2928 1069 2612 
Q 791 2297 791 1659 
z
" transform="scale(0.015625)"/>
       <path id="ArialMT-62" d="M 941 0 
L 419 0 
L 419 4581 
L 981 4581 
L 981 2947 
Q 1338 3394 1891 3394 
Q 2197 3394 2470 3270 
Q 2744 3147 2920 2923 
Q 3097 2700 3197 2384 
Q 3297 2069 3297 1709 
Q 3297 856 2875 390 
Q 2453 -75 1863 -75 
Q 1275 -75 941 416 
L 941 0 
z
M 934 1684 
Q 934 1088 1097 822 
Q 1363 388 1816 388 
Q 2184 388 2453 708 
Q 2722 1028 2722 1663 
Q 2722 2313 2464 2622 
Q 2206 2931 1841 2931 
Q 1472 2931 1203 2611 
Q 934 2291 934 1684 
z
" transform="scale(0.015625)"/>
       <path id="ArialMT-61" d="M 2588 409 
Q 2275 144 1986 34 
Q 1697 -75 1366 -75 
Q 819 -75 525 192 
Q 231 459 231 875 
Q 231 1119 342 1320 
Q 453 1522 633 1644 
Q 813 1766 1038 1828 
Q 1203 1872 1538 1913 
Q 2219 1994 2541 2106 
Q 2544 2222 2544 2253 
Q 2544 2597 2384 2738 
Q 2169 2928 1744 2928 
Q 1347 2928 1158 2789 
Q 969 2650 878 2297 
L 328 2372 
Q 403 2725 575 2942 
Q 747 3159 1072 3276 
Q 1397 3394 1825 3394 
Q 2250 3394 2515 3294 
Q 2781 3194 2906 3042 
Q 3031 2891 3081 2659 
Q 3109 2516 3109 2141 
L 3109 1391 
Q 3109 606 3145 398 
Q 3181 191 3288 0 
L 2700 0 
Q 2613 175 2588 409 
z
M 2541 1666 
Q 2234 1541 1622 1453 
Q 1275 1403 1131 1340 
Q 988 1278 909 1158 
Q 831 1038 831 891 
Q 831 666 1001 516 
Q 1172 366 1500 366 
Q 1825 366 2078 508 
Q 2331 650 2450 897 
Q 2541 1088 2541 1459 
L 2541 1666 
z
" transform="scale(0.015625)"/>
       <path id="ArialMT-69" d="M 425 3934 
L 425 4581 
L 988 4581 
L 988 3934 
L 425 3934 
z
M 425 0 
L 425 3319 
L 988 3319 
L 988 0 
L 425 0 
z
" transform="scale(0.015625)"/>
       <path id="ArialMT-6c" d="M 409 0 
L 409 4581 
L 972 4581 
L 972 0 
L 409 0 
z
" transform="scale(0.015625)"/>
       <path id="ArialMT-74" d="M 1650 503 
L 1731 6 
Q 1494 -44 1306 -44 
Q 1000 -44 831 53 
Q 663 150 594 308 
Q 525 466 525 972 
L 525 2881 
L 113 2881 
L 113 3319 
L 525 3319 
L 525 4141 
L 1084 4478 
L 1084 3319 
L 1650 3319 
L 1650 2881 
L 1084 2881 
L 1084 941 
Q 1084 700 1114 631 
Q 1144 563 1211 522 
Q 1278 481 1403 481 
Q 1497 481 1650 503 
z
" transform="scale(0.015625)"/>
       <path id="ArialMT-79" d="M 397 -1278 
L 334 -750 
Q 519 -800 656 -800 
Q 844 -800 956 -737 
Q 1069 -675 1141 -563 
Q 1194 -478 1313 -144 
Q 1328 -97 1363 -6 
L 103 3319 
L 709 3319 
L 1400 1397 
Q 1534 1031 1641 628 
Q 1738 1016 1872 1384 
L 2581 3319 
L 3144 3319 
L 1881 -56 
Q 1678 -603 1566 -809 
Q 1416 -1088 1222 -1217 
Q 1028 -1347 759 -1347 
Q 597 -1347 397 -1278 
z
" transform="scale(0.015625)"/>
       <path id="ArialMT-20" transform="scale(0.015625)"/>
       <path id="ArialMT-28" d="M 1497 -1347 
Q 1031 -759 709 28 
Q 388 816 388 1659 
Q 388 2403 628 3084 
Q 909 3875 1497 4659 
L 1900 4659 
Q 1522 4009 1400 3731 
Q 1209 3300 1100 2831 
Q 966 2247 966 1656 
Q 966 153 1900 -1347 
L 1497 -1347 
z
" transform="scale(0.015625)"/>
       <path id="ArialMT-73" d="M 197 991 
L 753 1078 
Q 800 744 1014 566 
Q 1228 388 1613 388 
Q 2000 388 2187 545 
Q 2375 703 2375 916 
Q 2375 1106 2209 1216 
Q 2094 1291 1634 1406 
Q 1016 1563 777 1677 
Q 538 1791 414 1992 
Q 291 2194 291 2438 
Q 291 2659 392 2848 
Q 494 3038 669 3163 
Q 800 3259 1026 3326 
Q 1253 3394 1513 3394 
Q 1903 3394 2198 3281 
Q 2494 3169 2634 2976 
Q 2775 2784 2828 2463 
L 2278 2388 
Q 2241 2644 2061 2787 
Q 1881 2931 1553 2931 
Q 1166 2931 1000 2803 
Q 834 2675 834 2503 
Q 834 2394 903 2306 
Q 972 2216 1119 2156 
Q 1203 2125 1616 2013 
Q 2213 1853 2448 1751 
Q 2684 1650 2818 1456 
Q 2953 1263 2953 975 
Q 2953 694 2789 445 
Q 2625 197 2315 61 
Q 2006 -75 1616 -75 
Q 969 -75 630 194 
Q 291 463 197 991 
z
" transform="scale(0.015625)"/>
       <path id="ArialMT-68" d="M 422 0 
L 422 4581 
L 984 4581 
L 984 2938 
Q 1378 3394 1978 3394 
Q 2347 3394 2619 3248 
Q 2891 3103 3008 2847 
Q 3125 2591 3125 2103 
L 3125 0 
L 2563 0 
L 2563 2103 
Q 2563 2525 2380 2717 
Q 2197 2909 1863 2909 
Q 1613 2909 1392 2779 
Q 1172 2650 1078 2428 
Q 984 2206 984 1816 
L 984 0 
L 422 0 
z
" transform="scale(0.015625)"/>
       <path id="ArialMT-66" d="M 556 0 
L 556 2881 
L 59 2881 
L 59 3319 
L 556 3319 
L 556 3672 
Q 556 4006 616 4169 
Q 697 4388 901 4523 
Q 1106 4659 1475 4659 
Q 1713 4659 2000 4603 
L 1916 4113 
Q 1741 4144 1584 4144 
Q 1328 4144 1222 4034 
Q 1116 3925 1116 3625 
L 1116 3319 
L 1763 3319 
L 1763 2881 
L 1116 2881 
L 1116 0 
L 556 0 
z
" transform="scale(0.015625)"/>
       <path id="ArialMT-65" d="M 2694 1069 
L 3275 997 
Q 3138 488 2766 206 
Q 2394 -75 1816 -75 
Q 1088 -75 661 373 
Q 234 822 234 1631 
Q 234 2469 665 2931 
Q 1097 3394 1784 3394 
Q 2450 3394 2872 2941 
Q 3294 2488 3294 1666 
Q 3294 1616 3291 1516 
L 816 1516 
Q 847 969 1125 678 
Q 1403 388 1819 388 
Q 2128 388 2347 550 
Q 2566 713 2694 1069 
z
M 847 1978 
L 2700 1978 
Q 2663 2397 2488 2606 
Q 2219 2931 1791 2931 
Q 1403 2931 1139 2672 
Q 875 2413 847 1978 
z
" transform="scale(0.015625)"/>
       <path id="ArialMT-64" d="M 2575 0 
L 2575 419 
Q 2259 -75 1647 -75 
Q 1250 -75 917 144 
Q 584 363 401 755 
Q 219 1147 219 1656 
Q 219 2153 384 2558 
Q 550 2963 881 3178 
Q 1213 3394 1622 3394 
Q 1922 3394 2156 3267 
Q 2391 3141 2538 2938 
L 2538 4581 
L 3097 4581 
L 3097 0 
L 2575 0 
z
M 797 1656 
Q 797 1019 1065 703 
Q 1334 388 1700 388 
Q 2069 388 2326 689 
Q 2584 991 2584 1609 
Q 2584 2291 2321 2609 
Q 2059 2928 1675 2928 
Q 1300 2928 1048 2622 
Q 797 2316 797 1656 
z
" transform="scale(0.015625)"/>
       <path id="ArialMT-63" d="M 2588 1216 
L 3141 1144 
Q 3050 572 2676 248 
Q 2303 -75 1759 -75 
Q 1078 -75 664 370 
Q 250 816 250 1647 
Q 250 2184 428 2587 
Q 606 2991 970 3192 
Q 1334 3394 1763 3394 
Q 2303 3394 2647 3120 
Q 2991 2847 3088 2344 
L 2541 2259 
Q 2463 2594 2264 2762 
Q 2066 2931 1784 2931 
Q 1359 2931 1093 2626 
Q 828 2322 828 1663 
Q 828 994 1084 691 
Q 1341 388 1753 388 
Q 2084 388 2306 591 
Q 2528 794 2588 1216 
z
" transform="scale(0.015625)"/>
       <path id="ArialMT-77" d="M 1034 0 
L 19 3319 
L 600 3319 
L 1128 1403 
L 1325 691 
Q 1338 744 1497 1375 
L 2025 3319 
L 2603 3319 
L 3100 1394 
L 3266 759 
L 3456 1400 
L 4025 3319 
L 4572 3319 
L 3534 0 
L 2950 0 
L 2422 1988 
L 2294 2553 
L 1622 0 
L 1034 0 
z
" transform="scale(0.015625)"/>
       <path id="ArialMT-75" d="M 2597 0 
L 2597 488 
Q 2209 -75 1544 -75 
Q 1250 -75 995 37 
Q 741 150 617 320 
Q 494 491 444 738 
Q 409 903 409 1263 
L 409 3319 
L 972 3319 
L 972 1478 
Q 972 1038 1006 884 
Q 1059 663 1231 536 
Q 1403 409 1656 409 
Q 1909 409 2131 539 
Q 2353 669 2445 892 
Q 2538 1116 2538 1541 
L 2538 3319 
L 3100 3319 
L 3100 0 
L 2597 0 
z
" transform="scale(0.015625)"/>
       <path id="ArialMT-6e" d="M 422 0 
L 422 3319 
L 928 3319 
L 928 2847 
Q 1294 3394 1984 3394 
Q 2284 3394 2536 3286 
Q 2788 3178 2913 3003 
Q 3038 2828 3088 2588 
Q 3119 2431 3119 2041 
L 3119 0 
L 2556 0 
L 2556 2019 
Q 2556 2363 2490 2533 
Q 2425 2703 2258 2804 
Q 2091 2906 1866 2906 
Q 1506 2906 1245 2678 
Q 984 2450 984 1813 
L 984 0 
L 422 0 
z
" transform="scale(0.015625)"/>
       <path id="ArialMT-67" d="M 319 -275 
L 866 -356 
Q 900 -609 1056 -725 
Q 1266 -881 1628 -881 
Q 2019 -881 2231 -725 
Q 2444 -569 2519 -288 
Q 2563 -116 2559 434 
Q 2191 0 1641 0 
Q 956 0 581 494 
Q 206 988 206 1678 
Q 206 2153 378 2554 
Q 550 2956 876 3175 
Q 1203 3394 1644 3394 
Q 2231 3394 2613 2919 
L 2613 3319 
L 3131 3319 
L 3131 450 
Q 3131 -325 2973 -648 
Q 2816 -972 2473 -1159 
Q 2131 -1347 1631 -1347 
Q 1038 -1347 672 -1080 
Q 306 -813 319 -275 
z
M 784 1719 
Q 784 1066 1043 766 
Q 1303 466 1694 466 
Q 2081 466 2343 764 
Q 2606 1063 2606 1700 
Q 2606 2309 2336 2618 
Q 2066 2928 1684 2928 
Q 1309 2928 1046 2623 
Q 784 2319 784 1719 
z
" transform="scale(0.015625)"/>
       <path id="ArialMT-7a" d="M 125 0 
L 125 456 
L 2238 2881 
Q 1878 2863 1603 2863 
L 250 2863 
L 250 3319 
L 2963 3319 
L 2963 2947 
L 1166 841 
L 819 456 
Q 1197 484 1528 484 
L 3063 484 
L 3063 0 
L 125 0 
z
" transform="scale(0.015625)"/>
       <path id="ArialMT-29" d="M 791 -1347 
L 388 -1347 
Q 1322 153 1322 1656 
Q 1322 2244 1188 2822 
Q 1081 3291 891 3722 
Q 769 4003 388 4659 
L 791 4659 
Q 1378 3875 1659 3084 
Q 1900 2403 1900 1659 
Q 1900 816 1576 28 
Q 1253 -759 791 -1347 
z
" transform="scale(0.015625)"/>
      </defs>
      <use xlink:href="#ArialMT-50"/>
      <use xlink:href="#ArialMT-72" x="66.699219"/>
      <use xlink:href="#ArialMT-6f" x="100"/>
      <use xlink:href="#ArialMT-62" x="155.615234"/>
      <use xlink:href="#ArialMT-61" x="211.230469"/>
      <use xlink:href="#ArialMT-62" x="266.845703"/>
      <use xlink:href="#ArialMT-69" x="322.460938"/>
      <use xlink:href="#ArialMT-6c" x="344.677734"/>
      <use xlink:href="#ArialMT-69" x="366.894531"/>
      <use xlink:href="#ArialMT-74" x="389.111328"/>
      <use xlink:href="#ArialMT-79" x="416.894531"/>
      <use xlink:href="#ArialMT-20" x="466.894531"/>
      <use xlink:href="#ArialMT-28" x="494.677734"/>
      <use xlink:href="#ArialMT-73" x="527.978516"/>
      <use xlink:href="#ArialMT-68" x="577.978516"/>
      <use xlink:href="#ArialMT-69" x="633.59375"/>
      <use xlink:href="#ArialMT-66" x="655.810547"/>
      <use xlink:href="#ArialMT-74" x="683.59375"/>
      <use xlink:href="#ArialMT-65" x="711.376953"/>
      <use xlink:href="#ArialMT-64" x="766.992188"/>
      <use xlink:href="#ArialMT-20" x="822.607422"/>
      <use xlink:href="#ArialMT-66" x="850.390625"/>
      <use xlink:href="#ArialMT-6f" x="878.173828"/>
      <use xlink:href="#ArialMT-72" x="933.789062"/>
      <use xlink:href="#ArialMT-20" x="967.089844"/>
      <use xlink:href="#ArialMT-63" x="994.873047"/>
      <use xlink:href="#ArialMT-6c" x="1044.873047"/>
      <use xlink:href="#ArialMT-61" x="1067.089844"/>
      <use xlink:href="#ArialMT-72" x="1122.705078"/>
      <use xlink:href="#ArialMT-69" x="1156.005859"/>
      <use xlink:href="#ArialMT-74" x="1178.222656"/>
      <use xlink:href="#ArialMT-79" x="1206.005859"/>
      <use xlink:href="#ArialMT-20" x="1256.005859"/>
      <use xlink:href="#ArialMT-77" x="1283.789062"/>
      <use xlink:href="#ArialMT-69" x="1356.005859"/>
      <use xlink:href="#ArialMT-74" x="1378.222656"/>
      <use xlink:href="#ArialMT-68" x="1406.005859"/>
      <use xlink:href="#ArialMT-20" x="1461.621094"/>
      <use xlink:href="#ArialMT-75" x="1489.404297"/>
      <use xlink:href="#ArialMT-6e" x="1545.019531"/>
      <use xlink:href="#ArialMT-72" x="1600.634766"/>
      <use xlink:href="#ArialMT-65" x="1633.935547"/>
      <use xlink:href="#ArialMT-67" x="1689.550781"/>
      <use xlink:href="#ArialMT-75" x="1745.166016"/>
      <use xlink:href="#ArialMT-6c" x="1800.78125"/>
      <use xlink:href="#ArialMT-61" x="1822.998047"/>
      <use xlink:href="#ArialMT-72" x="1878.613281"/>
      <use xlink:href="#ArialMT-69" x="1911.914062"/>
      <use xlink:href="#ArialMT-7a" x="1934.130859"/>
      <use xlink:href="#ArialMT-65" x="1984.130859"/>
      <use xlink:href="#ArialMT-64" x="2039.746094"/>
      <use xlink:href="#ArialMT-20" x="2095.361328"/>
      <use xlink:href="#ArialMT-73" x="2123.144531"/>
      <use xlink:href="#ArialMT-63" x="2173.144531"/>
      <use xlink:href="#ArialMT-61" x="2223.144531"/>
      <use xlink:href="#ArialMT-6c" x="2278.759766"/>
      <use xlink:href="#ArialMT-65" x="2300.976562"/>
      <use xlink:href="#ArialMT-29" x="2356.591797"/>
     </g>
    </g>
   </g>
   <g id="matplotlib.axis_2">
    <g id="ytick_1">
     <g id="line2d_1">
      <path d="M 135 142.881201 
L 972 142.881201 
" clip-path="url(#p69a2f01d9b)" style="fill: none; stroke: #ffffff; stroke-width: 1.3; stroke-linecap: round"/>
     </g>
     <g id="text_2">
      <!-- 288 -->
      <g style="fill: #262626" transform="translate(104.212344 147.533779) scale(0.13 -0.13)">
       <defs>
        <path id="ArialMT-32" d="M 3222 541 
L 3222 0 
L 194 0 
Q 188 203 259 391 
Q 375 700 629 1000 
Q 884 1300 1366 1694 
Q 2113 2306 2375 2664 
Q 2638 3022 2638 3341 
Q 2638 3675 2398 3904 
Q 2159 4134 1775 4134 
Q 1369 4134 1125 3890 
Q 881 3647 878 3216 
L 300 3275 
Q 359 3922 746 4261 
Q 1134 4600 1788 4600 
Q 2447 4600 2831 4234 
Q 3216 3869 3216 3328 
Q 3216 3053 3103 2787 
Q 2991 2522 2730 2228 
Q 2469 1934 1863 1422 
Q 1356 997 1212 845 
Q 1069 694 975 541 
L 3222 541 
z
" transform="scale(0.015625)"/>
        <path id="ArialMT-38" d="M 1131 2484 
Q 781 2613 612 2850 
Q 444 3088 444 3419 
Q 444 3919 803 4259 
Q 1163 4600 1759 4600 
Q 2359 4600 2725 4251 
Q 3091 3903 3091 3403 
Q 3091 3084 2923 2848 
Q 2756 2613 2416 2484 
Q 2838 2347 3058 2040 
Q 3278 1734 3278 1309 
Q 3278 722 2862 322 
Q 2447 -78 1769 -78 
Q 1091 -78 675 323 
Q 259 725 259 1325 
Q 259 1772 486 2073 
Q 713 2375 1131 2484 
z
M 1019 3438 
Q 1019 3113 1228 2906 
Q 1438 2700 1772 2700 
Q 2097 2700 2305 2904 
Q 2513 3109 2513 3406 
Q 2513 3716 2298 3927 
Q 2084 4138 1766 4138 
Q 1444 4138 1231 3931 
Q 1019 3725 1019 3438 
z
M 838 1322 
Q 838 1081 952 856 
Q 1066 631 1291 507 
Q 1516 384 1775 384 
Q 2178 384 2440 643 
Q 2703 903 2703 1303 
Q 2703 1709 2433 1975 
Q 2163 2241 1756 2241 
Q 1359 2241 1098 1978 
Q 838 1716 838 1322 
z
" transform="scale(0.015625)"/>
       </defs>
       <use xlink:href="#ArialMT-32"/>
       <use xlink:href="#ArialMT-38" x="55.615234"/>
       <use xlink:href="#ArialMT-38" x="111.230469"/>
      </g>
     </g>
    </g>
    <g id="ytick_2">
     <g id="line2d_2">
      <path d="M 135 187.127312 
L 972 187.127312 
" clip-path="url(#p69a2f01d9b)" style="fill: none; stroke: #ffffff; stroke-width: 1.3; stroke-linecap: round"/>
     </g>
     <g id="text_3">
      <!-- 483 -->
      <g style="fill: #262626" transform="translate(104.212344 191.779891) scale(0.13 -0.13)">
       <defs>
        <path id="ArialMT-34" d="M 2069 0 
L 2069 1097 
L 81 1097 
L 81 1613 
L 2172 4581 
L 2631 4581 
L 2631 1613 
L 3250 1613 
L 3250 1097 
L 2631 1097 
L 2631 0 
L 2069 0 
z
M 2069 1613 
L 2069 3678 
L 634 1613 
L 2069 1613 
z
" transform="scale(0.015625)"/>
        <path id="ArialMT-33" d="M 269 1209 
L 831 1284 
Q 928 806 1161 595 
Q 1394 384 1728 384 
Q 2125 384 2398 659 
Q 2672 934 2672 1341 
Q 2672 1728 2419 1979 
Q 2166 2231 1775 2231 
Q 1616 2231 1378 2169 
L 1441 2663 
Q 1497 2656 1531 2656 
Q 1891 2656 2178 2843 
Q 2466 3031 2466 3422 
Q 2466 3731 2256 3934 
Q 2047 4138 1716 4138 
Q 1388 4138 1169 3931 
Q 950 3725 888 3313 
L 325 3413 
Q 428 3978 793 4289 
Q 1159 4600 1703 4600 
Q 2078 4600 2393 4439 
Q 2709 4278 2876 4000 
Q 3044 3722 3044 3409 
Q 3044 3113 2884 2869 
Q 2725 2625 2413 2481 
Q 2819 2388 3044 2092 
Q 3269 1797 3269 1353 
Q 3269 753 2831 336 
Q 2394 -81 1725 -81 
Q 1122 -81 723 278 
Q 325 638 269 1209 
z
" transform="scale(0.015625)"/>
       </defs>
       <use xlink:href="#ArialMT-34"/>
       <use xlink:href="#ArialMT-38" x="55.615234"/>
       <use xlink:href="#ArialMT-33" x="111.230469"/>
      </g>
     </g>
    </g>
    <g id="ytick_3">
     <g id="line2d_3">
      <path d="M 135 233.415553 
L 972 233.415553 
" clip-path="url(#p69a2f01d9b)" style="fill: none; stroke: #ffffff; stroke-width: 1.3; stroke-linecap: round"/>
     </g>
     <g id="text_4">
      <!-- 687 -->
      <g style="fill: #262626" transform="translate(104.212344 238.068131) scale(0.13 -0.13)">
       <defs>
        <path id="ArialMT-36" d="M 3184 3459 
L 2625 3416 
Q 2550 3747 2413 3897 
Q 2184 4138 1850 4138 
Q 1581 4138 1378 3988 
Q 1113 3794 959 3422 
Q 806 3050 800 2363 
Q 1003 2672 1297 2822 
Q 1591 2972 1913 2972 
Q 2475 2972 2870 2558 
Q 3266 2144 3266 1488 
Q 3266 1056 3080 686 
Q 2894 316 2569 119 
Q 2244 -78 1831 -78 
Q 1128 -78 684 439 
Q 241 956 241 2144 
Q 241 3472 731 4075 
Q 1159 4600 1884 4600 
Q 2425 4600 2770 4297 
Q 3116 3994 3184 3459 
z
M 888 1484 
Q 888 1194 1011 928 
Q 1134 663 1356 523 
Q 1578 384 1822 384 
Q 2178 384 2434 671 
Q 2691 959 2691 1453 
Q 2691 1928 2437 2201 
Q 2184 2475 1800 2475 
Q 1419 2475 1153 2201 
Q 888 1928 888 1484 
z
" transform="scale(0.015625)"/>
        <path id="ArialMT-37" d="M 303 3981 
L 303 4522 
L 3269 4522 
L 3269 4084 
Q 2831 3619 2401 2847 
Q 1972 2075 1738 1259 
Q 1569 684 1522 0 
L 944 0 
Q 953 541 1156 1306 
Q 1359 2072 1739 2783 
Q 2119 3494 2547 3981 
L 303 3981 
z
" transform="scale(0.015625)"/>
       </defs>
       <use xlink:href="#ArialMT-36"/>
       <use xlink:href="#ArialMT-38" x="55.615234"/>
       <use xlink:href="#ArialMT-37" x="111.230469"/>
      </g>
     </g>
    </g>
    <g id="ytick_4">
     <g id="line2d_4">
      <path d="M 135 301.486494 
L 972 301.486494 
" clip-path="url(#p69a2f01d9b)" style="fill: none; stroke: #ffffff; stroke-width: 1.3; stroke-linecap: round"/>
     </g>
     <g id="text_5">
      <!-- 987 -->
      <g style="fill: #262626" transform="translate(104.212344 306.139072) scale(0.13 -0.13)">
       <defs>
        <path id="ArialMT-39" d="M 350 1059 
L 891 1109 
Q 959 728 1153 556 
Q 1347 384 1650 384 
Q 1909 384 2104 503 
Q 2300 622 2425 820 
Q 2550 1019 2634 1356 
Q 2719 1694 2719 2044 
Q 2719 2081 2716 2156 
Q 2547 1888 2255 1720 
Q 1963 1553 1622 1553 
Q 1053 1553 659 1965 
Q 266 2378 266 3053 
Q 266 3750 677 4175 
Q 1088 4600 1706 4600 
Q 2153 4600 2523 4359 
Q 2894 4119 3086 3673 
Q 3278 3228 3278 2384 
Q 3278 1506 3087 986 
Q 2897 466 2520 194 
Q 2144 -78 1638 -78 
Q 1100 -78 759 220 
Q 419 519 350 1059 
z
M 2653 3081 
Q 2653 3566 2395 3850 
Q 2138 4134 1775 4134 
Q 1400 4134 1122 3828 
Q 844 3522 844 3034 
Q 844 2597 1108 2323 
Q 1372 2050 1759 2050 
Q 2150 2050 2401 2323 
Q 2653 2597 2653 3081 
z
" transform="scale(0.015625)"/>
       </defs>
       <use xlink:href="#ArialMT-39"/>
       <use xlink:href="#ArialMT-38" x="55.615234"/>
       <use xlink:href="#ArialMT-37" x="111.230469"/>
      </g>
     </g>
    </g>
    <g id="ytick_5">
     <g id="line2d_5">
      <path d="M 135 321.907776 
L 972 321.907776 
" clip-path="url(#p69a2f01d9b)" style="fill: none; stroke: #ffffff; stroke-width: 1.3; stroke-linecap: round"/>
     </g>
     <g id="text_6">
      <!-- 1077 -->
      <g style="fill: #262626" transform="translate(96.983125 326.560354) scale(0.13 -0.13)">
       <defs>
        <path id="ArialMT-31" d="M 2384 0 
L 1822 0 
L 1822 3584 
Q 1619 3391 1289 3197 
Q 959 3003 697 2906 
L 697 3450 
Q 1169 3672 1522 3987 
Q 1875 4303 2022 4600 
L 2384 4600 
L 2384 0 
z
" transform="scale(0.015625)"/>
        <path id="ArialMT-30" d="M 266 2259 
Q 266 3072 433 3567 
Q 600 4063 929 4331 
Q 1259 4600 1759 4600 
Q 2128 4600 2406 4451 
Q 2684 4303 2865 4023 
Q 3047 3744 3150 3342 
Q 3253 2941 3253 2259 
Q 3253 1453 3087 958 
Q 2922 463 2592 192 
Q 2263 -78 1759 -78 
Q 1097 -78 719 397 
Q 266 969 266 2259 
z
M 844 2259 
Q 844 1131 1108 757 
Q 1372 384 1759 384 
Q 2147 384 2411 759 
Q 2675 1134 2675 2259 
Q 2675 3391 2411 3762 
Q 2147 4134 1753 4134 
Q 1366 4134 1134 3806 
Q 844 3388 844 2259 
z
" transform="scale(0.015625)"/>
       </defs>
       <use xlink:href="#ArialMT-31"/>
       <use xlink:href="#ArialMT-30" x="55.615234"/>
       <use xlink:href="#ArialMT-37" x="111.230469"/>
       <use xlink:href="#ArialMT-37" x="166.845703"/>
      </g>
     </g>
    </g>
    <g id="ytick_6">
     <g id="line2d_6">
      <path d="M 135 349.589959 
L 972 349.589959 
" clip-path="url(#p69a2f01d9b)" style="fill: none; stroke: #ffffff; stroke-width: 1.3; stroke-linecap: round"/>
     </g>
     <g id="text_7">
      <!-- 1199 -->
      <g style="fill: #262626" transform="translate(97.941875 354.242537) scale(0.13 -0.13)">
       <use xlink:href="#ArialMT-31"/>
       <use xlink:href="#ArialMT-31" x="48.240234"/>
       <use xlink:href="#ArialMT-39" x="103.855469"/>
       <use xlink:href="#ArialMT-39" x="159.470703"/>
      </g>
     </g>
    </g>
    <g id="ytick_7">
     <g id="line2d_7">
      <path d="M 135 440.578117 
L 972 440.578117 
" clip-path="url(#p69a2f01d9b)" style="fill: none; stroke: #ffffff; stroke-width: 1.3; stroke-linecap: round"/>
     </g>
     <g id="text_8">
      <!-- 1600 -->
      <g style="fill: #262626" transform="translate(96.983125 445.230695) scale(0.13 -0.13)">
       <use xlink:href="#ArialMT-31"/>
       <use xlink:href="#ArialMT-36" x="55.615234"/>
       <use xlink:href="#ArialMT-30" x="111.230469"/>
       <use xlink:href="#ArialMT-30" x="166.845703"/>
      </g>
     </g>
    </g>
    <g id="text_9">
     <!-- Depth in meters (true change points indicated at ticks) -->
     <g style="fill: #262626" transform="translate(89.826094 506.484141) rotate(-90) scale(0.15 -0.15)">
      <defs>
       <path id="ArialMT-44" d="M 494 0 
L 494 4581 
L 2072 4581 
Q 2606 4581 2888 4516 
Q 3281 4425 3559 4188 
Q 3922 3881 4101 3404 
Q 4281 2928 4281 2316 
Q 4281 1794 4159 1391 
Q 4038 988 3847 723 
Q 3656 459 3429 307 
Q 3203 156 2883 78 
Q 2563 0 2147 0 
L 494 0 
z
M 1100 541 
L 2078 541 
Q 2531 541 2789 625 
Q 3047 709 3200 863 
Q 3416 1078 3536 1442 
Q 3656 1806 3656 2325 
Q 3656 3044 3420 3430 
Q 3184 3816 2847 3947 
Q 2603 4041 2063 4041 
L 1100 4041 
L 1100 541 
z
" transform="scale(0.015625)"/>
       <path id="ArialMT-70" d="M 422 -1272 
L 422 3319 
L 934 3319 
L 934 2888 
Q 1116 3141 1344 3267 
Q 1572 3394 1897 3394 
Q 2322 3394 2647 3175 
Q 2972 2956 3137 2557 
Q 3303 2159 3303 1684 
Q 3303 1175 3120 767 
Q 2938 359 2589 142 
Q 2241 -75 1856 -75 
Q 1575 -75 1351 44 
Q 1128 163 984 344 
L 984 -1272 
L 422 -1272 
z
M 931 1641 
Q 931 1000 1190 694 
Q 1450 388 1819 388 
Q 2194 388 2461 705 
Q 2728 1022 2728 1688 
Q 2728 2322 2467 2637 
Q 2206 2953 1844 2953 
Q 1484 2953 1207 2617 
Q 931 2281 931 1641 
z
" transform="scale(0.015625)"/>
       <path id="ArialMT-6d" d="M 422 0 
L 422 3319 
L 925 3319 
L 925 2853 
Q 1081 3097 1340 3245 
Q 1600 3394 1931 3394 
Q 2300 3394 2536 3241 
Q 2772 3088 2869 2813 
Q 3263 3394 3894 3394 
Q 4388 3394 4653 3120 
Q 4919 2847 4919 2278 
L 4919 0 
L 4359 0 
L 4359 2091 
Q 4359 2428 4304 2576 
Q 4250 2725 4106 2815 
Q 3963 2906 3769 2906 
Q 3419 2906 3187 2673 
Q 2956 2441 2956 1928 
L 2956 0 
L 2394 0 
L 2394 2156 
Q 2394 2531 2256 2718 
Q 2119 2906 1806 2906 
Q 1569 2906 1367 2781 
Q 1166 2656 1075 2415 
Q 984 2175 984 1722 
L 984 0 
L 422 0 
z
" transform="scale(0.015625)"/>
       <path id="ArialMT-6b" d="M 425 0 
L 425 4581 
L 988 4581 
L 988 1969 
L 2319 3319 
L 3047 3319 
L 1778 2088 
L 3175 0 
L 2481 0 
L 1384 1697 
L 988 1316 
L 988 0 
L 425 0 
z
" transform="scale(0.015625)"/>
      </defs>
      <use xlink:href="#ArialMT-44"/>
      <use xlink:href="#ArialMT-65" x="72.216797"/>
      <use xlink:href="#ArialMT-70" x="127.832031"/>
      <use xlink:href="#ArialMT-74" x="183.447266"/>
      <use xlink:href="#ArialMT-68" x="211.230469"/>
      <use xlink:href="#ArialMT-20" x="266.845703"/>
      <use xlink:href="#ArialMT-69" x="294.628906"/>
      <use xlink:href="#ArialMT-6e" x="316.845703"/>
      <use xlink:href="#ArialMT-20" x="372.460938"/>
      <use xlink:href="#ArialMT-6d" x="400.244141"/>
      <use xlink:href="#ArialMT-65" x="483.544922"/>
      <use xlink:href="#ArialMT-74" x="539.160156"/>
      <use xlink:href="#ArialMT-65" x="566.943359"/>
      <use xlink:href="#ArialMT-72" x="622.558594"/>
      <use xlink:href="#ArialMT-73" x="655.859375"/>
      <use xlink:href="#ArialMT-20" x="705.859375"/>
      <use xlink:href="#ArialMT-28" x="733.642578"/>
      <use xlink:href="#ArialMT-74" x="766.943359"/>
      <use xlink:href="#ArialMT-72" x="794.726562"/>
      <use xlink:href="#ArialMT-75" x="828.027344"/>
      <use xlink:href="#ArialMT-65" x="883.642578"/>
      <use xlink:href="#ArialMT-20" x="939.257812"/>
      <use xlink:href="#ArialMT-63" x="967.041016"/>
      <use xlink:href="#ArialMT-68" x="1017.041016"/>
      <use xlink:href="#ArialMT-61" x="1072.65625"/>
      <use xlink:href="#ArialMT-6e" x="1128.271484"/>
      <use xlink:href="#ArialMT-67" x="1183.886719"/>
      <use xlink:href="#ArialMT-65" x="1239.501953"/>
      <use xlink:href="#ArialMT-20" x="1295.117188"/>
      <use xlink:href="#ArialMT-70" x="1322.900391"/>
      <use xlink:href="#ArialMT-6f" x="1378.515625"/>
      <use xlink:href="#ArialMT-69" x="1434.130859"/>
      <use xlink:href="#ArialMT-6e" x="1456.347656"/>
      <use xlink:href="#ArialMT-74" x="1511.962891"/>
      <use xlink:href="#ArialMT-73" x="1539.746094"/>
      <use xlink:href="#ArialMT-20" x="1589.746094"/>
      <use xlink:href="#ArialMT-69" x="1617.529297"/>
      <use xlink:href="#ArialMT-6e" x="1639.746094"/>
      <use xlink:href="#ArialMT-64" x="1695.361328"/>
      <use xlink:href="#ArialMT-69" x="1750.976562"/>
      <use xlink:href="#ArialMT-63" x="1773.193359"/>
      <use xlink:href="#ArialMT-61" x="1823.193359"/>
      <use xlink:href="#ArialMT-74" x="1878.808594"/>
      <use xlink:href="#ArialMT-65" x="1906.591797"/>
      <use xlink:href="#ArialMT-64" x="1962.207031"/>
      <use xlink:href="#ArialMT-20" x="2017.822266"/>
      <use xlink:href="#ArialMT-61" x="2045.605469"/>
      <use xlink:href="#ArialMT-74" x="2101.220703"/>
      <use xlink:href="#ArialMT-20" x="2129.003906"/>
      <use xlink:href="#ArialMT-74" x="2156.787109"/>
      <use xlink:href="#ArialMT-69" x="2184.570312"/>
      <use xlink:href="#ArialMT-63" x="2206.787109"/>
      <use xlink:href="#ArialMT-6b" x="2256.787109"/>
      <use xlink:href="#ArialMT-73" x="2306.787109"/>
      <use xlink:href="#ArialMT-29" x="2356.787109"/>
     </g>
    </g>
   </g>
   <g id="line2d_8">
    <path d="M 135 440.578117 
L 972 440.578117 
" clip-path="url(#p69a2f01d9b)" style="fill: none; stroke: #000000; stroke-opacity: 0.1; stroke-width: 2.275; stroke-linecap: round"/>
   </g>
   <g id="line2d_9">
    <path d="M 135 142.881201 
L 972 142.881201 
" clip-path="url(#p69a2f01d9b)" style="fill: none; stroke: #ffa500; stroke-opacity: 0.65; stroke-width: 2.275; stroke-linecap: round"/>
   </g>
   <g id="line2d_10">
    <path d="M 135 187.127312 
L 972 187.127312 
" clip-path="url(#p69a2f01d9b)" style="fill: none; stroke: #ffa500; stroke-opacity: 0.65; stroke-width: 2.275; stroke-linecap: round"/>
   </g>
   <g id="line2d_11">
    <path d="M 135 233.415553 
L 972 233.415553 
" clip-path="url(#p69a2f01d9b)" style="fill: none; stroke: #ffa500; stroke-opacity: 0.65; stroke-width: 2.275; stroke-linecap: round"/>
   </g>
   <g id="line2d_12">
    <path d="M 135 301.486494 
L 972 301.486494 
" clip-path="url(#p69a2f01d9b)" style="fill: none; stroke: #ffa500; stroke-opacity: 0.65; stroke-width: 2.275; stroke-linecap: round"/>
   </g>
   <g id="line2d_13">
    <path d="M 135 321.907776 
L 972 321.907776 
" clip-path="url(#p69a2f01d9b)" style="fill: none; stroke: #ffa500; stroke-opacity: 0.65; stroke-width: 2.275; stroke-linecap: round"/>
   </g>
   <g id="line2d_14">
    <path d="M 135 349.589959 
L 972 349.589959 
" clip-path="url(#p69a2f01d9b)" style="fill: none; stroke: #ffa500; stroke-opacity: 0.65; stroke-width: 2.275; stroke-linecap: round"/>
   </g>
   <g id="line2d_15">
    <path d="M 135 440.578117 
L 972 440.578117 
" clip-path="url(#p69a2f01d9b)" style="fill: none; stroke: #000000; stroke-opacity: 0.005; stroke-width: 2.275; stroke-linecap: round"/>
   </g>
   <g id="line2d_16">
    <path d="M 653.142857 77.533097 
L 653.142857 301.259591 
L 653.598654 301.486494 
L 653.623145 301.9403 
L 653.519169 302.167203 
L 653.599097 302.394106 
L 653.483554 302.847913 
L 653.563164 303.074816 
L 653.485415 303.528622 
L 653.423559 303.982428 
L 653.355073 304.436235 
L 653.3553 304.890041 
L 653.308678 305.797653 
L 653.276533 307.839782 
L 653.32855 308.293588 
L 653.284045 309.88191 
L 653.282943 311.016426 
L 653.329855 313.058554 
L 653.43474 313.285457 
L 653.39102 313.739263 
L 653.487222 313.966166 
L 653.446377 314.19307 
L 653.645545 314.646876 
L 653.538179 314.873779 
L 653.701116 315.554488 
L 653.629763 315.781392 
L 653.869766 316.008295 
L 653.912541 316.462101 
L 653.670695 316.689004 
L 653.915326 316.915907 
L 653.751221 317.596617 
L 653.950701 317.82352 
L 653.985718 318.050423 
L 654.140772 318.277326 
L 653.883965 318.504229 
L 654.110495 318.731132 
L 653.964848 318.958035 
L 654.286342 319.184939 
L 653.995583 319.411842 
L 654.12236 319.638745 
L 654.093957 319.865648 
L 654.373146 320.319454 
L 654.98599 320.546357 
L 654.802087 320.773261 
L 655.41651 321.000164 
L 655.155178 321.227067 
L 655.339992 321.45397 
L 654.965603 321.680873 
L 655.526154 321.907776 
L 655.704642 322.134679 
L 656.382097 322.361583 
L 657.615015 322.588486 
L 656.192692 322.815389 
L 656.075075 323.042292 
L 656.805006 323.269195 
L 656.213637 323.496098 
L 657.072557 323.949905 
L 656.705379 324.176808 
L 656.673269 324.630614 
L 657.782167 325.08442 
L 660.988189 325.76513 
L 663.33395 325.992033 
L 661.398646 326.218936 
L 660.47133 326.445839 
L 658.93238 326.672742 
L 661.377706 326.899645 
L 658.921673 327.126548 
L 663.726323 327.353452 
L 665.138136 327.580355 
L 661.509116 327.807258 
L 662.212671 328.034161 
L 664.216162 328.261064 
L 660.620035 328.487967 
L 660.054306 328.941774 
L 657.8204 329.168677 
L 657.847092 329.39558 
L 657.351875 329.622483 
L 657.664103 329.849386 
L 656.361508 330.076289 
L 656.719516 330.303192 
L 655.84382 330.530095 
L 655.482813 330.983902 
L 655.01208 331.210805 
L 655.422681 331.437708 
L 654.889837 331.664611 
L 655.089738 331.891514 
L 654.764786 332.118417 
L 654.916936 332.345321 
L 654.387016 332.572224 
L 654.632063 332.799127 
L 654.159617 333.479836 
L 654.636964 334.160546 
L 654.143544 334.614352 
L 654.055017 335.068158 
L 654.222672 335.295061 
L 654.176103 335.521965 
L 654.999149 335.748868 
L 654.556206 335.975771 
L 654.368672 336.429577 
L 654.257868 336.65648 
L 654.888124 336.883383 
L 654.691088 337.33719 
L 655.002413 337.564093 
L 654.498073 337.790996 
L 654.723977 338.244802 
L 656.01899 338.471705 
L 655.44182 338.698608 
L 656.428266 339.379318 
L 655.631066 339.606221 
L 657.001911 340.060027 
L 656.387312 340.28693 
L 656.276859 340.513834 
L 656.819478 340.740737 
L 655.564635 340.96764 
L 656.392058 341.194543 
L 655.891683 341.421446 
L 656.542967 341.648349 
L 655.585802 341.875252 
L 655.390504 342.102156 
L 655.861352 342.329059 
L 655.28249 342.555962 
L 655.206026 342.782865 
L 655.329944 343.009768 
L 655.246301 343.236671 
L 654.96184 343.463574 
L 654.413948 343.690477 
L 654.738775 343.917381 
L 654.269527 344.371187 
L 654.652926 344.59809 
L 654.056565 344.824993 
L 654.464318 345.051896 
L 654.182529 345.278799 
L 654.421633 345.505703 
L 653.984112 345.732606 
L 653.597293 346.413315 
L 653.778086 346.640218 
L 653.545157 347.320928 
L 653.669919 348.455443 
L 653.480418 349.136153 
L 653.311157 351.178281 
L 653.352387 351.632087 
L 653.267514 359.8006 
L 653.261395 361.388922 
L 653.237951 361.842729 
L 653.277486 362.523438 
L 653.245613 365.019372 
L 653.324 365.473179 
L 653.240999 366.380791 
L 653.324575 366.607694 
L 653.316689 367.061501 
L 653.360195 367.288404 
L 653.288741 367.515307 
L 653.383506 367.74221 
L 653.323882 368.42292 
L 653.383101 368.876726 
L 653.251943 369.103629 
L 653.495676 369.784338 
L 653.324475 370.011241 
L 653.332183 370.238145 
L 653.670636 370.691951 
L 653.570047 370.918854 
L 654.284548 371.145757 
L 653.786153 371.37266 
L 653.706575 371.599563 
L 654.282295 371.826467 
L 654.370683 372.05337 
L 654.322243 372.280273 
L 654.69248 372.507176 
L 654.503399 372.734079 
L 654.532361 372.960982 
L 653.834639 373.187885 
L 654.116378 373.414789 
L 655.03841 373.641692 
L 655.308501 373.868595 
L 654.411761 374.095498 
L 655.581505 374.322401 
L 654.840884 374.549304 
L 654.839693 374.776207 
L 655.750507 375.003111 
L 654.824874 375.230014 
L 654.699841 375.456917 
L 654.148321 375.68382 
L 654.232048 375.910723 
L 655.048018 376.137626 
L 654.897434 376.364529 
L 655.2337 376.591432 
L 654.875048 376.818336 
L 654.114314 377.045239 
L 654.362613 377.272142 
L 654.173039 377.499045 
L 654.573339 377.725948 
L 654.137345 377.952851 
L 654.247667 378.179754 
L 653.972493 378.406658 
L 654.070043 378.633561 
L 653.850029 379.087367 
L 654.025592 379.541173 
L 653.844573 379.768076 
L 654.196166 379.99498 
L 653.782842 380.221883 
L 653.670075 380.448786 
L 653.905143 380.675689 
L 653.51046 381.356398 
L 653.743757 381.810205 
L 653.488749 382.037108 
L 653.516892 382.264011 
L 653.664698 382.490914 
L 653.601956 382.717817 
L 653.397217 382.94472 
L 653.555306 383.171623 
L 653.411967 383.398527 
L 653.680517 383.62543 
L 653.5253 383.852333 
L 653.687945 384.306139 
L 653.502458 384.533042 
L 653.521084 385.667558 
L 653.417945 386.121364 
L 653.439635 386.575171 
L 653.351964 387.709686 
L 653.431517 387.936589 
L 653.292456 389.071105 
L 653.31088 389.524911 
L 653.271328 390.659427 
L 653.258243 391.340136 
L 653.46224 391.793943 
L 653.390546 393.382265 
L 653.312521 393.609168 
L 653.489279 393.836071 
L 653.380206 394.062974 
L 653.394646 394.51678 
L 653.313845 394.970587 
L 653.316552 395.651296 
L 653.262718 396.785812 
L 653.253032 397.920327 
L 653.384241 398.601037 
L 653.307242 399.054843 
L 653.340661 400.189359 
L 653.325537 401.096971 
L 653.210354 401.323874 
L 653.301654 401.777681 
L 653.215002 402.912196 
L 653.215299 403.819809 
L 653.179664 411.988322 
L 653.17566 414.71116 
L 653.181485 416.526385 
L 653.222461 435.132442 
L 653.323018 436.947667 
L 653.275342 437.628377 
L 653.326082 438.309086 
L 653.278126 438.762892 
L 653.356485 439.216698 
L 653.254432 439.443602 
L 653.544147 440.124311 
L 653.142857 440.351214 
L 653.142857 440.351214 
" clip-path="url(#p69a2f01d9b)" style="fill: none; stroke: #800080; stroke-opacity: 0.9; stroke-linecap: round"/>
   </g>
   <g id="line2d_17">
    <path d="M 414 77.533097 
L 414 142.881201 
L 414.682534 143.108104 
L 414.397504 143.335007 
L 414.487233 143.788813 
L 414.148544 144.469523 
L 414.066358 145.604038 
L 414.073315 147.19236 
L 414.025653 148.780682 
L 414.043278 149.461392 
L 414.058834 152.184229 
L 414.050915 153.091842 
L 414.325585 157.176098 
L 414.410321 157.403001 
L 415.153739 157.629905 
L 437.505216 158.083711 
L 422.767979 158.310614 
L 417.233881 158.76442 
L 423.583095 158.991323 
L 418.508884 159.218226 
L 418.547794 159.44513 
L 417.682893 159.672033 
L 418.224564 159.898936 
L 421.468921 160.125839 
L 419.402613 160.352742 
L 428.187348 160.806548 
L 424.887771 161.033452 
L 452.723643 161.487258 
L 449.938089 161.714161 
L 436.512768 161.941064 
L 432.182305 162.167967 
L 416.799508 162.39487 
L 414.490037 162.621774 
L 414.1481 163.07558 
L 414.057927 163.756289 
L 414.035197 165.798417 
L 414.056415 166.932933 
L 414.043452 171.244093 
L 414.041547 172.832415 
L 414.057568 176.235962 
L 414.307638 178.27809 
L 414.544404 178.504993 
L 416.421544 178.958799 
L 418.125779 179.185703 
L 421.720191 179.412606 
L 433.267052 179.639509 
L 424.184566 179.866412 
L 422.409622 180.093315 
L 438.804844 180.320218 
L 414.596435 180.547121 
L 414.094193 180.774025 
L 414.115735 181.681637 
L 414.228064 182.816153 
L 414.273709 183.269959 
L 414.265001 183.496862 
L 414.390059 183.723765 
L 414.34618 184.177572 
L 414.515426 184.858281 
L 414.451774 185.085184 
L 414.862633 185.992797 
L 414.724303 186.2197 
L 414.81983 186.446603 
L 414.667179 186.673506 
L 416.061935 187.808022 
L 416.935326 188.034925 
L 417.535508 188.488731 
L 418.744557 188.942538 
L 423.718466 189.623247 
L 419.317942 189.85015 
L 419.247058 190.077053 
L 416.666138 190.530859 
L 422.207 190.757763 
L 424.700943 190.984666 
L 431.555082 191.211569 
L 423.215719 191.665375 
L 417.883454 191.892278 
L 421.598858 192.119181 
L 417.354265 192.346085 
L 417.351258 192.572988 
L 414.89853 193.026794 
L 414.664909 193.253697 
L 414.631505 193.4806 
L 414.355534 193.707503 
L 414.072668 194.615116 
L 414.027372 195.522729 
L 414.023304 197.337954 
L 414.015857 204.371951 
L 414.023028 208.229304 
L 414.099229 210.271432 
L 414.238997 210.498336 
L 414.320009 210.952142 
L 414.383477 211.179045 
L 415.931813 212.086658 
L 417.793012 212.313561 
L 416.396351 212.540464 
L 419.248686 212.767367 
L 419.556056 212.99427 
L 423.596501 213.221173 
L 436.730827 213.67498 
L 420.264069 213.901883 
L 414.823264 214.128786 
L 414.207684 214.582592 
L 414.058917 215.036398 
L 414.017759 215.944011 
L 414.290679 224.56633 
L 414.41597 224.793233 
L 414.466724 225.473943 
L 414.663883 226.381555 
L 415.463772 227.742974 
L 416.353085 227.969877 
L 415.740266 228.19678 
L 416.248067 228.650587 
L 416.873509 228.87749 
L 416.748302 229.104393 
L 417.33087 229.331296 
L 416.920863 229.558199 
L 417.079204 229.785102 
L 418.210388 230.238909 
L 417.921664 230.465812 
L 419.086337 230.919618 
L 421.066761 231.373424 
L 421.140977 231.600327 
L 424.412027 232.054134 
L 424.230023 232.281037 
L 423.074077 232.50794 
L 425.346752 232.734843 
L 425.997136 232.961746 
L 428.295515 233.188649 
L 445.561555 233.642456 
L 440.969274 233.869359 
L 429.232894 234.323165 
L 426.424129 234.550068 
L 422.031459 234.776971 
L 419.941612 235.003874 
L 419.544256 235.230778 
L 416.65449 235.911487 
L 415.834787 236.13839 
L 415.856477 236.365293 
L 415.379377 236.592196 
L 415.330336 236.8191 
L 414.749473 237.272906 
L 414.589341 237.726712 
L 414.579395 237.953615 
L 414.332145 238.180518 
L 414.369276 238.407422 
L 414.23456 238.634325 
L 414.218012 239.088131 
L 414.362684 242.491678 
L 414.584336 243.172387 
L 414.471692 243.399291 
L 414.554943 243.626194 
L 414.829509 243.853097 
L 414.675324 244.08 
L 415.016285 244.306903 
L 414.88441 244.533806 
L 415.207472 244.760709 
L 415.202397 244.987613 
L 415.566407 245.214516 
L 415.33209 245.441419 
L 415.545697 246.122128 
L 415.826777 246.349031 
L 415.806112 246.575935 
L 416.746373 247.029741 
L 417.061855 247.256644 
L 417.893856 247.483547 
L 418.055435 247.71045 
L 420.361834 248.164256 
L 419.613799 248.39116 
L 420.292222 248.618063 
L 420.411342 248.844966 
L 421.217197 249.071869 
L 419.486086 249.298772 
L 423.583778 249.525675 
L 425.20442 249.752578 
L 424.36002 249.979482 
L 418.811521 250.433288 
L 416.80932 250.660191 
L 415.302118 251.113997 
L 414.670899 251.567804 
L 414.458473 251.794707 
L 414.349263 252.475416 
L 414.178979 252.929222 
L 414.047604 254.063738 
L 414.020188 258.601801 
L 414 259.055607 
L 415.616643 259.28251 
L 414.252853 259.509413 
L 414.369791 259.96322 
L 414.332366 260.417026 
L 414.283674 260.870832 
L 414.189685 261.551542 
L 414.288013 262.232251 
L 414.211432 262.91296 
L 414.292017 263.366767 
L 414.1857 264.728186 
L 414.324903 266.089604 
L 414.262659 266.770314 
L 414.4178 268.812442 
L 414.636327 269.039345 
L 414.488297 270.400764 
L 415.038177 271.308377 
L 414.808797 271.53528 
L 414.909912 271.762183 
L 414.887207 271.989086 
L 415.130251 272.215989 
L 415.205198 272.442892 
L 415.123079 272.669795 
L 415.389493 272.896698 
L 415.194083 273.577408 
L 415.567211 273.804311 
L 415.538061 274.031214 
L 415.703234 274.258117 
L 416.429632 274.711924 
L 416.42662 274.938827 
L 417.161989 275.16573 
L 417.206815 275.392633 
L 417.981478 275.619536 
L 418.178612 275.846439 
L 419.420713 276.073342 
L 418.964065 276.300246 
L 417.417015 276.527149 
L 419.759849 276.754052 
L 420.507322 276.980955 
L 419.405856 277.434761 
L 420.177296 277.661664 
L 420.000454 277.888568 
L 421.793991 278.115471 
L 418.453619 278.342374 
L 422.972393 278.569277 
L 422.734025 278.79618 
L 423.256116 279.023083 
L 427.421608 279.249986 
L 429.214392 279.476889 
L 427.031258 279.703793 
L 428.179364 279.930696 
L 431.169184 280.157599 
L 428.64162 280.384502 
L 428.809073 280.611405 
L 441.867889 280.838308 
L 447.080059 281.065211 
L 455.870274 281.292115 
L 530.54209 281.745921 
L 422.422834 282.199727 
L 418.128397 282.42663 
L 416.054566 282.880437 
L 415.528006 283.334243 
L 415.373542 283.561146 
L 415.507786 283.788049 
L 415.176951 284.241855 
L 415.384238 284.468759 
L 414.911322 285.149468 
L 415.276639 285.376371 
L 414.756413 285.603274 
L 415.130311 286.510887 
L 415.121537 286.73779 
L 415.239716 286.964693 
L 414.950823 287.191596 
L 415.010805 287.418499 
L 414.925189 287.645402 
L 415.181375 287.872306 
L 414.796698 288.099209 
L 414.858069 288.326112 
L 414.774089 288.553015 
L 415.309049 288.779918 
L 415.32868 289.233724 
L 414.937274 289.460628 
L 414.931257 289.687531 
L 415.427571 289.914434 
L 415.34661 290.141337 
L 416.618711 290.595143 
L 415.856811 290.822046 
L 415.616229 291.04895 
L 415.900145 291.275853 
L 418.088848 291.729659 
L 418.065321 291.956562 
L 417.339328 292.183465 
L 420.094404 292.637271 
L 418.996053 292.864175 
L 419.472792 293.091078 
L 418.869633 293.317981 
L 416.588974 293.771787 
L 416.442867 293.99869 
L 416.7415 294.225593 
L 418.115657 294.452497 
L 418.008739 294.6794 
L 424.188401 295.133206 
L 417.712795 295.360109 
L 422.03603 295.587012 
L 421.360261 295.813915 
L 416.610755 296.040819 
L 419.266616 296.267722 
L 420.595617 296.494625 
L 414.806202 296.721528 
L 414.839609 296.948431 
L 415.33571 297.175334 
L 415.273352 297.402237 
L 414.619515 297.629141 
L 414.715309 297.856044 
L 414.578743 298.082947 
L 414.71267 298.536753 
L 414.810138 298.763656 
L 415.032999 298.990559 
L 414.832954 299.217462 
L 414.951126 299.444366 
L 414.846038 299.671269 
L 415.13847 299.898172 
L 415.108171 300.125075 
L 414.632892 300.351978 
L 414.432081 300.578881 
L 414.577632 300.805784 
L 414.444193 301.032688 
L 414.560935 301.486494 
L 415.350809 301.713397 
L 414.606978 301.9403 
L 414.999994 302.167203 
L 414.56941 302.394106 
L 415.154737 302.62101 
L 414.521963 302.847913 
L 414.357212 303.074816 
L 414.728663 303.301719 
L 414.336881 303.528622 
L 414.302138 303.982428 
L 414.510638 304.663138 
L 414.256304 306.25146 
L 414.370275 306.478363 
L 414.144204 306.932169 
L 414.117271 308.520491 
L 414.095411 311.924038 
L 414.224819 319.184939 
L 414.384918 319.411842 
L 414.293697 319.865648 
L 414.772115 320.319454 
L 415.616821 320.773261 
L 416.706774 321.000164 
L 419.084871 321.227067 
L 425.335798 321.45397 
L 437.524191 321.680873 
L 424.84578 321.907776 
L 456.9735 322.588486 
L 418.457347 322.815389 
L 416.210119 323.042292 
L 416.591175 323.269195 
L 420.884368 323.723001 
L 434.265536 324.176808 
L 443.166325 324.403711 
L 470.698316 324.857517 
L 506.46523 325.08442 
L 612.207841 325.538226 
L 558.035209 325.76513 
L 438.036753 325.992033 
L 420.799112 326.218936 
L 416.000488 326.445839 
L 414.721174 326.672742 
L 414.282785 327.126548 
L 414.189647 327.580355 
L 414.17904 330.530095 
L 414.11925 332.345321 
L 414.134535 335.521965 
L 414.15556 336.883383 
L 414.298911 337.790996 
L 415.087819 338.244802 
L 416.509594 338.698608 
L 423.499799 339.152415 
L 428.49796 339.379318 
L 437.303798 339.606221 
L 478.228027 340.060027 
L 513.20574 340.28693 
L 443.546717 340.513834 
L 426.33606 340.740737 
L 420.323763 340.96764 
L 418.448429 341.194543 
L 414.89259 341.421446 
L 414.408772 341.648349 
L 414.059438 342.329059 
L 414.05944 343.917381 
L 414.043655 345.959509 
L 414.042703 353.447312 
L 414.041975 358.666085 
L 414.30463 364.565566 
L 414.650158 365.246276 
L 414.7384 365.926985 
L 415.12346 366.834598 
L 415.231413 367.061501 
L 415.09848 367.288404 
L 415.664598 367.74221 
L 416.098064 367.969113 
L 416.271125 368.196016 
L 417.334358 368.649823 
L 416.857872 368.876726 
L 419.271661 369.330532 
L 421.312349 369.557435 
L 421.517331 369.784338 
L 425.413747 370.691951 
L 429.732264 370.918854 
L 430.264832 371.145757 
L 436.753196 371.37266 
L 430.712219 371.599563 
L 441.905068 372.05337 
L 442.895289 372.280273 
L 440.492681 372.507176 
L 435.540469 372.734079 
L 424.182286 372.960982 
L 420.550365 373.187885 
L 419.292414 373.414789 
L 416.608762 373.641692 
L 414.818016 374.095498 
L 414.835059 374.322401 
L 414.421964 374.549304 
L 414.118681 375.456917 
L 414.054744 376.818336 
L 414.068897 392.928458 
L 414.102235 394.062974 
L 414.08855 394.743683 
L 414.109215 395.878199 
L 414.185536 396.558909 
L 414.024369 397.466521 
L 414 440.351214 
L 414 440.351214 
" clip-path="url(#p69a2f01d9b)" style="fill: none; stroke: #008000; stroke-opacity: 0.9; stroke-linecap: round"/>
   </g>
   <g id="line2d_18">
    <path d="M 174.857143 77.533097 
L 174.918433 93.189413 
L 175.421154 93.416317 
L 176.997292 93.64322 
L 198.583076 93.870123 
L 174.941488 94.097026 
L 174.858929 94.550832 
L 174.864189 107.030505 
L 174.983244 107.484311 
L 175.00296 107.711214 
L 175.14521 107.938117 
L 175.61447 108.16502 
L 187.273368 108.391924 
L 176.902676 108.618827 
L 185.547115 108.84573 
L 174.859549 109.072633 
L 174.87679 117.241146 
L 201.337755 117.468049 
L 174.94854 117.694952 
L 174.857709 118.148759 
L 174.860497 128.3594 
L 175.64532 128.813206 
L 186.781184 129.040109 
L 175.075876 129.267012 
L 174.860235 129.493915 
L 174.86136 138.116235 
L 175.053954 138.343138 
L 186.450436 138.570041 
L 178.855244 138.796944 
L 185.424494 139.023847 
L 175.042169 139.25075 
L 174.858201 139.704557 
L 174.90782 157.629905 
L 201.374338 157.856808 
L 174.859876 158.083711 
L 174.884601 161.260355 
L 175.185824 161.714161 
L 228.245034 161.941064 
L 177.658834 162.167967 
L 225.926068 162.39487 
L 175.054111 162.621774 
L 174.873558 163.07558 
L 174.865787 165.117708 
L 175.066848 165.798417 
L 175.444343 166.025321 
L 175.315253 166.252224 
L 175.580642 166.479127 
L 175.140353 166.70603 
L 175.164629 166.932933 
L 181.056356 167.159836 
L 192.084301 167.386739 
L 186.86038 167.613643 
L 176.00609 167.840546 
L 175.46767 168.067449 
L 182.871573 168.294352 
L 180.297242 168.521255 
L 174.87144 168.748158 
L 174.980399 177.143574 
L 175.103951 177.597381 
L 174.858024 177.824284 
L 174.969248 179.185703 
L 175.113791 179.412606 
L 175.935171 179.866412 
L 176.707948 180.093315 
L 181.926459 180.320218 
L 199.85332 180.547121 
L 175.978902 180.774025 
L 175.203975 181.000928 
L 174.923917 181.454734 
L 174.881395 182.362347 
L 174.87543 183.269959 
L 174.859963 185.53899 
L 174.942079 188.034925 
L 175.168299 188.488731 
L 176.397068 188.942538 
L 177.558352 189.169441 
L 187.064064 189.396344 
L 203.693361 189.623247 
L 287.410663 189.85015 
L 180.408395 190.077053 
L 175.750327 190.303956 
L 175.084781 190.530859 
L 184.71784 190.757763 
L 265.121056 190.984666 
L 181.233375 191.211569 
L 174.923194 191.438472 
L 174.864531 192.119181 
L 174.896591 195.295825 
L 175.095663 195.522729 
L 176.228608 196.203438 
L 188.102747 196.430341 
L 209.767823 196.657244 
L 216.209257 196.884147 
L 174.911186 197.11105 
L 174.857698 197.79176 
L 174.868213 199.833888 
L 263.706032 200.060791 
L 178.398365 200.287694 
L 175.388684 200.514598 
L 174.931096 200.741501 
L 174.858885 201.42221 
L 174.95003 213.448076 
L 175.23145 213.67498 
L 281.088343 213.901883 
L 174.906621 214.128786 
L 174.860524 214.809495 
L 174.858815 224.112524 
L 174.968969 231.146521 
L 175.046097 231.373424 
L 174.957731 231.600327 
L 175.157235 231.827231 
L 175.753472 232.054134 
L 267.903161 232.281037 
L 176.352374 232.50794 
L 176.152248 232.734843 
L 176.784353 232.961746 
L 184.361811 233.188649 
L 197.403144 233.415553 
L 290.862117 233.642456 
L 331.695864 233.869359 
L 409.645855 234.096262 
L 180.605147 234.323165 
L 176.487628 234.550068 
L 175.244206 234.776971 
L 175.056731 235.003874 
L 175.013532 235.230778 
L 206.04489 235.457681 
L 313.024148 235.684584 
L 178.166878 235.911487 
L 175.057734 236.13839 
L 174.869127 236.592196 
L 174.860292 246.122128 
L 174.881523 249.525675 
L 174.979545 249.752578 
L 183.239496 249.979482 
L 325.944699 250.206385 
L 174.989118 250.433288 
L 174.867788 250.887094 
L 174.866134 256.559673 
L 174.861798 265.862701 
L 174.906621 274.031214 
L 174.980286 274.938827 
L 174.879493 275.16573 
L 174.96207 275.846439 
L 174.877567 276.073342 
L 175.081935 276.980955 
L 174.950188 277.207858 
L 196.701436 277.434761 
L 304.953724 277.661664 
L 180.968532 277.888568 
L 176.905762 278.115471 
L 175.194592 278.342374 
L 175.607625 278.569277 
L 175.198708 278.79618 
L 176.335431 279.249986 
L 202.881586 279.476889 
L 370.673395 279.703793 
L 220.312595 279.930696 
L 303.475945 280.157599 
L 174.934786 280.384502 
L 175.181166 280.838308 
L 175.571937 281.065211 
L 178.115216 281.292115 
L 245.363272 281.745921 
L 400.823803 281.972824 
L 200.517948 282.199727 
L 174.993054 282.653533 
L 174.888672 283.334243 
L 174.859818 284.922565 
L 174.999094 294.6794 
L 175.297905 294.906303 
L 190.125075 295.133206 
L 269.782322 295.360109 
L 182.689657 295.813915 
L 174.87596 296.040819 
L 174.858333 297.856044 
L 174.927698 321.907776 
L 182.953905 322.134679 
L 332.410748 322.588486 
L 176.524382 322.815389 
L 175.001778 323.042292 
L 174.867442 323.269195 
L 174.943362 324.403711 
L 175.013546 324.630614 
L 175.596248 324.857517 
L 176.857728 325.08442 
L 233.599175 325.311323 
L 463.635129 325.538226 
L 470.458594 325.76513 
L 200.020279 325.992033 
L 194.037966 326.218936 
L 176.084299 326.445839 
L 175.267733 326.672742 
L 178.484258 326.899645 
L 188.562656 327.126548 
L 477.426922 327.353452 
L 184.081768 327.580355 
L 182.143886 328.034161 
L 175.000221 328.261064 
L 174.862646 329.39558 
L 174.863283 338.925512 
L 174.97248 339.152415 
L 175.842594 339.606221 
L 194.135447 339.833124 
L 310.932599 340.28693 
L 217.636983 340.513834 
L 175.632206 340.740737 
L 175.196626 340.96764 
L 174.86571 341.421446 
L 174.857147 344.59809 
L 174.926145 371.37266 
L 175.320797 371.599563 
L 185.58628 371.826467 
L 214.638869 372.05337 
L 287.552966 372.280273 
L 305.389132 372.507176 
L 218.600563 372.734079 
L 175.66839 372.960982 
L 175.517345 373.187885 
L 178.534877 373.414789 
L 174.940284 373.868595 
L 174.858242 374.549304 
L 174.857143 413.122838 
L 174.873912 440.351214 
L 174.873912 440.351214 
" clip-path="url(#p69a2f01d9b)" style="fill: none; stroke: #000000; stroke-opacity: 0.5; stroke-linecap: round"/>
   </g>
   <g id="line2d_19">
    <path d="M 812.571429 77.533097 
L 812.594025 78.894516 
L 812.584897 81.844256 
L 812.58111 90.466576 
L 812.600476 121.779209 
L 812.647587 123.821337 
L 812.648335 124.955853 
L 812.622636 125.863465 
L 812.628234 126.997981 
L 812.73245 132.216753 
L 812.837679 132.670559 
L 812.742252 133.351269 
L 812.910046 133.578172 
L 812.758186 134.031978 
L 812.924619 134.485784 
L 812.837035 135.166494 
L 812.68043 135.393397 
L 812.864578 135.6203 
L 812.904255 136.30101 
L 812.762743 136.527913 
L 812.952611 136.754816 
L 812.965201 137.435525 
L 813.233505 137.662428 
L 813.051226 137.889332 
L 813.084401 138.116235 
L 812.979218 138.343138 
L 813.062591 138.570041 
L 812.865 138.796944 
L 813.010216 139.477653 
L 813.30665 139.704557 
L 813.00616 140.158363 
L 813.203609 140.385266 
L 813.113434 140.612169 
L 813.273413 141.065975 
L 813.352213 141.292879 
L 814.056257 141.519782 
L 814.37224 141.746685 
L 815.031991 141.973588 
L 814.857158 142.200491 
L 816.303076 142.427394 
L 818.811706 142.654297 
L 823.53799 142.881201 
L 823.407592 143.108104 
L 818.614035 143.788813 
L 817.134388 144.015716 
L 817.17 144.242619 
L 817.465374 144.469523 
L 815.580058 144.923329 
L 815.671557 145.150232 
L 814.617804 145.377135 
L 814.207761 145.830941 
L 813.730147 146.057844 
L 813.860845 146.511651 
L 813.604768 146.738554 
L 813.887007 147.19236 
L 813.36257 147.419263 
L 813.478553 147.646166 
L 812.936107 148.099973 
L 813.511755 148.326876 
L 813.486071 148.553779 
L 813.047016 148.780682 
L 813.36993 149.007585 
L 813.321759 149.234488 
L 812.978156 149.461392 
L 813.219941 149.688295 
L 812.934955 150.142101 
L 812.844987 151.50352 
L 812.722348 151.730423 
L 812.749544 152.184229 
L 812.684287 152.411132 
L 812.778578 152.638035 
L 812.69404 152.864939 
L 812.804843 153.091842 
L 812.70826 153.772551 
L 812.780025 154.226357 
L 812.669991 154.453261 
L 812.741079 154.680164 
L 812.671959 155.13397 
L 812.580251 170.563383 
L 812.748714 181.90854 
L 812.905983 182.362347 
L 812.832334 182.58925 
L 812.894497 182.816153 
L 813.13987 183.043056 
L 813.078559 183.269959 
L 812.821956 183.496862 
L 813.599834 184.177572 
L 814.330777 184.404475 
L 813.429711 184.631378 
L 813.407518 184.858281 
L 813.958506 185.312087 
L 814.579546 185.53899 
L 814.411023 185.765894 
L 815.606268 185.992797 
L 815.405967 186.2197 
L 821.233191 187.127312 
L 820.866795 187.354216 
L 820.0091 187.581119 
L 816.862264 187.808022 
L 816.579129 188.034925 
L 814.986429 188.261828 
L 814.363981 188.488731 
L 813.288066 188.715634 
L 813.131418 188.942538 
L 813.129883 189.169441 
L 812.808682 189.396344 
L 812.676129 190.530859 
L 812.644786 191.665375 
L 812.598616 192.572988 
L 812.578275 212.313561 
L 812.814152 226.381555 
L 812.960204 227.289168 
L 812.842614 227.516071 
L 813.193282 227.969877 
L 813.299479 228.19678 
L 813.959427 228.87749 
L 813.831132 229.104393 
L 814.002209 229.331296 
L 814.711119 229.558199 
L 814.055024 229.785102 
L 814.338372 230.012005 
L 814.807375 230.238909 
L 814.872132 230.465812 
L 815.762691 230.692715 
L 815.300992 230.919618 
L 815.39813 231.146521 
L 816.587729 231.373424 
L 817.122781 231.827231 
L 816.439129 232.054134 
L 817.03269 232.281037 
L 816.584886 232.50794 
L 818.061872 232.734843 
L 821.201204 232.961746 
L 839.647039 233.415553 
L 817.911852 234.096262 
L 815.026139 234.323165 
L 814.096313 234.550068 
L 813.28171 235.003874 
L 812.909679 235.684584 
L 812.769757 236.13839 
L 812.843388 236.365293 
L 812.725463 236.592196 
L 812.664676 237.046003 
L 812.595649 240.676453 
L 812.588859 251.794707 
L 812.608042 255.65206 
L 812.588841 257.013479 
L 812.740061 258.374898 
L 812.579485 258.601801 
L 812.58467 261.551542 
L 812.580182 267.451023 
L 812.718291 298.30985 
L 812.91154 298.763656 
L 812.884159 298.990559 
L 813.156839 299.217462 
L 813.69876 299.444366 
L 813.541862 299.671269 
L 814.808937 299.898172 
L 814.760042 300.125075 
L 815.749848 300.351978 
L 819.037428 300.578881 
L 820.362178 300.805784 
L 825.115769 301.259591 
L 847.954836 301.486494 
L 834.474179 301.713397 
L 832.924577 301.9403 
L 818.571874 302.394106 
L 815.733392 302.62101 
L 814.734384 302.847913 
L 814.389943 303.074816 
L 814.577171 303.301719 
L 815.398325 303.528622 
L 813.788803 303.755525 
L 813.563045 303.982428 
L 813.103806 304.209332 
L 812.663103 305.116944 
L 812.60806 306.478363 
L 812.593424 309.655007 
L 812.636312 317.14281 
L 812.878293 318.731132 
L 813.132702 318.958035 
L 813.158395 319.184939 
L 813.515756 319.638745 
L 813.347954 319.865648 
L 813.664289 320.092551 
L 813.924808 320.546357 
L 817.479398 321.227067 
L 820.57915 321.45397 
L 821.197823 321.680873 
L 820.659998 321.907776 
L 820.922177 322.134679 
L 828.158053 322.361583 
L 825.914791 322.588486 
L 818.925599 322.815389 
L 819.377756 323.042292 
L 816.231778 323.269195 
L 815.098803 323.496098 
L 814.686666 323.723001 
L 814.433436 324.176808 
L 813.971239 324.403711 
L 813.575409 324.857517 
L 813.627232 325.311323 
L 813.558388 325.538226 
L 813.246906 325.76513 
L 813.525429 325.992033 
L 813.15054 326.218936 
L 812.932698 326.899645 
L 812.87617 327.353452 
L 812.718605 330.303192 
L 812.756539 330.983902 
L 812.692395 332.118417 
L 812.634179 333.706739 
L 812.622153 342.102156 
L 812.639183 345.732606 
L 812.752626 347.094025 
L 812.83058 347.547831 
L 813.35388 348.001637 
L 813.223321 348.22854 
L 813.301732 348.455443 
L 815.118356 348.682347 
L 815.898028 348.90925 
L 817.832855 349.136153 
L 821.288289 349.363056 
L 831.013967 349.589959 
L 814.511242 350.497572 
L 815.637387 350.724475 
L 813.755291 351.178281 
L 813.593605 351.405184 
L 813.133889 351.632087 
L 813.174351 351.85899 
L 812.877386 352.312797 
L 813.002423 352.5397 
L 812.773297 352.766603 
L 812.918354 352.993506 
L 812.773018 353.447312 
L 812.617291 355.716344 
L 812.586491 363.204147 
L 812.582222 382.490914 
L 812.5926 389.751814 
L 812.598889 393.155362 
L 812.571429 394.970587 
L 812.571429 394.970587 
" clip-path="url(#p69a2f01d9b)" style="fill: none; stroke: #0000ff; stroke-opacity: 0.9; stroke-linecap: round"/>
   </g>
   <g id="line2d_20">
    <path d="M 892.285714 77.533097 
L 892.285714 142.700846 
L 894.677143 142.927911 
L 894.677143 188.113911 
L 900.257143 188.340977 
L 900.257143 233.072846 
L 908.228571 233.299911 
L 908.228571 301.646575 
L 924.171429 301.87364 
L 924.171429 322.76365 
L 916.2 322.990716 
L 916.2 349.557359 
L 908.228571 349.784424 
L 908.228571 395.19749 
L 908.228571 395.19749 
" clip-path="url(#p69a2f01d9b)" style="fill: none; stroke: #ff0000; stroke-opacity: 0.7; stroke-width: 2.275; stroke-linecap: round"/>
   </g>
   <g id="patch_3">
    <path d="M 135 576.72 
L 135 77.76 
" style="fill: none; stroke: #ffffff; stroke-linejoin: miter; stroke-linecap: square"/>
   </g>
   <g id="patch_4">
    <path d="M 972 576.72 
L 972 77.76 
" style="fill: none; stroke: #ffffff; stroke-linejoin: miter; stroke-linecap: square"/>
   </g>
   <g id="patch_5">
    <path d="M 135 576.72 
L 972 576.72 
" style="fill: none; stroke: #ffffff; stroke-linejoin: miter; stroke-linecap: square"/>
   </g>
   <g id="patch_6">
    <path d="M 135 77.76 
L 972 77.76 
" style="fill: none; stroke: #ffffff; stroke-linejoin: miter; stroke-linecap: square"/>
   </g>
   <g id="legend_1">
    <g id="text_10">
     <!-- Probability of Change Point: -->
     <g style="fill: #262626" transform="translate(692.347641 453.01425) scale(0.144 -0.144)">
      <defs>
       <path id="ArialMT-43" d="M 3763 1606 
L 4369 1453 
Q 4178 706 3683 314 
Q 3188 -78 2472 -78 
Q 1731 -78 1267 223 
Q 803 525 561 1097 
Q 319 1669 319 2325 
Q 319 3041 592 3573 
Q 866 4106 1370 4382 
Q 1875 4659 2481 4659 
Q 3169 4659 3637 4309 
Q 4106 3959 4291 3325 
L 3694 3184 
Q 3534 3684 3231 3912 
Q 2928 4141 2469 4141 
Q 1941 4141 1586 3887 
Q 1231 3634 1087 3207 
Q 944 2781 944 2328 
Q 944 1744 1114 1308 
Q 1284 872 1643 656 
Q 2003 441 2422 441 
Q 2931 441 3284 734 
Q 3638 1028 3763 1606 
z
" transform="scale(0.015625)"/>
       <path id="ArialMT-3a" d="M 578 2678 
L 578 3319 
L 1219 3319 
L 1219 2678 
L 578 2678 
z
M 578 0 
L 578 641 
L 1219 641 
L 1219 0 
L 578 0 
z
" transform="scale(0.015625)"/>
      </defs>
      <use xlink:href="#ArialMT-50"/>
      <use xlink:href="#ArialMT-72" x="66.699219"/>
      <use xlink:href="#ArialMT-6f" x="100"/>
      <use xlink:href="#ArialMT-62" x="155.615234"/>
      <use xlink:href="#ArialMT-61" x="211.230469"/>
      <use xlink:href="#ArialMT-62" x="266.845703"/>
      <use xlink:href="#ArialMT-69" x="322.460938"/>
      <use xlink:href="#ArialMT-6c" x="344.677734"/>
      <use xlink:href="#ArialMT-69" x="366.894531"/>
      <use xlink:href="#ArialMT-74" x="389.111328"/>
      <use xlink:href="#ArialMT-79" x="416.894531"/>
      <use xlink:href="#ArialMT-20" x="466.894531"/>
      <use xlink:href="#ArialMT-6f" x="494.677734"/>
      <use xlink:href="#ArialMT-66" x="550.292969"/>
      <use xlink:href="#ArialMT-20" x="578.076172"/>
      <use xlink:href="#ArialMT-43" x="605.859375"/>
      <use xlink:href="#ArialMT-68" x="678.076172"/>
      <use xlink:href="#ArialMT-61" x="733.691406"/>
      <use xlink:href="#ArialMT-6e" x="789.306641"/>
      <use xlink:href="#ArialMT-67" x="844.921875"/>
      <use xlink:href="#ArialMT-65" x="900.537109"/>
      <use xlink:href="#ArialMT-20" x="956.152344"/>
      <use xlink:href="#ArialMT-50" x="983.935547"/>
      <use xlink:href="#ArialMT-6f" x="1050.634766"/>
      <use xlink:href="#ArialMT-69" x="1106.25"/>
      <use xlink:href="#ArialMT-6e" x="1128.466797"/>
      <use xlink:href="#ArialMT-74" x="1184.082031"/>
      <use xlink:href="#ArialMT-3a" x="1211.865234"/>
     </g>
    </g>
    <g id="line2d_21">
     <path d="M 604.694531 469.031719 
L 619.694531 469.031719 
L 634.694531 469.031719 
" style="fill: none; stroke: #800080; stroke-opacity: 0.9; stroke-linecap: round"/>
    </g>
    <g id="text_11">
     <!-- only PHI predictions -->
     <g style="fill: #262626" transform="translate(646.694531 474.281719) scale(0.15 -0.15)">
      <defs>
       <path id="ArialMT-48" d="M 513 0 
L 513 4581 
L 1119 4581 
L 1119 2700 
L 3500 2700 
L 3500 4581 
L 4106 4581 
L 4106 0 
L 3500 0 
L 3500 2159 
L 1119 2159 
L 1119 0 
L 513 0 
z
" transform="scale(0.015625)"/>
       <path id="ArialMT-49" d="M 597 0 
L 597 4581 
L 1203 4581 
L 1203 0 
L 597 0 
z
" transform="scale(0.015625)"/>
      </defs>
      <use xlink:href="#ArialMT-6f"/>
      <use xlink:href="#ArialMT-6e" x="55.615234"/>
      <use xlink:href="#ArialMT-6c" x="111.230469"/>
      <use xlink:href="#ArialMT-79" x="133.447266"/>
      <use xlink:href="#ArialMT-20" x="183.447266"/>
      <use xlink:href="#ArialMT-50" x="211.230469"/>
      <use xlink:href="#ArialMT-48" x="277.929688"/>
      <use xlink:href="#ArialMT-49" x="350.146484"/>
      <use xlink:href="#ArialMT-20" x="377.929688"/>
      <use xlink:href="#ArialMT-70" x="405.712891"/>
      <use xlink:href="#ArialMT-72" x="461.328125"/>
      <use xlink:href="#ArialMT-65" x="494.628906"/>
      <use xlink:href="#ArialMT-64" x="550.244141"/>
      <use xlink:href="#ArialMT-69" x="605.859375"/>
      <use xlink:href="#ArialMT-63" x="628.076172"/>
      <use xlink:href="#ArialMT-74" x="678.076172"/>
      <use xlink:href="#ArialMT-69" x="705.859375"/>
      <use xlink:href="#ArialMT-6f" x="728.076172"/>
      <use xlink:href="#ArialMT-6e" x="783.691406"/>
      <use xlink:href="#ArialMT-73" x="839.306641"/>
     </g>
    </g>
    <g id="line2d_22">
     <path d="M 604.694531 490.617656 
L 619.694531 490.617656 
L 634.694531 490.617656 
" style="fill: none; stroke: #008000; stroke-opacity: 0.9; stroke-linecap: round"/>
    </g>
    <g id="text_12">
     <!-- only RHO predictions -->
     <g style="fill: #262626" transform="translate(646.694531 495.867656) scale(0.15 -0.15)">
      <defs>
       <path id="ArialMT-52" d="M 503 0 
L 503 4581 
L 2534 4581 
Q 3147 4581 3465 4457 
Q 3784 4334 3975 4021 
Q 4166 3709 4166 3331 
Q 4166 2844 3850 2509 
Q 3534 2175 2875 2084 
Q 3116 1969 3241 1856 
Q 3506 1613 3744 1247 
L 4541 0 
L 3778 0 
L 3172 953 
Q 2906 1366 2734 1584 
Q 2563 1803 2427 1890 
Q 2291 1978 2150 2013 
Q 2047 2034 1813 2034 
L 1109 2034 
L 1109 0 
L 503 0 
z
M 1109 2559 
L 2413 2559 
Q 2828 2559 3062 2645 
Q 3297 2731 3419 2920 
Q 3541 3109 3541 3331 
Q 3541 3656 3305 3865 
Q 3069 4075 2559 4075 
L 1109 4075 
L 1109 2559 
z
" transform="scale(0.015625)"/>
       <path id="ArialMT-4f" d="M 309 2231 
Q 309 3372 921 4017 
Q 1534 4663 2503 4663 
Q 3138 4663 3647 4359 
Q 4156 4056 4423 3514 
Q 4691 2972 4691 2284 
Q 4691 1588 4409 1038 
Q 4128 488 3612 205 
Q 3097 -78 2500 -78 
Q 1853 -78 1343 234 
Q 834 547 571 1087 
Q 309 1628 309 2231 
z
M 934 2222 
Q 934 1394 1379 917 
Q 1825 441 2497 441 
Q 3181 441 3623 922 
Q 4066 1403 4066 2288 
Q 4066 2847 3877 3264 
Q 3688 3681 3323 3911 
Q 2959 4141 2506 4141 
Q 1863 4141 1398 3698 
Q 934 3256 934 2222 
z
" transform="scale(0.015625)"/>
      </defs>
      <use xlink:href="#ArialMT-6f"/>
      <use xlink:href="#ArialMT-6e" x="55.615234"/>
      <use xlink:href="#ArialMT-6c" x="111.230469"/>
      <use xlink:href="#ArialMT-79" x="133.447266"/>
      <use xlink:href="#ArialMT-20" x="183.447266"/>
      <use xlink:href="#ArialMT-52" x="211.230469"/>
      <use xlink:href="#ArialMT-48" x="283.447266"/>
      <use xlink:href="#ArialMT-4f" x="355.664062"/>
      <use xlink:href="#ArialMT-20" x="433.447266"/>
      <use xlink:href="#ArialMT-70" x="461.230469"/>
      <use xlink:href="#ArialMT-72" x="516.845703"/>
      <use xlink:href="#ArialMT-65" x="550.146484"/>
      <use xlink:href="#ArialMT-64" x="605.761719"/>
      <use xlink:href="#ArialMT-69" x="661.376953"/>
      <use xlink:href="#ArialMT-63" x="683.59375"/>
      <use xlink:href="#ArialMT-74" x="733.59375"/>
      <use xlink:href="#ArialMT-69" x="761.376953"/>
      <use xlink:href="#ArialMT-6f" x="783.59375"/>
      <use xlink:href="#ArialMT-6e" x="839.208984"/>
      <use xlink:href="#ArialMT-73" x="894.824219"/>
     </g>
    </g>
    <g id="line2d_23">
     <path d="M 604.694531 512.011406 
L 619.694531 512.011406 
L 634.694531 512.011406 
" style="fill: none; stroke: #000000; stroke-opacity: 0.5; stroke-linecap: round"/>
    </g>
    <g id="text_13">
     <!-- Multivariate predictions -->
     <g style="fill: #262626" transform="translate(646.694531 517.261406) scale(0.15 -0.15)">
      <defs>
       <path id="ArialMT-4d" d="M 475 0 
L 475 4581 
L 1388 4581 
L 2472 1338 
Q 2622 884 2691 659 
Q 2769 909 2934 1394 
L 4031 4581 
L 4847 4581 
L 4847 0 
L 4263 0 
L 4263 3834 
L 2931 0 
L 2384 0 
L 1059 3900 
L 1059 0 
L 475 0 
z
" transform="scale(0.015625)"/>
       <path id="ArialMT-76" d="M 1344 0 
L 81 3319 
L 675 3319 
L 1388 1331 
Q 1503 1009 1600 663 
Q 1675 925 1809 1294 
L 2547 3319 
L 3125 3319 
L 1869 0 
L 1344 0 
z
" transform="scale(0.015625)"/>
      </defs>
      <use xlink:href="#ArialMT-4d"/>
      <use xlink:href="#ArialMT-75" x="83.300781"/>
      <use xlink:href="#ArialMT-6c" x="138.916016"/>
      <use xlink:href="#ArialMT-74" x="161.132812"/>
      <use xlink:href="#ArialMT-69" x="188.916016"/>
      <use xlink:href="#ArialMT-76" x="211.132812"/>
      <use xlink:href="#ArialMT-61" x="261.132812"/>
      <use xlink:href="#ArialMT-72" x="316.748047"/>
      <use xlink:href="#ArialMT-69" x="350.048828"/>
      <use xlink:href="#ArialMT-61" x="372.265625"/>
      <use xlink:href="#ArialMT-74" x="427.880859"/>
      <use xlink:href="#ArialMT-65" x="455.664062"/>
      <use xlink:href="#ArialMT-20" x="511.279297"/>
      <use xlink:href="#ArialMT-70" x="539.0625"/>
      <use xlink:href="#ArialMT-72" x="594.677734"/>
      <use xlink:href="#ArialMT-65" x="627.978516"/>
      <use xlink:href="#ArialMT-64" x="683.59375"/>
      <use xlink:href="#ArialMT-69" x="739.208984"/>
      <use xlink:href="#ArialMT-63" x="761.425781"/>
      <use xlink:href="#ArialMT-74" x="811.425781"/>
      <use xlink:href="#ArialMT-69" x="839.208984"/>
      <use xlink:href="#ArialMT-6f" x="861.425781"/>
      <use xlink:href="#ArialMT-6e" x="917.041016"/>
      <use xlink:href="#ArialMT-73" x="972.65625"/>
     </g>
    </g>
    <g id="line2d_24">
     <path d="M 604.694531 533.412188 
L 619.694531 533.412188 
L 634.694531 533.412188 
" style="fill: none; stroke: #0000ff; stroke-opacity: 0.9; stroke-linecap: round"/>
    </g>
    <g id="text_14">
     <!-- CP solution from Comparitee well -->
     <g style="fill: #262626" transform="translate(646.694531 538.662188) scale(0.15 -0.15)">
      <use xlink:href="#ArialMT-43"/>
      <use xlink:href="#ArialMT-50" x="72.216797"/>
      <use xlink:href="#ArialMT-20" x="137.166016"/>
      <use xlink:href="#ArialMT-73" x="164.949219"/>
      <use xlink:href="#ArialMT-6f" x="214.949219"/>
      <use xlink:href="#ArialMT-6c" x="270.564453"/>
      <use xlink:href="#ArialMT-75" x="292.78125"/>
      <use xlink:href="#ArialMT-74" x="348.396484"/>
      <use xlink:href="#ArialMT-69" x="376.179688"/>
      <use xlink:href="#ArialMT-6f" x="398.396484"/>
      <use xlink:href="#ArialMT-6e" x="454.011719"/>
      <use xlink:href="#ArialMT-20" x="509.626953"/>
      <use xlink:href="#ArialMT-66" x="537.410156"/>
      <use xlink:href="#ArialMT-72" x="565.193359"/>
      <use xlink:href="#ArialMT-6f" x="598.494141"/>
      <use xlink:href="#ArialMT-6d" x="654.109375"/>
      <use xlink:href="#ArialMT-20" x="737.410156"/>
      <use xlink:href="#ArialMT-43" x="765.193359"/>
      <use xlink:href="#ArialMT-6f" x="837.410156"/>
      <use xlink:href="#ArialMT-6d" x="893.025391"/>
      <use xlink:href="#ArialMT-70" x="976.326172"/>
      <use xlink:href="#ArialMT-61" x="1031.941406"/>
      <use xlink:href="#ArialMT-72" x="1087.556641"/>
      <use xlink:href="#ArialMT-69" x="1120.857422"/>
      <use xlink:href="#ArialMT-74" x="1143.074219"/>
      <use xlink:href="#ArialMT-65" x="1170.857422"/>
      <use xlink:href="#ArialMT-65" x="1226.472656"/>
      <use xlink:href="#ArialMT-20" x="1282.087891"/>
      <use xlink:href="#ArialMT-77" x="1309.871094"/>
      <use xlink:href="#ArialMT-65" x="1382.087891"/>
      <use xlink:href="#ArialMT-6c" x="1437.703125"/>
      <use xlink:href="#ArialMT-6c" x="1459.919922"/>
     </g>
    </g>
    <g id="line2d_25">
     <path d="M 604.694531 554.812969 
L 619.694531 554.812969 
L 634.694531 554.812969 
" style="fill: none; stroke: #ff0000; stroke-opacity: 0.7; stroke-width: 2.275; stroke-linecap: round"/>
    </g>
    <g id="text_15">
     <!-- Comparitee well depth (Jogs are true changes) -->
     <g style="fill: #262626" transform="translate(646.694531 560.062969) scale(0.15 -0.15)">
      <defs>
       <path id="ArialMT-4a" d="M 184 1300 
L 731 1375 
Q 753 850 928 656 
Q 1103 463 1413 463 
Q 1641 463 1806 567 
Q 1972 672 2034 851 
Q 2097 1031 2097 1425 
L 2097 4581 
L 2703 4581 
L 2703 1459 
Q 2703 884 2564 568 
Q 2425 253 2123 87 
Q 1822 -78 1416 -78 
Q 813 -78 492 269 
Q 172 616 184 1300 
z
" transform="scale(0.015625)"/>
      </defs>
      <use xlink:href="#ArialMT-43"/>
      <use xlink:href="#ArialMT-6f" x="72.216797"/>
      <use xlink:href="#ArialMT-6d" x="127.832031"/>
      <use xlink:href="#ArialMT-70" x="211.132812"/>
      <use xlink:href="#ArialMT-61" x="266.748047"/>
      <use xlink:href="#ArialMT-72" x="322.363281"/>
      <use xlink:href="#ArialMT-69" x="355.664062"/>
      <use xlink:href="#ArialMT-74" x="377.880859"/>
      <use xlink:href="#ArialMT-65" x="405.664062"/>
      <use xlink:href="#ArialMT-65" x="461.279297"/>
      <use xlink:href="#ArialMT-20" x="516.894531"/>
      <use xlink:href="#ArialMT-77" x="544.677734"/>
      <use xlink:href="#ArialMT-65" x="616.894531"/>
      <use xlink:href="#ArialMT-6c" x="672.509766"/>
      <use xlink:href="#ArialMT-6c" x="694.726562"/>
      <use xlink:href="#ArialMT-20" x="716.943359"/>
      <use xlink:href="#ArialMT-64" x="744.726562"/>
      <use xlink:href="#ArialMT-65" x="800.341797"/>
      <use xlink:href="#ArialMT-70" x="855.957031"/>
      <use xlink:href="#ArialMT-74" x="911.572266"/>
      <use xlink:href="#ArialMT-68" x="939.355469"/>
      <use xlink:href="#ArialMT-20" x="994.970703"/>
      <use xlink:href="#ArialMT-28" x="1022.753906"/>
      <use xlink:href="#ArialMT-4a" x="1056.054688"/>
      <use xlink:href="#ArialMT-6f" x="1106.054688"/>
      <use xlink:href="#ArialMT-67" x="1161.669922"/>
      <use xlink:href="#ArialMT-73" x="1217.285156"/>
      <use xlink:href="#ArialMT-20" x="1267.285156"/>
      <use xlink:href="#ArialMT-61" x="1295.068359"/>
      <use xlink:href="#ArialMT-72" x="1350.683594"/>
      <use xlink:href="#ArialMT-65" x="1383.984375"/>
      <use xlink:href="#ArialMT-20" x="1439.599609"/>
      <use xlink:href="#ArialMT-74" x="1467.382812"/>
      <use xlink:href="#ArialMT-72" x="1495.166016"/>
      <use xlink:href="#ArialMT-75" x="1528.466797"/>
      <use xlink:href="#ArialMT-65" x="1584.082031"/>
      <use xlink:href="#ArialMT-20" x="1639.697266"/>
      <use xlink:href="#ArialMT-63" x="1667.480469"/>
      <use xlink:href="#ArialMT-68" x="1717.480469"/>
      <use xlink:href="#ArialMT-61" x="1773.095703"/>
      <use xlink:href="#ArialMT-6e" x="1828.710938"/>
      <use xlink:href="#ArialMT-67" x="1884.326172"/>
      <use xlink:href="#ArialMT-65" x="1939.941406"/>
      <use xlink:href="#ArialMT-73" x="1995.556641"/>
      <use xlink:href="#ArialMT-29" x="2045.556641"/>
     </g>
    </g>
   </g>
  </g>
  <g id="text_16">
   <!-- Drilling simulation : Graben Model change-point forecast -->
   <g style="fill: #262626" transform="translate(296.995781 26.063438) scale(0.18 -0.18)">
    <defs>
     <path id="Arial-BoldMT-44" d="M 463 4581 
L 2153 4581 
Q 2725 4581 3025 4494 
Q 3428 4375 3715 4072 
Q 4003 3769 4153 3330 
Q 4303 2891 4303 2247 
Q 4303 1681 4163 1272 
Q 3991 772 3672 463 
Q 3431 228 3022 97 
Q 2716 0 2203 0 
L 463 0 
L 463 4581 
z
M 1388 3806 
L 1388 772 
L 2078 772 
Q 2466 772 2638 816 
Q 2863 872 3011 1006 
Q 3159 1141 3253 1448 
Q 3347 1756 3347 2288 
Q 3347 2819 3253 3103 
Q 3159 3388 2990 3547 
Q 2822 3706 2563 3763 
Q 2369 3806 1803 3806 
L 1388 3806 
z
" transform="scale(0.015625)"/>
     <path id="Arial-BoldMT-72" d="M 1300 0 
L 422 0 
L 422 3319 
L 1238 3319 
L 1238 2847 
Q 1447 3181 1614 3287 
Q 1781 3394 1994 3394 
Q 2294 3394 2572 3228 
L 2300 2463 
Q 2078 2606 1888 2606 
Q 1703 2606 1575 2504 
Q 1447 2403 1373 2137 
Q 1300 1872 1300 1025 
L 1300 0 
z
" transform="scale(0.015625)"/>
     <path id="Arial-BoldMT-69" d="M 459 3769 
L 459 4581 
L 1338 4581 
L 1338 3769 
L 459 3769 
z
M 459 0 
L 459 3319 
L 1338 3319 
L 1338 0 
L 459 0 
z
" transform="scale(0.015625)"/>
     <path id="Arial-BoldMT-6c" d="M 459 0 
L 459 4581 
L 1338 4581 
L 1338 0 
L 459 0 
z
" transform="scale(0.015625)"/>
     <path id="Arial-BoldMT-6e" d="M 3478 0 
L 2600 0 
L 2600 1694 
Q 2600 2231 2544 2389 
Q 2488 2547 2361 2634 
Q 2234 2722 2056 2722 
Q 1828 2722 1647 2597 
Q 1466 2472 1398 2265 
Q 1331 2059 1331 1503 
L 1331 0 
L 453 0 
L 453 3319 
L 1269 3319 
L 1269 2831 
Q 1703 3394 2363 3394 
Q 2653 3394 2893 3289 
Q 3134 3184 3257 3021 
Q 3381 2859 3429 2653 
Q 3478 2447 3478 2063 
L 3478 0 
z
" transform="scale(0.015625)"/>
     <path id="Arial-BoldMT-67" d="M 378 -219 
L 1381 -341 
Q 1406 -516 1497 -581 
Q 1622 -675 1891 -675 
Q 2234 -675 2406 -572 
Q 2522 -503 2581 -350 
Q 2622 -241 2622 53 
L 2622 538 
Q 2228 0 1628 0 
Q 959 0 569 566 
Q 263 1013 263 1678 
Q 263 2513 664 2953 
Q 1066 3394 1663 3394 
Q 2278 3394 2678 2853 
L 2678 3319 
L 3500 3319 
L 3500 341 
Q 3500 -247 3403 -537 
Q 3306 -828 3131 -993 
Q 2956 -1159 2664 -1253 
Q 2372 -1347 1925 -1347 
Q 1081 -1347 728 -1058 
Q 375 -769 375 -325 
Q 375 -281 378 -219 
z
M 1163 1728 
Q 1163 1200 1367 954 
Q 1572 709 1872 709 
Q 2194 709 2416 961 
Q 2638 1213 2638 1706 
Q 2638 2222 2425 2472 
Q 2213 2722 1888 2722 
Q 1572 2722 1367 2476 
Q 1163 2231 1163 1728 
z
" transform="scale(0.015625)"/>
     <path id="Arial-BoldMT-20" transform="scale(0.015625)"/>
     <path id="Arial-BoldMT-73" d="M 150 947 
L 1031 1081 
Q 1088 825 1259 692 
Q 1431 559 1741 559 
Q 2081 559 2253 684 
Q 2369 772 2369 919 
Q 2369 1019 2306 1084 
Q 2241 1147 2013 1200 
Q 950 1434 666 1628 
Q 272 1897 272 2375 
Q 272 2806 612 3100 
Q 953 3394 1669 3394 
Q 2350 3394 2681 3172 
Q 3013 2950 3138 2516 
L 2309 2363 
Q 2256 2556 2107 2659 
Q 1959 2763 1684 2763 
Q 1338 2763 1188 2666 
Q 1088 2597 1088 2488 
Q 1088 2394 1175 2328 
Q 1294 2241 1995 2081 
Q 2697 1922 2975 1691 
Q 3250 1456 3250 1038 
Q 3250 581 2869 253 
Q 2488 -75 1741 -75 
Q 1063 -75 667 200 
Q 272 475 150 947 
z
" transform="scale(0.015625)"/>
     <path id="Arial-BoldMT-6d" d="M 394 3319 
L 1203 3319 
L 1203 2866 
Q 1638 3394 2238 3394 
Q 2556 3394 2790 3262 
Q 3025 3131 3175 2866 
Q 3394 3131 3647 3262 
Q 3900 3394 4188 3394 
Q 4553 3394 4806 3245 
Q 5059 3097 5184 2809 
Q 5275 2597 5275 2122 
L 5275 0 
L 4397 0 
L 4397 1897 
Q 4397 2391 4306 2534 
Q 4184 2722 3931 2722 
Q 3747 2722 3584 2609 
Q 3422 2497 3350 2280 
Q 3278 2063 3278 1594 
L 3278 0 
L 2400 0 
L 2400 1819 
Q 2400 2303 2353 2443 
Q 2306 2584 2207 2653 
Q 2109 2722 1941 2722 
Q 1738 2722 1575 2612 
Q 1413 2503 1342 2297 
Q 1272 2091 1272 1613 
L 1272 0 
L 394 0 
L 394 3319 
z
" transform="scale(0.015625)"/>
     <path id="Arial-BoldMT-75" d="M 2644 0 
L 2644 497 
Q 2463 231 2167 78 
Q 1872 -75 1544 -75 
Q 1209 -75 943 72 
Q 678 219 559 484 
Q 441 750 441 1219 
L 441 3319 
L 1319 3319 
L 1319 1794 
Q 1319 1094 1367 936 
Q 1416 778 1544 686 
Q 1672 594 1869 594 
Q 2094 594 2272 717 
Q 2450 841 2515 1023 
Q 2581 1206 2581 1919 
L 2581 3319 
L 3459 3319 
L 3459 0 
L 2644 0 
z
" transform="scale(0.015625)"/>
     <path id="Arial-BoldMT-61" d="M 1116 2306 
L 319 2450 
Q 453 2931 781 3162 
Q 1109 3394 1756 3394 
Q 2344 3394 2631 3255 
Q 2919 3116 3036 2902 
Q 3153 2688 3153 2116 
L 3144 1091 
Q 3144 653 3186 445 
Q 3228 238 3344 0 
L 2475 0 
Q 2441 88 2391 259 
Q 2369 338 2359 363 
Q 2134 144 1878 34 
Q 1622 -75 1331 -75 
Q 819 -75 523 203 
Q 228 481 228 906 
Q 228 1188 362 1408 
Q 497 1628 739 1745 
Q 981 1863 1438 1950 
Q 2053 2066 2291 2166 
L 2291 2253 
Q 2291 2506 2166 2614 
Q 2041 2722 1694 2722 
Q 1459 2722 1328 2630 
Q 1197 2538 1116 2306 
z
M 2291 1594 
Q 2122 1538 1756 1459 
Q 1391 1381 1278 1306 
Q 1106 1184 1106 997 
Q 1106 813 1243 678 
Q 1381 544 1594 544 
Q 1831 544 2047 700 
Q 2206 819 2256 991 
Q 2291 1103 2291 1419 
L 2291 1594 
z
" transform="scale(0.015625)"/>
     <path id="Arial-BoldMT-74" d="M 1981 3319 
L 1981 2619 
L 1381 2619 
L 1381 1281 
Q 1381 875 1398 808 
Q 1416 741 1477 697 
Q 1538 653 1625 653 
Q 1747 653 1978 738 
L 2053 56 
Q 1747 -75 1359 -75 
Q 1122 -75 931 4 
Q 741 84 652 211 
Q 563 338 528 553 
Q 500 706 500 1172 
L 500 2619 
L 97 2619 
L 97 3319 
L 500 3319 
L 500 3978 
L 1381 4491 
L 1381 3319 
L 1981 3319 
z
" transform="scale(0.015625)"/>
     <path id="Arial-BoldMT-6f" d="M 256 1706 
Q 256 2144 472 2553 
Q 688 2963 1083 3178 
Q 1478 3394 1966 3394 
Q 2719 3394 3200 2905 
Q 3681 2416 3681 1669 
Q 3681 916 3195 420 
Q 2709 -75 1972 -75 
Q 1516 -75 1102 131 
Q 688 338 472 736 
Q 256 1134 256 1706 
z
M 1156 1659 
Q 1156 1166 1390 903 
Q 1625 641 1969 641 
Q 2313 641 2545 903 
Q 2778 1166 2778 1666 
Q 2778 2153 2545 2415 
Q 2313 2678 1969 2678 
Q 1625 2678 1390 2415 
Q 1156 2153 1156 1659 
z
" transform="scale(0.015625)"/>
     <path id="Arial-BoldMT-3a" d="M 628 2441 
L 628 3319 
L 1506 3319 
L 1506 2441 
L 628 2441 
z
M 628 0 
L 628 878 
L 1506 878 
L 1506 0 
L 628 0 
z
" transform="scale(0.015625)"/>
     <path id="Arial-BoldMT-47" d="M 2597 1684 
L 2597 2456 
L 4591 2456 
L 4591 631 
Q 4300 350 3748 136 
Q 3197 -78 2631 -78 
Q 1913 -78 1378 223 
Q 844 525 575 1086 
Q 306 1647 306 2306 
Q 306 3022 606 3578 
Q 906 4134 1484 4431 
Q 1925 4659 2581 4659 
Q 3434 4659 3914 4301 
Q 4394 3944 4531 3313 
L 3613 3141 
Q 3516 3478 3248 3673 
Q 2981 3869 2581 3869 
Q 1975 3869 1617 3484 
Q 1259 3100 1259 2344 
Q 1259 1528 1621 1120 
Q 1984 713 2572 713 
Q 2863 713 3155 827 
Q 3447 941 3656 1103 
L 3656 1684 
L 2597 1684 
z
" transform="scale(0.015625)"/>
     <path id="Arial-BoldMT-62" d="M 422 0 
L 422 4581 
L 1300 4581 
L 1300 2931 
Q 1706 3394 2263 3394 
Q 2869 3394 3266 2955 
Q 3663 2516 3663 1694 
Q 3663 844 3258 384 
Q 2853 -75 2275 -75 
Q 1991 -75 1714 67 
Q 1438 209 1238 488 
L 1238 0 
L 422 0 
z
M 1294 1731 
Q 1294 1216 1456 969 
Q 1684 619 2063 619 
Q 2353 619 2558 867 
Q 2763 1116 2763 1650 
Q 2763 2219 2556 2470 
Q 2350 2722 2028 2722 
Q 1713 2722 1503 2476 
Q 1294 2231 1294 1731 
z
" transform="scale(0.015625)"/>
     <path id="Arial-BoldMT-65" d="M 2381 1056 
L 3256 909 
Q 3088 428 2723 176 
Q 2359 -75 1813 -75 
Q 947 -75 531 491 
Q 203 944 203 1634 
Q 203 2459 634 2926 
Q 1066 3394 1725 3394 
Q 2466 3394 2894 2905 
Q 3322 2416 3303 1406 
L 1103 1406 
Q 1113 1016 1316 798 
Q 1519 581 1822 581 
Q 2028 581 2168 693 
Q 2309 806 2381 1056 
z
M 2431 1944 
Q 2422 2325 2234 2523 
Q 2047 2722 1778 2722 
Q 1491 2722 1303 2513 
Q 1116 2303 1119 1944 
L 2431 1944 
z
" transform="scale(0.015625)"/>
     <path id="Arial-BoldMT-4d" d="M 453 0 
L 453 4581 
L 1838 4581 
L 2669 1456 
L 3491 4581 
L 4878 4581 
L 4878 0 
L 4019 0 
L 4019 3606 
L 3109 0 
L 2219 0 
L 1313 3606 
L 1313 0 
L 453 0 
z
" transform="scale(0.015625)"/>
     <path id="Arial-BoldMT-64" d="M 3503 0 
L 2688 0 
L 2688 488 
Q 2484 203 2207 64 
Q 1931 -75 1650 -75 
Q 1078 -75 670 386 
Q 263 847 263 1672 
Q 263 2516 659 2955 
Q 1056 3394 1663 3394 
Q 2219 3394 2625 2931 
L 2625 4581 
L 3503 4581 
L 3503 0 
z
M 1159 1731 
Q 1159 1200 1306 963 
Q 1519 619 1900 619 
Q 2203 619 2415 876 
Q 2628 1134 2628 1647 
Q 2628 2219 2422 2470 
Q 2216 2722 1894 2722 
Q 1581 2722 1370 2473 
Q 1159 2225 1159 1731 
z
" transform="scale(0.015625)"/>
     <path id="Arial-BoldMT-63" d="M 3353 2338 
L 2488 2181 
Q 2444 2441 2289 2572 
Q 2134 2703 1888 2703 
Q 1559 2703 1364 2476 
Q 1169 2250 1169 1719 
Q 1169 1128 1367 884 
Q 1566 641 1900 641 
Q 2150 641 2309 783 
Q 2469 925 2534 1272 
L 3397 1125 
Q 3263 531 2881 228 
Q 2500 -75 1859 -75 
Q 1131 -75 698 384 
Q 266 844 266 1656 
Q 266 2478 700 2936 
Q 1134 3394 1875 3394 
Q 2481 3394 2839 3133 
Q 3197 2872 3353 2338 
z
" transform="scale(0.015625)"/>
     <path id="Arial-BoldMT-68" d="M 1334 4581 
L 1334 2897 
Q 1759 3394 2350 3394 
Q 2653 3394 2897 3281 
Q 3141 3169 3264 2994 
Q 3388 2819 3433 2606 
Q 3478 2394 3478 1947 
L 3478 0 
L 2600 0 
L 2600 1753 
Q 2600 2275 2550 2415 
Q 2500 2556 2373 2639 
Q 2247 2722 2056 2722 
Q 1838 2722 1666 2615 
Q 1494 2509 1414 2295 
Q 1334 2081 1334 1663 
L 1334 0 
L 456 0 
L 456 4581 
L 1334 4581 
z
" transform="scale(0.015625)"/>
     <path id="Arial-BoldMT-2d" d="M 359 1222 
L 359 2100 
L 2084 2100 
L 2084 1222 
L 359 1222 
z
" transform="scale(0.015625)"/>
     <path id="Arial-BoldMT-70" d="M 434 3319 
L 1253 3319 
L 1253 2831 
Q 1413 3081 1684 3237 
Q 1956 3394 2288 3394 
Q 2866 3394 3269 2941 
Q 3672 2488 3672 1678 
Q 3672 847 3265 386 
Q 2859 -75 2281 -75 
Q 2006 -75 1782 34 
Q 1559 144 1313 409 
L 1313 -1263 
L 434 -1263 
L 434 3319 
z
M 1303 1716 
Q 1303 1156 1525 889 
Q 1747 622 2066 622 
Q 2372 622 2575 867 
Q 2778 1113 2778 1672 
Q 2778 2194 2568 2447 
Q 2359 2700 2050 2700 
Q 1728 2700 1515 2451 
Q 1303 2203 1303 1716 
z
" transform="scale(0.015625)"/>
     <path id="Arial-BoldMT-66" d="M 75 3319 
L 563 3319 
L 563 3569 
Q 563 3988 652 4194 
Q 741 4400 980 4529 
Q 1219 4659 1584 4659 
Q 1959 4659 2319 4547 
L 2200 3934 
Q 1991 3984 1797 3984 
Q 1606 3984 1523 3895 
Q 1441 3806 1441 3553 
L 1441 3319 
L 2097 3319 
L 2097 2628 
L 1441 2628 
L 1441 0 
L 563 0 
L 563 2628 
L 75 2628 
L 75 3319 
z
" transform="scale(0.015625)"/>
    </defs>
    <use xlink:href="#Arial-BoldMT-44"/>
    <use xlink:href="#Arial-BoldMT-72" x="72.216797"/>
    <use xlink:href="#Arial-BoldMT-69" x="111.132812"/>
    <use xlink:href="#Arial-BoldMT-6c" x="138.916016"/>
    <use xlink:href="#Arial-BoldMT-6c" x="166.699219"/>
    <use xlink:href="#Arial-BoldMT-69" x="194.482422"/>
    <use xlink:href="#Arial-BoldMT-6e" x="222.265625"/>
    <use xlink:href="#Arial-BoldMT-67" x="283.349609"/>
    <use xlink:href="#Arial-BoldMT-20" x="344.433594"/>
    <use xlink:href="#Arial-BoldMT-73" x="372.216797"/>
    <use xlink:href="#Arial-BoldMT-69" x="427.832031"/>
    <use xlink:href="#Arial-BoldMT-6d" x="455.615234"/>
    <use xlink:href="#Arial-BoldMT-75" x="544.53125"/>
    <use xlink:href="#Arial-BoldMT-6c" x="605.615234"/>
    <use xlink:href="#Arial-BoldMT-61" x="633.398438"/>
    <use xlink:href="#Arial-BoldMT-74" x="689.013672"/>
    <use xlink:href="#Arial-BoldMT-69" x="722.314453"/>
    <use xlink:href="#Arial-BoldMT-6f" x="750.097656"/>
    <use xlink:href="#Arial-BoldMT-6e" x="811.181641"/>
    <use xlink:href="#Arial-BoldMT-20" x="872.265625"/>
    <use xlink:href="#Arial-BoldMT-3a" x="900.048828"/>
    <use xlink:href="#Arial-BoldMT-20" x="933.349609"/>
    <use xlink:href="#Arial-BoldMT-47" x="961.132812"/>
    <use xlink:href="#Arial-BoldMT-72" x="1038.916016"/>
    <use xlink:href="#Arial-BoldMT-61" x="1077.832031"/>
    <use xlink:href="#Arial-BoldMT-62" x="1133.447266"/>
    <use xlink:href="#Arial-BoldMT-65" x="1194.53125"/>
    <use xlink:href="#Arial-BoldMT-6e" x="1250.146484"/>
    <use xlink:href="#Arial-BoldMT-20" x="1311.230469"/>
    <use xlink:href="#Arial-BoldMT-4d" x="1339.013672"/>
    <use xlink:href="#Arial-BoldMT-6f" x="1422.314453"/>
    <use xlink:href="#Arial-BoldMT-64" x="1483.398438"/>
    <use xlink:href="#Arial-BoldMT-65" x="1544.482422"/>
    <use xlink:href="#Arial-BoldMT-6c" x="1600.097656"/>
    <use xlink:href="#Arial-BoldMT-20" x="1627.880859"/>
    <use xlink:href="#Arial-BoldMT-63" x="1655.664062"/>
    <use xlink:href="#Arial-BoldMT-68" x="1711.279297"/>
    <use xlink:href="#Arial-BoldMT-61" x="1772.363281"/>
    <use xlink:href="#Arial-BoldMT-6e" x="1827.978516"/>
    <use xlink:href="#Arial-BoldMT-67" x="1889.0625"/>
    <use xlink:href="#Arial-BoldMT-65" x="1950.146484"/>
    <use xlink:href="#Arial-BoldMT-2d" x="2005.761719"/>
    <use xlink:href="#Arial-BoldMT-70" x="2039.0625"/>
    <use xlink:href="#Arial-BoldMT-6f" x="2100.146484"/>
    <use xlink:href="#Arial-BoldMT-69" x="2161.230469"/>
    <use xlink:href="#Arial-BoldMT-6e" x="2189.013672"/>
    <use xlink:href="#Arial-BoldMT-74" x="2250.097656"/>
    <use xlink:href="#Arial-BoldMT-20" x="2283.398438"/>
    <use xlink:href="#Arial-BoldMT-66" x="2311.181641"/>
    <use xlink:href="#Arial-BoldMT-6f" x="2344.482422"/>
    <use xlink:href="#Arial-BoldMT-72" x="2405.566406"/>
    <use xlink:href="#Arial-BoldMT-65" x="2444.482422"/>
    <use xlink:href="#Arial-BoldMT-63" x="2500.097656"/>
    <use xlink:href="#Arial-BoldMT-61" x="2555.712891"/>
    <use xlink:href="#Arial-BoldMT-73" x="2611.328125"/>
    <use xlink:href="#Arial-BoldMT-74" x="2666.943359"/>
   </g>
  </g>
 </g>
 <defs>
  <clipPath id="p69a2f01d9b">
   <rect x="135" y="77.76" width="837" height="498.96"/>
  </clipPath>
 </defs>
</svg>
