<?xml version="1.0" encoding="utf-8" standalone="no"?>
<!DOCTYPE svg PUBLIC "-//W3C//DTD SVG 1.1//EN"
  "http://www.w3.org/Graphics/SVG/1.1/DTD/svg11.dtd">
<svg xmlns:xlink="http://www.w3.org/1999/xlink" width="1080pt" height="648pt" viewBox="0 0 1080 648" xmlns="http://www.w3.org/2000/svg" version="1.1">
 <metadata>
  <rdf:RDF xmlns:dc="http://purl.org/dc/elements/1.1/" xmlns:cc="http://creativecommons.org/ns#" xmlns:rdf="http://www.w3.org/1999/02/22-rdf-syntax-ns#">
   <cc:Work>
    <dc:type rdf:resource="http://purl.org/dc/dcmitype/StillImage"/>
    <dc:date>2023-09-19T10:53:26.103099</dc:date>
    <dc:format>image/svg+xml</dc:format>
    <dc:creator>
     <cc:Agent>
      <dc:title>Matplotlib v3.7.1, https://matplotlib.org/</dc:title>
     </cc:Agent>
    </dc:creator>
   </cc:Work>
  </rdf:RDF>
 </metadata>
 <defs>
  <style type="text/css">*{stroke-linejoin: round; stroke-linecap: butt}</style>
 </defs>
 <g id="figure_1">
  <g id="patch_1">
   <path d="M 0 648 
L 1080 648 
L 1080 0 
L 0 0 
z
" style="fill: #ffffff"/>
  </g>
  <g id="axes_1">
   <g id="patch_2">
    <path d="M 135 576.72 
L 972 576.72 
L 972 77.76 
L 135 77.76 
z
" style="fill: #eaeaf2"/>
   </g>
   <g id="matplotlib.axis_1">
    <g id="text_1">
     <!-- Probability (shifted for clarity with unregularized scale) -->
     <g style="fill: #262626" transform="translate(374.26875 591.639531) scale(0.15 -0.15)">
      <defs>
       <path id="ArialMT-50" d="M 494 0 
L 494 4581 
L 2222 4581 
Q 2678 4581 2919 4538 
Q 3256 4481 3484 4323 
Q 3713 4166 3852 3881 
Q 3991 3597 3991 3256 
Q 3991 2672 3619 2267 
Q 3247 1863 2275 1863 
L 1100 1863 
L 1100 0 
L 494 0 
z
M 1100 2403 
L 2284 2403 
Q 2872 2403 3119 2622 
Q 3366 2841 3366 3238 
Q 3366 3525 3220 3729 
Q 3075 3934 2838 4000 
Q 2684 4041 2272 4041 
L 1100 4041 
L 1100 2403 
z
" transform="scale(0.015625)"/>
       <path id="ArialMT-72" d="M 416 0 
L 416 3319 
L 922 3319 
L 922 2816 
Q 1116 3169 1280 3281 
Q 1444 3394 1641 3394 
Q 1925 3394 2219 3213 
L 2025 2691 
Q 1819 2813 1613 2813 
Q 1428 2813 1281 2702 
Q 1134 2591 1072 2394 
Q 978 2094 978 1738 
L 978 0 
L 416 0 
z
" transform="scale(0.015625)"/>
       <path id="ArialMT-6f" d="M 213 1659 
Q 213 2581 725 3025 
Q 1153 3394 1769 3394 
Q 2453 3394 2887 2945 
Q 3322 2497 3322 1706 
Q 3322 1066 3130 698 
Q 2938 331 2570 128 
Q 2203 -75 1769 -75 
Q 1072 -75 642 372 
Q 213 819 213 1659 
z
M 791 1659 
Q 791 1022 1069 705 
Q 1347 388 1769 388 
Q 2188 388 2466 706 
Q 2744 1025 2744 1678 
Q 2744 2294 2464 2611 
Q 2184 2928 1769 2928 
Q 1347 2928 1069 2612 
Q 791 2297 791 1659 
z
" transform="scale(0.015625)"/>
       <path id="ArialMT-62" d="M 941 0 
L 419 0 
L 419 4581 
L 981 4581 
L 981 2947 
Q 1338 3394 1891 3394 
Q 2197 3394 2470 3270 
Q 2744 3147 2920 2923 
Q 3097 2700 3197 2384 
Q 3297 2069 3297 1709 
Q 3297 856 2875 390 
Q 2453 -75 1863 -75 
Q 1275 -75 941 416 
L 941 0 
z
M 934 1684 
Q 934 1088 1097 822 
Q 1363 388 1816 388 
Q 2184 388 2453 708 
Q 2722 1028 2722 1663 
Q 2722 2313 2464 2622 
Q 2206 2931 1841 2931 
Q 1472 2931 1203 2611 
Q 934 2291 934 1684 
z
" transform="scale(0.015625)"/>
       <path id="ArialMT-61" d="M 2588 409 
Q 2275 144 1986 34 
Q 1697 -75 1366 -75 
Q 819 -75 525 192 
Q 231 459 231 875 
Q 231 1119 342 1320 
Q 453 1522 633 1644 
Q 813 1766 1038 1828 
Q 1203 1872 1538 1913 
Q 2219 1994 2541 2106 
Q 2544 2222 2544 2253 
Q 2544 2597 2384 2738 
Q 2169 2928 1744 2928 
Q 1347 2928 1158 2789 
Q 969 2650 878 2297 
L 328 2372 
Q 403 2725 575 2942 
Q 747 3159 1072 3276 
Q 1397 3394 1825 3394 
Q 2250 3394 2515 3294 
Q 2781 3194 2906 3042 
Q 3031 2891 3081 2659 
Q 3109 2516 3109 2141 
L 3109 1391 
Q 3109 606 3145 398 
Q 3181 191 3288 0 
L 2700 0 
Q 2613 175 2588 409 
z
M 2541 1666 
Q 2234 1541 1622 1453 
Q 1275 1403 1131 1340 
Q 988 1278 909 1158 
Q 831 1038 831 891 
Q 831 666 1001 516 
Q 1172 366 1500 366 
Q 1825 366 2078 508 
Q 2331 650 2450 897 
Q 2541 1088 2541 1459 
L 2541 1666 
z
" transform="scale(0.015625)"/>
       <path id="ArialMT-69" d="M 425 3934 
L 425 4581 
L 988 4581 
L 988 3934 
L 425 3934 
z
M 425 0 
L 425 3319 
L 988 3319 
L 988 0 
L 425 0 
z
" transform="scale(0.015625)"/>
       <path id="ArialMT-6c" d="M 409 0 
L 409 4581 
L 972 4581 
L 972 0 
L 409 0 
z
" transform="scale(0.015625)"/>
       <path id="ArialMT-74" d="M 1650 503 
L 1731 6 
Q 1494 -44 1306 -44 
Q 1000 -44 831 53 
Q 663 150 594 308 
Q 525 466 525 972 
L 525 2881 
L 113 2881 
L 113 3319 
L 525 3319 
L 525 4141 
L 1084 4478 
L 1084 3319 
L 1650 3319 
L 1650 2881 
L 1084 2881 
L 1084 941 
Q 1084 700 1114 631 
Q 1144 563 1211 522 
Q 1278 481 1403 481 
Q 1497 481 1650 503 
z
" transform="scale(0.015625)"/>
       <path id="ArialMT-79" d="M 397 -1278 
L 334 -750 
Q 519 -800 656 -800 
Q 844 -800 956 -737 
Q 1069 -675 1141 -563 
Q 1194 -478 1313 -144 
Q 1328 -97 1363 -6 
L 103 3319 
L 709 3319 
L 1400 1397 
Q 1534 1031 1641 628 
Q 1738 1016 1872 1384 
L 2581 3319 
L 3144 3319 
L 1881 -56 
Q 1678 -603 1566 -809 
Q 1416 -1088 1222 -1217 
Q 1028 -1347 759 -1347 
Q 597 -1347 397 -1278 
z
" transform="scale(0.015625)"/>
       <path id="ArialMT-20" transform="scale(0.015625)"/>
       <path id="ArialMT-28" d="M 1497 -1347 
Q 1031 -759 709 28 
Q 388 816 388 1659 
Q 388 2403 628 3084 
Q 909 3875 1497 4659 
L 1900 4659 
Q 1522 4009 1400 3731 
Q 1209 3300 1100 2831 
Q 966 2247 966 1656 
Q 966 153 1900 -1347 
L 1497 -1347 
z
" transform="scale(0.015625)"/>
       <path id="ArialMT-73" d="M 197 991 
L 753 1078 
Q 800 744 1014 566 
Q 1228 388 1613 388 
Q 2000 388 2187 545 
Q 2375 703 2375 916 
Q 2375 1106 2209 1216 
Q 2094 1291 1634 1406 
Q 1016 1563 777 1677 
Q 538 1791 414 1992 
Q 291 2194 291 2438 
Q 291 2659 392 2848 
Q 494 3038 669 3163 
Q 800 3259 1026 3326 
Q 1253 3394 1513 3394 
Q 1903 3394 2198 3281 
Q 2494 3169 2634 2976 
Q 2775 2784 2828 2463 
L 2278 2388 
Q 2241 2644 2061 2787 
Q 1881 2931 1553 2931 
Q 1166 2931 1000 2803 
Q 834 2675 834 2503 
Q 834 2394 903 2306 
Q 972 2216 1119 2156 
Q 1203 2125 1616 2013 
Q 2213 1853 2448 1751 
Q 2684 1650 2818 1456 
Q 2953 1263 2953 975 
Q 2953 694 2789 445 
Q 2625 197 2315 61 
Q 2006 -75 1616 -75 
Q 969 -75 630 194 
Q 291 463 197 991 
z
" transform="scale(0.015625)"/>
       <path id="ArialMT-68" d="M 422 0 
L 422 4581 
L 984 4581 
L 984 2938 
Q 1378 3394 1978 3394 
Q 2347 3394 2619 3248 
Q 2891 3103 3008 2847 
Q 3125 2591 3125 2103 
L 3125 0 
L 2563 0 
L 2563 2103 
Q 2563 2525 2380 2717 
Q 2197 2909 1863 2909 
Q 1613 2909 1392 2779 
Q 1172 2650 1078 2428 
Q 984 2206 984 1816 
L 984 0 
L 422 0 
z
" transform="scale(0.015625)"/>
       <path id="ArialMT-66" d="M 556 0 
L 556 2881 
L 59 2881 
L 59 3319 
L 556 3319 
L 556 3672 
Q 556 4006 616 4169 
Q 697 4388 901 4523 
Q 1106 4659 1475 4659 
Q 1713 4659 2000 4603 
L 1916 4113 
Q 1741 4144 1584 4144 
Q 1328 4144 1222 4034 
Q 1116 3925 1116 3625 
L 1116 3319 
L 1763 3319 
L 1763 2881 
L 1116 2881 
L 1116 0 
L 556 0 
z
" transform="scale(0.015625)"/>
       <path id="ArialMT-65" d="M 2694 1069 
L 3275 997 
Q 3138 488 2766 206 
Q 2394 -75 1816 -75 
Q 1088 -75 661 373 
Q 234 822 234 1631 
Q 234 2469 665 2931 
Q 1097 3394 1784 3394 
Q 2450 3394 2872 2941 
Q 3294 2488 3294 1666 
Q 3294 1616 3291 1516 
L 816 1516 
Q 847 969 1125 678 
Q 1403 388 1819 388 
Q 2128 388 2347 550 
Q 2566 713 2694 1069 
z
M 847 1978 
L 2700 1978 
Q 2663 2397 2488 2606 
Q 2219 2931 1791 2931 
Q 1403 2931 1139 2672 
Q 875 2413 847 1978 
z
" transform="scale(0.015625)"/>
       <path id="ArialMT-64" d="M 2575 0 
L 2575 419 
Q 2259 -75 1647 -75 
Q 1250 -75 917 144 
Q 584 363 401 755 
Q 219 1147 219 1656 
Q 219 2153 384 2558 
Q 550 2963 881 3178 
Q 1213 3394 1622 3394 
Q 1922 3394 2156 3267 
Q 2391 3141 2538 2938 
L 2538 4581 
L 3097 4581 
L 3097 0 
L 2575 0 
z
M 797 1656 
Q 797 1019 1065 703 
Q 1334 388 1700 388 
Q 2069 388 2326 689 
Q 2584 991 2584 1609 
Q 2584 2291 2321 2609 
Q 2059 2928 1675 2928 
Q 1300 2928 1048 2622 
Q 797 2316 797 1656 
z
" transform="scale(0.015625)"/>
       <path id="ArialMT-63" d="M 2588 1216 
L 3141 1144 
Q 3050 572 2676 248 
Q 2303 -75 1759 -75 
Q 1078 -75 664 370 
Q 250 816 250 1647 
Q 250 2184 428 2587 
Q 606 2991 970 3192 
Q 1334 3394 1763 3394 
Q 2303 3394 2647 3120 
Q 2991 2847 3088 2344 
L 2541 2259 
Q 2463 2594 2264 2762 
Q 2066 2931 1784 2931 
Q 1359 2931 1093 2626 
Q 828 2322 828 1663 
Q 828 994 1084 691 
Q 1341 388 1753 388 
Q 2084 388 2306 591 
Q 2528 794 2588 1216 
z
" transform="scale(0.015625)"/>
       <path id="ArialMT-77" d="M 1034 0 
L 19 3319 
L 600 3319 
L 1128 1403 
L 1325 691 
Q 1338 744 1497 1375 
L 2025 3319 
L 2603 3319 
L 3100 1394 
L 3266 759 
L 3456 1400 
L 4025 3319 
L 4572 3319 
L 3534 0 
L 2950 0 
L 2422 1988 
L 2294 2553 
L 1622 0 
L 1034 0 
z
" transform="scale(0.015625)"/>
       <path id="ArialMT-75" d="M 2597 0 
L 2597 488 
Q 2209 -75 1544 -75 
Q 1250 -75 995 37 
Q 741 150 617 320 
Q 494 491 444 738 
Q 409 903 409 1263 
L 409 3319 
L 972 3319 
L 972 1478 
Q 972 1038 1006 884 
Q 1059 663 1231 536 
Q 1403 409 1656 409 
Q 1909 409 2131 539 
Q 2353 669 2445 892 
Q 2538 1116 2538 1541 
L 2538 3319 
L 3100 3319 
L 3100 0 
L 2597 0 
z
" transform="scale(0.015625)"/>
       <path id="ArialMT-6e" d="M 422 0 
L 422 3319 
L 928 3319 
L 928 2847 
Q 1294 3394 1984 3394 
Q 2284 3394 2536 3286 
Q 2788 3178 2913 3003 
Q 3038 2828 3088 2588 
Q 3119 2431 3119 2041 
L 3119 0 
L 2556 0 
L 2556 2019 
Q 2556 2363 2490 2533 
Q 2425 2703 2258 2804 
Q 2091 2906 1866 2906 
Q 1506 2906 1245 2678 
Q 984 2450 984 1813 
L 984 0 
L 422 0 
z
" transform="scale(0.015625)"/>
       <path id="ArialMT-67" d="M 319 -275 
L 866 -356 
Q 900 -609 1056 -725 
Q 1266 -881 1628 -881 
Q 2019 -881 2231 -725 
Q 2444 -569 2519 -288 
Q 2563 -116 2559 434 
Q 2191 0 1641 0 
Q 956 0 581 494 
Q 206 988 206 1678 
Q 206 2153 378 2554 
Q 550 2956 876 3175 
Q 1203 3394 1644 3394 
Q 2231 3394 2613 2919 
L 2613 3319 
L 3131 3319 
L 3131 450 
Q 3131 -325 2973 -648 
Q 2816 -972 2473 -1159 
Q 2131 -1347 1631 -1347 
Q 1038 -1347 672 -1080 
Q 306 -813 319 -275 
z
M 784 1719 
Q 784 1066 1043 766 
Q 1303 466 1694 466 
Q 2081 466 2343 764 
Q 2606 1063 2606 1700 
Q 2606 2309 2336 2618 
Q 2066 2928 1684 2928 
Q 1309 2928 1046 2623 
Q 784 2319 784 1719 
z
" transform="scale(0.015625)"/>
       <path id="ArialMT-7a" d="M 125 0 
L 125 456 
L 2238 2881 
Q 1878 2863 1603 2863 
L 250 2863 
L 250 3319 
L 2963 3319 
L 2963 2947 
L 1166 841 
L 819 456 
Q 1197 484 1528 484 
L 3063 484 
L 3063 0 
L 125 0 
z
" transform="scale(0.015625)"/>
       <path id="ArialMT-29" d="M 791 -1347 
L 388 -1347 
Q 1322 153 1322 1656 
Q 1322 2244 1188 2822 
Q 1081 3291 891 3722 
Q 769 4003 388 4659 
L 791 4659 
Q 1378 3875 1659 3084 
Q 1900 2403 1900 1659 
Q 1900 816 1576 28 
Q 1253 -759 791 -1347 
z
" transform="scale(0.015625)"/>
      </defs>
      <use xlink:href="#ArialMT-50"/>
      <use xlink:href="#ArialMT-72" x="66.699219"/>
      <use xlink:href="#ArialMT-6f" x="100"/>
      <use xlink:href="#ArialMT-62" x="155.615234"/>
      <use xlink:href="#ArialMT-61" x="211.230469"/>
      <use xlink:href="#ArialMT-62" x="266.845703"/>
      <use xlink:href="#ArialMT-69" x="322.460938"/>
      <use xlink:href="#ArialMT-6c" x="344.677734"/>
      <use xlink:href="#ArialMT-69" x="366.894531"/>
      <use xlink:href="#ArialMT-74" x="389.111328"/>
      <use xlink:href="#ArialMT-79" x="416.894531"/>
      <use xlink:href="#ArialMT-20" x="466.894531"/>
      <use xlink:href="#ArialMT-28" x="494.677734"/>
      <use xlink:href="#ArialMT-73" x="527.978516"/>
      <use xlink:href="#ArialMT-68" x="577.978516"/>
      <use xlink:href="#ArialMT-69" x="633.59375"/>
      <use xlink:href="#ArialMT-66" x="655.810547"/>
      <use xlink:href="#ArialMT-74" x="683.59375"/>
      <use xlink:href="#ArialMT-65" x="711.376953"/>
      <use xlink:href="#ArialMT-64" x="766.992188"/>
      <use xlink:href="#ArialMT-20" x="822.607422"/>
      <use xlink:href="#ArialMT-66" x="850.390625"/>
      <use xlink:href="#ArialMT-6f" x="878.173828"/>
      <use xlink:href="#ArialMT-72" x="933.789062"/>
      <use xlink:href="#ArialMT-20" x="967.089844"/>
      <use xlink:href="#ArialMT-63" x="994.873047"/>
      <use xlink:href="#ArialMT-6c" x="1044.873047"/>
      <use xlink:href="#ArialMT-61" x="1067.089844"/>
      <use xlink:href="#ArialMT-72" x="1122.705078"/>
      <use xlink:href="#ArialMT-69" x="1156.005859"/>
      <use xlink:href="#ArialMT-74" x="1178.222656"/>
      <use xlink:href="#ArialMT-79" x="1206.005859"/>
      <use xlink:href="#ArialMT-20" x="1256.005859"/>
      <use xlink:href="#ArialMT-77" x="1283.789062"/>
      <use xlink:href="#ArialMT-69" x="1356.005859"/>
      <use xlink:href="#ArialMT-74" x="1378.222656"/>
      <use xlink:href="#ArialMT-68" x="1406.005859"/>
      <use xlink:href="#ArialMT-20" x="1461.621094"/>
      <use xlink:href="#ArialMT-75" x="1489.404297"/>
      <use xlink:href="#ArialMT-6e" x="1545.019531"/>
      <use xlink:href="#ArialMT-72" x="1600.634766"/>
      <use xlink:href="#ArialMT-65" x="1633.935547"/>
      <use xlink:href="#ArialMT-67" x="1689.550781"/>
      <use xlink:href="#ArialMT-75" x="1745.166016"/>
      <use xlink:href="#ArialMT-6c" x="1800.78125"/>
      <use xlink:href="#ArialMT-61" x="1822.998047"/>
      <use xlink:href="#ArialMT-72" x="1878.613281"/>
      <use xlink:href="#ArialMT-69" x="1911.914062"/>
      <use xlink:href="#ArialMT-7a" x="1934.130859"/>
      <use xlink:href="#ArialMT-65" x="1984.130859"/>
      <use xlink:href="#ArialMT-64" x="2039.746094"/>
      <use xlink:href="#ArialMT-20" x="2095.361328"/>
      <use xlink:href="#ArialMT-73" x="2123.144531"/>
      <use xlink:href="#ArialMT-63" x="2173.144531"/>
      <use xlink:href="#ArialMT-61" x="2223.144531"/>
      <use xlink:href="#ArialMT-6c" x="2278.759766"/>
      <use xlink:href="#ArialMT-65" x="2300.976562"/>
      <use xlink:href="#ArialMT-29" x="2356.591797"/>
     </g>
    </g>
   </g>
   <g id="matplotlib.axis_2">
    <g id="ytick_1">
     <g id="line2d_1">
      <path d="M 135 142.881201 
L 972 142.881201 
" clip-path="url(#p07a4b9baed)" style="fill: none; stroke: #ffffff; stroke-width: 1.3; stroke-linecap: round"/>
     </g>
     <g id="text_2">
      <!-- 288 -->
      <g style="fill: #262626" transform="translate(104.212344 147.533779) scale(0.13 -0.13)">
       <defs>
        <path id="ArialMT-32" d="M 3222 541 
L 3222 0 
L 194 0 
Q 188 203 259 391 
Q 375 700 629 1000 
Q 884 1300 1366 1694 
Q 2113 2306 2375 2664 
Q 2638 3022 2638 3341 
Q 2638 3675 2398 3904 
Q 2159 4134 1775 4134 
Q 1369 4134 1125 3890 
Q 881 3647 878 3216 
L 300 3275 
Q 359 3922 746 4261 
Q 1134 4600 1788 4600 
Q 2447 4600 2831 4234 
Q 3216 3869 3216 3328 
Q 3216 3053 3103 2787 
Q 2991 2522 2730 2228 
Q 2469 1934 1863 1422 
Q 1356 997 1212 845 
Q 1069 694 975 541 
L 3222 541 
z
" transform="scale(0.015625)"/>
        <path id="ArialMT-38" d="M 1131 2484 
Q 781 2613 612 2850 
Q 444 3088 444 3419 
Q 444 3919 803 4259 
Q 1163 4600 1759 4600 
Q 2359 4600 2725 4251 
Q 3091 3903 3091 3403 
Q 3091 3084 2923 2848 
Q 2756 2613 2416 2484 
Q 2838 2347 3058 2040 
Q 3278 1734 3278 1309 
Q 3278 722 2862 322 
Q 2447 -78 1769 -78 
Q 1091 -78 675 323 
Q 259 725 259 1325 
Q 259 1772 486 2073 
Q 713 2375 1131 2484 
z
M 1019 3438 
Q 1019 3113 1228 2906 
Q 1438 2700 1772 2700 
Q 2097 2700 2305 2904 
Q 2513 3109 2513 3406 
Q 2513 3716 2298 3927 
Q 2084 4138 1766 4138 
Q 1444 4138 1231 3931 
Q 1019 3725 1019 3438 
z
M 838 1322 
Q 838 1081 952 856 
Q 1066 631 1291 507 
Q 1516 384 1775 384 
Q 2178 384 2440 643 
Q 2703 903 2703 1303 
Q 2703 1709 2433 1975 
Q 2163 2241 1756 2241 
Q 1359 2241 1098 1978 
Q 838 1716 838 1322 
z
" transform="scale(0.015625)"/>
       </defs>
       <use xlink:href="#ArialMT-32"/>
       <use xlink:href="#ArialMT-38" x="55.615234"/>
       <use xlink:href="#ArialMT-38" x="111.230469"/>
      </g>
     </g>
    </g>
    <g id="ytick_2">
     <g id="line2d_2">
      <path d="M 135 187.127312 
L 972 187.127312 
" clip-path="url(#p07a4b9baed)" style="fill: none; stroke: #ffffff; stroke-width: 1.3; stroke-linecap: round"/>
     </g>
     <g id="text_3">
      <!-- 483 -->
      <g style="fill: #262626" transform="translate(104.212344 191.779891) scale(0.13 -0.13)">
       <defs>
        <path id="ArialMT-34" d="M 2069 0 
L 2069 1097 
L 81 1097 
L 81 1613 
L 2172 4581 
L 2631 4581 
L 2631 1613 
L 3250 1613 
L 3250 1097 
L 2631 1097 
L 2631 0 
L 2069 0 
z
M 2069 1613 
L 2069 3678 
L 634 1613 
L 2069 1613 
z
" transform="scale(0.015625)"/>
        <path id="ArialMT-33" d="M 269 1209 
L 831 1284 
Q 928 806 1161 595 
Q 1394 384 1728 384 
Q 2125 384 2398 659 
Q 2672 934 2672 1341 
Q 2672 1728 2419 1979 
Q 2166 2231 1775 2231 
Q 1616 2231 1378 2169 
L 1441 2663 
Q 1497 2656 1531 2656 
Q 1891 2656 2178 2843 
Q 2466 3031 2466 3422 
Q 2466 3731 2256 3934 
Q 2047 4138 1716 4138 
Q 1388 4138 1169 3931 
Q 950 3725 888 3313 
L 325 3413 
Q 428 3978 793 4289 
Q 1159 4600 1703 4600 
Q 2078 4600 2393 4439 
Q 2709 4278 2876 4000 
Q 3044 3722 3044 3409 
Q 3044 3113 2884 2869 
Q 2725 2625 2413 2481 
Q 2819 2388 3044 2092 
Q 3269 1797 3269 1353 
Q 3269 753 2831 336 
Q 2394 -81 1725 -81 
Q 1122 -81 723 278 
Q 325 638 269 1209 
z
" transform="scale(0.015625)"/>
       </defs>
       <use xlink:href="#ArialMT-34"/>
       <use xlink:href="#ArialMT-38" x="55.615234"/>
       <use xlink:href="#ArialMT-33" x="111.230469"/>
      </g>
     </g>
    </g>
    <g id="ytick_3">
     <g id="line2d_3">
      <path d="M 135 233.415553 
L 972 233.415553 
" clip-path="url(#p07a4b9baed)" style="fill: none; stroke: #ffffff; stroke-width: 1.3; stroke-linecap: round"/>
     </g>
     <g id="text_4">
      <!-- 687 -->
      <g style="fill: #262626" transform="translate(104.212344 238.068131) scale(0.13 -0.13)">
       <defs>
        <path id="ArialMT-36" d="M 3184 3459 
L 2625 3416 
Q 2550 3747 2413 3897 
Q 2184 4138 1850 4138 
Q 1581 4138 1378 3988 
Q 1113 3794 959 3422 
Q 806 3050 800 2363 
Q 1003 2672 1297 2822 
Q 1591 2972 1913 2972 
Q 2475 2972 2870 2558 
Q 3266 2144 3266 1488 
Q 3266 1056 3080 686 
Q 2894 316 2569 119 
Q 2244 -78 1831 -78 
Q 1128 -78 684 439 
Q 241 956 241 2144 
Q 241 3472 731 4075 
Q 1159 4600 1884 4600 
Q 2425 4600 2770 4297 
Q 3116 3994 3184 3459 
z
M 888 1484 
Q 888 1194 1011 928 
Q 1134 663 1356 523 
Q 1578 384 1822 384 
Q 2178 384 2434 671 
Q 2691 959 2691 1453 
Q 2691 1928 2437 2201 
Q 2184 2475 1800 2475 
Q 1419 2475 1153 2201 
Q 888 1928 888 1484 
z
" transform="scale(0.015625)"/>
        <path id="ArialMT-37" d="M 303 3981 
L 303 4522 
L 3269 4522 
L 3269 4084 
Q 2831 3619 2401 2847 
Q 1972 2075 1738 1259 
Q 1569 684 1522 0 
L 944 0 
Q 953 541 1156 1306 
Q 1359 2072 1739 2783 
Q 2119 3494 2547 3981 
L 303 3981 
z
" transform="scale(0.015625)"/>
       </defs>
       <use xlink:href="#ArialMT-36"/>
       <use xlink:href="#ArialMT-38" x="55.615234"/>
       <use xlink:href="#ArialMT-37" x="111.230469"/>
      </g>
     </g>
    </g>
    <g id="ytick_4">
     <g id="line2d_4">
      <path d="M 135 301.486494 
L 972 301.486494 
" clip-path="url(#p07a4b9baed)" style="fill: none; stroke: #ffffff; stroke-width: 1.3; stroke-linecap: round"/>
     </g>
     <g id="text_5">
      <!-- 987 -->
      <g style="fill: #262626" transform="translate(104.212344 306.139072) scale(0.13 -0.13)">
       <defs>
        <path id="ArialMT-39" d="M 350 1059 
L 891 1109 
Q 959 728 1153 556 
Q 1347 384 1650 384 
Q 1909 384 2104 503 
Q 2300 622 2425 820 
Q 2550 1019 2634 1356 
Q 2719 1694 2719 2044 
Q 2719 2081 2716 2156 
Q 2547 1888 2255 1720 
Q 1963 1553 1622 1553 
Q 1053 1553 659 1965 
Q 266 2378 266 3053 
Q 266 3750 677 4175 
Q 1088 4600 1706 4600 
Q 2153 4600 2523 4359 
Q 2894 4119 3086 3673 
Q 3278 3228 3278 2384 
Q 3278 1506 3087 986 
Q 2897 466 2520 194 
Q 2144 -78 1638 -78 
Q 1100 -78 759 220 
Q 419 519 350 1059 
z
M 2653 3081 
Q 2653 3566 2395 3850 
Q 2138 4134 1775 4134 
Q 1400 4134 1122 3828 
Q 844 3522 844 3034 
Q 844 2597 1108 2323 
Q 1372 2050 1759 2050 
Q 2150 2050 2401 2323 
Q 2653 2597 2653 3081 
z
" transform="scale(0.015625)"/>
       </defs>
       <use xlink:href="#ArialMT-39"/>
       <use xlink:href="#ArialMT-38" x="55.615234"/>
       <use xlink:href="#ArialMT-37" x="111.230469"/>
      </g>
     </g>
    </g>
    <g id="ytick_5">
     <g id="line2d_5">
      <path d="M 135 321.907776 
L 972 321.907776 
" clip-path="url(#p07a4b9baed)" style="fill: none; stroke: #ffffff; stroke-width: 1.3; stroke-linecap: round"/>
     </g>
     <g id="text_6">
      <!-- 1077 -->
      <g style="fill: #262626" transform="translate(96.983125 326.560354) scale(0.13 -0.13)">
       <defs>
        <path id="ArialMT-31" d="M 2384 0 
L 1822 0 
L 1822 3584 
Q 1619 3391 1289 3197 
Q 959 3003 697 2906 
L 697 3450 
Q 1169 3672 1522 3987 
Q 1875 4303 2022 4600 
L 2384 4600 
L 2384 0 
z
" transform="scale(0.015625)"/>
        <path id="ArialMT-30" d="M 266 2259 
Q 266 3072 433 3567 
Q 600 4063 929 4331 
Q 1259 4600 1759 4600 
Q 2128 4600 2406 4451 
Q 2684 4303 2865 4023 
Q 3047 3744 3150 3342 
Q 3253 2941 3253 2259 
Q 3253 1453 3087 958 
Q 2922 463 2592 192 
Q 2263 -78 1759 -78 
Q 1097 -78 719 397 
Q 266 969 266 2259 
z
M 844 2259 
Q 844 1131 1108 757 
Q 1372 384 1759 384 
Q 2147 384 2411 759 
Q 2675 1134 2675 2259 
Q 2675 3391 2411 3762 
Q 2147 4134 1753 4134 
Q 1366 4134 1134 3806 
Q 844 3388 844 2259 
z
" transform="scale(0.015625)"/>
       </defs>
       <use xlink:href="#ArialMT-31"/>
       <use xlink:href="#ArialMT-30" x="55.615234"/>
       <use xlink:href="#ArialMT-37" x="111.230469"/>
       <use xlink:href="#ArialMT-37" x="166.845703"/>
      </g>
     </g>
    </g>
    <g id="ytick_6">
     <g id="line2d_6">
      <path d="M 135 349.589959 
L 972 349.589959 
" clip-path="url(#p07a4b9baed)" style="fill: none; stroke: #ffffff; stroke-width: 1.3; stroke-linecap: round"/>
     </g>
     <g id="text_7">
      <!-- 1199 -->
      <g style="fill: #262626" transform="translate(97.941875 354.242537) scale(0.13 -0.13)">
       <use xlink:href="#ArialMT-31"/>
       <use xlink:href="#ArialMT-31" x="48.240234"/>
       <use xlink:href="#ArialMT-39" x="103.855469"/>
       <use xlink:href="#ArialMT-39" x="159.470703"/>
      </g>
     </g>
    </g>
    <g id="ytick_7">
     <g id="line2d_7">
      <path d="M 135 440.578117 
L 972 440.578117 
" clip-path="url(#p07a4b9baed)" style="fill: none; stroke: #ffffff; stroke-width: 1.3; stroke-linecap: round"/>
     </g>
     <g id="text_8">
      <!-- 1600 -->
      <g style="fill: #262626" transform="translate(96.983125 445.230695) scale(0.13 -0.13)">
       <use xlink:href="#ArialMT-31"/>
       <use xlink:href="#ArialMT-36" x="55.615234"/>
       <use xlink:href="#ArialMT-30" x="111.230469"/>
       <use xlink:href="#ArialMT-30" x="166.845703"/>
      </g>
     </g>
    </g>
    <g id="text_9">
     <!-- Depth in meters (true change points indicated at ticks) -->
     <g style="fill: #262626" transform="translate(89.826094 506.484141) rotate(-90) scale(0.15 -0.15)">
      <defs>
       <path id="ArialMT-44" d="M 494 0 
L 494 4581 
L 2072 4581 
Q 2606 4581 2888 4516 
Q 3281 4425 3559 4188 
Q 3922 3881 4101 3404 
Q 4281 2928 4281 2316 
Q 4281 1794 4159 1391 
Q 4038 988 3847 723 
Q 3656 459 3429 307 
Q 3203 156 2883 78 
Q 2563 0 2147 0 
L 494 0 
z
M 1100 541 
L 2078 541 
Q 2531 541 2789 625 
Q 3047 709 3200 863 
Q 3416 1078 3536 1442 
Q 3656 1806 3656 2325 
Q 3656 3044 3420 3430 
Q 3184 3816 2847 3947 
Q 2603 4041 2063 4041 
L 1100 4041 
L 1100 541 
z
" transform="scale(0.015625)"/>
       <path id="ArialMT-70" d="M 422 -1272 
L 422 3319 
L 934 3319 
L 934 2888 
Q 1116 3141 1344 3267 
Q 1572 3394 1897 3394 
Q 2322 3394 2647 3175 
Q 2972 2956 3137 2557 
Q 3303 2159 3303 1684 
Q 3303 1175 3120 767 
Q 2938 359 2589 142 
Q 2241 -75 1856 -75 
Q 1575 -75 1351 44 
Q 1128 163 984 344 
L 984 -1272 
L 422 -1272 
z
M 931 1641 
Q 931 1000 1190 694 
Q 1450 388 1819 388 
Q 2194 388 2461 705 
Q 2728 1022 2728 1688 
Q 2728 2322 2467 2637 
Q 2206 2953 1844 2953 
Q 1484 2953 1207 2617 
Q 931 2281 931 1641 
z
" transform="scale(0.015625)"/>
       <path id="ArialMT-6d" d="M 422 0 
L 422 3319 
L 925 3319 
L 925 2853 
Q 1081 3097 1340 3245 
Q 1600 3394 1931 3394 
Q 2300 3394 2536 3241 
Q 2772 3088 2869 2813 
Q 3263 3394 3894 3394 
Q 4388 3394 4653 3120 
Q 4919 2847 4919 2278 
L 4919 0 
L 4359 0 
L 4359 2091 
Q 4359 2428 4304 2576 
Q 4250 2725 4106 2815 
Q 3963 2906 3769 2906 
Q 3419 2906 3187 2673 
Q 2956 2441 2956 1928 
L 2956 0 
L 2394 0 
L 2394 2156 
Q 2394 2531 2256 2718 
Q 2119 2906 1806 2906 
Q 1569 2906 1367 2781 
Q 1166 2656 1075 2415 
Q 984 2175 984 1722 
L 984 0 
L 422 0 
z
" transform="scale(0.015625)"/>
       <path id="ArialMT-6b" d="M 425 0 
L 425 4581 
L 988 4581 
L 988 1969 
L 2319 3319 
L 3047 3319 
L 1778 2088 
L 3175 0 
L 2481 0 
L 1384 1697 
L 988 1316 
L 988 0 
L 425 0 
z
" transform="scale(0.015625)"/>
      </defs>
      <use xlink:href="#ArialMT-44"/>
      <use xlink:href="#ArialMT-65" x="72.216797"/>
      <use xlink:href="#ArialMT-70" x="127.832031"/>
      <use xlink:href="#ArialMT-74" x="183.447266"/>
      <use xlink:href="#ArialMT-68" x="211.230469"/>
      <use xlink:href="#ArialMT-20" x="266.845703"/>
      <use xlink:href="#ArialMT-69" x="294.628906"/>
      <use xlink:href="#ArialMT-6e" x="316.845703"/>
      <use xlink:href="#ArialMT-20" x="372.460938"/>
      <use xlink:href="#ArialMT-6d" x="400.244141"/>
      <use xlink:href="#ArialMT-65" x="483.544922"/>
      <use xlink:href="#ArialMT-74" x="539.160156"/>
      <use xlink:href="#ArialMT-65" x="566.943359"/>
      <use xlink:href="#ArialMT-72" x="622.558594"/>
      <use xlink:href="#ArialMT-73" x="655.859375"/>
      <use xlink:href="#ArialMT-20" x="705.859375"/>
      <use xlink:href="#ArialMT-28" x="733.642578"/>
      <use xlink:href="#ArialMT-74" x="766.943359"/>
      <use xlink:href="#ArialMT-72" x="794.726562"/>
      <use xlink:href="#ArialMT-75" x="828.027344"/>
      <use xlink:href="#ArialMT-65" x="883.642578"/>
      <use xlink:href="#ArialMT-20" x="939.257812"/>
      <use xlink:href="#ArialMT-63" x="967.041016"/>
      <use xlink:href="#ArialMT-68" x="1017.041016"/>
      <use xlink:href="#ArialMT-61" x="1072.65625"/>
      <use xlink:href="#ArialMT-6e" x="1128.271484"/>
      <use xlink:href="#ArialMT-67" x="1183.886719"/>
      <use xlink:href="#ArialMT-65" x="1239.501953"/>
      <use xlink:href="#ArialMT-20" x="1295.117188"/>
      <use xlink:href="#ArialMT-70" x="1322.900391"/>
      <use xlink:href="#ArialMT-6f" x="1378.515625"/>
      <use xlink:href="#ArialMT-69" x="1434.130859"/>
      <use xlink:href="#ArialMT-6e" x="1456.347656"/>
      <use xlink:href="#ArialMT-74" x="1511.962891"/>
      <use xlink:href="#ArialMT-73" x="1539.746094"/>
      <use xlink:href="#ArialMT-20" x="1589.746094"/>
      <use xlink:href="#ArialMT-69" x="1617.529297"/>
      <use xlink:href="#ArialMT-6e" x="1639.746094"/>
      <use xlink:href="#ArialMT-64" x="1695.361328"/>
      <use xlink:href="#ArialMT-69" x="1750.976562"/>
      <use xlink:href="#ArialMT-63" x="1773.193359"/>
      <use xlink:href="#ArialMT-61" x="1823.193359"/>
      <use xlink:href="#ArialMT-74" x="1878.808594"/>
      <use xlink:href="#ArialMT-65" x="1906.591797"/>
      <use xlink:href="#ArialMT-64" x="1962.207031"/>
      <use xlink:href="#ArialMT-20" x="2017.822266"/>
      <use xlink:href="#ArialMT-61" x="2045.605469"/>
      <use xlink:href="#ArialMT-74" x="2101.220703"/>
      <use xlink:href="#ArialMT-20" x="2129.003906"/>
      <use xlink:href="#ArialMT-74" x="2156.787109"/>
      <use xlink:href="#ArialMT-69" x="2184.570312"/>
      <use xlink:href="#ArialMT-63" x="2206.787109"/>
      <use xlink:href="#ArialMT-6b" x="2256.787109"/>
      <use xlink:href="#ArialMT-73" x="2306.787109"/>
      <use xlink:href="#ArialMT-29" x="2356.787109"/>
     </g>
    </g>
   </g>
   <g id="line2d_8">
    <path d="M 135 440.578117 
L 972 440.578117 
" clip-path="url(#p07a4b9baed)" style="fill: none; stroke: #000000; stroke-opacity: 0.1; stroke-width: 2.275; stroke-linecap: round"/>
   </g>
   <g id="line2d_9">
    <path d="M 135 142.881201 
L 972 142.881201 
" clip-path="url(#p07a4b9baed)" style="fill: none; stroke: #ffa500; stroke-opacity: 0.65; stroke-width: 2.275; stroke-linecap: round"/>
   </g>
   <g id="line2d_10">
    <path d="M 135 187.127312 
L 972 187.127312 
" clip-path="url(#p07a4b9baed)" style="fill: none; stroke: #ffa500; stroke-opacity: 0.65; stroke-width: 2.275; stroke-linecap: round"/>
   </g>
   <g id="line2d_11">
    <path d="M 135 233.415553 
L 972 233.415553 
" clip-path="url(#p07a4b9baed)" style="fill: none; stroke: #ffa500; stroke-opacity: 0.65; stroke-width: 2.275; stroke-linecap: round"/>
   </g>
   <g id="line2d_12">
    <path d="M 135 301.486494 
L 972 301.486494 
" clip-path="url(#p07a4b9baed)" style="fill: none; stroke: #ffa500; stroke-opacity: 0.65; stroke-width: 2.275; stroke-linecap: round"/>
   </g>
   <g id="line2d_13">
    <path d="M 135 321.907776 
L 972 321.907776 
" clip-path="url(#p07a4b9baed)" style="fill: none; stroke: #ffa500; stroke-opacity: 0.65; stroke-width: 2.275; stroke-linecap: round"/>
   </g>
   <g id="line2d_14">
    <path d="M 135 349.589959 
L 972 349.589959 
" clip-path="url(#p07a4b9baed)" style="fill: none; stroke: #ffa500; stroke-opacity: 0.65; stroke-width: 2.275; stroke-linecap: round"/>
   </g>
   <g id="line2d_15">
    <path d="M 135 440.578117 
L 972 440.578117 
" clip-path="url(#p07a4b9baed)" style="fill: none; stroke: #000000; stroke-opacity: 0.005; stroke-width: 2.275; stroke-linecap: round"/>
   </g>
   <g id="line2d_16">
    <path d="M 653.142857 77.533097 
" clip-path="url(#p07a4b9baed)" style="fill: none; stroke: #800080; stroke-opacity: 0.9; stroke-linecap: round"/>
   </g>
   <g id="line2d_17">
    <path d="M 414 77.533097 
" clip-path="url(#p07a4b9baed)" style="fill: none; stroke: #008000; stroke-opacity: 0.9; stroke-linecap: round"/>
   </g>
   <g id="line2d_18">
    <path d="M 174.857143 77.533097 
L 174.862997 92.96251 
L 175.010612 93.189413 
L 176.267391 93.416317 
L 180.207638 93.64322 
L 234.172196 93.870123 
L 175.06824 94.097026 
L 174.877341 94.323929 
L 174.857581 96.139154 
L 174.899487 107.030505 
L 175.492107 107.257408 
L 175.733649 107.711214 
L 176.592624 107.938117 
L 179.404343 108.16502 
L 250.181682 108.391924 
L 188.893468 108.618827 
L 249.686067 108.84573 
L 174.872987 109.072633 
L 174.857542 112.929986 
L 174.9064 117.241146 
L 241.058786 117.468049 
L 175.085764 117.694952 
L 174.861345 117.921855 
L 174.857955 127.451787 
L 174.877181 128.3594 
L 179.586119 128.813206 
L 246.401365 129.040109 
L 176.169412 129.267012 
L 174.875576 129.493915 
L 174.857413 131.309141 
L 174.883014 138.116235 
L 176.048605 138.343138 
L 244.557536 138.570041 
L 202.006304 138.796944 
L 248.215712 139.023847 
L 175.969912 139.25075 
L 175.044283 139.477653 
L 174.862921 139.704557 
L 174.857589 145.830941 
L 174.879136 157.403001 
L 175.160864 157.629905 
L 333.960113 157.856808 
L 174.873251 158.083711 
L 174.884842 160.579645 
L 174.947864 161.260355 
L 175.903916 161.714161 
L 335.195967 161.941064 
L 184.616235 162.167967 
L 353.593983 162.39487 
L 175.545058 162.621774 
L 175.029756 162.848677 
L 174.884145 163.302483 
L 174.868964 164.890805 
L 174.906771 165.117708 
L 175.128532 165.344611 
L 175.804568 165.571514 
L 176.111402 165.798417 
L 178.375259 166.025321 
L 177.594844 166.252224 
L 179.191784 166.479127 
L 176.539808 166.70603 
L 176.835999 166.932933 
L 212.369157 167.159836 
L 279.667047 167.386739 
L 256.943354 167.613643 
L 182.234457 167.840546 
L 179.050431 168.067449 
L 230.902553 168.294352 
L 212.883389 168.521255 
L 174.928114 168.748158 
L 174.870869 170.33648 
L 174.876063 172.832415 
L 174.895864 175.555252 
L 174.931797 176.009059 
L 174.961503 176.916671 
L 175.351317 177.597381 
L 174.860155 177.824284 
L 175.010756 178.958799 
L 175.453883 179.185703 
L 176.331628 179.412606 
L 181.244364 179.866412 
L 185.811105 180.093315 
L 217.079294 180.320218 
L 324.613012 180.547121 
L 181.259009 180.774025 
L 176.871483 181.000928 
L 175.19111 181.454734 
L 175.040481 181.681637 
L 175.058535 181.90854 
L 174.922785 182.362347 
L 174.956759 182.816153 
L 174.895137 183.269959 
L 174.876165 184.404475 
L 174.861558 186.446603 
L 174.951683 188.034925 
L 175.015645 188.261828 
L 175.203086 188.488731 
L 176.568394 188.942538 
L 177.858893 189.169441 
L 188.42065 189.396344 
L 206.897629 189.623247 
L 299.917139 189.85015 
L 181.026397 190.077053 
L 175.851806 190.303956 
L 175.112191 190.530859 
L 192.076932 190.757763 
L 332.760845 190.984666 
L 185.964756 191.211569 
L 174.948772 191.438472 
L 174.877003 191.892278 
L 174.863904 194.16131 
L 174.924537 195.295825 
L 175.265899 195.522729 
L 177.208102 196.203438 
L 197.563735 196.430341 
L 234.703903 196.657244 
L 245.74636 196.884147 
L 174.949689 197.11105 
L 174.858647 197.564857 
L 174.875948 199.833888 
L 327.169394 200.060791 
L 180.927724 200.287694 
L 175.768313 200.514598 
L 174.983824 200.741501 
L 174.862935 201.195307 
L 174.858322 210.271432 
L 174.896774 213.221173 
L 175.019524 213.448076 
L 175.512029 213.67498 
L 360.761633 213.901883 
L 174.943588 214.128786 
L 174.863495 214.582592 
L 174.897746 230.692715 
L 174.999787 231.600327 
L 175.281654 231.827231 
L 176.192403 232.054134 
L 334.171706 232.281037 
L 177.002194 232.50794 
L 176.944207 232.734843 
L 177.52805 232.961746 
L 183.028535 233.188649 
L 194.203414 233.415553 
L 274.332137 233.642456 
L 309.544888 233.869359 
L 379.793373 234.096262 
L 179.80557 234.323165 
L 176.265011 234.550068 
L 175.19236 234.776971 
L 174.989164 235.230778 
L 198.856495 235.457681 
L 281.146211 235.684584 
L 177.409351 235.911487 
L 175.014874 236.13839 
L 174.867779 236.592196 
L 174.859238 247.029741 
L 174.979438 249.752578 
L 183.239402 249.979482 
L 325.944575 250.206385 
L 174.989045 250.433288 
L 174.867744 250.887094 
L 174.862508 256.332769 
L 174.860972 263.366767 
L 174.953227 274.48502 
L 174.980185 274.938827 
L 174.879362 275.16573 
L 174.961967 275.846439 
L 174.877393 276.073342 
L 175.08161 276.980955 
L 174.950004 277.207858 
L 196.70112 277.434761 
L 304.953211 277.661664 
L 180.968003 277.888568 
L 176.905517 278.115471 
L 175.193968 278.342374 
L 175.606709 278.569277 
L 175.19628 278.79618 
L 176.300002 279.249986 
L 199.361833 279.476889 
L 343.135653 279.703793 
L 214.403696 279.930696 
L 287.39302 280.157599 
L 174.929347 280.384502 
L 175.480365 281.065211 
L 177.571467 281.292115 
L 231.813229 281.745921 
L 390.448531 281.972824 
L 194.841731 282.199727 
L 174.983344 282.653533 
L 174.888331 283.334243 
L 174.859717 284.922565 
L 174.999083 294.6794 
L 175.297897 294.906303 
L 190.125067 295.133206 
L 269.782314 295.360109 
L 182.689648 295.813915 
L 174.875954 296.040819 
L 174.858327 297.856044 
L 174.906908 321.907776 
L 180.572439 322.134679 
L 241.64544 322.361583 
L 260.795323 322.588486 
L 175.766335 322.815389 
L 174.935875 323.042292 
L 174.862857 323.496098 
L 174.935858 324.630614 
L 175.227167 324.857517 
L 175.85807 325.08442 
L 204.228947 325.311323 
L 319.247804 325.538226 
L 322.662069 325.76513 
L 187.450234 325.992033 
L 184.453117 326.218936 
L 175.474463 326.445839 
L 175.068899 326.672742 
L 176.809824 326.899645 
L 182.23683 327.126548 
L 337.779116 327.353452 
L 179.824207 327.580355 
L 178.780767 328.034161 
L 174.934183 328.261064 
L 174.859149 329.849386 
L 174.920054 339.152415 
L 175.394662 339.606221 
L 185.372581 339.833124 
L 249.080119 340.28693 
L 198.191601 340.513834 
L 175.279905 340.740737 
L 174.936263 341.194543 
L 174.857233 341.648349 
L 174.894298 371.37266 
L 175.106803 371.599563 
L 180.634371 371.826467 
L 196.278072 372.05337 
L 235.539509 372.280273 
L 245.143599 372.507176 
L 198.411292 372.734079 
L 175.293968 372.960982 
L 175.212637 373.187885 
L 176.837461 373.414789 
L 174.901911 373.868595 
L 174.85715 375.003111 
L 174.866168 440.351214 
L 174.866168 440.351214 
" clip-path="url(#p07a4b9baed)" style="fill: none; stroke: #000000; stroke-opacity: 0.5; stroke-linecap: round"/>
   </g>
   <g id="line2d_19">
    <path d="M 812.571429 77.533097 
L 812.594025 78.894516 
L 812.584897 81.844256 
L 812.58111 90.466576 
L 812.600476 121.779209 
L 812.647587 123.821337 
L 812.648335 124.955853 
L 812.622636 125.863465 
L 812.628234 126.997981 
L 812.73245 132.216753 
L 812.837679 132.670559 
L 812.742252 133.351269 
L 812.910046 133.578172 
L 812.758186 134.031978 
L 812.924619 134.485784 
L 812.837035 135.166494 
L 812.68043 135.393397 
L 812.864578 135.6203 
L 812.904255 136.30101 
L 812.762743 136.527913 
L 812.952611 136.754816 
L 812.965201 137.435525 
L 813.233505 137.662428 
L 813.051226 137.889332 
L 813.084401 138.116235 
L 812.979218 138.343138 
L 813.062591 138.570041 
L 812.865 138.796944 
L 813.010216 139.477653 
L 813.30665 139.704557 
L 813.00616 140.158363 
L 813.203609 140.385266 
L 813.113434 140.612169 
L 813.273413 141.065975 
L 813.352213 141.292879 
L 814.056257 141.519782 
L 814.37224 141.746685 
L 815.031991 141.973588 
L 814.857158 142.200491 
L 816.303076 142.427394 
L 818.811706 142.654297 
L 823.53799 142.881201 
L 823.407592 143.108104 
L 818.614035 143.788813 
L 817.134388 144.015716 
L 817.17 144.242619 
L 817.465374 144.469523 
L 815.580058 144.923329 
L 815.671557 145.150232 
L 814.617804 145.377135 
L 814.207761 145.830941 
L 813.730147 146.057844 
L 813.860845 146.511651 
L 813.604768 146.738554 
L 813.887007 147.19236 
L 813.36257 147.419263 
L 813.478553 147.646166 
L 812.936107 148.099973 
L 813.511755 148.326876 
L 813.486071 148.553779 
L 813.047016 148.780682 
L 813.36993 149.007585 
L 813.321759 149.234488 
L 812.978156 149.461392 
L 813.219941 149.688295 
L 812.934955 150.142101 
L 812.844987 151.50352 
L 812.722348 151.730423 
L 812.749544 152.184229 
L 812.684287 152.411132 
L 812.778578 152.638035 
L 812.69404 152.864939 
L 812.804843 153.091842 
L 812.70826 153.772551 
L 812.780025 154.226357 
L 812.669991 154.453261 
L 812.741079 154.680164 
L 812.671959 155.13397 
L 812.580251 170.563383 
L 812.748714 181.90854 
L 812.905983 182.362347 
L 812.832334 182.58925 
L 812.894497 182.816153 
L 813.13987 183.043056 
L 813.078559 183.269959 
L 812.821956 183.496862 
L 813.599834 184.177572 
L 814.330777 184.404475 
L 813.429711 184.631378 
L 813.407518 184.858281 
L 813.958506 185.312087 
L 814.579546 185.53899 
L 814.411023 185.765894 
L 815.606268 185.992797 
L 815.405967 186.2197 
L 821.233191 187.127312 
L 820.866795 187.354216 
L 820.0091 187.581119 
L 816.862264 187.808022 
L 816.579129 188.034925 
L 814.986429 188.261828 
L 814.363981 188.488731 
L 814.363981 188.488731 
" clip-path="url(#p07a4b9baed)" style="fill: none; stroke: #0000ff; stroke-opacity: 0.9; stroke-linecap: round"/>
   </g>
   <g id="line2d_20">
    <path d="M 892.285714 77.533097 
L 892.285714 142.700846 
L 894.677143 142.927911 
L 894.677143 188.113911 
L 900.257143 188.340977 
L 900.257143 188.568042 
L 900.257143 188.568042 
" clip-path="url(#p07a4b9baed)" style="fill: none; stroke: #ff0000; stroke-opacity: 0.7; stroke-width: 2.275; stroke-linecap: round"/>
   </g>
   <g id="patch_3">
    <path d="M 135 576.72 
L 135 77.76 
" style="fill: none; stroke: #ffffff; stroke-linejoin: miter; stroke-linecap: square"/>
   </g>
   <g id="patch_4">
    <path d="M 972 576.72 
L 972 77.76 
" style="fill: none; stroke: #ffffff; stroke-linejoin: miter; stroke-linecap: square"/>
   </g>
   <g id="patch_5">
    <path d="M 135 576.72 
L 972 576.72 
" style="fill: none; stroke: #ffffff; stroke-linejoin: miter; stroke-linecap: square"/>
   </g>
   <g id="patch_6">
    <path d="M 135 77.76 
L 972 77.76 
" style="fill: none; stroke: #ffffff; stroke-linejoin: miter; stroke-linecap: square"/>
   </g>
   <g id="legend_1">
    <g id="text_10">
     <!-- Probability of Change Point: -->
     <g style="fill: #262626" transform="translate(692.347641 453.01425) scale(0.144 -0.144)">
      <defs>
       <path id="ArialMT-43" d="M 3763 1606 
L 4369 1453 
Q 4178 706 3683 314 
Q 3188 -78 2472 -78 
Q 1731 -78 1267 223 
Q 803 525 561 1097 
Q 319 1669 319 2325 
Q 319 3041 592 3573 
Q 866 4106 1370 4382 
Q 1875 4659 2481 4659 
Q 3169 4659 3637 4309 
Q 4106 3959 4291 3325 
L 3694 3184 
Q 3534 3684 3231 3912 
Q 2928 4141 2469 4141 
Q 1941 4141 1586 3887 
Q 1231 3634 1087 3207 
Q 944 2781 944 2328 
Q 944 1744 1114 1308 
Q 1284 872 1643 656 
Q 2003 441 2422 441 
Q 2931 441 3284 734 
Q 3638 1028 3763 1606 
z
" transform="scale(0.015625)"/>
       <path id="ArialMT-3a" d="M 578 2678 
L 578 3319 
L 1219 3319 
L 1219 2678 
L 578 2678 
z
M 578 0 
L 578 641 
L 1219 641 
L 1219 0 
L 578 0 
z
" transform="scale(0.015625)"/>
      </defs>
      <use xlink:href="#ArialMT-50"/>
      <use xlink:href="#ArialMT-72" x="66.699219"/>
      <use xlink:href="#ArialMT-6f" x="100"/>
      <use xlink:href="#ArialMT-62" x="155.615234"/>
      <use xlink:href="#ArialMT-61" x="211.230469"/>
      <use xlink:href="#ArialMT-62" x="266.845703"/>
      <use xlink:href="#ArialMT-69" x="322.460938"/>
      <use xlink:href="#ArialMT-6c" x="344.677734"/>
      <use xlink:href="#ArialMT-69" x="366.894531"/>
      <use xlink:href="#ArialMT-74" x="389.111328"/>
      <use xlink:href="#ArialMT-79" x="416.894531"/>
      <use xlink:href="#ArialMT-20" x="466.894531"/>
      <use xlink:href="#ArialMT-6f" x="494.677734"/>
      <use xlink:href="#ArialMT-66" x="550.292969"/>
      <use xlink:href="#ArialMT-20" x="578.076172"/>
      <use xlink:href="#ArialMT-43" x="605.859375"/>
      <use xlink:href="#ArialMT-68" x="678.076172"/>
      <use xlink:href="#ArialMT-61" x="733.691406"/>
      <use xlink:href="#ArialMT-6e" x="789.306641"/>
      <use xlink:href="#ArialMT-67" x="844.921875"/>
      <use xlink:href="#ArialMT-65" x="900.537109"/>
      <use xlink:href="#ArialMT-20" x="956.152344"/>
      <use xlink:href="#ArialMT-50" x="983.935547"/>
      <use xlink:href="#ArialMT-6f" x="1050.634766"/>
      <use xlink:href="#ArialMT-69" x="1106.25"/>
      <use xlink:href="#ArialMT-6e" x="1128.466797"/>
      <use xlink:href="#ArialMT-74" x="1184.082031"/>
      <use xlink:href="#ArialMT-3a" x="1211.865234"/>
     </g>
    </g>
    <g id="line2d_21">
     <path d="M 604.694531 469.031719 
L 619.694531 469.031719 
L 634.694531 469.031719 
" style="fill: none; stroke: #800080; stroke-opacity: 0.9; stroke-linecap: round"/>
    </g>
    <g id="text_11">
     <!-- only PHI predictions -->
     <g style="fill: #262626" transform="translate(646.694531 474.281719) scale(0.15 -0.15)">
      <defs>
       <path id="ArialMT-48" d="M 513 0 
L 513 4581 
L 1119 4581 
L 1119 2700 
L 3500 2700 
L 3500 4581 
L 4106 4581 
L 4106 0 
L 3500 0 
L 3500 2159 
L 1119 2159 
L 1119 0 
L 513 0 
z
" transform="scale(0.015625)"/>
       <path id="ArialMT-49" d="M 597 0 
L 597 4581 
L 1203 4581 
L 1203 0 
L 597 0 
z
" transform="scale(0.015625)"/>
      </defs>
      <use xlink:href="#ArialMT-6f"/>
      <use xlink:href="#ArialMT-6e" x="55.615234"/>
      <use xlink:href="#ArialMT-6c" x="111.230469"/>
      <use xlink:href="#ArialMT-79" x="133.447266"/>
      <use xlink:href="#ArialMT-20" x="183.447266"/>
      <use xlink:href="#ArialMT-50" x="211.230469"/>
      <use xlink:href="#ArialMT-48" x="277.929688"/>
      <use xlink:href="#ArialMT-49" x="350.146484"/>
      <use xlink:href="#ArialMT-20" x="377.929688"/>
      <use xlink:href="#ArialMT-70" x="405.712891"/>
      <use xlink:href="#ArialMT-72" x="461.328125"/>
      <use xlink:href="#ArialMT-65" x="494.628906"/>
      <use xlink:href="#ArialMT-64" x="550.244141"/>
      <use xlink:href="#ArialMT-69" x="605.859375"/>
      <use xlink:href="#ArialMT-63" x="628.076172"/>
      <use xlink:href="#ArialMT-74" x="678.076172"/>
      <use xlink:href="#ArialMT-69" x="705.859375"/>
      <use xlink:href="#ArialMT-6f" x="728.076172"/>
      <use xlink:href="#ArialMT-6e" x="783.691406"/>
      <use xlink:href="#ArialMT-73" x="839.306641"/>
     </g>
    </g>
    <g id="line2d_22">
     <path d="M 604.694531 490.617656 
L 619.694531 490.617656 
L 634.694531 490.617656 
" style="fill: none; stroke: #008000; stroke-opacity: 0.9; stroke-linecap: round"/>
    </g>
    <g id="text_12">
     <!-- only RHO predictions -->
     <g style="fill: #262626" transform="translate(646.694531 495.867656) scale(0.15 -0.15)">
      <defs>
       <path id="ArialMT-52" d="M 503 0 
L 503 4581 
L 2534 4581 
Q 3147 4581 3465 4457 
Q 3784 4334 3975 4021 
Q 4166 3709 4166 3331 
Q 4166 2844 3850 2509 
Q 3534 2175 2875 2084 
Q 3116 1969 3241 1856 
Q 3506 1613 3744 1247 
L 4541 0 
L 3778 0 
L 3172 953 
Q 2906 1366 2734 1584 
Q 2563 1803 2427 1890 
Q 2291 1978 2150 2013 
Q 2047 2034 1813 2034 
L 1109 2034 
L 1109 0 
L 503 0 
z
M 1109 2559 
L 2413 2559 
Q 2828 2559 3062 2645 
Q 3297 2731 3419 2920 
Q 3541 3109 3541 3331 
Q 3541 3656 3305 3865 
Q 3069 4075 2559 4075 
L 1109 4075 
L 1109 2559 
z
" transform="scale(0.015625)"/>
       <path id="ArialMT-4f" d="M 309 2231 
Q 309 3372 921 4017 
Q 1534 4663 2503 4663 
Q 3138 4663 3647 4359 
Q 4156 4056 4423 3514 
Q 4691 2972 4691 2284 
Q 4691 1588 4409 1038 
Q 4128 488 3612 205 
Q 3097 -78 2500 -78 
Q 1853 -78 1343 234 
Q 834 547 571 1087 
Q 309 1628 309 2231 
z
M 934 2222 
Q 934 1394 1379 917 
Q 1825 441 2497 441 
Q 3181 441 3623 922 
Q 4066 1403 4066 2288 
Q 4066 2847 3877 3264 
Q 3688 3681 3323 3911 
Q 2959 4141 2506 4141 
Q 1863 4141 1398 3698 
Q 934 3256 934 2222 
z
" transform="scale(0.015625)"/>
      </defs>
      <use xlink:href="#ArialMT-6f"/>
      <use xlink:href="#ArialMT-6e" x="55.615234"/>
      <use xlink:href="#ArialMT-6c" x="111.230469"/>
      <use xlink:href="#ArialMT-79" x="133.447266"/>
      <use xlink:href="#ArialMT-20" x="183.447266"/>
      <use xlink:href="#ArialMT-52" x="211.230469"/>
      <use xlink:href="#ArialMT-48" x="283.447266"/>
      <use xlink:href="#ArialMT-4f" x="355.664062"/>
      <use xlink:href="#ArialMT-20" x="433.447266"/>
      <use xlink:href="#ArialMT-70" x="461.230469"/>
      <use xlink:href="#ArialMT-72" x="516.845703"/>
      <use xlink:href="#ArialMT-65" x="550.146484"/>
      <use xlink:href="#ArialMT-64" x="605.761719"/>
      <use xlink:href="#ArialMT-69" x="661.376953"/>
      <use xlink:href="#ArialMT-63" x="683.59375"/>
      <use xlink:href="#ArialMT-74" x="733.59375"/>
      <use xlink:href="#ArialMT-69" x="761.376953"/>
      <use xlink:href="#ArialMT-6f" x="783.59375"/>
      <use xlink:href="#ArialMT-6e" x="839.208984"/>
      <use xlink:href="#ArialMT-73" x="894.824219"/>
     </g>
    </g>
    <g id="line2d_23">
     <path d="M 604.694531 512.011406 
L 619.694531 512.011406 
L 634.694531 512.011406 
" style="fill: none; stroke: #000000; stroke-opacity: 0.5; stroke-linecap: round"/>
    </g>
    <g id="text_13">
     <!-- Multivariate predictions -->
     <g style="fill: #262626" transform="translate(646.694531 517.261406) scale(0.15 -0.15)">
      <defs>
       <path id="ArialMT-4d" d="M 475 0 
L 475 4581 
L 1388 4581 
L 2472 1338 
Q 2622 884 2691 659 
Q 2769 909 2934 1394 
L 4031 4581 
L 4847 4581 
L 4847 0 
L 4263 0 
L 4263 3834 
L 2931 0 
L 2384 0 
L 1059 3900 
L 1059 0 
L 475 0 
z
" transform="scale(0.015625)"/>
       <path id="ArialMT-76" d="M 1344 0 
L 81 3319 
L 675 3319 
L 1388 1331 
Q 1503 1009 1600 663 
Q 1675 925 1809 1294 
L 2547 3319 
L 3125 3319 
L 1869 0 
L 1344 0 
z
" transform="scale(0.015625)"/>
      </defs>
      <use xlink:href="#ArialMT-4d"/>
      <use xlink:href="#ArialMT-75" x="83.300781"/>
      <use xlink:href="#ArialMT-6c" x="138.916016"/>
      <use xlink:href="#ArialMT-74" x="161.132812"/>
      <use xlink:href="#ArialMT-69" x="188.916016"/>
      <use xlink:href="#ArialMT-76" x="211.132812"/>
      <use xlink:href="#ArialMT-61" x="261.132812"/>
      <use xlink:href="#ArialMT-72" x="316.748047"/>
      <use xlink:href="#ArialMT-69" x="350.048828"/>
      <use xlink:href="#ArialMT-61" x="372.265625"/>
      <use xlink:href="#ArialMT-74" x="427.880859"/>
      <use xlink:href="#ArialMT-65" x="455.664062"/>
      <use xlink:href="#ArialMT-20" x="511.279297"/>
      <use xlink:href="#ArialMT-70" x="539.0625"/>
      <use xlink:href="#ArialMT-72" x="594.677734"/>
      <use xlink:href="#ArialMT-65" x="627.978516"/>
      <use xlink:href="#ArialMT-64" x="683.59375"/>
      <use xlink:href="#ArialMT-69" x="739.208984"/>
      <use xlink:href="#ArialMT-63" x="761.425781"/>
      <use xlink:href="#ArialMT-74" x="811.425781"/>
      <use xlink:href="#ArialMT-69" x="839.208984"/>
      <use xlink:href="#ArialMT-6f" x="861.425781"/>
      <use xlink:href="#ArialMT-6e" x="917.041016"/>
      <use xlink:href="#ArialMT-73" x="972.65625"/>
     </g>
    </g>
    <g id="line2d_24">
     <path d="M 604.694531 533.412188 
L 619.694531 533.412188 
L 634.694531 533.412188 
" style="fill: none; stroke: #0000ff; stroke-opacity: 0.9; stroke-linecap: round"/>
    </g>
    <g id="text_14">
     <!-- CP solution from Comparitee well -->
     <g style="fill: #262626" transform="translate(646.694531 538.662188) scale(0.15 -0.15)">
      <use xlink:href="#ArialMT-43"/>
      <use xlink:href="#ArialMT-50" x="72.216797"/>
      <use xlink:href="#ArialMT-20" x="137.166016"/>
      <use xlink:href="#ArialMT-73" x="164.949219"/>
      <use xlink:href="#ArialMT-6f" x="214.949219"/>
      <use xlink:href="#ArialMT-6c" x="270.564453"/>
      <use xlink:href="#ArialMT-75" x="292.78125"/>
      <use xlink:href="#ArialMT-74" x="348.396484"/>
      <use xlink:href="#ArialMT-69" x="376.179688"/>
      <use xlink:href="#ArialMT-6f" x="398.396484"/>
      <use xlink:href="#ArialMT-6e" x="454.011719"/>
      <use xlink:href="#ArialMT-20" x="509.626953"/>
      <use xlink:href="#ArialMT-66" x="537.410156"/>
      <use xlink:href="#ArialMT-72" x="565.193359"/>
      <use xlink:href="#ArialMT-6f" x="598.494141"/>
      <use xlink:href="#ArialMT-6d" x="654.109375"/>
      <use xlink:href="#ArialMT-20" x="737.410156"/>
      <use xlink:href="#ArialMT-43" x="765.193359"/>
      <use xlink:href="#ArialMT-6f" x="837.410156"/>
      <use xlink:href="#ArialMT-6d" x="893.025391"/>
      <use xlink:href="#ArialMT-70" x="976.326172"/>
      <use xlink:href="#ArialMT-61" x="1031.941406"/>
      <use xlink:href="#ArialMT-72" x="1087.556641"/>
      <use xlink:href="#ArialMT-69" x="1120.857422"/>
      <use xlink:href="#ArialMT-74" x="1143.074219"/>
      <use xlink:href="#ArialMT-65" x="1170.857422"/>
      <use xlink:href="#ArialMT-65" x="1226.472656"/>
      <use xlink:href="#ArialMT-20" x="1282.087891"/>
      <use xlink:href="#ArialMT-77" x="1309.871094"/>
      <use xlink:href="#ArialMT-65" x="1382.087891"/>
      <use xlink:href="#ArialMT-6c" x="1437.703125"/>
      <use xlink:href="#ArialMT-6c" x="1459.919922"/>
     </g>
    </g>
    <g id="line2d_25">
     <path d="M 604.694531 554.812969 
L 619.694531 554.812969 
L 634.694531 554.812969 
" style="fill: none; stroke: #ff0000; stroke-opacity: 0.7; stroke-width: 2.275; stroke-linecap: round"/>
    </g>
    <g id="text_15">
     <!-- Comparitee well depth (Jogs are true changes) -->
     <g style="fill: #262626" transform="translate(646.694531 560.062969) scale(0.15 -0.15)">
      <defs>
       <path id="ArialMT-4a" d="M 184 1300 
L 731 1375 
Q 753 850 928 656 
Q 1103 463 1413 463 
Q 1641 463 1806 567 
Q 1972 672 2034 851 
Q 2097 1031 2097 1425 
L 2097 4581 
L 2703 4581 
L 2703 1459 
Q 2703 884 2564 568 
Q 2425 253 2123 87 
Q 1822 -78 1416 -78 
Q 813 -78 492 269 
Q 172 616 184 1300 
z
" transform="scale(0.015625)"/>
      </defs>
      <use xlink:href="#ArialMT-43"/>
      <use xlink:href="#ArialMT-6f" x="72.216797"/>
      <use xlink:href="#ArialMT-6d" x="127.832031"/>
      <use xlink:href="#ArialMT-70" x="211.132812"/>
      <use xlink:href="#ArialMT-61" x="266.748047"/>
      <use xlink:href="#ArialMT-72" x="322.363281"/>
      <use xlink:href="#ArialMT-69" x="355.664062"/>
      <use xlink:href="#ArialMT-74" x="377.880859"/>
      <use xlink:href="#ArialMT-65" x="405.664062"/>
      <use xlink:href="#ArialMT-65" x="461.279297"/>
      <use xlink:href="#ArialMT-20" x="516.894531"/>
      <use xlink:href="#ArialMT-77" x="544.677734"/>
      <use xlink:href="#ArialMT-65" x="616.894531"/>
      <use xlink:href="#ArialMT-6c" x="672.509766"/>
      <use xlink:href="#ArialMT-6c" x="694.726562"/>
      <use xlink:href="#ArialMT-20" x="716.943359"/>
      <use xlink:href="#ArialMT-64" x="744.726562"/>
      <use xlink:href="#ArialMT-65" x="800.341797"/>
      <use xlink:href="#ArialMT-70" x="855.957031"/>
      <use xlink:href="#ArialMT-74" x="911.572266"/>
      <use xlink:href="#ArialMT-68" x="939.355469"/>
      <use xlink:href="#ArialMT-20" x="994.970703"/>
      <use xlink:href="#ArialMT-28" x="1022.753906"/>
      <use xlink:href="#ArialMT-4a" x="1056.054688"/>
      <use xlink:href="#ArialMT-6f" x="1106.054688"/>
      <use xlink:href="#ArialMT-67" x="1161.669922"/>
      <use xlink:href="#ArialMT-73" x="1217.285156"/>
      <use xlink:href="#ArialMT-20" x="1267.285156"/>
      <use xlink:href="#ArialMT-61" x="1295.068359"/>
      <use xlink:href="#ArialMT-72" x="1350.683594"/>
      <use xlink:href="#ArialMT-65" x="1383.984375"/>
      <use xlink:href="#ArialMT-20" x="1439.599609"/>
      <use xlink:href="#ArialMT-74" x="1467.382812"/>
      <use xlink:href="#ArialMT-72" x="1495.166016"/>
      <use xlink:href="#ArialMT-75" x="1528.466797"/>
      <use xlink:href="#ArialMT-65" x="1584.082031"/>
      <use xlink:href="#ArialMT-20" x="1639.697266"/>
      <use xlink:href="#ArialMT-63" x="1667.480469"/>
      <use xlink:href="#ArialMT-68" x="1717.480469"/>
      <use xlink:href="#ArialMT-61" x="1773.095703"/>
      <use xlink:href="#ArialMT-6e" x="1828.710938"/>
      <use xlink:href="#ArialMT-67" x="1884.326172"/>
      <use xlink:href="#ArialMT-65" x="1939.941406"/>
      <use xlink:href="#ArialMT-73" x="1995.556641"/>
      <use xlink:href="#ArialMT-29" x="2045.556641"/>
     </g>
    </g>
   </g>
  </g>
  <g id="text_16">
   <!-- Drilling simulation : Graben Model change-point forecast -->
   <g style="fill: #262626" transform="translate(296.995781 26.063438) scale(0.18 -0.18)">
    <defs>
     <path id="Arial-BoldMT-44" d="M 463 4581 
L 2153 4581 
Q 2725 4581 3025 4494 
Q 3428 4375 3715 4072 
Q 4003 3769 4153 3330 
Q 4303 2891 4303 2247 
Q 4303 1681 4163 1272 
Q 3991 772 3672 463 
Q 3431 228 3022 97 
Q 2716 0 2203 0 
L 463 0 
L 463 4581 
z
M 1388 3806 
L 1388 772 
L 2078 772 
Q 2466 772 2638 816 
Q 2863 872 3011 1006 
Q 3159 1141 3253 1448 
Q 3347 1756 3347 2288 
Q 3347 2819 3253 3103 
Q 3159 3388 2990 3547 
Q 2822 3706 2563 3763 
Q 2369 3806 1803 3806 
L 1388 3806 
z
" transform="scale(0.015625)"/>
     <path id="Arial-BoldMT-72" d="M 1300 0 
L 422 0 
L 422 3319 
L 1238 3319 
L 1238 2847 
Q 1447 3181 1614 3287 
Q 1781 3394 1994 3394 
Q 2294 3394 2572 3228 
L 2300 2463 
Q 2078 2606 1888 2606 
Q 1703 2606 1575 2504 
Q 1447 2403 1373 2137 
Q 1300 1872 1300 1025 
L 1300 0 
z
" transform="scale(0.015625)"/>
     <path id="Arial-BoldMT-69" d="M 459 3769 
L 459 4581 
L 1338 4581 
L 1338 3769 
L 459 3769 
z
M 459 0 
L 459 3319 
L 1338 3319 
L 1338 0 
L 459 0 
z
" transform="scale(0.015625)"/>
     <path id="Arial-BoldMT-6c" d="M 459 0 
L 459 4581 
L 1338 4581 
L 1338 0 
L 459 0 
z
" transform="scale(0.015625)"/>
     <path id="Arial-BoldMT-6e" d="M 3478 0 
L 2600 0 
L 2600 1694 
Q 2600 2231 2544 2389 
Q 2488 2547 2361 2634 
Q 2234 2722 2056 2722 
Q 1828 2722 1647 2597 
Q 1466 2472 1398 2265 
Q 1331 2059 1331 1503 
L 1331 0 
L 453 0 
L 453 3319 
L 1269 3319 
L 1269 2831 
Q 1703 3394 2363 3394 
Q 2653 3394 2893 3289 
Q 3134 3184 3257 3021 
Q 3381 2859 3429 2653 
Q 3478 2447 3478 2063 
L 3478 0 
z
" transform="scale(0.015625)"/>
     <path id="Arial-BoldMT-67" d="M 378 -219 
L 1381 -341 
Q 1406 -516 1497 -581 
Q 1622 -675 1891 -675 
Q 2234 -675 2406 -572 
Q 2522 -503 2581 -350 
Q 2622 -241 2622 53 
L 2622 538 
Q 2228 0 1628 0 
Q 959 0 569 566 
Q 263 1013 263 1678 
Q 263 2513 664 2953 
Q 1066 3394 1663 3394 
Q 2278 3394 2678 2853 
L 2678 3319 
L 3500 3319 
L 3500 341 
Q 3500 -247 3403 -537 
Q 3306 -828 3131 -993 
Q 2956 -1159 2664 -1253 
Q 2372 -1347 1925 -1347 
Q 1081 -1347 728 -1058 
Q 375 -769 375 -325 
Q 375 -281 378 -219 
z
M 1163 1728 
Q 1163 1200 1367 954 
Q 1572 709 1872 709 
Q 2194 709 2416 961 
Q 2638 1213 2638 1706 
Q 2638 2222 2425 2472 
Q 2213 2722 1888 2722 
Q 1572 2722 1367 2476 
Q 1163 2231 1163 1728 
z
" transform="scale(0.015625)"/>
     <path id="Arial-BoldMT-20" transform="scale(0.015625)"/>
     <path id="Arial-BoldMT-73" d="M 150 947 
L 1031 1081 
Q 1088 825 1259 692 
Q 1431 559 1741 559 
Q 2081 559 2253 684 
Q 2369 772 2369 919 
Q 2369 1019 2306 1084 
Q 2241 1147 2013 1200 
Q 950 1434 666 1628 
Q 272 1897 272 2375 
Q 272 2806 612 3100 
Q 953 3394 1669 3394 
Q 2350 3394 2681 3172 
Q 3013 2950 3138 2516 
L 2309 2363 
Q 2256 2556 2107 2659 
Q 1959 2763 1684 2763 
Q 1338 2763 1188 2666 
Q 1088 2597 1088 2488 
Q 1088 2394 1175 2328 
Q 1294 2241 1995 2081 
Q 2697 1922 2975 1691 
Q 3250 1456 3250 1038 
Q 3250 581 2869 253 
Q 2488 -75 1741 -75 
Q 1063 -75 667 200 
Q 272 475 150 947 
z
" transform="scale(0.015625)"/>
     <path id="Arial-BoldMT-6d" d="M 394 3319 
L 1203 3319 
L 1203 2866 
Q 1638 3394 2238 3394 
Q 2556 3394 2790 3262 
Q 3025 3131 3175 2866 
Q 3394 3131 3647 3262 
Q 3900 3394 4188 3394 
Q 4553 3394 4806 3245 
Q 5059 3097 5184 2809 
Q 5275 2597 5275 2122 
L 5275 0 
L 4397 0 
L 4397 1897 
Q 4397 2391 4306 2534 
Q 4184 2722 3931 2722 
Q 3747 2722 3584 2609 
Q 3422 2497 3350 2280 
Q 3278 2063 3278 1594 
L 3278 0 
L 2400 0 
L 2400 1819 
Q 2400 2303 2353 2443 
Q 2306 2584 2207 2653 
Q 2109 2722 1941 2722 
Q 1738 2722 1575 2612 
Q 1413 2503 1342 2297 
Q 1272 2091 1272 1613 
L 1272 0 
L 394 0 
L 394 3319 
z
" transform="scale(0.015625)"/>
     <path id="Arial-BoldMT-75" d="M 2644 0 
L 2644 497 
Q 2463 231 2167 78 
Q 1872 -75 1544 -75 
Q 1209 -75 943 72 
Q 678 219 559 484 
Q 441 750 441 1219 
L 441 3319 
L 1319 3319 
L 1319 1794 
Q 1319 1094 1367 936 
Q 1416 778 1544 686 
Q 1672 594 1869 594 
Q 2094 594 2272 717 
Q 2450 841 2515 1023 
Q 2581 1206 2581 1919 
L 2581 3319 
L 3459 3319 
L 3459 0 
L 2644 0 
z
" transform="scale(0.015625)"/>
     <path id="Arial-BoldMT-61" d="M 1116 2306 
L 319 2450 
Q 453 2931 781 3162 
Q 1109 3394 1756 3394 
Q 2344 3394 2631 3255 
Q 2919 3116 3036 2902 
Q 3153 2688 3153 2116 
L 3144 1091 
Q 3144 653 3186 445 
Q 3228 238 3344 0 
L 2475 0 
Q 2441 88 2391 259 
Q 2369 338 2359 363 
Q 2134 144 1878 34 
Q 1622 -75 1331 -75 
Q 819 -75 523 203 
Q 228 481 228 906 
Q 228 1188 362 1408 
Q 497 1628 739 1745 
Q 981 1863 1438 1950 
Q 2053 2066 2291 2166 
L 2291 2253 
Q 2291 2506 2166 2614 
Q 2041 2722 1694 2722 
Q 1459 2722 1328 2630 
Q 1197 2538 1116 2306 
z
M 2291 1594 
Q 2122 1538 1756 1459 
Q 1391 1381 1278 1306 
Q 1106 1184 1106 997 
Q 1106 813 1243 678 
Q 1381 544 1594 544 
Q 1831 544 2047 700 
Q 2206 819 2256 991 
Q 2291 1103 2291 1419 
L 2291 1594 
z
" transform="scale(0.015625)"/>
     <path id="Arial-BoldMT-74" d="M 1981 3319 
L 1981 2619 
L 1381 2619 
L 1381 1281 
Q 1381 875 1398 808 
Q 1416 741 1477 697 
Q 1538 653 1625 653 
Q 1747 653 1978 738 
L 2053 56 
Q 1747 -75 1359 -75 
Q 1122 -75 931 4 
Q 741 84 652 211 
Q 563 338 528 553 
Q 500 706 500 1172 
L 500 2619 
L 97 2619 
L 97 3319 
L 500 3319 
L 500 3978 
L 1381 4491 
L 1381 3319 
L 1981 3319 
z
" transform="scale(0.015625)"/>
     <path id="Arial-BoldMT-6f" d="M 256 1706 
Q 256 2144 472 2553 
Q 688 2963 1083 3178 
Q 1478 3394 1966 3394 
Q 2719 3394 3200 2905 
Q 3681 2416 3681 1669 
Q 3681 916 3195 420 
Q 2709 -75 1972 -75 
Q 1516 -75 1102 131 
Q 688 338 472 736 
Q 256 1134 256 1706 
z
M 1156 1659 
Q 1156 1166 1390 903 
Q 1625 641 1969 641 
Q 2313 641 2545 903 
Q 2778 1166 2778 1666 
Q 2778 2153 2545 2415 
Q 2313 2678 1969 2678 
Q 1625 2678 1390 2415 
Q 1156 2153 1156 1659 
z
" transform="scale(0.015625)"/>
     <path id="Arial-BoldMT-3a" d="M 628 2441 
L 628 3319 
L 1506 3319 
L 1506 2441 
L 628 2441 
z
M 628 0 
L 628 878 
L 1506 878 
L 1506 0 
L 628 0 
z
" transform="scale(0.015625)"/>
     <path id="Arial-BoldMT-47" d="M 2597 1684 
L 2597 2456 
L 4591 2456 
L 4591 631 
Q 4300 350 3748 136 
Q 3197 -78 2631 -78 
Q 1913 -78 1378 223 
Q 844 525 575 1086 
Q 306 1647 306 2306 
Q 306 3022 606 3578 
Q 906 4134 1484 4431 
Q 1925 4659 2581 4659 
Q 3434 4659 3914 4301 
Q 4394 3944 4531 3313 
L 3613 3141 
Q 3516 3478 3248 3673 
Q 2981 3869 2581 3869 
Q 1975 3869 1617 3484 
Q 1259 3100 1259 2344 
Q 1259 1528 1621 1120 
Q 1984 713 2572 713 
Q 2863 713 3155 827 
Q 3447 941 3656 1103 
L 3656 1684 
L 2597 1684 
z
" transform="scale(0.015625)"/>
     <path id="Arial-BoldMT-62" d="M 422 0 
L 422 4581 
L 1300 4581 
L 1300 2931 
Q 1706 3394 2263 3394 
Q 2869 3394 3266 2955 
Q 3663 2516 3663 1694 
Q 3663 844 3258 384 
Q 2853 -75 2275 -75 
Q 1991 -75 1714 67 
Q 1438 209 1238 488 
L 1238 0 
L 422 0 
z
M 1294 1731 
Q 1294 1216 1456 969 
Q 1684 619 2063 619 
Q 2353 619 2558 867 
Q 2763 1116 2763 1650 
Q 2763 2219 2556 2470 
Q 2350 2722 2028 2722 
Q 1713 2722 1503 2476 
Q 1294 2231 1294 1731 
z
" transform="scale(0.015625)"/>
     <path id="Arial-BoldMT-65" d="M 2381 1056 
L 3256 909 
Q 3088 428 2723 176 
Q 2359 -75 1813 -75 
Q 947 -75 531 491 
Q 203 944 203 1634 
Q 203 2459 634 2926 
Q 1066 3394 1725 3394 
Q 2466 3394 2894 2905 
Q 3322 2416 3303 1406 
L 1103 1406 
Q 1113 1016 1316 798 
Q 1519 581 1822 581 
Q 2028 581 2168 693 
Q 2309 806 2381 1056 
z
M 2431 1944 
Q 2422 2325 2234 2523 
Q 2047 2722 1778 2722 
Q 1491 2722 1303 2513 
Q 1116 2303 1119 1944 
L 2431 1944 
z
" transform="scale(0.015625)"/>
     <path id="Arial-BoldMT-4d" d="M 453 0 
L 453 4581 
L 1838 4581 
L 2669 1456 
L 3491 4581 
L 4878 4581 
L 4878 0 
L 4019 0 
L 4019 3606 
L 3109 0 
L 2219 0 
L 1313 3606 
L 1313 0 
L 453 0 
z
" transform="scale(0.015625)"/>
     <path id="Arial-BoldMT-64" d="M 3503 0 
L 2688 0 
L 2688 488 
Q 2484 203 2207 64 
Q 1931 -75 1650 -75 
Q 1078 -75 670 386 
Q 263 847 263 1672 
Q 263 2516 659 2955 
Q 1056 3394 1663 3394 
Q 2219 3394 2625 2931 
L 2625 4581 
L 3503 4581 
L 3503 0 
z
M 1159 1731 
Q 1159 1200 1306 963 
Q 1519 619 1900 619 
Q 2203 619 2415 876 
Q 2628 1134 2628 1647 
Q 2628 2219 2422 2470 
Q 2216 2722 1894 2722 
Q 1581 2722 1370 2473 
Q 1159 2225 1159 1731 
z
" transform="scale(0.015625)"/>
     <path id="Arial-BoldMT-63" d="M 3353 2338 
L 2488 2181 
Q 2444 2441 2289 2572 
Q 2134 2703 1888 2703 
Q 1559 2703 1364 2476 
Q 1169 2250 1169 1719 
Q 1169 1128 1367 884 
Q 1566 641 1900 641 
Q 2150 641 2309 783 
Q 2469 925 2534 1272 
L 3397 1125 
Q 3263 531 2881 228 
Q 2500 -75 1859 -75 
Q 1131 -75 698 384 
Q 266 844 266 1656 
Q 266 2478 700 2936 
Q 1134 3394 1875 3394 
Q 2481 3394 2839 3133 
Q 3197 2872 3353 2338 
z
" transform="scale(0.015625)"/>
     <path id="Arial-BoldMT-68" d="M 1334 4581 
L 1334 2897 
Q 1759 3394 2350 3394 
Q 2653 3394 2897 3281 
Q 3141 3169 3264 2994 
Q 3388 2819 3433 2606 
Q 3478 2394 3478 1947 
L 3478 0 
L 2600 0 
L 2600 1753 
Q 2600 2275 2550 2415 
Q 2500 2556 2373 2639 
Q 2247 2722 2056 2722 
Q 1838 2722 1666 2615 
Q 1494 2509 1414 2295 
Q 1334 2081 1334 1663 
L 1334 0 
L 456 0 
L 456 4581 
L 1334 4581 
z
" transform="scale(0.015625)"/>
     <path id="Arial-BoldMT-2d" d="M 359 1222 
L 359 2100 
L 2084 2100 
L 2084 1222 
L 359 1222 
z
" transform="scale(0.015625)"/>
     <path id="Arial-BoldMT-70" d="M 434 3319 
L 1253 3319 
L 1253 2831 
Q 1413 3081 1684 3237 
Q 1956 3394 2288 3394 
Q 2866 3394 3269 2941 
Q 3672 2488 3672 1678 
Q 3672 847 3265 386 
Q 2859 -75 2281 -75 
Q 2006 -75 1782 34 
Q 1559 144 1313 409 
L 1313 -1263 
L 434 -1263 
L 434 3319 
z
M 1303 1716 
Q 1303 1156 1525 889 
Q 1747 622 2066 622 
Q 2372 622 2575 867 
Q 2778 1113 2778 1672 
Q 2778 2194 2568 2447 
Q 2359 2700 2050 2700 
Q 1728 2700 1515 2451 
Q 1303 2203 1303 1716 
z
" transform="scale(0.015625)"/>
     <path id="Arial-BoldMT-66" d="M 75 3319 
L 563 3319 
L 563 3569 
Q 563 3988 652 4194 
Q 741 4400 980 4529 
Q 1219 4659 1584 4659 
Q 1959 4659 2319 4547 
L 2200 3934 
Q 1991 3984 1797 3984 
Q 1606 3984 1523 3895 
Q 1441 3806 1441 3553 
L 1441 3319 
L 2097 3319 
L 2097 2628 
L 1441 2628 
L 1441 0 
L 563 0 
L 563 2628 
L 75 2628 
L 75 3319 
z
" transform="scale(0.015625)"/>
    </defs>
    <use xlink:href="#Arial-BoldMT-44"/>
    <use xlink:href="#Arial-BoldMT-72" x="72.216797"/>
    <use xlink:href="#Arial-BoldMT-69" x="111.132812"/>
    <use xlink:href="#Arial-BoldMT-6c" x="138.916016"/>
    <use xlink:href="#Arial-BoldMT-6c" x="166.699219"/>
    <use xlink:href="#Arial-BoldMT-69" x="194.482422"/>
    <use xlink:href="#Arial-BoldMT-6e" x="222.265625"/>
    <use xlink:href="#Arial-BoldMT-67" x="283.349609"/>
    <use xlink:href="#Arial-BoldMT-20" x="344.433594"/>
    <use xlink:href="#Arial-BoldMT-73" x="372.216797"/>
    <use xlink:href="#Arial-BoldMT-69" x="427.832031"/>
    <use xlink:href="#Arial-BoldMT-6d" x="455.615234"/>
    <use xlink:href="#Arial-BoldMT-75" x="544.53125"/>
    <use xlink:href="#Arial-BoldMT-6c" x="605.615234"/>
    <use xlink:href="#Arial-BoldMT-61" x="633.398438"/>
    <use xlink:href="#Arial-BoldMT-74" x="689.013672"/>
    <use xlink:href="#Arial-BoldMT-69" x="722.314453"/>
    <use xlink:href="#Arial-BoldMT-6f" x="750.097656"/>
    <use xlink:href="#Arial-BoldMT-6e" x="811.181641"/>
    <use xlink:href="#Arial-BoldMT-20" x="872.265625"/>
    <use xlink:href="#Arial-BoldMT-3a" x="900.048828"/>
    <use xlink:href="#Arial-BoldMT-20" x="933.349609"/>
    <use xlink:href="#Arial-BoldMT-47" x="961.132812"/>
    <use xlink:href="#Arial-BoldMT-72" x="1038.916016"/>
    <use xlink:href="#Arial-BoldMT-61" x="1077.832031"/>
    <use xlink:href="#Arial-BoldMT-62" x="1133.447266"/>
    <use xlink:href="#Arial-BoldMT-65" x="1194.53125"/>
    <use xlink:href="#Arial-BoldMT-6e" x="1250.146484"/>
    <use xlink:href="#Arial-BoldMT-20" x="1311.230469"/>
    <use xlink:href="#Arial-BoldMT-4d" x="1339.013672"/>
    <use xlink:href="#Arial-BoldMT-6f" x="1422.314453"/>
    <use xlink:href="#Arial-BoldMT-64" x="1483.398438"/>
    <use xlink:href="#Arial-BoldMT-65" x="1544.482422"/>
    <use xlink:href="#Arial-BoldMT-6c" x="1600.097656"/>
    <use xlink:href="#Arial-BoldMT-20" x="1627.880859"/>
    <use xlink:href="#Arial-BoldMT-63" x="1655.664062"/>
    <use xlink:href="#Arial-BoldMT-68" x="1711.279297"/>
    <use xlink:href="#Arial-BoldMT-61" x="1772.363281"/>
    <use xlink:href="#Arial-BoldMT-6e" x="1827.978516"/>
    <use xlink:href="#Arial-BoldMT-67" x="1889.0625"/>
    <use xlink:href="#Arial-BoldMT-65" x="1950.146484"/>
    <use xlink:href="#Arial-BoldMT-2d" x="2005.761719"/>
    <use xlink:href="#Arial-BoldMT-70" x="2039.0625"/>
    <use xlink:href="#Arial-BoldMT-6f" x="2100.146484"/>
    <use xlink:href="#Arial-BoldMT-69" x="2161.230469"/>
    <use xlink:href="#Arial-BoldMT-6e" x="2189.013672"/>
    <use xlink:href="#Arial-BoldMT-74" x="2250.097656"/>
    <use xlink:href="#Arial-BoldMT-20" x="2283.398438"/>
    <use xlink:href="#Arial-BoldMT-66" x="2311.181641"/>
    <use xlink:href="#Arial-BoldMT-6f" x="2344.482422"/>
    <use xlink:href="#Arial-BoldMT-72" x="2405.566406"/>
    <use xlink:href="#Arial-BoldMT-65" x="2444.482422"/>
    <use xlink:href="#Arial-BoldMT-63" x="2500.097656"/>
    <use xlink:href="#Arial-BoldMT-61" x="2555.712891"/>
    <use xlink:href="#Arial-BoldMT-73" x="2611.328125"/>
    <use xlink:href="#Arial-BoldMT-74" x="2666.943359"/>
   </g>
  </g>
 </g>
 <defs>
  <clipPath id="p07a4b9baed">
   <rect x="135" y="77.76" width="837" height="498.96"/>
  </clipPath>
 </defs>
</svg>
