<?xml version="1.0" encoding="utf-8" standalone="no"?>
<!DOCTYPE svg PUBLIC "-//W3C//DTD SVG 1.1//EN"
  "http://www.w3.org/Graphics/SVG/1.1/DTD/svg11.dtd">
<svg xmlns:xlink="http://www.w3.org/1999/xlink" width="1080pt" height="288pt" viewBox="0 0 1080 288" xmlns="http://www.w3.org/2000/svg" version="1.1">
 <metadata>
  <rdf:RDF xmlns:dc="http://purl.org/dc/elements/1.1/" xmlns:cc="http://creativecommons.org/ns#" xmlns:rdf="http://www.w3.org/1999/02/22-rdf-syntax-ns#">
   <cc:Work>
    <dc:type rdf:resource="http://purl.org/dc/dcmitype/StillImage"/>
    <dc:date>2023-09-11T19:01:10.708745</dc:date>
    <dc:format>image/svg+xml</dc:format>
    <dc:creator>
     <cc:Agent>
      <dc:title>Matplotlib v3.7.0, https://matplotlib.org/</dc:title>
     </cc:Agent>
    </dc:creator>
   </cc:Work>
  </rdf:RDF>
 </metadata>
 <defs>
  <style type="text/css">*{stroke-linejoin: round; stroke-linecap: butt}</style>
 </defs>
 <g id="figure_1">
  <g id="patch_1">
   <path d="M 0 288 
L 1080 288 
L 1080 0 
L 0 0 
z
" style="fill: #ffffff"/>
  </g>
  <g id="axes_1">
   <g id="patch_2">
    <path d="M 32.56 260.12 
L 1069.2 260.12 
L 1069.2 10.8 
L 32.56 10.8 
z
" style="fill: #ffffff"/>
   </g>
   <g id="patch_3">
    <path d="M 79.68 260.12 
L 79.68 10.8 
L 191.937858 10.8 
L 191.937858 260.12 
z
" clip-path="url(#p413b3cd666)" style="fill: #4286f4; opacity: 0.2"/>
   </g>
   <g id="patch_4">
    <path d="M 191.937858 260.12 
L 191.937858 10.8 
L 531.541461 10.8 
L 531.541461 260.12 
z
" clip-path="url(#p413b3cd666)" style="fill: #f44174; opacity: 0.2"/>
   </g>
   <g id="patch_5">
    <path d="M 531.541461 260.12 
L 531.541461 10.8 
L 1022.08 10.8 
L 1022.08 260.12 
z
" clip-path="url(#p413b3cd666)" style="fill: #4286f4; opacity: 0.2"/>
   </g>
   <g id="matplotlib.axis_1">
    <g id="xtick_1">
     <g id="line2d_1">
      <defs>
       <path id="m65b74c0140" d="M 0 0 
L 0 3.5 
" style="stroke: #000000; stroke-width: 0.8"/>
      </defs>
      <g>
       <use xlink:href="#m65b74c0140" x="79.68" y="260.12" style="stroke: #000000; stroke-width: 0.8"/>
      </g>
     </g>
     <g id="text_1">
      <!-- 0 -->
      <g transform="translate(76.49875 274.718437) scale(0.1 -0.1)">
       <defs>
        <path id="DejaVuSans-30" d="M 2034 4250 
Q 1547 4250 1301 3770 
Q 1056 3291 1056 2328 
Q 1056 1369 1301 889 
Q 1547 409 2034 409 
Q 2525 409 2770 889 
Q 3016 1369 3016 2328 
Q 3016 3291 2770 3770 
Q 2525 4250 2034 4250 
z
M 2034 4750 
Q 2819 4750 3233 4129 
Q 3647 3509 3647 2328 
Q 3647 1150 3233 529 
Q 2819 -91 2034 -91 
Q 1250 -91 836 529 
Q 422 1150 422 2328 
Q 422 3509 836 4129 
Q 1250 4750 2034 4750 
z
" transform="scale(0.015625)"/>
       </defs>
       <use xlink:href="#DejaVuSans-30"/>
      </g>
     </g>
    </g>
    <g id="xtick_2">
     <g id="line2d_2">
      <g>
       <use xlink:href="#m65b74c0140" x="268.348669" y="260.12" style="stroke: #000000; stroke-width: 0.8"/>
      </g>
     </g>
     <g id="text_2">
      <!-- 100 -->
      <g transform="translate(258.804919 274.718437) scale(0.1 -0.1)">
       <defs>
        <path id="DejaVuSans-31" d="M 794 531 
L 1825 531 
L 1825 4091 
L 703 3866 
L 703 4441 
L 1819 4666 
L 2450 4666 
L 2450 531 
L 3481 531 
L 3481 0 
L 794 0 
L 794 531 
z
" transform="scale(0.015625)"/>
       </defs>
       <use xlink:href="#DejaVuSans-31"/>
       <use xlink:href="#DejaVuSans-30" x="63.623047"/>
       <use xlink:href="#DejaVuSans-30" x="127.246094"/>
      </g>
     </g>
    </g>
    <g id="xtick_3">
     <g id="line2d_3">
      <g>
       <use xlink:href="#m65b74c0140" x="457.017337" y="260.12" style="stroke: #000000; stroke-width: 0.8"/>
      </g>
     </g>
     <g id="text_3">
      <!-- 200 -->
      <g transform="translate(447.473587 274.718437) scale(0.1 -0.1)">
       <defs>
        <path id="DejaVuSans-32" d="M 1228 531 
L 3431 531 
L 3431 0 
L 469 0 
L 469 531 
Q 828 903 1448 1529 
Q 2069 2156 2228 2338 
Q 2531 2678 2651 2914 
Q 2772 3150 2772 3378 
Q 2772 3750 2511 3984 
Q 2250 4219 1831 4219 
Q 1534 4219 1204 4116 
Q 875 4013 500 3803 
L 500 4441 
Q 881 4594 1212 4672 
Q 1544 4750 1819 4750 
Q 2544 4750 2975 4387 
Q 3406 4025 3406 3419 
Q 3406 3131 3298 2873 
Q 3191 2616 2906 2266 
Q 2828 2175 2409 1742 
Q 1991 1309 1228 531 
z
" transform="scale(0.015625)"/>
       </defs>
       <use xlink:href="#DejaVuSans-32"/>
       <use xlink:href="#DejaVuSans-30" x="63.623047"/>
       <use xlink:href="#DejaVuSans-30" x="127.246094"/>
      </g>
     </g>
    </g>
    <g id="xtick_4">
     <g id="line2d_4">
      <g>
       <use xlink:href="#m65b74c0140" x="645.686006" y="260.12" style="stroke: #000000; stroke-width: 0.8"/>
      </g>
     </g>
     <g id="text_4">
      <!-- 300 -->
      <g transform="translate(636.142256 274.718437) scale(0.1 -0.1)">
       <defs>
        <path id="DejaVuSans-33" d="M 2597 2516 
Q 3050 2419 3304 2112 
Q 3559 1806 3559 1356 
Q 3559 666 3084 287 
Q 2609 -91 1734 -91 
Q 1441 -91 1130 -33 
Q 819 25 488 141 
L 488 750 
Q 750 597 1062 519 
Q 1375 441 1716 441 
Q 2309 441 2620 675 
Q 2931 909 2931 1356 
Q 2931 1769 2642 2001 
Q 2353 2234 1838 2234 
L 1294 2234 
L 1294 2753 
L 1863 2753 
Q 2328 2753 2575 2939 
Q 2822 3125 2822 3475 
Q 2822 3834 2567 4026 
Q 2313 4219 1838 4219 
Q 1578 4219 1281 4162 
Q 984 4106 628 3988 
L 628 4550 
Q 988 4650 1302 4700 
Q 1616 4750 1894 4750 
Q 2613 4750 3031 4423 
Q 3450 4097 3450 3541 
Q 3450 3153 3228 2886 
Q 3006 2619 2597 2516 
z
" transform="scale(0.015625)"/>
       </defs>
       <use xlink:href="#DejaVuSans-33"/>
       <use xlink:href="#DejaVuSans-30" x="63.623047"/>
       <use xlink:href="#DejaVuSans-30" x="127.246094"/>
      </g>
     </g>
    </g>
    <g id="xtick_5">
     <g id="line2d_5">
      <g>
       <use xlink:href="#m65b74c0140" x="834.354675" y="260.12" style="stroke: #000000; stroke-width: 0.8"/>
      </g>
     </g>
     <g id="text_5">
      <!-- 400 -->
      <g transform="translate(824.810925 274.718437) scale(0.1 -0.1)">
       <defs>
        <path id="DejaVuSans-34" d="M 2419 4116 
L 825 1625 
L 2419 1625 
L 2419 4116 
z
M 2253 4666 
L 3047 4666 
L 3047 1625 
L 3713 1625 
L 3713 1100 
L 3047 1100 
L 3047 0 
L 2419 0 
L 2419 1100 
L 313 1100 
L 313 1709 
L 2253 4666 
z
" transform="scale(0.015625)"/>
       </defs>
       <use xlink:href="#DejaVuSans-34"/>
       <use xlink:href="#DejaVuSans-30" x="63.623047"/>
       <use xlink:href="#DejaVuSans-30" x="127.246094"/>
      </g>
     </g>
    </g>
    <g id="xtick_6">
     <g id="line2d_6">
      <g>
       <use xlink:href="#m65b74c0140" x="1023.023343" y="260.12" style="stroke: #000000; stroke-width: 0.8"/>
      </g>
     </g>
     <g id="text_6">
      <!-- 500 -->
      <g transform="translate(1013.479593 274.718437) scale(0.1 -0.1)">
       <defs>
        <path id="DejaVuSans-35" d="M 691 4666 
L 3169 4666 
L 3169 4134 
L 1269 4134 
L 1269 2991 
Q 1406 3038 1543 3061 
Q 1681 3084 1819 3084 
Q 2600 3084 3056 2656 
Q 3513 2228 3513 1497 
Q 3513 744 3044 326 
Q 2575 -91 1722 -91 
Q 1428 -91 1123 -41 
Q 819 9 494 109 
L 494 744 
Q 775 591 1075 516 
Q 1375 441 1709 441 
Q 2250 441 2565 725 
Q 2881 1009 2881 1497 
Q 2881 1984 2565 2268 
Q 2250 2553 1709 2553 
Q 1456 2553 1204 2497 
Q 953 2441 691 2322 
L 691 4666 
z
" transform="scale(0.015625)"/>
       </defs>
       <use xlink:href="#DejaVuSans-35"/>
       <use xlink:href="#DejaVuSans-30" x="63.623047"/>
       <use xlink:href="#DejaVuSans-30" x="127.246094"/>
      </g>
     </g>
    </g>
    <g id="text_7">
     <!-- Dataseries index (t) -->
     <g transform="translate(501.414375 288.396563) scale(0.1 -0.1)">
      <defs>
       <path id="DejaVuSans-44" d="M 1259 4147 
L 1259 519 
L 2022 519 
Q 2988 519 3436 956 
Q 3884 1394 3884 2338 
Q 3884 3275 3436 3711 
Q 2988 4147 2022 4147 
L 1259 4147 
z
M 628 4666 
L 1925 4666 
Q 3281 4666 3915 4102 
Q 4550 3538 4550 2338 
Q 4550 1131 3912 565 
Q 3275 0 1925 0 
L 628 0 
L 628 4666 
z
" transform="scale(0.015625)"/>
       <path id="DejaVuSans-61" d="M 2194 1759 
Q 1497 1759 1228 1600 
Q 959 1441 959 1056 
Q 959 750 1161 570 
Q 1363 391 1709 391 
Q 2188 391 2477 730 
Q 2766 1069 2766 1631 
L 2766 1759 
L 2194 1759 
z
M 3341 1997 
L 3341 0 
L 2766 0 
L 2766 531 
Q 2569 213 2275 61 
Q 1981 -91 1556 -91 
Q 1019 -91 701 211 
Q 384 513 384 1019 
Q 384 1609 779 1909 
Q 1175 2209 1959 2209 
L 2766 2209 
L 2766 2266 
Q 2766 2663 2505 2880 
Q 2244 3097 1772 3097 
Q 1472 3097 1187 3025 
Q 903 2953 641 2809 
L 641 3341 
Q 956 3463 1253 3523 
Q 1550 3584 1831 3584 
Q 2591 3584 2966 3190 
Q 3341 2797 3341 1997 
z
" transform="scale(0.015625)"/>
       <path id="DejaVuSans-74" d="M 1172 4494 
L 1172 3500 
L 2356 3500 
L 2356 3053 
L 1172 3053 
L 1172 1153 
Q 1172 725 1289 603 
Q 1406 481 1766 481 
L 2356 481 
L 2356 0 
L 1766 0 
Q 1100 0 847 248 
Q 594 497 594 1153 
L 594 3053 
L 172 3053 
L 172 3500 
L 594 3500 
L 594 4494 
L 1172 4494 
z
" transform="scale(0.015625)"/>
       <path id="DejaVuSans-73" d="M 2834 3397 
L 2834 2853 
Q 2591 2978 2328 3040 
Q 2066 3103 1784 3103 
Q 1356 3103 1142 2972 
Q 928 2841 928 2578 
Q 928 2378 1081 2264 
Q 1234 2150 1697 2047 
L 1894 2003 
Q 2506 1872 2764 1633 
Q 3022 1394 3022 966 
Q 3022 478 2636 193 
Q 2250 -91 1575 -91 
Q 1294 -91 989 -36 
Q 684 19 347 128 
L 347 722 
Q 666 556 975 473 
Q 1284 391 1588 391 
Q 1994 391 2212 530 
Q 2431 669 2431 922 
Q 2431 1156 2273 1281 
Q 2116 1406 1581 1522 
L 1381 1569 
Q 847 1681 609 1914 
Q 372 2147 372 2553 
Q 372 3047 722 3315 
Q 1072 3584 1716 3584 
Q 2034 3584 2315 3537 
Q 2597 3491 2834 3397 
z
" transform="scale(0.015625)"/>
       <path id="DejaVuSans-65" d="M 3597 1894 
L 3597 1613 
L 953 1613 
Q 991 1019 1311 708 
Q 1631 397 2203 397 
Q 2534 397 2845 478 
Q 3156 559 3463 722 
L 3463 178 
Q 3153 47 2828 -22 
Q 2503 -91 2169 -91 
Q 1331 -91 842 396 
Q 353 884 353 1716 
Q 353 2575 817 3079 
Q 1281 3584 2069 3584 
Q 2775 3584 3186 3129 
Q 3597 2675 3597 1894 
z
M 3022 2063 
Q 3016 2534 2758 2815 
Q 2500 3097 2075 3097 
Q 1594 3097 1305 2825 
Q 1016 2553 972 2059 
L 3022 2063 
z
" transform="scale(0.015625)"/>
       <path id="DejaVuSans-72" d="M 2631 2963 
Q 2534 3019 2420 3045 
Q 2306 3072 2169 3072 
Q 1681 3072 1420 2755 
Q 1159 2438 1159 1844 
L 1159 0 
L 581 0 
L 581 3500 
L 1159 3500 
L 1159 2956 
Q 1341 3275 1631 3429 
Q 1922 3584 2338 3584 
Q 2397 3584 2469 3576 
Q 2541 3569 2628 3553 
L 2631 2963 
z
" transform="scale(0.015625)"/>
       <path id="DejaVuSans-69" d="M 603 3500 
L 1178 3500 
L 1178 0 
L 603 0 
L 603 3500 
z
M 603 4863 
L 1178 4863 
L 1178 4134 
L 603 4134 
L 603 4863 
z
" transform="scale(0.015625)"/>
       <path id="DejaVuSans-20" transform="scale(0.015625)"/>
       <path id="DejaVuSans-6e" d="M 3513 2113 
L 3513 0 
L 2938 0 
L 2938 2094 
Q 2938 2591 2744 2837 
Q 2550 3084 2163 3084 
Q 1697 3084 1428 2787 
Q 1159 2491 1159 1978 
L 1159 0 
L 581 0 
L 581 3500 
L 1159 3500 
L 1159 2956 
Q 1366 3272 1645 3428 
Q 1925 3584 2291 3584 
Q 2894 3584 3203 3211 
Q 3513 2838 3513 2113 
z
" transform="scale(0.015625)"/>
       <path id="DejaVuSans-64" d="M 2906 2969 
L 2906 4863 
L 3481 4863 
L 3481 0 
L 2906 0 
L 2906 525 
Q 2725 213 2448 61 
Q 2172 -91 1784 -91 
Q 1150 -91 751 415 
Q 353 922 353 1747 
Q 353 2572 751 3078 
Q 1150 3584 1784 3584 
Q 2172 3584 2448 3432 
Q 2725 3281 2906 2969 
z
M 947 1747 
Q 947 1113 1208 752 
Q 1469 391 1925 391 
Q 2381 391 2643 752 
Q 2906 1113 2906 1747 
Q 2906 2381 2643 2742 
Q 2381 3103 1925 3103 
Q 1469 3103 1208 2742 
Q 947 2381 947 1747 
z
" transform="scale(0.015625)"/>
       <path id="DejaVuSans-78" d="M 3513 3500 
L 2247 1797 
L 3578 0 
L 2900 0 
L 1881 1375 
L 863 0 
L 184 0 
L 1544 1831 
L 300 3500 
L 978 3500 
L 1906 2253 
L 2834 3500 
L 3513 3500 
z
" transform="scale(0.015625)"/>
       <path id="DejaVuSans-28" d="M 1984 4856 
Q 1566 4138 1362 3434 
Q 1159 2731 1159 2009 
Q 1159 1288 1364 580 
Q 1569 -128 1984 -844 
L 1484 -844 
Q 1016 -109 783 600 
Q 550 1309 550 2009 
Q 550 2706 781 3412 
Q 1013 4119 1484 4856 
L 1984 4856 
z
" transform="scale(0.015625)"/>
       <path id="DejaVuSans-29" d="M 513 4856 
L 1013 4856 
Q 1481 4119 1714 3412 
Q 1947 2706 1947 2009 
Q 1947 1309 1714 600 
Q 1481 -109 1013 -844 
L 513 -844 
Q 928 -128 1133 580 
Q 1338 1288 1338 2009 
Q 1338 2731 1133 3434 
Q 928 4138 513 4856 
z
" transform="scale(0.015625)"/>
      </defs>
      <use xlink:href="#DejaVuSans-44"/>
      <use xlink:href="#DejaVuSans-61" x="77.001953"/>
      <use xlink:href="#DejaVuSans-74" x="138.28125"/>
      <use xlink:href="#DejaVuSans-61" x="177.490234"/>
      <use xlink:href="#DejaVuSans-73" x="238.769531"/>
      <use xlink:href="#DejaVuSans-65" x="290.869141"/>
      <use xlink:href="#DejaVuSans-72" x="352.392578"/>
      <use xlink:href="#DejaVuSans-69" x="393.505859"/>
      <use xlink:href="#DejaVuSans-65" x="421.289062"/>
      <use xlink:href="#DejaVuSans-73" x="482.8125"/>
      <use xlink:href="#DejaVuSans-20" x="534.912109"/>
      <use xlink:href="#DejaVuSans-69" x="566.699219"/>
      <use xlink:href="#DejaVuSans-6e" x="594.482422"/>
      <use xlink:href="#DejaVuSans-64" x="657.861328"/>
      <use xlink:href="#DejaVuSans-65" x="721.337891"/>
      <use xlink:href="#DejaVuSans-78" x="781.111328"/>
      <use xlink:href="#DejaVuSans-20" x="840.291016"/>
      <use xlink:href="#DejaVuSans-28" x="872.078125"/>
      <use xlink:href="#DejaVuSans-74" x="911.091797"/>
      <use xlink:href="#DejaVuSans-29" x="950.300781"/>
     </g>
    </g>
   </g>
   <g id="matplotlib.axis_2">
    <g id="ytick_1">
     <g id="line2d_7">
      <defs>
       <path id="mbbb44ac76a" d="M 0 0 
L -3.5 0 
" style="stroke: #000000; stroke-width: 0.8"/>
      </defs>
      <g>
       <use xlink:href="#mbbb44ac76a" x="32.56" y="236.39915" style="stroke: #000000; stroke-width: 0.8"/>
      </g>
     </g>
     <g id="text_8">
      <!-- −6 -->
      <g transform="translate(10.817813 240.198368) scale(0.1 -0.1)">
       <defs>
        <path id="DejaVuSans-2212" d="M 678 2272 
L 4684 2272 
L 4684 1741 
L 678 1741 
L 678 2272 
z
" transform="scale(0.015625)"/>
        <path id="DejaVuSans-36" d="M 2113 2584 
Q 1688 2584 1439 2293 
Q 1191 2003 1191 1497 
Q 1191 994 1439 701 
Q 1688 409 2113 409 
Q 2538 409 2786 701 
Q 3034 994 3034 1497 
Q 3034 2003 2786 2293 
Q 2538 2584 2113 2584 
z
M 3366 4563 
L 3366 3988 
Q 3128 4100 2886 4159 
Q 2644 4219 2406 4219 
Q 1781 4219 1451 3797 
Q 1122 3375 1075 2522 
Q 1259 2794 1537 2939 
Q 1816 3084 2150 3084 
Q 2853 3084 3261 2657 
Q 3669 2231 3669 1497 
Q 3669 778 3244 343 
Q 2819 -91 2113 -91 
Q 1303 -91 875 529 
Q 447 1150 447 2328 
Q 447 3434 972 4092 
Q 1497 4750 2381 4750 
Q 2619 4750 2861 4703 
Q 3103 4656 3366 4563 
z
" transform="scale(0.015625)"/>
       </defs>
       <use xlink:href="#DejaVuSans-2212"/>
       <use xlink:href="#DejaVuSans-36" x="83.789062"/>
      </g>
     </g>
    </g>
    <g id="ytick_2">
     <g id="line2d_8">
      <g>
       <use xlink:href="#mbbb44ac76a" x="32.56" y="189.817508" style="stroke: #000000; stroke-width: 0.8"/>
      </g>
     </g>
     <g id="text_9">
      <!-- −4 -->
      <g transform="translate(10.817813 193.616727) scale(0.1 -0.1)">
       <use xlink:href="#DejaVuSans-2212"/>
       <use xlink:href="#DejaVuSans-34" x="83.789062"/>
      </g>
     </g>
    </g>
    <g id="ytick_3">
     <g id="line2d_9">
      <g>
       <use xlink:href="#mbbb44ac76a" x="32.56" y="143.235867" style="stroke: #000000; stroke-width: 0.8"/>
      </g>
     </g>
     <g id="text_10">
      <!-- −2 -->
      <g transform="translate(10.817813 147.035086) scale(0.1 -0.1)">
       <use xlink:href="#DejaVuSans-2212"/>
       <use xlink:href="#DejaVuSans-32" x="83.789062"/>
      </g>
     </g>
    </g>
    <g id="ytick_4">
     <g id="line2d_10">
      <g>
       <use xlink:href="#mbbb44ac76a" x="32.56" y="96.654226" style="stroke: #000000; stroke-width: 0.8"/>
      </g>
     </g>
     <g id="text_11">
      <!-- 0 -->
      <g transform="translate(19.1975 100.453445) scale(0.1 -0.1)">
       <use xlink:href="#DejaVuSans-30"/>
      </g>
     </g>
    </g>
    <g id="ytick_5">
     <g id="line2d_11">
      <g>
       <use xlink:href="#mbbb44ac76a" x="32.56" y="50.072585" style="stroke: #000000; stroke-width: 0.8"/>
      </g>
     </g>
     <g id="text_12">
      <!-- 2 -->
      <g transform="translate(19.1975 53.871804) scale(0.1 -0.1)">
       <use xlink:href="#DejaVuSans-32"/>
      </g>
     </g>
    </g>
    <g id="text_13">
     <!-- Data -->
     <g transform="translate(4.738125 147.398281) rotate(-90) scale(0.1 -0.1)">
      <use xlink:href="#DejaVuSans-44"/>
      <use xlink:href="#DejaVuSans-61" x="77.001953"/>
      <use xlink:href="#DejaVuSans-74" x="138.28125"/>
      <use xlink:href="#DejaVuSans-61" x="177.490234"/>
     </g>
    </g>
   </g>
   <g id="line2d_12">
    <path d="M 79.68 48.359984 
L 81.566687 108.947982 
L 83.453373 100.599411 
L 85.34006 86.708801 
L 87.226747 125.516855 
L 89.113433 104.251363 
L 91.00012 44.308737 
L 92.886807 121.257665 
L 94.773493 100.450721 
L 96.66018 134.067538 
L 98.546867 84.102861 
L 100.433554 108.699469 
L 102.32024 40.207057 
L 104.206927 102.788813 
L 106.093614 125.846914 
L 107.9803 103.751068 
L 109.866987 121.276363 
L 111.753674 103.43681 
L 113.64036 130.282945 
L 115.527047 125.757665 
L 117.413734 89.430205 
L 119.30042 115.303428 
L 121.187107 104.274412 
L 123.073794 150.752297 
L 124.96048 92.115184 
L 126.847167 104.56752 
L 128.733854 84.943028 
L 130.620541 96.144713 
L 132.507227 66.458918 
L 134.393914 81.40494 
L 136.280601 93.69946 
L 138.167287 101.277853 
L 140.053974 61.149212 
L 141.940661 85.534542 
L 143.827347 113.344593 
L 145.714034 116.909003 
L 147.600721 111.185324 
L 149.487407 111.23319 
L 151.374094 78.672756 
L 153.260781 90.082339 
L 155.147467 55.074322 
L 157.034154 113.940285 
L 158.920841 86.933644 
L 160.807528 127.764666 
L 162.694214 97.485534 
L 164.580901 81.857438 
L 166.467588 63.359697 
L 168.354274 84.335322 
L 170.240961 37.120625 
L 172.127648 86.194768 
L 174.014334 93.620565 
L 175.901021 75.284225 
L 177.787708 61.591722 
L 179.674394 73.746286 
L 181.561081 98.5832 
L 183.447768 79.004152 
L 185.334454 107.149399 
L 187.221141 145.347979 
L 189.107828 211.531402 
L 190.994515 176.184751 
L 192.881201 192.881225 
L 194.767888 180.035012 
L 196.654575 205.310625 
L 198.541261 209.567715 
L 200.427948 171.933026 
L 202.314635 192.542133 
L 204.201321 173.115871 
L 206.088008 241.969764 
L 207.974695 239.016553 
L 209.861381 186.73061 
L 211.748068 181.028957 
L 213.634755 186.567036 
L 215.521441 217.535016 
L 217.408128 220.760264 
L 219.294815 181.927625 
L 221.181502 190.995471 
L 223.068188 167.343534 
L 224.954875 197.030863 
L 226.841562 199.667159 
L 228.728248 218.896859 
L 230.614935 201.176124 
L 232.501622 159.271263 
L 234.388308 215.624768 
L 236.274995 184.104913 
L 238.161682 185.129246 
L 240.048368 234.898122 
L 241.935055 157.297572 
L 243.821742 163.92927 
L 245.708428 218.661287 
L 247.595115 216.304993 
L 249.481802 194.97523 
L 251.368488 182.122621 
L 253.255175 196.688224 
L 255.141862 208.943909 
L 257.028549 161.398674 
L 258.915235 154.487922 
L 260.801922 248.787273 
L 262.688609 190.568228 
L 264.575295 204.803716 
L 266.461982 186.758307 
L 268.348669 199.857856 
L 270.235355 207.386646 
L 272.122042 211.524452 
L 274.008729 176.449098 
L 275.895415 223.541534 
L 277.782102 231.614977 
L 279.668789 205.562562 
L 281.555475 158.294027 
L 283.442162 215.93815 
L 285.328849 184.241265 
L 287.215536 189.975863 
L 289.102222 167.124982 
L 290.988909 199.000927 
L 292.875596 212.057867 
L 294.762282 181.369062 
L 296.648969 195.97849 
L 298.535656 172.056994 
L 300.422342 209.551819 
L 302.309029 189.158781 
L 304.195716 170.505262 
L 306.082402 213.360835 
L 307.969089 205.114891 
L 309.855776 204.296876 
L 311.742462 183.233606 
L 313.629149 215.344843 
L 315.515836 209.772662 
L 317.402523 229.744736 
L 319.289209 180.447045 
L 321.175896 215.190688 
L 323.062583 207.631632 
L 324.949269 187.050433 
L 326.835956 162.56746 
L 328.722643 171.723906 
L 330.609329 234.073782 
L 332.496016 210.029363 
L 334.382703 189.066693 
L 336.269389 185.373487 
L 338.156076 170.823595 
L 340.042763 197.613158 
L 341.929449 216.667365 
L 343.816136 187.23578 
L 345.702823 189.943333 
L 347.58951 190.96823 
L 351.362883 170.198508 
L 353.24957 183.719039 
L 355.136256 183.309073 
L 357.022943 184.015853 
L 358.90963 202.04854 
L 360.796316 180.35583 
L 362.683003 200.527746 
L 364.56969 169.423101 
L 366.456376 206.542645 
L 368.343063 202.47076 
L 370.22975 227.468723 
L 372.116436 181.880371 
L 374.003123 235.147834 
L 375.88981 176.932374 
L 377.776496 197.531656 
L 379.663183 185.892557 
L 381.54987 226.446476 
L 383.436557 224.923657 
L 385.323243 219.253611 
L 387.20993 231.739245 
L 389.096617 194.578209 
L 390.983303 223.725798 
L 392.86999 155.515198 
L 394.756677 222.378902 
L 396.643363 149.194752 
L 398.53005 226.598579 
L 400.416737 201.946776 
L 402.303423 185.486237 
L 404.19011 228.213721 
L 406.076797 203.459471 
L 407.963483 176.85269 
L 409.85017 193.028518 
L 411.736857 196.370144 
L 413.623544 238.677059 
L 415.51023 191.503361 
L 417.396917 194.127045 
L 419.283604 204.897132 
L 421.17029 203.38535 
L 423.056977 184.711665 
L 424.943664 216.743131 
L 426.83035 179.076662 
L 428.717037 220.875762 
L 430.603724 220.4423 
L 432.49041 206.144966 
L 434.377097 232.819022 
L 436.263784 169.718206 
L 438.15047 221.523064 
L 440.037157 173.94826 
L 441.923844 165.69312 
L 443.810531 166.268942 
L 445.697217 195.37318 
L 447.583904 140.776607 
L 449.470591 182.345229 
L 451.357277 230.127966 
L 453.243964 143.498452 
L 455.130651 197.399471 
L 457.017337 218.923804 
L 458.904024 186.874788 
L 460.790711 239.355725 
L 462.677397 171.381614 
L 464.564084 202.795793 
L 466.450771 211.848664 
L 468.337457 213.820833 
L 470.224144 194.324471 
L 472.110831 214.462911 
L 473.997518 207.2186 
L 475.884204 227.725301 
L 477.770891 192.278783 
L 479.657578 174.309606 
L 481.544264 175.752683 
L 483.430951 217.765353 
L 485.317638 183.603907 
L 487.204324 195.565607 
L 489.091011 215.533536 
L 490.977698 206.481951 
L 492.864384 223.013104 
L 494.751071 181.941916 
L 496.637758 219.809767 
L 498.524444 191.194956 
L 500.411131 202.883352 
L 502.297818 158.801108 
L 504.184505 247.488253 
L 506.071191 175.420136 
L 507.957878 240.643 
L 509.844565 167.783893 
L 511.731251 195.697292 
L 513.617938 160.237467 
L 515.504625 247.424307 
L 517.391311 178.5543 
L 519.277998 213.154477 
L 521.164685 229.305828 
L 523.051371 207.07803 
L 524.938058 201.967802 
L 526.824745 209.589641 
L 528.711431 190.965447 
L 530.598118 214.398443 
L 532.484805 199.542751 
L 534.371491 98.001384 
L 536.258178 66.071086 
L 538.144865 79.86873 
L 540.031552 150.529568 
L 541.918238 107.880903 
L 543.804925 101.035349 
L 545.691612 96.45444 
L 547.578298 86.778385 
L 549.464985 83.176392 
L 551.351672 69.462944 
L 553.238358 115.373776 
L 555.125045 119.392974 
L 557.011732 94.854856 
L 558.898418 90.358884 
L 560.785105 126.288518 
L 562.671792 89.58401 
L 564.558478 73.429442 
L 566.445165 112.943341 
L 568.331852 91.935802 
L 570.218539 65.663806 
L 572.105225 92.037863 
L 573.991912 81.449017 
L 575.878599 82.201561 
L 577.765285 92.678168 
L 579.651972 112.970354 
L 581.538659 105.993252 
L 583.425345 42.342352 
L 585.312032 73.981381 
L 587.198719 102.189494 
L 589.085405 56.948792 
L 590.972092 103.817958 
L 592.858779 104.318061 
L 594.745465 42.043617 
L 596.632152 128.47395 
L 598.518839 102.651376 
L 600.405526 135.946566 
L 602.292212 22.132727 
L 604.178899 87.072784 
L 606.065586 70.511536 
L 607.952272 104.042797 
L 609.838959 91.21658 
L 611.725646 117.652066 
L 613.612332 85.268144 
L 615.499019 94.386444 
L 617.385706 119.081239 
L 619.272392 49.275436 
L 621.159079 77.462116 
L 623.045766 124.079934 
L 624.932452 112.111887 
L 626.819139 105.11021 
L 628.705826 100.632052 
L 630.592513 98.173819 
L 632.479199 33.983352 
L 634.365886 134.773901 
L 636.252573 99.964115 
L 638.139259 74.94099 
L 640.025946 100.772128 
L 641.912633 75.033948 
L 643.799319 110.361141 
L 645.686006 81.57178 
L 647.572693 86.098743 
L 649.459379 106.501525 
L 651.346066 75.700479 
L 653.232753 111.530893 
L 655.119439 64.216157 
L 657.006126 87.889743 
L 658.892813 92.362716 
L 660.779499 114.874352 
L 662.666186 87.695518 
L 664.552873 89.10939 
L 666.43956 95.282887 
L 668.326246 112.446284 
L 670.212933 60.353488 
L 672.09962 82.943276 
L 673.986306 108.071795 
L 675.872993 83.831925 
L 677.75968 140.358224 
L 679.646366 50.41603 
L 681.533053 68.330074 
L 683.41974 70.112286 
L 685.306426 128.047997 
L 687.193113 109.652301 
L 689.0798 119.545278 
L 690.966486 120.404407 
L 692.853173 101.386108 
L 694.73986 108.560153 
L 696.626547 132.591311 
L 698.513233 80.143548 
L 700.39992 82.301836 
L 702.286607 101.327287 
L 704.173293 128.16947 
L 706.05998 88.857307 
L 707.946667 89.309241 
L 709.833353 121.410164 
L 711.72004 121.174299 
L 713.606727 43.886748 
L 715.493413 92.416268 
L 717.3801 94.80212 
L 719.266787 71.219873 
L 721.153473 58.366423 
L 723.04016 103.94987 
L 724.926847 101.924103 
L 726.813534 106.662247 
L 728.70022 118.912017 
L 730.586907 111.78179 
L 732.473594 64.76227 
L 734.36028 36.154102 
L 736.246967 88.412957 
L 738.133654 118.543856 
L 740.02034 58.051562 
L 741.907027 137.231572 
L 743.793714 34.290086 
L 745.6804 99.621093 
L 747.567087 99.900898 
L 749.453774 84.618862 
L 751.34046 97.463203 
L 753.227147 89.116845 
L 755.113834 39.387579 
L 757.000521 114.696589 
L 758.887207 77.921675 
L 760.773894 91.271257 
L 762.660581 48.94527 
L 764.547267 108.424967 
L 766.433954 87.896014 
L 768.320641 96.088524 
L 770.207327 109.230498 
L 772.094014 101.963594 
L 773.980701 49.519108 
L 775.867387 93.351478 
L 777.754074 117.407028 
L 779.640761 103.674122 
L 781.527447 54.426713 
L 783.414134 82.472322 
L 785.300821 135.682114 
L 787.187508 101.311933 
L 789.074194 72.549637 
L 790.960881 99.425707 
L 792.847568 92.299999 
L 794.734254 127.786653 
L 796.620941 72.877036 
L 798.507628 61.146299 
L 800.394314 75.976254 
L 802.281001 84.030098 
L 804.167688 85.872279 
L 806.054374 98.462037 
L 807.941061 118.12244 
L 809.827748 74.044707 
L 811.714434 108.077609 
L 813.601121 110.4246 
L 815.487808 127.586042 
L 817.374494 85.742101 
L 819.261181 153.681517 
L 821.147868 78.607984 
L 823.034555 74.916172 
L 824.921241 114.02408 
L 826.807928 30.132591 
L 828.694615 91.518777 
L 830.581301 125.861398 
L 832.467988 103.255576 
L 834.354675 97.454954 
L 836.241361 86.70968 
L 838.128048 106.290978 
L 840.014735 89.162588 
L 841.901421 106.879365 
L 843.788108 86.680521 
L 845.674795 104.325894 
L 847.561481 83.341598 
L 849.448168 110.02659 
L 851.334855 86.944698 
L 853.221542 77.055927 
L 855.108228 78.696827 
L 856.994915 99.212345 
L 858.881602 106.499016 
L 860.768288 85.6517 
L 862.654975 77.24198 
L 864.541662 103.358815 
L 866.428348 85.129981 
L 868.315035 75.107043 
L 870.201722 101.643379 
L 872.088408 48.106817 
L 873.975095 64.409831 
L 875.861782 91.087889 
L 877.748468 56.403881 
L 879.635155 94.210526 
L 881.521842 64.807274 
L 883.408529 92.860885 
L 885.295215 127.200815 
L 887.181902 62.16721 
L 889.068589 62.576557 
L 890.955275 96.945445 
L 892.841962 93.786539 
L 894.728649 80.326806 
L 896.615335 120.496215 
L 898.502022 89.245897 
L 900.388709 103.598298 
L 902.275395 78.761896 
L 904.162082 119.733925 
L 906.048769 76.537373 
L 907.935455 121.79548 
L 909.822142 82.558944 
L 911.708829 105.854188 
L 913.595516 120.802983 
L 915.482202 56.398636 
L 917.368889 109.179189 
L 919.255576 90.323456 
L 921.142262 101.778516 
L 923.028949 135.685777 
L 924.915636 104.076744 
L 926.802322 145.587125 
L 928.689009 24.085101 
L 930.575696 100.230358 
L 932.462382 122.879134 
L 934.349069 93.10504 
L 936.235756 128.680997 
L 938.122442 97.895535 
L 940.009129 123.215332 
L 941.895816 71.763051 
L 943.782503 115.969944 
L 945.669189 99.886855 
L 947.555876 57.51664 
L 949.442563 58.66091 
L 951.329249 119.953136 
L 953.215936 118.315593 
L 955.102623 96.35285 
L 956.989309 107.433748 
L 958.875996 105.377761 
L 960.762683 113.694984 
L 962.649369 92.153427 
L 964.536056 83.192577 
L 966.422743 116.487083 
L 968.309429 110.23863 
L 970.196116 85.621859 
L 972.082803 97.246769 
L 973.969489 40.622303 
L 975.856176 85.912618 
L 977.742863 87.999511 
L 979.62955 104.288542 
L 981.516236 116.089918 
L 983.402923 105.630435 
L 985.28961 129.928371 
L 987.176296 79.515735 
L 989.062983 132.26202 
L 990.94967 73.940236 
L 992.836356 114.832025 
L 994.723043 123.469338 
L 996.60973 113.69053 
L 998.496416 79.877083 
L 1000.383103 99.944532 
L 1002.26979 80.809232 
L 1004.156476 96.376278 
L 1006.043163 72.745832 
L 1007.92985 124.431926 
L 1009.816537 83.837943 
L 1011.703223 77.972332 
L 1013.58991 83.989701 
L 1015.476597 73.240228 
L 1017.363283 123.901884 
L 1019.24997 115.142056 
L 1021.136657 93.697034 
L 1021.136657 93.697034 
" clip-path="url(#p413b3cd666)" style="fill: none; stroke: #1f77b4; stroke-width: 1.5; stroke-linecap: square"/>
   </g>
   <g id="line2d_13">
    <path d="M 189.107828 260.12 
L 189.107828 10.8 
" clip-path="url(#p413b3cd666)" style="fill: none; stroke-dasharray: 1.5,2.475; stroke-dashoffset: 0; stroke: #ff0000; stroke-width: 1.5"/>
   </g>
   <g id="line2d_14">
    <path d="M 534.371491 260.12 
L 534.371491 10.8 
" clip-path="url(#p413b3cd666)" style="fill: none; stroke-dasharray: 1.5,2.475; stroke-dashoffset: 0; stroke: #ff0000; stroke-width: 1.5"/>
   </g>
   <g id="patch_6">
    <path d="M 32.56 260.12 
L 32.56 10.8 
" style="fill: none; stroke: #000000; stroke-width: 0.8; stroke-linejoin: miter; stroke-linecap: square"/>
   </g>
   <g id="patch_7">
    <path d="M 1069.2 260.12 
L 1069.2 10.8 
" style="fill: none; stroke: #000000; stroke-width: 0.8; stroke-linejoin: miter; stroke-linecap: square"/>
   </g>
   <g id="patch_8">
    <path d="M 32.56 260.12 
L 1069.2 260.12 
" style="fill: none; stroke: #000000; stroke-width: 0.8; stroke-linejoin: miter; stroke-linecap: square"/>
   </g>
   <g id="patch_9">
    <path d="M 32.56 10.8 
L 1069.2 10.8 
" style="fill: none; stroke: #000000; stroke-width: 0.8; stroke-linejoin: miter; stroke-linecap: square"/>
   </g>
   <g id="text_14">
    <!-- Offline Change Point Detection: Pelt Search Method -->
    <g transform="translate(396.4025 4.8) scale(0.12 -0.12)">
     <defs>
      <path id="DejaVuSans-4f" d="M 2522 4238 
Q 1834 4238 1429 3725 
Q 1025 3213 1025 2328 
Q 1025 1447 1429 934 
Q 1834 422 2522 422 
Q 3209 422 3611 934 
Q 4013 1447 4013 2328 
Q 4013 3213 3611 3725 
Q 3209 4238 2522 4238 
z
M 2522 4750 
Q 3503 4750 4090 4092 
Q 4678 3434 4678 2328 
Q 4678 1225 4090 567 
Q 3503 -91 2522 -91 
Q 1538 -91 948 565 
Q 359 1222 359 2328 
Q 359 3434 948 4092 
Q 1538 4750 2522 4750 
z
" transform="scale(0.015625)"/>
      <path id="DejaVuSans-66" d="M 2375 4863 
L 2375 4384 
L 1825 4384 
Q 1516 4384 1395 4259 
Q 1275 4134 1275 3809 
L 1275 3500 
L 2222 3500 
L 2222 3053 
L 1275 3053 
L 1275 0 
L 697 0 
L 697 3053 
L 147 3053 
L 147 3500 
L 697 3500 
L 697 3744 
Q 697 4328 969 4595 
Q 1241 4863 1831 4863 
L 2375 4863 
z
" transform="scale(0.015625)"/>
      <path id="DejaVuSans-6c" d="M 603 4863 
L 1178 4863 
L 1178 0 
L 603 0 
L 603 4863 
z
" transform="scale(0.015625)"/>
      <path id="DejaVuSans-43" d="M 4122 4306 
L 4122 3641 
Q 3803 3938 3442 4084 
Q 3081 4231 2675 4231 
Q 1875 4231 1450 3742 
Q 1025 3253 1025 2328 
Q 1025 1406 1450 917 
Q 1875 428 2675 428 
Q 3081 428 3442 575 
Q 3803 722 4122 1019 
L 4122 359 
Q 3791 134 3420 21 
Q 3050 -91 2638 -91 
Q 1578 -91 968 557 
Q 359 1206 359 2328 
Q 359 3453 968 4101 
Q 1578 4750 2638 4750 
Q 3056 4750 3426 4639 
Q 3797 4528 4122 4306 
z
" transform="scale(0.015625)"/>
      <path id="DejaVuSans-68" d="M 3513 2113 
L 3513 0 
L 2938 0 
L 2938 2094 
Q 2938 2591 2744 2837 
Q 2550 3084 2163 3084 
Q 1697 3084 1428 2787 
Q 1159 2491 1159 1978 
L 1159 0 
L 581 0 
L 581 4863 
L 1159 4863 
L 1159 2956 
Q 1366 3272 1645 3428 
Q 1925 3584 2291 3584 
Q 2894 3584 3203 3211 
Q 3513 2838 3513 2113 
z
" transform="scale(0.015625)"/>
      <path id="DejaVuSans-67" d="M 2906 1791 
Q 2906 2416 2648 2759 
Q 2391 3103 1925 3103 
Q 1463 3103 1205 2759 
Q 947 2416 947 1791 
Q 947 1169 1205 825 
Q 1463 481 1925 481 
Q 2391 481 2648 825 
Q 2906 1169 2906 1791 
z
M 3481 434 
Q 3481 -459 3084 -895 
Q 2688 -1331 1869 -1331 
Q 1566 -1331 1297 -1286 
Q 1028 -1241 775 -1147 
L 775 -588 
Q 1028 -725 1275 -790 
Q 1522 -856 1778 -856 
Q 2344 -856 2625 -561 
Q 2906 -266 2906 331 
L 2906 616 
Q 2728 306 2450 153 
Q 2172 0 1784 0 
Q 1141 0 747 490 
Q 353 981 353 1791 
Q 353 2603 747 3093 
Q 1141 3584 1784 3584 
Q 2172 3584 2450 3431 
Q 2728 3278 2906 2969 
L 2906 3500 
L 3481 3500 
L 3481 434 
z
" transform="scale(0.015625)"/>
      <path id="DejaVuSans-50" d="M 1259 4147 
L 1259 2394 
L 2053 2394 
Q 2494 2394 2734 2622 
Q 2975 2850 2975 3272 
Q 2975 3691 2734 3919 
Q 2494 4147 2053 4147 
L 1259 4147 
z
M 628 4666 
L 2053 4666 
Q 2838 4666 3239 4311 
Q 3641 3956 3641 3272 
Q 3641 2581 3239 2228 
Q 2838 1875 2053 1875 
L 1259 1875 
L 1259 0 
L 628 0 
L 628 4666 
z
" transform="scale(0.015625)"/>
      <path id="DejaVuSans-6f" d="M 1959 3097 
Q 1497 3097 1228 2736 
Q 959 2375 959 1747 
Q 959 1119 1226 758 
Q 1494 397 1959 397 
Q 2419 397 2687 759 
Q 2956 1122 2956 1747 
Q 2956 2369 2687 2733 
Q 2419 3097 1959 3097 
z
M 1959 3584 
Q 2709 3584 3137 3096 
Q 3566 2609 3566 1747 
Q 3566 888 3137 398 
Q 2709 -91 1959 -91 
Q 1206 -91 779 398 
Q 353 888 353 1747 
Q 353 2609 779 3096 
Q 1206 3584 1959 3584 
z
" transform="scale(0.015625)"/>
      <path id="DejaVuSans-63" d="M 3122 3366 
L 3122 2828 
Q 2878 2963 2633 3030 
Q 2388 3097 2138 3097 
Q 1578 3097 1268 2742 
Q 959 2388 959 1747 
Q 959 1106 1268 751 
Q 1578 397 2138 397 
Q 2388 397 2633 464 
Q 2878 531 3122 666 
L 3122 134 
Q 2881 22 2623 -34 
Q 2366 -91 2075 -91 
Q 1284 -91 818 406 
Q 353 903 353 1747 
Q 353 2603 823 3093 
Q 1294 3584 2113 3584 
Q 2378 3584 2631 3529 
Q 2884 3475 3122 3366 
z
" transform="scale(0.015625)"/>
      <path id="DejaVuSans-3a" d="M 750 794 
L 1409 794 
L 1409 0 
L 750 0 
L 750 794 
z
M 750 3309 
L 1409 3309 
L 1409 2516 
L 750 2516 
L 750 3309 
z
" transform="scale(0.015625)"/>
      <path id="DejaVuSans-53" d="M 3425 4513 
L 3425 3897 
Q 3066 4069 2747 4153 
Q 2428 4238 2131 4238 
Q 1616 4238 1336 4038 
Q 1056 3838 1056 3469 
Q 1056 3159 1242 3001 
Q 1428 2844 1947 2747 
L 2328 2669 
Q 3034 2534 3370 2195 
Q 3706 1856 3706 1288 
Q 3706 609 3251 259 
Q 2797 -91 1919 -91 
Q 1588 -91 1214 -16 
Q 841 59 441 206 
L 441 856 
Q 825 641 1194 531 
Q 1563 422 1919 422 
Q 2459 422 2753 634 
Q 3047 847 3047 1241 
Q 3047 1584 2836 1778 
Q 2625 1972 2144 2069 
L 1759 2144 
Q 1053 2284 737 2584 
Q 422 2884 422 3419 
Q 422 4038 858 4394 
Q 1294 4750 2059 4750 
Q 2388 4750 2728 4690 
Q 3069 4631 3425 4513 
z
" transform="scale(0.015625)"/>
      <path id="DejaVuSans-4d" d="M 628 4666 
L 1569 4666 
L 2759 1491 
L 3956 4666 
L 4897 4666 
L 4897 0 
L 4281 0 
L 4281 4097 
L 3078 897 
L 2444 897 
L 1241 4097 
L 1241 0 
L 628 0 
L 628 4666 
z
" transform="scale(0.015625)"/>
     </defs>
     <use xlink:href="#DejaVuSans-4f"/>
     <use xlink:href="#DejaVuSans-66" x="78.710938"/>
     <use xlink:href="#DejaVuSans-66" x="113.916016"/>
     <use xlink:href="#DejaVuSans-6c" x="149.121094"/>
     <use xlink:href="#DejaVuSans-69" x="176.904297"/>
     <use xlink:href="#DejaVuSans-6e" x="204.6875"/>
     <use xlink:href="#DejaVuSans-65" x="268.066406"/>
     <use xlink:href="#DejaVuSans-20" x="329.589844"/>
     <use xlink:href="#DejaVuSans-43" x="361.376953"/>
     <use xlink:href="#DejaVuSans-68" x="431.201172"/>
     <use xlink:href="#DejaVuSans-61" x="494.580078"/>
     <use xlink:href="#DejaVuSans-6e" x="555.859375"/>
     <use xlink:href="#DejaVuSans-67" x="619.238281"/>
     <use xlink:href="#DejaVuSans-65" x="682.714844"/>
     <use xlink:href="#DejaVuSans-20" x="744.238281"/>
     <use xlink:href="#DejaVuSans-50" x="776.025391"/>
     <use xlink:href="#DejaVuSans-6f" x="832.703125"/>
     <use xlink:href="#DejaVuSans-69" x="893.884766"/>
     <use xlink:href="#DejaVuSans-6e" x="921.667969"/>
     <use xlink:href="#DejaVuSans-74" x="985.046875"/>
     <use xlink:href="#DejaVuSans-20" x="1024.255859"/>
     <use xlink:href="#DejaVuSans-44" x="1056.042969"/>
     <use xlink:href="#DejaVuSans-65" x="1133.044922"/>
     <use xlink:href="#DejaVuSans-74" x="1194.568359"/>
     <use xlink:href="#DejaVuSans-65" x="1233.777344"/>
     <use xlink:href="#DejaVuSans-63" x="1295.300781"/>
     <use xlink:href="#DejaVuSans-74" x="1350.28125"/>
     <use xlink:href="#DejaVuSans-69" x="1389.490234"/>
     <use xlink:href="#DejaVuSans-6f" x="1417.273438"/>
     <use xlink:href="#DejaVuSans-6e" x="1478.455078"/>
     <use xlink:href="#DejaVuSans-3a" x="1541.833984"/>
     <use xlink:href="#DejaVuSans-20" x="1575.525391"/>
     <use xlink:href="#DejaVuSans-50" x="1607.3125"/>
     <use xlink:href="#DejaVuSans-65" x="1663.990234"/>
     <use xlink:href="#DejaVuSans-6c" x="1725.513672"/>
     <use xlink:href="#DejaVuSans-74" x="1753.296875"/>
     <use xlink:href="#DejaVuSans-20" x="1792.505859"/>
     <use xlink:href="#DejaVuSans-53" x="1824.292969"/>
     <use xlink:href="#DejaVuSans-65" x="1887.769531"/>
     <use xlink:href="#DejaVuSans-61" x="1949.292969"/>
     <use xlink:href="#DejaVuSans-72" x="2010.572266"/>
     <use xlink:href="#DejaVuSans-63" x="2049.435547"/>
     <use xlink:href="#DejaVuSans-68" x="2104.416016"/>
     <use xlink:href="#DejaVuSans-20" x="2167.794922"/>
     <use xlink:href="#DejaVuSans-4d" x="2199.582031"/>
     <use xlink:href="#DejaVuSans-65" x="2285.861328"/>
     <use xlink:href="#DejaVuSans-74" x="2347.384766"/>
     <use xlink:href="#DejaVuSans-68" x="2386.59375"/>
     <use xlink:href="#DejaVuSans-6f" x="2449.972656"/>
     <use xlink:href="#DejaVuSans-64" x="2511.154297"/>
    </g>
   </g>
   <g id="legend_1">
    <g id="patch_10">
     <path d="M 959.076563 33.478125 
L 1062.2 33.478125 
Q 1064.2 33.478125 1064.2 31.478125 
L 1064.2 17.8 
Q 1064.2 15.8 1062.2 15.8 
L 959.076563 15.8 
Q 957.076563 15.8 957.076563 17.8 
L 957.076563 31.478125 
Q 957.076563 33.478125 959.076563 33.478125 
z
" style="fill: #ffffff; opacity: 0.8; stroke: #cccccc; stroke-linejoin: miter"/>
    </g>
    <g id="line2d_15">
     <path d="M 961.076563 23.898438 
L 971.076563 23.898438 
L 981.076563 23.898438 
" style="fill: none; stroke-dasharray: 1.5,2.475; stroke-dashoffset: 0; stroke: #ff0000; stroke-width: 1.5"/>
    </g>
    <g id="text_15">
     <!-- change-points -->
     <g transform="translate(989.076563 27.398438) scale(0.1 -0.1)">
      <defs>
       <path id="DejaVuSans-2d" d="M 313 2009 
L 1997 2009 
L 1997 1497 
L 313 1497 
L 313 2009 
z
" transform="scale(0.015625)"/>
       <path id="DejaVuSans-70" d="M 1159 525 
L 1159 -1331 
L 581 -1331 
L 581 3500 
L 1159 3500 
L 1159 2969 
Q 1341 3281 1617 3432 
Q 1894 3584 2278 3584 
Q 2916 3584 3314 3078 
Q 3713 2572 3713 1747 
Q 3713 922 3314 415 
Q 2916 -91 2278 -91 
Q 1894 -91 1617 61 
Q 1341 213 1159 525 
z
M 3116 1747 
Q 3116 2381 2855 2742 
Q 2594 3103 2138 3103 
Q 1681 3103 1420 2742 
Q 1159 2381 1159 1747 
Q 1159 1113 1420 752 
Q 1681 391 2138 391 
Q 2594 391 2855 752 
Q 3116 1113 3116 1747 
z
" transform="scale(0.015625)"/>
      </defs>
      <use xlink:href="#DejaVuSans-63"/>
      <use xlink:href="#DejaVuSans-68" x="54.980469"/>
      <use xlink:href="#DejaVuSans-61" x="118.359375"/>
      <use xlink:href="#DejaVuSans-6e" x="179.638672"/>
      <use xlink:href="#DejaVuSans-67" x="243.017578"/>
      <use xlink:href="#DejaVuSans-65" x="306.494141"/>
      <use xlink:href="#DejaVuSans-2d" x="368.017578"/>
      <use xlink:href="#DejaVuSans-70" x="404.101562"/>
      <use xlink:href="#DejaVuSans-6f" x="467.578125"/>
      <use xlink:href="#DejaVuSans-69" x="528.759766"/>
      <use xlink:href="#DejaVuSans-6e" x="556.542969"/>
      <use xlink:href="#DejaVuSans-74" x="619.921875"/>
      <use xlink:href="#DejaVuSans-73" x="659.130859"/>
     </g>
    </g>
   </g>
  </g>
 </g>
 <defs>
  <clipPath id="p413b3cd666">
   <rect x="32.56" y="10.8" width="1036.64" height="249.32"/>
  </clipPath>
 </defs>
</svg>
