<?xml version="1.0" encoding="utf-8" standalone="no"?>
<!DOCTYPE svg PUBLIC "-//W3C//DTD SVG 1.1//EN"
  "http://www.w3.org/Graphics/SVG/1.1/DTD/svg11.dtd">
<svg xmlns:xlink="http://www.w3.org/1999/xlink" width="1184.48125pt" height="438.204062pt" viewBox="0 0 1184.48125 438.204062" xmlns="http://www.w3.org/2000/svg" version="1.1">
 <metadata>
  <rdf:RDF xmlns:dc="http://purl.org/dc/elements/1.1/" xmlns:cc="http://creativecommons.org/ns#" xmlns:rdf="http://www.w3.org/1999/02/22-rdf-syntax-ns#">
   <cc:Work>
    <dc:type rdf:resource="http://purl.org/dc/dcmitype/StillImage"/>
    <dc:date>2023-09-25T20:39:47.890778</dc:date>
    <dc:format>image/svg+xml</dc:format>
    <dc:creator>
     <cc:Agent>
      <dc:title>Matplotlib v3.7.1, https://matplotlib.org/</dc:title>
     </cc:Agent>
    </dc:creator>
   </cc:Work>
  </rdf:RDF>
 </metadata>
 <defs>
  <style type="text/css">*{stroke-linejoin: round; stroke-linecap: butt}</style>
 </defs>
 <g id="figure_1">
  <g id="patch_1">
   <path d="M 0 438.204062 
L 1184.48125 438.204062 
L 1184.48125 0 
L 0 0 
z
" style="fill: #ffffff"/>
  </g>
  <g id="axes_1">
   <g id="patch_2">
    <path d="M 60.08125 412.9275 
L 952.88125 412.9275 
L 952.88125 24.8475 
L 60.08125 24.8475 
z
" style="fill: #ffffff"/>
   </g>
   <g id="matplotlib.axis_1">
    <g id="text_1">
     <!-- Property Change-Point Probability, (staggered, unregularized scale) -->
     <g style="fill: #262626" transform="translate(281.928906 427.847031) scale(0.15 -0.15)">
      <defs>
       <path id="ArialMT-50" d="M 494 0 
L 494 4581 
L 2222 4581 
Q 2678 4581 2919 4538 
Q 3256 4481 3484 4323 
Q 3713 4166 3852 3881 
Q 3991 3597 3991 3256 
Q 3991 2672 3619 2267 
Q 3247 1863 2275 1863 
L 1100 1863 
L 1100 0 
L 494 0 
z
M 1100 2403 
L 2284 2403 
Q 2872 2403 3119 2622 
Q 3366 2841 3366 3238 
Q 3366 3525 3220 3729 
Q 3075 3934 2838 4000 
Q 2684 4041 2272 4041 
L 1100 4041 
L 1100 2403 
z
" transform="scale(0.015625)"/>
       <path id="ArialMT-72" d="M 416 0 
L 416 3319 
L 922 3319 
L 922 2816 
Q 1116 3169 1280 3281 
Q 1444 3394 1641 3394 
Q 1925 3394 2219 3213 
L 2025 2691 
Q 1819 2813 1613 2813 
Q 1428 2813 1281 2702 
Q 1134 2591 1072 2394 
Q 978 2094 978 1738 
L 978 0 
L 416 0 
z
" transform="scale(0.015625)"/>
       <path id="ArialMT-6f" d="M 213 1659 
Q 213 2581 725 3025 
Q 1153 3394 1769 3394 
Q 2453 3394 2887 2945 
Q 3322 2497 3322 1706 
Q 3322 1066 3130 698 
Q 2938 331 2570 128 
Q 2203 -75 1769 -75 
Q 1072 -75 642 372 
Q 213 819 213 1659 
z
M 791 1659 
Q 791 1022 1069 705 
Q 1347 388 1769 388 
Q 2188 388 2466 706 
Q 2744 1025 2744 1678 
Q 2744 2294 2464 2611 
Q 2184 2928 1769 2928 
Q 1347 2928 1069 2612 
Q 791 2297 791 1659 
z
" transform="scale(0.015625)"/>
       <path id="ArialMT-70" d="M 422 -1272 
L 422 3319 
L 934 3319 
L 934 2888 
Q 1116 3141 1344 3267 
Q 1572 3394 1897 3394 
Q 2322 3394 2647 3175 
Q 2972 2956 3137 2557 
Q 3303 2159 3303 1684 
Q 3303 1175 3120 767 
Q 2938 359 2589 142 
Q 2241 -75 1856 -75 
Q 1575 -75 1351 44 
Q 1128 163 984 344 
L 984 -1272 
L 422 -1272 
z
M 931 1641 
Q 931 1000 1190 694 
Q 1450 388 1819 388 
Q 2194 388 2461 705 
Q 2728 1022 2728 1688 
Q 2728 2322 2467 2637 
Q 2206 2953 1844 2953 
Q 1484 2953 1207 2617 
Q 931 2281 931 1641 
z
" transform="scale(0.015625)"/>
       <path id="ArialMT-65" d="M 2694 1069 
L 3275 997 
Q 3138 488 2766 206 
Q 2394 -75 1816 -75 
Q 1088 -75 661 373 
Q 234 822 234 1631 
Q 234 2469 665 2931 
Q 1097 3394 1784 3394 
Q 2450 3394 2872 2941 
Q 3294 2488 3294 1666 
Q 3294 1616 3291 1516 
L 816 1516 
Q 847 969 1125 678 
Q 1403 388 1819 388 
Q 2128 388 2347 550 
Q 2566 713 2694 1069 
z
M 847 1978 
L 2700 1978 
Q 2663 2397 2488 2606 
Q 2219 2931 1791 2931 
Q 1403 2931 1139 2672 
Q 875 2413 847 1978 
z
" transform="scale(0.015625)"/>
       <path id="ArialMT-74" d="M 1650 503 
L 1731 6 
Q 1494 -44 1306 -44 
Q 1000 -44 831 53 
Q 663 150 594 308 
Q 525 466 525 972 
L 525 2881 
L 113 2881 
L 113 3319 
L 525 3319 
L 525 4141 
L 1084 4478 
L 1084 3319 
L 1650 3319 
L 1650 2881 
L 1084 2881 
L 1084 941 
Q 1084 700 1114 631 
Q 1144 563 1211 522 
Q 1278 481 1403 481 
Q 1497 481 1650 503 
z
" transform="scale(0.015625)"/>
       <path id="ArialMT-79" d="M 397 -1278 
L 334 -750 
Q 519 -800 656 -800 
Q 844 -800 956 -737 
Q 1069 -675 1141 -563 
Q 1194 -478 1313 -144 
Q 1328 -97 1363 -6 
L 103 3319 
L 709 3319 
L 1400 1397 
Q 1534 1031 1641 628 
Q 1738 1016 1872 1384 
L 2581 3319 
L 3144 3319 
L 1881 -56 
Q 1678 -603 1566 -809 
Q 1416 -1088 1222 -1217 
Q 1028 -1347 759 -1347 
Q 597 -1347 397 -1278 
z
" transform="scale(0.015625)"/>
       <path id="ArialMT-20" transform="scale(0.015625)"/>
       <path id="ArialMT-43" d="M 3763 1606 
L 4369 1453 
Q 4178 706 3683 314 
Q 3188 -78 2472 -78 
Q 1731 -78 1267 223 
Q 803 525 561 1097 
Q 319 1669 319 2325 
Q 319 3041 592 3573 
Q 866 4106 1370 4382 
Q 1875 4659 2481 4659 
Q 3169 4659 3637 4309 
Q 4106 3959 4291 3325 
L 3694 3184 
Q 3534 3684 3231 3912 
Q 2928 4141 2469 4141 
Q 1941 4141 1586 3887 
Q 1231 3634 1087 3207 
Q 944 2781 944 2328 
Q 944 1744 1114 1308 
Q 1284 872 1643 656 
Q 2003 441 2422 441 
Q 2931 441 3284 734 
Q 3638 1028 3763 1606 
z
" transform="scale(0.015625)"/>
       <path id="ArialMT-68" d="M 422 0 
L 422 4581 
L 984 4581 
L 984 2938 
Q 1378 3394 1978 3394 
Q 2347 3394 2619 3248 
Q 2891 3103 3008 2847 
Q 3125 2591 3125 2103 
L 3125 0 
L 2563 0 
L 2563 2103 
Q 2563 2525 2380 2717 
Q 2197 2909 1863 2909 
Q 1613 2909 1392 2779 
Q 1172 2650 1078 2428 
Q 984 2206 984 1816 
L 984 0 
L 422 0 
z
" transform="scale(0.015625)"/>
       <path id="ArialMT-61" d="M 2588 409 
Q 2275 144 1986 34 
Q 1697 -75 1366 -75 
Q 819 -75 525 192 
Q 231 459 231 875 
Q 231 1119 342 1320 
Q 453 1522 633 1644 
Q 813 1766 1038 1828 
Q 1203 1872 1538 1913 
Q 2219 1994 2541 2106 
Q 2544 2222 2544 2253 
Q 2544 2597 2384 2738 
Q 2169 2928 1744 2928 
Q 1347 2928 1158 2789 
Q 969 2650 878 2297 
L 328 2372 
Q 403 2725 575 2942 
Q 747 3159 1072 3276 
Q 1397 3394 1825 3394 
Q 2250 3394 2515 3294 
Q 2781 3194 2906 3042 
Q 3031 2891 3081 2659 
Q 3109 2516 3109 2141 
L 3109 1391 
Q 3109 606 3145 398 
Q 3181 191 3288 0 
L 2700 0 
Q 2613 175 2588 409 
z
M 2541 1666 
Q 2234 1541 1622 1453 
Q 1275 1403 1131 1340 
Q 988 1278 909 1158 
Q 831 1038 831 891 
Q 831 666 1001 516 
Q 1172 366 1500 366 
Q 1825 366 2078 508 
Q 2331 650 2450 897 
Q 2541 1088 2541 1459 
L 2541 1666 
z
" transform="scale(0.015625)"/>
       <path id="ArialMT-6e" d="M 422 0 
L 422 3319 
L 928 3319 
L 928 2847 
Q 1294 3394 1984 3394 
Q 2284 3394 2536 3286 
Q 2788 3178 2913 3003 
Q 3038 2828 3088 2588 
Q 3119 2431 3119 2041 
L 3119 0 
L 2556 0 
L 2556 2019 
Q 2556 2363 2490 2533 
Q 2425 2703 2258 2804 
Q 2091 2906 1866 2906 
Q 1506 2906 1245 2678 
Q 984 2450 984 1813 
L 984 0 
L 422 0 
z
" transform="scale(0.015625)"/>
       <path id="ArialMT-67" d="M 319 -275 
L 866 -356 
Q 900 -609 1056 -725 
Q 1266 -881 1628 -881 
Q 2019 -881 2231 -725 
Q 2444 -569 2519 -288 
Q 2563 -116 2559 434 
Q 2191 0 1641 0 
Q 956 0 581 494 
Q 206 988 206 1678 
Q 206 2153 378 2554 
Q 550 2956 876 3175 
Q 1203 3394 1644 3394 
Q 2231 3394 2613 2919 
L 2613 3319 
L 3131 3319 
L 3131 450 
Q 3131 -325 2973 -648 
Q 2816 -972 2473 -1159 
Q 2131 -1347 1631 -1347 
Q 1038 -1347 672 -1080 
Q 306 -813 319 -275 
z
M 784 1719 
Q 784 1066 1043 766 
Q 1303 466 1694 466 
Q 2081 466 2343 764 
Q 2606 1063 2606 1700 
Q 2606 2309 2336 2618 
Q 2066 2928 1684 2928 
Q 1309 2928 1046 2623 
Q 784 2319 784 1719 
z
" transform="scale(0.015625)"/>
       <path id="ArialMT-2d" d="M 203 1375 
L 203 1941 
L 1931 1941 
L 1931 1375 
L 203 1375 
z
" transform="scale(0.015625)"/>
       <path id="ArialMT-69" d="M 425 3934 
L 425 4581 
L 988 4581 
L 988 3934 
L 425 3934 
z
M 425 0 
L 425 3319 
L 988 3319 
L 988 0 
L 425 0 
z
" transform="scale(0.015625)"/>
       <path id="ArialMT-62" d="M 941 0 
L 419 0 
L 419 4581 
L 981 4581 
L 981 2947 
Q 1338 3394 1891 3394 
Q 2197 3394 2470 3270 
Q 2744 3147 2920 2923 
Q 3097 2700 3197 2384 
Q 3297 2069 3297 1709 
Q 3297 856 2875 390 
Q 2453 -75 1863 -75 
Q 1275 -75 941 416 
L 941 0 
z
M 934 1684 
Q 934 1088 1097 822 
Q 1363 388 1816 388 
Q 2184 388 2453 708 
Q 2722 1028 2722 1663 
Q 2722 2313 2464 2622 
Q 2206 2931 1841 2931 
Q 1472 2931 1203 2611 
Q 934 2291 934 1684 
z
" transform="scale(0.015625)"/>
       <path id="ArialMT-6c" d="M 409 0 
L 409 4581 
L 972 4581 
L 972 0 
L 409 0 
z
" transform="scale(0.015625)"/>
       <path id="ArialMT-2c" d="M 569 0 
L 569 641 
L 1209 641 
L 1209 0 
Q 1209 -353 1084 -570 
Q 959 -788 688 -906 
L 531 -666 
Q 709 -588 793 -436 
Q 878 -284 888 0 
L 569 0 
z
" transform="scale(0.015625)"/>
       <path id="ArialMT-28" d="M 1497 -1347 
Q 1031 -759 709 28 
Q 388 816 388 1659 
Q 388 2403 628 3084 
Q 909 3875 1497 4659 
L 1900 4659 
Q 1522 4009 1400 3731 
Q 1209 3300 1100 2831 
Q 966 2247 966 1656 
Q 966 153 1900 -1347 
L 1497 -1347 
z
" transform="scale(0.015625)"/>
       <path id="ArialMT-73" d="M 197 991 
L 753 1078 
Q 800 744 1014 566 
Q 1228 388 1613 388 
Q 2000 388 2187 545 
Q 2375 703 2375 916 
Q 2375 1106 2209 1216 
Q 2094 1291 1634 1406 
Q 1016 1563 777 1677 
Q 538 1791 414 1992 
Q 291 2194 291 2438 
Q 291 2659 392 2848 
Q 494 3038 669 3163 
Q 800 3259 1026 3326 
Q 1253 3394 1513 3394 
Q 1903 3394 2198 3281 
Q 2494 3169 2634 2976 
Q 2775 2784 2828 2463 
L 2278 2388 
Q 2241 2644 2061 2787 
Q 1881 2931 1553 2931 
Q 1166 2931 1000 2803 
Q 834 2675 834 2503 
Q 834 2394 903 2306 
Q 972 2216 1119 2156 
Q 1203 2125 1616 2013 
Q 2213 1853 2448 1751 
Q 2684 1650 2818 1456 
Q 2953 1263 2953 975 
Q 2953 694 2789 445 
Q 2625 197 2315 61 
Q 2006 -75 1616 -75 
Q 969 -75 630 194 
Q 291 463 197 991 
z
" transform="scale(0.015625)"/>
       <path id="ArialMT-64" d="M 2575 0 
L 2575 419 
Q 2259 -75 1647 -75 
Q 1250 -75 917 144 
Q 584 363 401 755 
Q 219 1147 219 1656 
Q 219 2153 384 2558 
Q 550 2963 881 3178 
Q 1213 3394 1622 3394 
Q 1922 3394 2156 3267 
Q 2391 3141 2538 2938 
L 2538 4581 
L 3097 4581 
L 3097 0 
L 2575 0 
z
M 797 1656 
Q 797 1019 1065 703 
Q 1334 388 1700 388 
Q 2069 388 2326 689 
Q 2584 991 2584 1609 
Q 2584 2291 2321 2609 
Q 2059 2928 1675 2928 
Q 1300 2928 1048 2622 
Q 797 2316 797 1656 
z
" transform="scale(0.015625)"/>
       <path id="ArialMT-75" d="M 2597 0 
L 2597 488 
Q 2209 -75 1544 -75 
Q 1250 -75 995 37 
Q 741 150 617 320 
Q 494 491 444 738 
Q 409 903 409 1263 
L 409 3319 
L 972 3319 
L 972 1478 
Q 972 1038 1006 884 
Q 1059 663 1231 536 
Q 1403 409 1656 409 
Q 1909 409 2131 539 
Q 2353 669 2445 892 
Q 2538 1116 2538 1541 
L 2538 3319 
L 3100 3319 
L 3100 0 
L 2597 0 
z
" transform="scale(0.015625)"/>
       <path id="ArialMT-7a" d="M 125 0 
L 125 456 
L 2238 2881 
Q 1878 2863 1603 2863 
L 250 2863 
L 250 3319 
L 2963 3319 
L 2963 2947 
L 1166 841 
L 819 456 
Q 1197 484 1528 484 
L 3063 484 
L 3063 0 
L 125 0 
z
" transform="scale(0.015625)"/>
       <path id="ArialMT-63" d="M 2588 1216 
L 3141 1144 
Q 3050 572 2676 248 
Q 2303 -75 1759 -75 
Q 1078 -75 664 370 
Q 250 816 250 1647 
Q 250 2184 428 2587 
Q 606 2991 970 3192 
Q 1334 3394 1763 3394 
Q 2303 3394 2647 3120 
Q 2991 2847 3088 2344 
L 2541 2259 
Q 2463 2594 2264 2762 
Q 2066 2931 1784 2931 
Q 1359 2931 1093 2626 
Q 828 2322 828 1663 
Q 828 994 1084 691 
Q 1341 388 1753 388 
Q 2084 388 2306 591 
Q 2528 794 2588 1216 
z
" transform="scale(0.015625)"/>
       <path id="ArialMT-29" d="M 791 -1347 
L 388 -1347 
Q 1322 153 1322 1656 
Q 1322 2244 1188 2822 
Q 1081 3291 891 3722 
Q 769 4003 388 4659 
L 791 4659 
Q 1378 3875 1659 3084 
Q 1900 2403 1900 1659 
Q 1900 816 1576 28 
Q 1253 -759 791 -1347 
z
" transform="scale(0.015625)"/>
      </defs>
      <use xlink:href="#ArialMT-50"/>
      <use xlink:href="#ArialMT-72" x="66.699219"/>
      <use xlink:href="#ArialMT-6f" x="100"/>
      <use xlink:href="#ArialMT-70" x="155.615234"/>
      <use xlink:href="#ArialMT-65" x="211.230469"/>
      <use xlink:href="#ArialMT-72" x="266.845703"/>
      <use xlink:href="#ArialMT-74" x="300.146484"/>
      <use xlink:href="#ArialMT-79" x="327.929688"/>
      <use xlink:href="#ArialMT-20" x="377.929688"/>
      <use xlink:href="#ArialMT-43" x="405.712891"/>
      <use xlink:href="#ArialMT-68" x="477.929688"/>
      <use xlink:href="#ArialMT-61" x="533.544922"/>
      <use xlink:href="#ArialMT-6e" x="589.160156"/>
      <use xlink:href="#ArialMT-67" x="644.775391"/>
      <use xlink:href="#ArialMT-65" x="700.390625"/>
      <use xlink:href="#ArialMT-2d" x="756.005859"/>
      <use xlink:href="#ArialMT-50" x="789.306641"/>
      <use xlink:href="#ArialMT-6f" x="856.005859"/>
      <use xlink:href="#ArialMT-69" x="911.621094"/>
      <use xlink:href="#ArialMT-6e" x="933.837891"/>
      <use xlink:href="#ArialMT-74" x="989.453125"/>
      <use xlink:href="#ArialMT-20" x="1017.236328"/>
      <use xlink:href="#ArialMT-50" x="1045.019531"/>
      <use xlink:href="#ArialMT-72" x="1111.71875"/>
      <use xlink:href="#ArialMT-6f" x="1145.019531"/>
      <use xlink:href="#ArialMT-62" x="1200.634766"/>
      <use xlink:href="#ArialMT-61" x="1256.25"/>
      <use xlink:href="#ArialMT-62" x="1311.865234"/>
      <use xlink:href="#ArialMT-69" x="1367.480469"/>
      <use xlink:href="#ArialMT-6c" x="1389.697266"/>
      <use xlink:href="#ArialMT-69" x="1411.914062"/>
      <use xlink:href="#ArialMT-74" x="1434.130859"/>
      <use xlink:href="#ArialMT-79" x="1461.914062"/>
      <use xlink:href="#ArialMT-2c" x="1504.539062"/>
      <use xlink:href="#ArialMT-20" x="1532.322266"/>
      <use xlink:href="#ArialMT-28" x="1560.105469"/>
      <use xlink:href="#ArialMT-73" x="1593.40625"/>
      <use xlink:href="#ArialMT-74" x="1643.40625"/>
      <use xlink:href="#ArialMT-61" x="1671.189453"/>
      <use xlink:href="#ArialMT-67" x="1726.804688"/>
      <use xlink:href="#ArialMT-67" x="1782.419922"/>
      <use xlink:href="#ArialMT-65" x="1838.035156"/>
      <use xlink:href="#ArialMT-72" x="1893.650391"/>
      <use xlink:href="#ArialMT-65" x="1926.951172"/>
      <use xlink:href="#ArialMT-64" x="1982.566406"/>
      <use xlink:href="#ArialMT-2c" x="2038.181641"/>
      <use xlink:href="#ArialMT-20" x="2065.964844"/>
      <use xlink:href="#ArialMT-75" x="2093.748047"/>
      <use xlink:href="#ArialMT-6e" x="2149.363281"/>
      <use xlink:href="#ArialMT-72" x="2204.978516"/>
      <use xlink:href="#ArialMT-65" x="2238.279297"/>
      <use xlink:href="#ArialMT-67" x="2293.894531"/>
      <use xlink:href="#ArialMT-75" x="2349.509766"/>
      <use xlink:href="#ArialMT-6c" x="2405.125"/>
      <use xlink:href="#ArialMT-61" x="2427.341797"/>
      <use xlink:href="#ArialMT-72" x="2482.957031"/>
      <use xlink:href="#ArialMT-69" x="2516.257812"/>
      <use xlink:href="#ArialMT-7a" x="2538.474609"/>
      <use xlink:href="#ArialMT-65" x="2588.474609"/>
      <use xlink:href="#ArialMT-64" x="2644.089844"/>
      <use xlink:href="#ArialMT-20" x="2699.705078"/>
      <use xlink:href="#ArialMT-73" x="2727.488281"/>
      <use xlink:href="#ArialMT-63" x="2777.488281"/>
      <use xlink:href="#ArialMT-61" x="2827.488281"/>
      <use xlink:href="#ArialMT-6c" x="2883.103516"/>
      <use xlink:href="#ArialMT-65" x="2905.320312"/>
      <use xlink:href="#ArialMT-29" x="2960.935547"/>
     </g>
    </g>
   </g>
   <g id="matplotlib.axis_2">
    <g id="ytick_1">
     <g id="text_2">
      <!-- 0 -->
      <g style="fill: #262626" transform="translate(47.520313 28.426406) scale(0.1 -0.1)">
       <defs>
        <path id="ArialMT-30" d="M 266 2259 
Q 266 3072 433 3567 
Q 600 4063 929 4331 
Q 1259 4600 1759 4600 
Q 2128 4600 2406 4451 
Q 2684 4303 2865 4023 
Q 3047 3744 3150 3342 
Q 3253 2941 3253 2259 
Q 3253 1453 3087 958 
Q 2922 463 2592 192 
Q 2263 -78 1759 -78 
Q 1097 -78 719 397 
Q 266 969 266 2259 
z
M 844 2259 
Q 844 1131 1108 757 
Q 1372 384 1759 384 
Q 2147 384 2411 759 
Q 2675 1134 2675 2259 
Q 2675 3391 2411 3762 
Q 2147 4134 1753 4134 
Q 1366 4134 1134 3806 
Q 844 3388 844 2259 
z
" transform="scale(0.015625)"/>
       </defs>
       <use xlink:href="#ArialMT-30"/>
      </g>
     </g>
    </g>
    <g id="ytick_2">
     <g id="text_3">
      <!-- 2000 -->
      <g style="fill: #262626" transform="translate(30.8375 80.170406) scale(0.1 -0.1)">
       <defs>
        <path id="ArialMT-32" d="M 3222 541 
L 3222 0 
L 194 0 
Q 188 203 259 391 
Q 375 700 629 1000 
Q 884 1300 1366 1694 
Q 2113 2306 2375 2664 
Q 2638 3022 2638 3341 
Q 2638 3675 2398 3904 
Q 2159 4134 1775 4134 
Q 1369 4134 1125 3890 
Q 881 3647 878 3216 
L 300 3275 
Q 359 3922 746 4261 
Q 1134 4600 1788 4600 
Q 2447 4600 2831 4234 
Q 3216 3869 3216 3328 
Q 3216 3053 3103 2787 
Q 2991 2522 2730 2228 
Q 2469 1934 1863 1422 
Q 1356 997 1212 845 
Q 1069 694 975 541 
L 3222 541 
z
" transform="scale(0.015625)"/>
       </defs>
       <use xlink:href="#ArialMT-32"/>
       <use xlink:href="#ArialMT-30" x="55.615234"/>
       <use xlink:href="#ArialMT-30" x="111.230469"/>
       <use xlink:href="#ArialMT-30" x="166.845703"/>
      </g>
     </g>
    </g>
    <g id="ytick_3">
     <g id="text_4">
      <!-- 4000 -->
      <g style="fill: #262626" transform="translate(30.8375 131.914406) scale(0.1 -0.1)">
       <defs>
        <path id="ArialMT-34" d="M 2069 0 
L 2069 1097 
L 81 1097 
L 81 1613 
L 2172 4581 
L 2631 4581 
L 2631 1613 
L 3250 1613 
L 3250 1097 
L 2631 1097 
L 2631 0 
L 2069 0 
z
M 2069 1613 
L 2069 3678 
L 634 1613 
L 2069 1613 
z
" transform="scale(0.015625)"/>
       </defs>
       <use xlink:href="#ArialMT-34"/>
       <use xlink:href="#ArialMT-30" x="55.615234"/>
       <use xlink:href="#ArialMT-30" x="111.230469"/>
       <use xlink:href="#ArialMT-30" x="166.845703"/>
      </g>
     </g>
    </g>
    <g id="ytick_4">
     <g id="text_5">
      <!-- 6000 -->
      <g style="fill: #262626" transform="translate(30.8375 183.658406) scale(0.1 -0.1)">
       <defs>
        <path id="ArialMT-36" d="M 3184 3459 
L 2625 3416 
Q 2550 3747 2413 3897 
Q 2184 4138 1850 4138 
Q 1581 4138 1378 3988 
Q 1113 3794 959 3422 
Q 806 3050 800 2363 
Q 1003 2672 1297 2822 
Q 1591 2972 1913 2972 
Q 2475 2972 2870 2558 
Q 3266 2144 3266 1488 
Q 3266 1056 3080 686 
Q 2894 316 2569 119 
Q 2244 -78 1831 -78 
Q 1128 -78 684 439 
Q 241 956 241 2144 
Q 241 3472 731 4075 
Q 1159 4600 1884 4600 
Q 2425 4600 2770 4297 
Q 3116 3994 3184 3459 
z
M 888 1484 
Q 888 1194 1011 928 
Q 1134 663 1356 523 
Q 1578 384 1822 384 
Q 2178 384 2434 671 
Q 2691 959 2691 1453 
Q 2691 1928 2437 2201 
Q 2184 2475 1800 2475 
Q 1419 2475 1153 2201 
Q 888 1928 888 1484 
z
" transform="scale(0.015625)"/>
       </defs>
       <use xlink:href="#ArialMT-36"/>
       <use xlink:href="#ArialMT-30" x="55.615234"/>
       <use xlink:href="#ArialMT-30" x="111.230469"/>
       <use xlink:href="#ArialMT-30" x="166.845703"/>
      </g>
     </g>
    </g>
    <g id="ytick_5">
     <g id="text_6">
      <!-- 8000 -->
      <g style="fill: #262626" transform="translate(30.8375 235.402406) scale(0.1 -0.1)">
       <defs>
        <path id="ArialMT-38" d="M 1131 2484 
Q 781 2613 612 2850 
Q 444 3088 444 3419 
Q 444 3919 803 4259 
Q 1163 4600 1759 4600 
Q 2359 4600 2725 4251 
Q 3091 3903 3091 3403 
Q 3091 3084 2923 2848 
Q 2756 2613 2416 2484 
Q 2838 2347 3058 2040 
Q 3278 1734 3278 1309 
Q 3278 722 2862 322 
Q 2447 -78 1769 -78 
Q 1091 -78 675 323 
Q 259 725 259 1325 
Q 259 1772 486 2073 
Q 713 2375 1131 2484 
z
M 1019 3438 
Q 1019 3113 1228 2906 
Q 1438 2700 1772 2700 
Q 2097 2700 2305 2904 
Q 2513 3109 2513 3406 
Q 2513 3716 2298 3927 
Q 2084 4138 1766 4138 
Q 1444 4138 1231 3931 
Q 1019 3725 1019 3438 
z
M 838 1322 
Q 838 1081 952 856 
Q 1066 631 1291 507 
Q 1516 384 1775 384 
Q 2178 384 2440 643 
Q 2703 903 2703 1303 
Q 2703 1709 2433 1975 
Q 2163 2241 1756 2241 
Q 1359 2241 1098 1978 
Q 838 1716 838 1322 
z
" transform="scale(0.015625)"/>
       </defs>
       <use xlink:href="#ArialMT-38"/>
       <use xlink:href="#ArialMT-30" x="55.615234"/>
       <use xlink:href="#ArialMT-30" x="111.230469"/>
       <use xlink:href="#ArialMT-30" x="166.845703"/>
      </g>
     </g>
    </g>
    <g id="ytick_6">
     <g id="text_7">
      <!-- 10000 -->
      <g style="fill: #262626" transform="translate(25.276563 287.146406) scale(0.1 -0.1)">
       <defs>
        <path id="ArialMT-31" d="M 2384 0 
L 1822 0 
L 1822 3584 
Q 1619 3391 1289 3197 
Q 959 3003 697 2906 
L 697 3450 
Q 1169 3672 1522 3987 
Q 1875 4303 2022 4600 
L 2384 4600 
L 2384 0 
z
" transform="scale(0.015625)"/>
       </defs>
       <use xlink:href="#ArialMT-31"/>
       <use xlink:href="#ArialMT-30" x="55.615234"/>
       <use xlink:href="#ArialMT-30" x="111.230469"/>
       <use xlink:href="#ArialMT-30" x="166.845703"/>
       <use xlink:href="#ArialMT-30" x="222.460938"/>
      </g>
     </g>
    </g>
    <g id="ytick_7">
     <g id="text_8">
      <!-- 12000 -->
      <g style="fill: #262626" transform="translate(25.276563 338.890406) scale(0.1 -0.1)">
       <use xlink:href="#ArialMT-31"/>
       <use xlink:href="#ArialMT-32" x="55.615234"/>
       <use xlink:href="#ArialMT-30" x="111.230469"/>
       <use xlink:href="#ArialMT-30" x="166.845703"/>
       <use xlink:href="#ArialMT-30" x="222.460938"/>
      </g>
     </g>
    </g>
    <g id="ytick_8">
     <g id="text_9">
      <!-- 14000 -->
      <g style="fill: #262626" transform="translate(25.276563 390.634406) scale(0.1 -0.1)">
       <use xlink:href="#ArialMT-31"/>
       <use xlink:href="#ArialMT-34" x="55.615234"/>
       <use xlink:href="#ArialMT-30" x="111.230469"/>
       <use xlink:href="#ArialMT-30" x="166.845703"/>
       <use xlink:href="#ArialMT-30" x="222.460938"/>
      </g>
     </g>
    </g>
    <g id="text_10">
     <!-- Depth of f11A geophysical log in (m)*10^-1 -->
     <g style="fill: #262626" transform="translate(18.119531 360.258984) rotate(-90) scale(0.15 -0.15)">
      <defs>
       <path id="ArialMT-44" d="M 494 0 
L 494 4581 
L 2072 4581 
Q 2606 4581 2888 4516 
Q 3281 4425 3559 4188 
Q 3922 3881 4101 3404 
Q 4281 2928 4281 2316 
Q 4281 1794 4159 1391 
Q 4038 988 3847 723 
Q 3656 459 3429 307 
Q 3203 156 2883 78 
Q 2563 0 2147 0 
L 494 0 
z
M 1100 541 
L 2078 541 
Q 2531 541 2789 625 
Q 3047 709 3200 863 
Q 3416 1078 3536 1442 
Q 3656 1806 3656 2325 
Q 3656 3044 3420 3430 
Q 3184 3816 2847 3947 
Q 2603 4041 2063 4041 
L 1100 4041 
L 1100 541 
z
" transform="scale(0.015625)"/>
       <path id="ArialMT-66" d="M 556 0 
L 556 2881 
L 59 2881 
L 59 3319 
L 556 3319 
L 556 3672 
Q 556 4006 616 4169 
Q 697 4388 901 4523 
Q 1106 4659 1475 4659 
Q 1713 4659 2000 4603 
L 1916 4113 
Q 1741 4144 1584 4144 
Q 1328 4144 1222 4034 
Q 1116 3925 1116 3625 
L 1116 3319 
L 1763 3319 
L 1763 2881 
L 1116 2881 
L 1116 0 
L 556 0 
z
" transform="scale(0.015625)"/>
       <path id="ArialMT-41" d="M -9 0 
L 1750 4581 
L 2403 4581 
L 4278 0 
L 3588 0 
L 3053 1388 
L 1138 1388 
L 634 0 
L -9 0 
z
M 1313 1881 
L 2866 1881 
L 2388 3150 
Q 2169 3728 2063 4100 
Q 1975 3659 1816 3225 
L 1313 1881 
z
" transform="scale(0.015625)"/>
       <path id="ArialMT-6d" d="M 422 0 
L 422 3319 
L 925 3319 
L 925 2853 
Q 1081 3097 1340 3245 
Q 1600 3394 1931 3394 
Q 2300 3394 2536 3241 
Q 2772 3088 2869 2813 
Q 3263 3394 3894 3394 
Q 4388 3394 4653 3120 
Q 4919 2847 4919 2278 
L 4919 0 
L 4359 0 
L 4359 2091 
Q 4359 2428 4304 2576 
Q 4250 2725 4106 2815 
Q 3963 2906 3769 2906 
Q 3419 2906 3187 2673 
Q 2956 2441 2956 1928 
L 2956 0 
L 2394 0 
L 2394 2156 
Q 2394 2531 2256 2718 
Q 2119 2906 1806 2906 
Q 1569 2906 1367 2781 
Q 1166 2656 1075 2415 
Q 984 2175 984 1722 
L 984 0 
L 422 0 
z
" transform="scale(0.015625)"/>
       <path id="ArialMT-2a" d="M 200 3741 
L 344 4184 
Q 841 4009 1066 3881 
Q 1006 4447 1003 4659 
L 1456 4659 
Q 1447 4350 1384 3884 
Q 1706 4047 2122 4184 
L 2266 3741 
Q 1869 3609 1488 3566 
Q 1678 3400 2025 2975 
L 1650 2709 
Q 1469 2956 1222 3381 
Q 991 2941 816 2709 
L 447 2975 
Q 809 3422 966 3566 
Q 563 3644 200 3741 
z
" transform="scale(0.015625)"/>
       <path id="ArialMT-5e" d="M 747 2156 
L 169 2156 
L 1272 4659 
L 1725 4659 
L 2834 2156 
L 2269 2156 
L 1497 4022 
L 747 2156 
z
" transform="scale(0.015625)"/>
      </defs>
      <use xlink:href="#ArialMT-44"/>
      <use xlink:href="#ArialMT-65" x="72.216797"/>
      <use xlink:href="#ArialMT-70" x="127.832031"/>
      <use xlink:href="#ArialMT-74" x="183.447266"/>
      <use xlink:href="#ArialMT-68" x="211.230469"/>
      <use xlink:href="#ArialMT-20" x="266.845703"/>
      <use xlink:href="#ArialMT-6f" x="294.628906"/>
      <use xlink:href="#ArialMT-66" x="350.244141"/>
      <use xlink:href="#ArialMT-20" x="378.027344"/>
      <use xlink:href="#ArialMT-66" x="405.810547"/>
      <use xlink:href="#ArialMT-31" x="433.59375"/>
      <use xlink:href="#ArialMT-31" x="481.833984"/>
      <use xlink:href="#ArialMT-41" x="537.449219"/>
      <use xlink:href="#ArialMT-20" x="598.648438"/>
      <use xlink:href="#ArialMT-67" x="626.431641"/>
      <use xlink:href="#ArialMT-65" x="682.046875"/>
      <use xlink:href="#ArialMT-6f" x="737.662109"/>
      <use xlink:href="#ArialMT-70" x="793.277344"/>
      <use xlink:href="#ArialMT-68" x="848.892578"/>
      <use xlink:href="#ArialMT-79" x="904.507812"/>
      <use xlink:href="#ArialMT-73" x="954.507812"/>
      <use xlink:href="#ArialMT-69" x="1004.507812"/>
      <use xlink:href="#ArialMT-63" x="1026.724609"/>
      <use xlink:href="#ArialMT-61" x="1076.724609"/>
      <use xlink:href="#ArialMT-6c" x="1132.339844"/>
      <use xlink:href="#ArialMT-20" x="1154.556641"/>
      <use xlink:href="#ArialMT-6c" x="1182.339844"/>
      <use xlink:href="#ArialMT-6f" x="1204.556641"/>
      <use xlink:href="#ArialMT-67" x="1260.171875"/>
      <use xlink:href="#ArialMT-20" x="1315.787109"/>
      <use xlink:href="#ArialMT-69" x="1343.570312"/>
      <use xlink:href="#ArialMT-6e" x="1365.787109"/>
      <use xlink:href="#ArialMT-20" x="1421.402344"/>
      <use xlink:href="#ArialMT-28" x="1449.185547"/>
      <use xlink:href="#ArialMT-6d" x="1482.486328"/>
      <use xlink:href="#ArialMT-29" x="1565.787109"/>
      <use xlink:href="#ArialMT-2a" x="1599.087891"/>
      <use xlink:href="#ArialMT-31" x="1638.003906"/>
      <use xlink:href="#ArialMT-30" x="1693.619141"/>
      <use xlink:href="#ArialMT-5e" x="1749.234375"/>
      <use xlink:href="#ArialMT-2d" x="1796.158203"/>
      <use xlink:href="#ArialMT-31" x="1829.458984"/>
     </g>
    </g>
   </g>
   <g id="line2d_1">
    <path d="M 220.327404 24.8475 
" clip-path="url(#p74193c8fba)" style="fill: none; stroke: #000000; stroke-opacity: 0.46; stroke-linecap: round"/>
   </g>
   <g id="line2d_2">
    <path d="M 815.527404 24.8475 
" clip-path="url(#p74193c8fba)" style="fill: none; stroke: #800080; stroke-opacity: 0.66; stroke-linecap: round"/>
   </g>
   <g id="line2d_3">
    <path d="M 632.388942 24.8475 
" clip-path="url(#p74193c8fba)" style="fill: none; stroke: #008000; stroke-opacity: 0.66; stroke-linecap: round"/>
   </g>
   <g id="line2d_4">
    <path d="M 449.250481 24.8475 
" clip-path="url(#p74193c8fba)" style="fill: none; stroke: #ffa500; stroke-opacity: 0.66; stroke-linecap: round"/>
   </g>
   <g id="line2d_5">
    <path d="M 82.973558 24.8475 
L 83.142719 26.813772 
L 83.287548 26.91726 
L 83.231771 26.969004 
L 83.111423 27.04662 
L 83.153199 27.098364 
L 83.126267 27.227724 
L 83.000905 27.56406 
L 83.101317 27.719292 
L 83.466378 27.82278 
L 85.702716 28.0815 
L 86.475435 28.184988 
L 86.283593 28.21086 
L 82.997493 28.521324 
L 82.981629 29.142252 
L 83.104554 29.944284 
L 83.85729 29.996028 
L 87.977063 30.125388 
L 86.315702 30.177132 
L 83.645401 30.358236 
L 83.925946 30.461724 
L 83.858362 30.487596 
L 83.214422 30.642828 
L 83.231709 30.6687 
L 83.489568 30.92742 
L 85.232619 30.979164 
L 90.143612 31.030908 
L 88.101883 31.108524 
L 83.462741 31.393116 
L 83.167876 31.600092 
L 83.029946 31.988172 
L 82.979071 32.919564 
L 82.977021 33.359388 
L 82.977021 33.359388 
" clip-path="url(#p74193c8fba)" style="fill: none; stroke: #0000ff; stroke-opacity: 0.6; stroke-linecap: round"/>
   </g>
   <g id="line2d_6">
    <path d="M 134.551759 24.8475 
L 131.630873 25.028604 
L 132.067892 25.10622 
L 134.052372 25.287324 
L 133.535314 25.339068 
L 131.415333 25.546044 
L 131.113444 25.597788 
L 131.225929 25.649532 
L 132.113628 25.804764 
L 131.916947 25.830636 
L 130.573147 26.089356 
L 130.530158 26.425692 
L 131.208258 26.580924 
L 131.153612 26.684412 
L 130.772426 26.813772 
L 130.964727 26.865516 
L 133.405604 27.020748 
L 132.543594 27.072492 
L 131.995056 27.124236 
L 132.633062 27.17598 
L 134.479739 27.382956 
L 134.423831 27.408828 
L 132.053711 27.667548 
L 132.474544 27.796908 
L 133.851979 28.055628 
L 133.524326 28.107372 
L 133.663094 28.133244 
L 134.820088 28.236732 
L 134.574107 28.288476 
L 132.371786 28.391964 
L 132.622742 28.46958 
L 134.089198 28.676556 
L 133.957335 28.702428 
L 132.099744 28.805916 
L 132.68303 28.85766 
L 132.764554 28.883532 
L 132.725945 28.909404 
L 131.589517 29.012892 
L 132.06418 29.064636 
L 134.063063 29.142252 
L 133.545115 29.193996 
L 131.745065 29.349228 
L 132.01488 29.400972 
L 132.236433 29.478588 
L 134.573513 29.582076 
L 133.913307 29.659692 
L 131.68292 29.76318 
L 132.283951 29.789052 
L 134.12506 29.970156 
L 134.258482 29.996028 
L 133.851533 30.0219 
L 131.483344 30.125388 
L 132.129666 30.177132 
L 135.309452 30.306492 
L 134.180226 30.40998 
L 132.580124 30.487596 
L 133.309751 30.53934 
L 134.986996 30.720444 
L 135.162665 30.746316 
L 135.038152 30.772188 
L 133.319552 30.849804 
L 133.986737 30.92742 
L 133.963943 30.953292 
L 130.960569 31.160268 
L 130.642048 31.237884 
L 130.473062 31.263756 
L 130.559485 31.341372 
L 130.733001 31.522476 
L 130.613389 31.548348 
L 130.549165 31.57422 
L 130.679172 31.600092 
L 130.605593 31.625964 
L 130.658902 31.651836 
L 130.575003 31.677708 
L 130.601064 31.729452 
L 130.529861 31.755324 
L 130.655264 31.781196 
L 130.6246 31.83294 
L 130.764408 31.884684 
L 130.675905 31.9623 
L 130.656007 31.988172 
L 130.714885 32.014044 
L 130.811258 32.09166 
L 130.712954 32.117532 
L 130.589778 32.169276 
L 130.707312 32.22102 
L 130.816455 32.246892 
L 130.589407 32.298636 
L 130.689344 32.427996 
L 130.674643 32.453868 
L 130.587402 32.47974 
L 130.662912 32.557356 
L 130.812668 32.764332 
L 130.714959 32.86782 
L 130.872363 32.919564 
L 130.772649 32.945436 
L 130.524738 33.048924 
L 130.533499 33.074796 
L 130.724611 33.152412 
L 130.631134 33.178284 
L 130.492143 33.204156 
L 130.66603 33.230028 
L 130.58911 33.281772 
L 130.641603 33.333516 
L 130.601584 33.359388 
" clip-path="url(#p74193c8fba)" style="fill: none; stroke: #ff0000; stroke-opacity: 0.6; stroke-linecap: round"/>
   </g>
   <g id="line2d_7">
    <path d="M 60.08125 24.8475 
L 952.88125 24.8475 
" clip-path="url(#p74193c8fba)" style="fill: none; stroke: #a52a2a; stroke-opacity: 0.7; stroke-linecap: round"/>
   </g>
   <g id="line2d_8">
    <path d="M 60.08125 31.05678 
L 952.88125 31.05678 
" clip-path="url(#p74193c8fba)" style="fill: none; stroke: #a52a2a; stroke-opacity: 0.7; stroke-linecap: round"/>
   </g>
   <g id="line2d_9">
    <path d="M 60.08125 75.16854 
L 952.88125 75.16854 
" clip-path="url(#p74193c8fba)" style="fill: none; stroke: #a52a2a; stroke-opacity: 0.7; stroke-linecap: round"/>
   </g>
   <g id="line2d_10">
    <path d="M 60.08125 158.86446 
L 952.88125 158.86446 
" clip-path="url(#p74193c8fba)" style="fill: none; stroke: #a52a2a; stroke-opacity: 0.7; stroke-linecap: round"/>
   </g>
   <g id="line2d_11">
    <path d="M 60.08125 264.370476 
L 952.88125 264.370476 
" clip-path="url(#p74193c8fba)" style="fill: none; stroke: #a52a2a; stroke-opacity: 0.7; stroke-linecap: round"/>
   </g>
   <g id="line2d_12">
    <path d="M 60.08125 277.073628 
L 952.88125 277.073628 
" clip-path="url(#p74193c8fba)" style="fill: none; stroke: #a52a2a; stroke-opacity: 0.7; stroke-linecap: round"/>
   </g>
   <g id="line2d_13">
    <path d="M 60.08125 279.738444 
L 952.88125 279.738444 
" clip-path="url(#p74193c8fba)" style="fill: none; stroke: #a52a2a; stroke-opacity: 0.7; stroke-linecap: round"/>
   </g>
   <g id="line2d_14">
    <path d="M 60.08125 282.170412 
L 952.88125 282.170412 
" clip-path="url(#p74193c8fba)" style="fill: none; stroke: #a52a2a; stroke-opacity: 0.7; stroke-linecap: round"/>
   </g>
   <g id="line2d_15">
    <path d="M 60.08125 309.95694 
L 952.88125 309.95694 
" clip-path="url(#p74193c8fba)" style="fill: none; stroke: #a52a2a; stroke-opacity: 0.7; stroke-linecap: round"/>
   </g>
   <g id="line2d_16">
    <path d="M 220.327404 24.8475 
" clip-path="url(#p74193c8fba)" style="fill: none; stroke: #a52a2a; stroke-opacity: 0.7; stroke-width: 1.5; stroke-linecap: round"/>
   </g>
   <g id="patch_3">
    <path d="M 60.08125 412.9275 
L 60.08125 24.8475 
" style="fill: none; stroke: #262626; stroke-linejoin: miter; stroke-linecap: square"/>
   </g>
   <g id="patch_4">
    <path d="M 952.88125 412.9275 
L 952.88125 24.8475 
" style="fill: none; stroke: #262626; stroke-linejoin: miter; stroke-linecap: square"/>
   </g>
   <g id="patch_5">
    <path d="M 60.08125 412.9275 
L 952.88125 412.9275 
" style="fill: none; stroke: #262626; stroke-linejoin: miter; stroke-linecap: square"/>
   </g>
   <g id="patch_6">
    <path d="M 60.08125 24.8475 
L 952.88125 24.8475 
" style="fill: none; stroke: #262626; stroke-linejoin: miter; stroke-linecap: square"/>
   </g>
   <g id="text_11">
    <!-- Volve F11A well Property Change Forecast for RHOB, NPHI, GR, their combination -->
    <g style="fill: #262626" transform="translate(194.88125 18.8475) scale(0.16 -0.16)">
     <defs>
      <path id="Arial-BoldMT-56" d="M 1634 0 
L -3 4581 
L 1000 4581 
L 2159 1191 
L 3281 4581 
L 4263 4581 
L 2622 0 
L 1634 0 
z
" transform="scale(0.015625)"/>
      <path id="Arial-BoldMT-6f" d="M 256 1706 
Q 256 2144 472 2553 
Q 688 2963 1083 3178 
Q 1478 3394 1966 3394 
Q 2719 3394 3200 2905 
Q 3681 2416 3681 1669 
Q 3681 916 3195 420 
Q 2709 -75 1972 -75 
Q 1516 -75 1102 131 
Q 688 338 472 736 
Q 256 1134 256 1706 
z
M 1156 1659 
Q 1156 1166 1390 903 
Q 1625 641 1969 641 
Q 2313 641 2545 903 
Q 2778 1166 2778 1666 
Q 2778 2153 2545 2415 
Q 2313 2678 1969 2678 
Q 1625 2678 1390 2415 
Q 1156 2153 1156 1659 
z
" transform="scale(0.015625)"/>
      <path id="Arial-BoldMT-6c" d="M 459 0 
L 459 4581 
L 1338 4581 
L 1338 0 
L 459 0 
z
" transform="scale(0.015625)"/>
      <path id="Arial-BoldMT-76" d="M 1372 0 
L 34 3319 
L 956 3319 
L 1581 1625 
L 1763 1059 
Q 1834 1275 1853 1344 
Q 1897 1484 1947 1625 
L 2578 3319 
L 3481 3319 
L 2163 0 
L 1372 0 
z
" transform="scale(0.015625)"/>
      <path id="Arial-BoldMT-65" d="M 2381 1056 
L 3256 909 
Q 3088 428 2723 176 
Q 2359 -75 1813 -75 
Q 947 -75 531 491 
Q 203 944 203 1634 
Q 203 2459 634 2926 
Q 1066 3394 1725 3394 
Q 2466 3394 2894 2905 
Q 3322 2416 3303 1406 
L 1103 1406 
Q 1113 1016 1316 798 
Q 1519 581 1822 581 
Q 2028 581 2168 693 
Q 2309 806 2381 1056 
z
M 2431 1944 
Q 2422 2325 2234 2523 
Q 2047 2722 1778 2722 
Q 1491 2722 1303 2513 
Q 1116 2303 1119 1944 
L 2431 1944 
z
" transform="scale(0.015625)"/>
      <path id="Arial-BoldMT-20" transform="scale(0.015625)"/>
      <path id="Arial-BoldMT-46" d="M 472 0 
L 472 4581 
L 3613 4581 
L 3613 3806 
L 1397 3806 
L 1397 2722 
L 3309 2722 
L 3309 1947 
L 1397 1947 
L 1397 0 
L 472 0 
z
" transform="scale(0.015625)"/>
      <path id="Arial-BoldMT-31" d="M 2519 0 
L 1641 0 
L 1641 3309 
Q 1159 2859 506 2644 
L 506 3441 
Q 850 3553 1253 3867 
Q 1656 4181 1806 4600 
L 2519 4600 
L 2519 0 
z
" transform="scale(0.015625)"/>
      <path id="Arial-BoldMT-41" d="M 4597 0 
L 3591 0 
L 3191 1041 
L 1359 1041 
L 981 0 
L 0 0 
L 1784 4581 
L 2763 4581 
L 4597 0 
z
M 2894 1813 
L 2263 3513 
L 1644 1813 
L 2894 1813 
z
" transform="scale(0.015625)"/>
      <path id="Arial-BoldMT-77" d="M 1078 0 
L 28 3319 
L 881 3319 
L 1503 1144 
L 2075 3319 
L 2922 3319 
L 3475 1144 
L 4109 3319 
L 4975 3319 
L 3909 0 
L 3066 0 
L 2494 2134 
L 1931 0 
L 1078 0 
z
" transform="scale(0.015625)"/>
      <path id="Arial-BoldMT-50" d="M 466 0 
L 466 4581 
L 1950 4581 
Q 2794 4581 3050 4513 
Q 3444 4409 3709 4064 
Q 3975 3719 3975 3172 
Q 3975 2750 3822 2462 
Q 3669 2175 3433 2011 
Q 3197 1847 2953 1794 
Q 2622 1728 1994 1728 
L 1391 1728 
L 1391 0 
L 466 0 
z
M 1391 3806 
L 1391 2506 
L 1897 2506 
Q 2444 2506 2628 2578 
Q 2813 2650 2917 2803 
Q 3022 2956 3022 3159 
Q 3022 3409 2875 3571 
Q 2728 3734 2503 3775 
Q 2338 3806 1838 3806 
L 1391 3806 
z
" transform="scale(0.015625)"/>
      <path id="Arial-BoldMT-72" d="M 1300 0 
L 422 0 
L 422 3319 
L 1238 3319 
L 1238 2847 
Q 1447 3181 1614 3287 
Q 1781 3394 1994 3394 
Q 2294 3394 2572 3228 
L 2300 2463 
Q 2078 2606 1888 2606 
Q 1703 2606 1575 2504 
Q 1447 2403 1373 2137 
Q 1300 1872 1300 1025 
L 1300 0 
z
" transform="scale(0.015625)"/>
      <path id="Arial-BoldMT-70" d="M 434 3319 
L 1253 3319 
L 1253 2831 
Q 1413 3081 1684 3237 
Q 1956 3394 2288 3394 
Q 2866 3394 3269 2941 
Q 3672 2488 3672 1678 
Q 3672 847 3265 386 
Q 2859 -75 2281 -75 
Q 2006 -75 1782 34 
Q 1559 144 1313 409 
L 1313 -1263 
L 434 -1263 
L 434 3319 
z
M 1303 1716 
Q 1303 1156 1525 889 
Q 1747 622 2066 622 
Q 2372 622 2575 867 
Q 2778 1113 2778 1672 
Q 2778 2194 2568 2447 
Q 2359 2700 2050 2700 
Q 1728 2700 1515 2451 
Q 1303 2203 1303 1716 
z
" transform="scale(0.015625)"/>
      <path id="Arial-BoldMT-74" d="M 1981 3319 
L 1981 2619 
L 1381 2619 
L 1381 1281 
Q 1381 875 1398 808 
Q 1416 741 1477 697 
Q 1538 653 1625 653 
Q 1747 653 1978 738 
L 2053 56 
Q 1747 -75 1359 -75 
Q 1122 -75 931 4 
Q 741 84 652 211 
Q 563 338 528 553 
Q 500 706 500 1172 
L 500 2619 
L 97 2619 
L 97 3319 
L 500 3319 
L 500 3978 
L 1381 4491 
L 1381 3319 
L 1981 3319 
z
" transform="scale(0.015625)"/>
      <path id="Arial-BoldMT-79" d="M 44 3319 
L 978 3319 
L 1772 963 
L 2547 3319 
L 3456 3319 
L 2284 125 
L 2075 -453 
Q 1959 -744 1854 -897 
Q 1750 -1050 1614 -1145 
Q 1478 -1241 1279 -1294 
Q 1081 -1347 831 -1347 
Q 578 -1347 334 -1294 
L 256 -606 
Q 463 -647 628 -647 
Q 934 -647 1081 -467 
Q 1228 -288 1306 -9 
L 44 3319 
z
" transform="scale(0.015625)"/>
      <path id="Arial-BoldMT-43" d="M 3397 1684 
L 4294 1400 
Q 4088 650 3608 286 
Q 3128 -78 2391 -78 
Q 1478 -78 890 545 
Q 303 1169 303 2250 
Q 303 3394 893 4026 
Q 1484 4659 2447 4659 
Q 3288 4659 3813 4163 
Q 4125 3869 4281 3319 
L 3366 3100 
Q 3284 3456 3026 3662 
Q 2769 3869 2400 3869 
Q 1891 3869 1573 3503 
Q 1256 3138 1256 2319 
Q 1256 1450 1568 1081 
Q 1881 713 2381 713 
Q 2750 713 3015 947 
Q 3281 1181 3397 1684 
z
" transform="scale(0.015625)"/>
      <path id="Arial-BoldMT-68" d="M 1334 4581 
L 1334 2897 
Q 1759 3394 2350 3394 
Q 2653 3394 2897 3281 
Q 3141 3169 3264 2994 
Q 3388 2819 3433 2606 
Q 3478 2394 3478 1947 
L 3478 0 
L 2600 0 
L 2600 1753 
Q 2600 2275 2550 2415 
Q 2500 2556 2373 2639 
Q 2247 2722 2056 2722 
Q 1838 2722 1666 2615 
Q 1494 2509 1414 2295 
Q 1334 2081 1334 1663 
L 1334 0 
L 456 0 
L 456 4581 
L 1334 4581 
z
" transform="scale(0.015625)"/>
      <path id="Arial-BoldMT-61" d="M 1116 2306 
L 319 2450 
Q 453 2931 781 3162 
Q 1109 3394 1756 3394 
Q 2344 3394 2631 3255 
Q 2919 3116 3036 2902 
Q 3153 2688 3153 2116 
L 3144 1091 
Q 3144 653 3186 445 
Q 3228 238 3344 0 
L 2475 0 
Q 2441 88 2391 259 
Q 2369 338 2359 363 
Q 2134 144 1878 34 
Q 1622 -75 1331 -75 
Q 819 -75 523 203 
Q 228 481 228 906 
Q 228 1188 362 1408 
Q 497 1628 739 1745 
Q 981 1863 1438 1950 
Q 2053 2066 2291 2166 
L 2291 2253 
Q 2291 2506 2166 2614 
Q 2041 2722 1694 2722 
Q 1459 2722 1328 2630 
Q 1197 2538 1116 2306 
z
M 2291 1594 
Q 2122 1538 1756 1459 
Q 1391 1381 1278 1306 
Q 1106 1184 1106 997 
Q 1106 813 1243 678 
Q 1381 544 1594 544 
Q 1831 544 2047 700 
Q 2206 819 2256 991 
Q 2291 1103 2291 1419 
L 2291 1594 
z
" transform="scale(0.015625)"/>
      <path id="Arial-BoldMT-6e" d="M 3478 0 
L 2600 0 
L 2600 1694 
Q 2600 2231 2544 2389 
Q 2488 2547 2361 2634 
Q 2234 2722 2056 2722 
Q 1828 2722 1647 2597 
Q 1466 2472 1398 2265 
Q 1331 2059 1331 1503 
L 1331 0 
L 453 0 
L 453 3319 
L 1269 3319 
L 1269 2831 
Q 1703 3394 2363 3394 
Q 2653 3394 2893 3289 
Q 3134 3184 3257 3021 
Q 3381 2859 3429 2653 
Q 3478 2447 3478 2063 
L 3478 0 
z
" transform="scale(0.015625)"/>
      <path id="Arial-BoldMT-67" d="M 378 -219 
L 1381 -341 
Q 1406 -516 1497 -581 
Q 1622 -675 1891 -675 
Q 2234 -675 2406 -572 
Q 2522 -503 2581 -350 
Q 2622 -241 2622 53 
L 2622 538 
Q 2228 0 1628 0 
Q 959 0 569 566 
Q 263 1013 263 1678 
Q 263 2513 664 2953 
Q 1066 3394 1663 3394 
Q 2278 3394 2678 2853 
L 2678 3319 
L 3500 3319 
L 3500 341 
Q 3500 -247 3403 -537 
Q 3306 -828 3131 -993 
Q 2956 -1159 2664 -1253 
Q 2372 -1347 1925 -1347 
Q 1081 -1347 728 -1058 
Q 375 -769 375 -325 
Q 375 -281 378 -219 
z
M 1163 1728 
Q 1163 1200 1367 954 
Q 1572 709 1872 709 
Q 2194 709 2416 961 
Q 2638 1213 2638 1706 
Q 2638 2222 2425 2472 
Q 2213 2722 1888 2722 
Q 1572 2722 1367 2476 
Q 1163 2231 1163 1728 
z
" transform="scale(0.015625)"/>
      <path id="Arial-BoldMT-63" d="M 3353 2338 
L 2488 2181 
Q 2444 2441 2289 2572 
Q 2134 2703 1888 2703 
Q 1559 2703 1364 2476 
Q 1169 2250 1169 1719 
Q 1169 1128 1367 884 
Q 1566 641 1900 641 
Q 2150 641 2309 783 
Q 2469 925 2534 1272 
L 3397 1125 
Q 3263 531 2881 228 
Q 2500 -75 1859 -75 
Q 1131 -75 698 384 
Q 266 844 266 1656 
Q 266 2478 700 2936 
Q 1134 3394 1875 3394 
Q 2481 3394 2839 3133 
Q 3197 2872 3353 2338 
z
" transform="scale(0.015625)"/>
      <path id="Arial-BoldMT-73" d="M 150 947 
L 1031 1081 
Q 1088 825 1259 692 
Q 1431 559 1741 559 
Q 2081 559 2253 684 
Q 2369 772 2369 919 
Q 2369 1019 2306 1084 
Q 2241 1147 2013 1200 
Q 950 1434 666 1628 
Q 272 1897 272 2375 
Q 272 2806 612 3100 
Q 953 3394 1669 3394 
Q 2350 3394 2681 3172 
Q 3013 2950 3138 2516 
L 2309 2363 
Q 2256 2556 2107 2659 
Q 1959 2763 1684 2763 
Q 1338 2763 1188 2666 
Q 1088 2597 1088 2488 
Q 1088 2394 1175 2328 
Q 1294 2241 1995 2081 
Q 2697 1922 2975 1691 
Q 3250 1456 3250 1038 
Q 3250 581 2869 253 
Q 2488 -75 1741 -75 
Q 1063 -75 667 200 
Q 272 475 150 947 
z
" transform="scale(0.015625)"/>
      <path id="Arial-BoldMT-66" d="M 75 3319 
L 563 3319 
L 563 3569 
Q 563 3988 652 4194 
Q 741 4400 980 4529 
Q 1219 4659 1584 4659 
Q 1959 4659 2319 4547 
L 2200 3934 
Q 1991 3984 1797 3984 
Q 1606 3984 1523 3895 
Q 1441 3806 1441 3553 
L 1441 3319 
L 2097 3319 
L 2097 2628 
L 1441 2628 
L 1441 0 
L 563 0 
L 563 2628 
L 75 2628 
L 75 3319 
z
" transform="scale(0.015625)"/>
      <path id="Arial-BoldMT-52" d="M 469 0 
L 469 4581 
L 2416 4581 
Q 3150 4581 3483 4457 
Q 3816 4334 4016 4018 
Q 4216 3703 4216 3297 
Q 4216 2781 3912 2445 
Q 3609 2109 3006 2022 
Q 3306 1847 3501 1637 
Q 3697 1428 4028 894 
L 4588 0 
L 3481 0 
L 2813 997 
Q 2456 1531 2325 1670 
Q 2194 1809 2047 1861 
Q 1900 1913 1581 1913 
L 1394 1913 
L 1394 0 
L 469 0 
z
M 1394 2644 
L 2078 2644 
Q 2744 2644 2909 2700 
Q 3075 2756 3169 2893 
Q 3263 3031 3263 3238 
Q 3263 3469 3139 3611 
Q 3016 3753 2791 3791 
Q 2678 3806 2116 3806 
L 1394 3806 
L 1394 2644 
z
" transform="scale(0.015625)"/>
      <path id="Arial-BoldMT-48" d="M 469 0 
L 469 4581 
L 1394 4581 
L 1394 2778 
L 3206 2778 
L 3206 4581 
L 4131 4581 
L 4131 0 
L 3206 0 
L 3206 2003 
L 1394 2003 
L 1394 0 
L 469 0 
z
" transform="scale(0.015625)"/>
      <path id="Arial-BoldMT-4f" d="M 278 2263 
Q 278 2963 488 3438 
Q 644 3788 914 4066 
Q 1184 4344 1506 4478 
Q 1934 4659 2494 4659 
Q 3506 4659 4114 4031 
Q 4722 3403 4722 2284 
Q 4722 1175 4119 548 
Q 3516 -78 2506 -78 
Q 1484 -78 881 545 
Q 278 1169 278 2263 
z
M 1231 2294 
Q 1231 1516 1590 1114 
Q 1950 713 2503 713 
Q 3056 713 3411 1111 
Q 3766 1509 3766 2306 
Q 3766 3094 3420 3481 
Q 3075 3869 2503 3869 
Q 1931 3869 1581 3476 
Q 1231 3084 1231 2294 
z
" transform="scale(0.015625)"/>
      <path id="Arial-BoldMT-42" d="M 469 4581 
L 2300 4581 
Q 2844 4581 3111 4536 
Q 3378 4491 3589 4347 
Q 3800 4203 3940 3964 
Q 4081 3725 4081 3428 
Q 4081 3106 3907 2837 
Q 3734 2569 3438 2434 
Q 3856 2313 4081 2019 
Q 4306 1725 4306 1328 
Q 4306 1016 4161 720 
Q 4016 425 3764 248 
Q 3513 72 3144 31 
Q 2913 6 2028 0 
L 469 0 
L 469 4581 
z
M 1394 3819 
L 1394 2759 
L 2000 2759 
Q 2541 2759 2672 2775 
Q 2909 2803 3045 2939 
Q 3181 3075 3181 3297 
Q 3181 3509 3064 3642 
Q 2947 3775 2716 3803 
Q 2578 3819 1925 3819 
L 1394 3819 
z
M 1394 1997 
L 1394 772 
L 2250 772 
Q 2750 772 2884 800 
Q 3091 838 3220 983 
Q 3350 1128 3350 1372 
Q 3350 1578 3250 1722 
Q 3150 1866 2961 1931 
Q 2772 1997 2141 1997 
L 1394 1997 
z
" transform="scale(0.015625)"/>
      <path id="Arial-BoldMT-2c" d="M 438 878 
L 1316 878 
L 1316 250 
Q 1316 -131 1250 -351 
Q 1184 -572 1001 -747 
Q 819 -922 538 -1022 
L 366 -659 
Q 631 -572 743 -419 
Q 856 -266 863 0 
L 438 0 
L 438 878 
z
" transform="scale(0.015625)"/>
      <path id="Arial-BoldMT-4e" d="M 475 0 
L 475 4581 
L 1375 4581 
L 3250 1522 
L 3250 4581 
L 4109 4581 
L 4109 0 
L 3181 0 
L 1334 2988 
L 1334 0 
L 475 0 
z
" transform="scale(0.015625)"/>
      <path id="Arial-BoldMT-49" d="M 438 0 
L 438 4581 
L 1363 4581 
L 1363 0 
L 438 0 
z
" transform="scale(0.015625)"/>
      <path id="Arial-BoldMT-47" d="M 2597 1684 
L 2597 2456 
L 4591 2456 
L 4591 631 
Q 4300 350 3748 136 
Q 3197 -78 2631 -78 
Q 1913 -78 1378 223 
Q 844 525 575 1086 
Q 306 1647 306 2306 
Q 306 3022 606 3578 
Q 906 4134 1484 4431 
Q 1925 4659 2581 4659 
Q 3434 4659 3914 4301 
Q 4394 3944 4531 3313 
L 3613 3141 
Q 3516 3478 3248 3673 
Q 2981 3869 2581 3869 
Q 1975 3869 1617 3484 
Q 1259 3100 1259 2344 
Q 1259 1528 1621 1120 
Q 1984 713 2572 713 
Q 2863 713 3155 827 
Q 3447 941 3656 1103 
L 3656 1684 
L 2597 1684 
z
" transform="scale(0.015625)"/>
      <path id="Arial-BoldMT-69" d="M 459 3769 
L 459 4581 
L 1338 4581 
L 1338 3769 
L 459 3769 
z
M 459 0 
L 459 3319 
L 1338 3319 
L 1338 0 
L 459 0 
z
" transform="scale(0.015625)"/>
      <path id="Arial-BoldMT-6d" d="M 394 3319 
L 1203 3319 
L 1203 2866 
Q 1638 3394 2238 3394 
Q 2556 3394 2790 3262 
Q 3025 3131 3175 2866 
Q 3394 3131 3647 3262 
Q 3900 3394 4188 3394 
Q 4553 3394 4806 3245 
Q 5059 3097 5184 2809 
Q 5275 2597 5275 2122 
L 5275 0 
L 4397 0 
L 4397 1897 
Q 4397 2391 4306 2534 
Q 4184 2722 3931 2722 
Q 3747 2722 3584 2609 
Q 3422 2497 3350 2280 
Q 3278 2063 3278 1594 
L 3278 0 
L 2400 0 
L 2400 1819 
Q 2400 2303 2353 2443 
Q 2306 2584 2207 2653 
Q 2109 2722 1941 2722 
Q 1738 2722 1575 2612 
Q 1413 2503 1342 2297 
Q 1272 2091 1272 1613 
L 1272 0 
L 394 0 
L 394 3319 
z
" transform="scale(0.015625)"/>
      <path id="Arial-BoldMT-62" d="M 422 0 
L 422 4581 
L 1300 4581 
L 1300 2931 
Q 1706 3394 2263 3394 
Q 2869 3394 3266 2955 
Q 3663 2516 3663 1694 
Q 3663 844 3258 384 
Q 2853 -75 2275 -75 
Q 1991 -75 1714 67 
Q 1438 209 1238 488 
L 1238 0 
L 422 0 
z
M 1294 1731 
Q 1294 1216 1456 969 
Q 1684 619 2063 619 
Q 2353 619 2558 867 
Q 2763 1116 2763 1650 
Q 2763 2219 2556 2470 
Q 2350 2722 2028 2722 
Q 1713 2722 1503 2476 
Q 1294 2231 1294 1731 
z
" transform="scale(0.015625)"/>
     </defs>
     <use xlink:href="#Arial-BoldMT-56"/>
     <use xlink:href="#Arial-BoldMT-6f" x="59.324219"/>
     <use xlink:href="#Arial-BoldMT-6c" x="120.408203"/>
     <use xlink:href="#Arial-BoldMT-76" x="148.191406"/>
     <use xlink:href="#Arial-BoldMT-65" x="203.806641"/>
     <use xlink:href="#Arial-BoldMT-20" x="259.421875"/>
     <use xlink:href="#Arial-BoldMT-46" x="287.205078"/>
     <use xlink:href="#Arial-BoldMT-31" x="348.289062"/>
     <use xlink:href="#Arial-BoldMT-31" x="398.404297"/>
     <use xlink:href="#Arial-BoldMT-41" x="454.019531"/>
     <use xlink:href="#Arial-BoldMT-20" x="522.486328"/>
     <use xlink:href="#Arial-BoldMT-77" x="550.269531"/>
     <use xlink:href="#Arial-BoldMT-65" x="628.052734"/>
     <use xlink:href="#Arial-BoldMT-6c" x="683.667969"/>
     <use xlink:href="#Arial-BoldMT-6c" x="711.451172"/>
     <use xlink:href="#Arial-BoldMT-20" x="739.234375"/>
     <use xlink:href="#Arial-BoldMT-50" x="767.017578"/>
     <use xlink:href="#Arial-BoldMT-72" x="833.716797"/>
     <use xlink:href="#Arial-BoldMT-6f" x="872.632812"/>
     <use xlink:href="#Arial-BoldMT-70" x="933.716797"/>
     <use xlink:href="#Arial-BoldMT-65" x="994.800781"/>
     <use xlink:href="#Arial-BoldMT-72" x="1050.416016"/>
     <use xlink:href="#Arial-BoldMT-74" x="1089.332031"/>
     <use xlink:href="#Arial-BoldMT-79" x="1122.632812"/>
     <use xlink:href="#Arial-BoldMT-20" x="1178.248047"/>
     <use xlink:href="#Arial-BoldMT-43" x="1206.03125"/>
     <use xlink:href="#Arial-BoldMT-68" x="1278.248047"/>
     <use xlink:href="#Arial-BoldMT-61" x="1339.332031"/>
     <use xlink:href="#Arial-BoldMT-6e" x="1394.947266"/>
     <use xlink:href="#Arial-BoldMT-67" x="1456.03125"/>
     <use xlink:href="#Arial-BoldMT-65" x="1517.115234"/>
     <use xlink:href="#Arial-BoldMT-20" x="1572.730469"/>
     <use xlink:href="#Arial-BoldMT-46" x="1600.513672"/>
     <use xlink:href="#Arial-BoldMT-6f" x="1661.597656"/>
     <use xlink:href="#Arial-BoldMT-72" x="1722.681641"/>
     <use xlink:href="#Arial-BoldMT-65" x="1761.597656"/>
     <use xlink:href="#Arial-BoldMT-63" x="1817.212891"/>
     <use xlink:href="#Arial-BoldMT-61" x="1872.828125"/>
     <use xlink:href="#Arial-BoldMT-73" x="1928.443359"/>
     <use xlink:href="#Arial-BoldMT-74" x="1984.058594"/>
     <use xlink:href="#Arial-BoldMT-20" x="2017.359375"/>
     <use xlink:href="#Arial-BoldMT-66" x="2045.142578"/>
     <use xlink:href="#Arial-BoldMT-6f" x="2078.443359"/>
     <use xlink:href="#Arial-BoldMT-72" x="2139.527344"/>
     <use xlink:href="#Arial-BoldMT-20" x="2178.443359"/>
     <use xlink:href="#Arial-BoldMT-52" x="2206.226562"/>
     <use xlink:href="#Arial-BoldMT-48" x="2278.443359"/>
     <use xlink:href="#Arial-BoldMT-4f" x="2350.660156"/>
     <use xlink:href="#Arial-BoldMT-42" x="2428.443359"/>
     <use xlink:href="#Arial-BoldMT-2c" x="2500.660156"/>
     <use xlink:href="#Arial-BoldMT-20" x="2528.443359"/>
     <use xlink:href="#Arial-BoldMT-4e" x="2556.226562"/>
     <use xlink:href="#Arial-BoldMT-50" x="2628.443359"/>
     <use xlink:href="#Arial-BoldMT-48" x="2695.142578"/>
     <use xlink:href="#Arial-BoldMT-49" x="2767.359375"/>
     <use xlink:href="#Arial-BoldMT-2c" x="2795.142578"/>
     <use xlink:href="#Arial-BoldMT-20" x="2822.925781"/>
     <use xlink:href="#Arial-BoldMT-47" x="2850.708984"/>
     <use xlink:href="#Arial-BoldMT-52" x="2928.492188"/>
     <use xlink:href="#Arial-BoldMT-2c" x="3000.708984"/>
     <use xlink:href="#Arial-BoldMT-20" x="3028.492188"/>
     <use xlink:href="#Arial-BoldMT-74" x="3056.275391"/>
     <use xlink:href="#Arial-BoldMT-68" x="3089.576172"/>
     <use xlink:href="#Arial-BoldMT-65" x="3150.660156"/>
     <use xlink:href="#Arial-BoldMT-69" x="3206.275391"/>
     <use xlink:href="#Arial-BoldMT-72" x="3234.058594"/>
     <use xlink:href="#Arial-BoldMT-20" x="3272.974609"/>
     <use xlink:href="#Arial-BoldMT-63" x="3300.757812"/>
     <use xlink:href="#Arial-BoldMT-6f" x="3356.373047"/>
     <use xlink:href="#Arial-BoldMT-6d" x="3417.457031"/>
     <use xlink:href="#Arial-BoldMT-62" x="3506.373047"/>
     <use xlink:href="#Arial-BoldMT-69" x="3567.457031"/>
     <use xlink:href="#Arial-BoldMT-6e" x="3595.240234"/>
     <use xlink:href="#Arial-BoldMT-61" x="3656.324219"/>
     <use xlink:href="#Arial-BoldMT-74" x="3711.939453"/>
     <use xlink:href="#Arial-BoldMT-69" x="3745.240234"/>
     <use xlink:href="#Arial-BoldMT-6f" x="3773.023438"/>
     <use xlink:href="#Arial-BoldMT-6e" x="3834.107422"/>
    </g>
   </g>
   <g id="legend_1">
    <g id="text_12">
     <!-- Probability of Change Point: -->
     <g style="fill: #262626" transform="translate(993.982 127.114125) scale(0.144 -0.144)">
      <defs>
       <path id="ArialMT-3a" d="M 578 2678 
L 578 3319 
L 1219 3319 
L 1219 2678 
L 578 2678 
z
M 578 0 
L 578 641 
L 1219 641 
L 1219 0 
L 578 0 
z
" transform="scale(0.015625)"/>
      </defs>
      <use xlink:href="#ArialMT-50"/>
      <use xlink:href="#ArialMT-72" x="66.699219"/>
      <use xlink:href="#ArialMT-6f" x="100"/>
      <use xlink:href="#ArialMT-62" x="155.615234"/>
      <use xlink:href="#ArialMT-61" x="211.230469"/>
      <use xlink:href="#ArialMT-62" x="266.845703"/>
      <use xlink:href="#ArialMT-69" x="322.460938"/>
      <use xlink:href="#ArialMT-6c" x="344.677734"/>
      <use xlink:href="#ArialMT-69" x="366.894531"/>
      <use xlink:href="#ArialMT-74" x="389.111328"/>
      <use xlink:href="#ArialMT-79" x="416.894531"/>
      <use xlink:href="#ArialMT-20" x="466.894531"/>
      <use xlink:href="#ArialMT-6f" x="494.677734"/>
      <use xlink:href="#ArialMT-66" x="550.292969"/>
      <use xlink:href="#ArialMT-20" x="578.076172"/>
      <use xlink:href="#ArialMT-43" x="605.859375"/>
      <use xlink:href="#ArialMT-68" x="678.076172"/>
      <use xlink:href="#ArialMT-61" x="733.691406"/>
      <use xlink:href="#ArialMT-6e" x="789.306641"/>
      <use xlink:href="#ArialMT-67" x="844.921875"/>
      <use xlink:href="#ArialMT-65" x="900.537109"/>
      <use xlink:href="#ArialMT-20" x="956.152344"/>
      <use xlink:href="#ArialMT-50" x="983.935547"/>
      <use xlink:href="#ArialMT-6f" x="1050.634766"/>
      <use xlink:href="#ArialMT-69" x="1106.25"/>
      <use xlink:href="#ArialMT-6e" x="1128.466797"/>
      <use xlink:href="#ArialMT-74" x="1184.082031"/>
      <use xlink:href="#ArialMT-3a" x="1211.865234"/>
     </g>
    </g>
    <g id="line2d_17">
     <path d="M 1002.524125 140.53425 
L 1014.524125 140.53425 
L 1026.524125 140.53425 
" style="fill: none; stroke: #000000; stroke-opacity: 0.46; stroke-linecap: round"/>
    </g>
    <g id="text_13">
     <!-- Combined Predictions -->
     <g style="fill: #262626" transform="translate(1036.124125 144.73425) scale(0.12 -0.12)">
      <use xlink:href="#ArialMT-43"/>
      <use xlink:href="#ArialMT-6f" x="72.216797"/>
      <use xlink:href="#ArialMT-6d" x="127.832031"/>
      <use xlink:href="#ArialMT-62" x="211.132812"/>
      <use xlink:href="#ArialMT-69" x="266.748047"/>
      <use xlink:href="#ArialMT-6e" x="288.964844"/>
      <use xlink:href="#ArialMT-65" x="344.580078"/>
      <use xlink:href="#ArialMT-64" x="400.195312"/>
      <use xlink:href="#ArialMT-20" x="455.810547"/>
      <use xlink:href="#ArialMT-50" x="483.59375"/>
      <use xlink:href="#ArialMT-72" x="550.292969"/>
      <use xlink:href="#ArialMT-65" x="583.59375"/>
      <use xlink:href="#ArialMT-64" x="639.208984"/>
      <use xlink:href="#ArialMT-69" x="694.824219"/>
      <use xlink:href="#ArialMT-63" x="717.041016"/>
      <use xlink:href="#ArialMT-74" x="767.041016"/>
      <use xlink:href="#ArialMT-69" x="794.824219"/>
      <use xlink:href="#ArialMT-6f" x="817.041016"/>
      <use xlink:href="#ArialMT-6e" x="872.65625"/>
      <use xlink:href="#ArialMT-73" x="928.271484"/>
     </g>
    </g>
    <g id="line2d_18">
     <path d="M 1002.524125 157.508625 
L 1014.524125 157.508625 
L 1026.524125 157.508625 
" style="fill: none; stroke: #800080; stroke-opacity: 0.66; stroke-linecap: round"/>
    </g>
    <g id="text_14">
     <!-- NPHI Predictions -->
     <g style="fill: #262626" transform="translate(1036.124125 161.708625) scale(0.12 -0.12)">
      <defs>
       <path id="ArialMT-4e" d="M 488 0 
L 488 4581 
L 1109 4581 
L 3516 984 
L 3516 4581 
L 4097 4581 
L 4097 0 
L 3475 0 
L 1069 3600 
L 1069 0 
L 488 0 
z
" transform="scale(0.015625)"/>
       <path id="ArialMT-48" d="M 513 0 
L 513 4581 
L 1119 4581 
L 1119 2700 
L 3500 2700 
L 3500 4581 
L 4106 4581 
L 4106 0 
L 3500 0 
L 3500 2159 
L 1119 2159 
L 1119 0 
L 513 0 
z
" transform="scale(0.015625)"/>
       <path id="ArialMT-49" d="M 597 0 
L 597 4581 
L 1203 4581 
L 1203 0 
L 597 0 
z
" transform="scale(0.015625)"/>
      </defs>
      <use xlink:href="#ArialMT-4e"/>
      <use xlink:href="#ArialMT-50" x="72.216797"/>
      <use xlink:href="#ArialMT-48" x="138.916016"/>
      <use xlink:href="#ArialMT-49" x="211.132812"/>
      <use xlink:href="#ArialMT-20" x="238.916016"/>
      <use xlink:href="#ArialMT-50" x="266.699219"/>
      <use xlink:href="#ArialMT-72" x="333.398438"/>
      <use xlink:href="#ArialMT-65" x="366.699219"/>
      <use xlink:href="#ArialMT-64" x="422.314453"/>
      <use xlink:href="#ArialMT-69" x="477.929688"/>
      <use xlink:href="#ArialMT-63" x="500.146484"/>
      <use xlink:href="#ArialMT-74" x="550.146484"/>
      <use xlink:href="#ArialMT-69" x="577.929688"/>
      <use xlink:href="#ArialMT-6f" x="600.146484"/>
      <use xlink:href="#ArialMT-6e" x="655.761719"/>
      <use xlink:href="#ArialMT-73" x="711.376953"/>
     </g>
    </g>
    <g id="line2d_19">
     <path d="M 1002.524125 174.483 
L 1014.524125 174.483 
L 1026.524125 174.483 
" style="fill: none; stroke: #008000; stroke-opacity: 0.66; stroke-linecap: round"/>
    </g>
    <g id="text_15">
     <!-- RHOB Predictions -->
     <g style="fill: #262626" transform="translate(1036.124125 178.683) scale(0.12 -0.12)">
      <defs>
       <path id="ArialMT-52" d="M 503 0 
L 503 4581 
L 2534 4581 
Q 3147 4581 3465 4457 
Q 3784 4334 3975 4021 
Q 4166 3709 4166 3331 
Q 4166 2844 3850 2509 
Q 3534 2175 2875 2084 
Q 3116 1969 3241 1856 
Q 3506 1613 3744 1247 
L 4541 0 
L 3778 0 
L 3172 953 
Q 2906 1366 2734 1584 
Q 2563 1803 2427 1890 
Q 2291 1978 2150 2013 
Q 2047 2034 1813 2034 
L 1109 2034 
L 1109 0 
L 503 0 
z
M 1109 2559 
L 2413 2559 
Q 2828 2559 3062 2645 
Q 3297 2731 3419 2920 
Q 3541 3109 3541 3331 
Q 3541 3656 3305 3865 
Q 3069 4075 2559 4075 
L 1109 4075 
L 1109 2559 
z
" transform="scale(0.015625)"/>
       <path id="ArialMT-4f" d="M 309 2231 
Q 309 3372 921 4017 
Q 1534 4663 2503 4663 
Q 3138 4663 3647 4359 
Q 4156 4056 4423 3514 
Q 4691 2972 4691 2284 
Q 4691 1588 4409 1038 
Q 4128 488 3612 205 
Q 3097 -78 2500 -78 
Q 1853 -78 1343 234 
Q 834 547 571 1087 
Q 309 1628 309 2231 
z
M 934 2222 
Q 934 1394 1379 917 
Q 1825 441 2497 441 
Q 3181 441 3623 922 
Q 4066 1403 4066 2288 
Q 4066 2847 3877 3264 
Q 3688 3681 3323 3911 
Q 2959 4141 2506 4141 
Q 1863 4141 1398 3698 
Q 934 3256 934 2222 
z
" transform="scale(0.015625)"/>
       <path id="ArialMT-42" d="M 469 0 
L 469 4581 
L 2188 4581 
Q 2713 4581 3030 4442 
Q 3347 4303 3526 4014 
Q 3706 3725 3706 3409 
Q 3706 3116 3547 2856 
Q 3388 2597 3066 2438 
Q 3481 2316 3704 2022 
Q 3928 1728 3928 1328 
Q 3928 1006 3792 729 
Q 3656 453 3456 303 
Q 3256 153 2954 76 
Q 2653 0 2216 0 
L 469 0 
z
M 1075 2656 
L 2066 2656 
Q 2469 2656 2644 2709 
Q 2875 2778 2992 2937 
Q 3109 3097 3109 3338 
Q 3109 3566 3000 3739 
Q 2891 3913 2687 3977 
Q 2484 4041 1991 4041 
L 1075 4041 
L 1075 2656 
z
M 1075 541 
L 2216 541 
Q 2509 541 2628 563 
Q 2838 600 2978 687 
Q 3119 775 3209 942 
Q 3300 1109 3300 1328 
Q 3300 1584 3169 1773 
Q 3038 1963 2805 2039 
Q 2572 2116 2134 2116 
L 1075 2116 
L 1075 541 
z
" transform="scale(0.015625)"/>
      </defs>
      <use xlink:href="#ArialMT-52"/>
      <use xlink:href="#ArialMT-48" x="72.216797"/>
      <use xlink:href="#ArialMT-4f" x="144.433594"/>
      <use xlink:href="#ArialMT-42" x="222.216797"/>
      <use xlink:href="#ArialMT-20" x="288.916016"/>
      <use xlink:href="#ArialMT-50" x="316.699219"/>
      <use xlink:href="#ArialMT-72" x="383.398438"/>
      <use xlink:href="#ArialMT-65" x="416.699219"/>
      <use xlink:href="#ArialMT-64" x="472.314453"/>
      <use xlink:href="#ArialMT-69" x="527.929688"/>
      <use xlink:href="#ArialMT-63" x="550.146484"/>
      <use xlink:href="#ArialMT-74" x="600.146484"/>
      <use xlink:href="#ArialMT-69" x="627.929688"/>
      <use xlink:href="#ArialMT-6f" x="650.146484"/>
      <use xlink:href="#ArialMT-6e" x="705.761719"/>
      <use xlink:href="#ArialMT-73" x="761.376953"/>
     </g>
    </g>
    <g id="line2d_20">
     <path d="M 1002.524125 191.457375 
L 1014.524125 191.457375 
L 1026.524125 191.457375 
" style="fill: none; stroke: #ffa500; stroke-opacity: 0.66; stroke-linecap: round"/>
    </g>
    <g id="text_16">
     <!-- GR Predictions -->
     <g style="fill: #262626" transform="translate(1036.124125 195.657375) scale(0.12 -0.12)">
      <defs>
       <path id="ArialMT-47" d="M 2638 1797 
L 2638 2334 
L 4578 2338 
L 4578 638 
Q 4131 281 3656 101 
Q 3181 -78 2681 -78 
Q 2006 -78 1454 211 
Q 903 500 622 1047 
Q 341 1594 341 2269 
Q 341 2938 620 3517 
Q 900 4097 1425 4378 
Q 1950 4659 2634 4659 
Q 3131 4659 3532 4498 
Q 3934 4338 4162 4050 
Q 4391 3763 4509 3300 
L 3963 3150 
Q 3859 3500 3706 3700 
Q 3553 3900 3268 4020 
Q 2984 4141 2638 4141 
Q 2222 4141 1919 4014 
Q 1616 3888 1430 3681 
Q 1244 3475 1141 3228 
Q 966 2803 966 2306 
Q 966 1694 1177 1281 
Q 1388 869 1791 669 
Q 2194 469 2647 469 
Q 3041 469 3416 620 
Q 3791 772 3984 944 
L 3984 1797 
L 2638 1797 
z
" transform="scale(0.015625)"/>
      </defs>
      <use xlink:href="#ArialMT-47"/>
      <use xlink:href="#ArialMT-52" x="77.783203"/>
      <use xlink:href="#ArialMT-20" x="150"/>
      <use xlink:href="#ArialMT-50" x="177.783203"/>
      <use xlink:href="#ArialMT-72" x="244.482422"/>
      <use xlink:href="#ArialMT-65" x="277.783203"/>
      <use xlink:href="#ArialMT-64" x="333.398438"/>
      <use xlink:href="#ArialMT-69" x="389.013672"/>
      <use xlink:href="#ArialMT-63" x="411.230469"/>
      <use xlink:href="#ArialMT-74" x="461.230469"/>
      <use xlink:href="#ArialMT-69" x="489.013672"/>
      <use xlink:href="#ArialMT-6f" x="511.230469"/>
      <use xlink:href="#ArialMT-6e" x="566.845703"/>
      <use xlink:href="#ArialMT-73" x="622.460938"/>
     </g>
    </g>
    <g id="line2d_21">
     <path d="M 1002.524125 208.578 
L 1014.524125 208.578 
L 1026.524125 208.578 
" style="fill: none; stroke: #0000ff; stroke-opacity: 0.6; stroke-linecap: round"/>
    </g>
    <g id="text_17">
     <!-- From f11A (Comparitee) -->
     <g style="fill: #262626" transform="translate(1036.124125 212.778) scale(0.12 -0.12)">
      <defs>
       <path id="ArialMT-46" d="M 525 0 
L 525 4581 
L 3616 4581 
L 3616 4041 
L 1131 4041 
L 1131 2622 
L 3281 2622 
L 3281 2081 
L 1131 2081 
L 1131 0 
L 525 0 
z
" transform="scale(0.015625)"/>
      </defs>
      <use xlink:href="#ArialMT-46"/>
      <use xlink:href="#ArialMT-72" x="61.083984"/>
      <use xlink:href="#ArialMT-6f" x="94.384766"/>
      <use xlink:href="#ArialMT-6d" x="150"/>
      <use xlink:href="#ArialMT-20" x="233.300781"/>
      <use xlink:href="#ArialMT-66" x="261.083984"/>
      <use xlink:href="#ArialMT-31" x="288.867188"/>
      <use xlink:href="#ArialMT-31" x="337.107422"/>
      <use xlink:href="#ArialMT-41" x="392.722656"/>
      <use xlink:href="#ArialMT-20" x="453.921875"/>
      <use xlink:href="#ArialMT-28" x="481.705078"/>
      <use xlink:href="#ArialMT-43" x="515.005859"/>
      <use xlink:href="#ArialMT-6f" x="587.222656"/>
      <use xlink:href="#ArialMT-6d" x="642.837891"/>
      <use xlink:href="#ArialMT-70" x="726.138672"/>
      <use xlink:href="#ArialMT-61" x="781.753906"/>
      <use xlink:href="#ArialMT-72" x="837.369141"/>
      <use xlink:href="#ArialMT-69" x="870.669922"/>
      <use xlink:href="#ArialMT-74" x="892.886719"/>
      <use xlink:href="#ArialMT-65" x="920.669922"/>
      <use xlink:href="#ArialMT-65" x="976.285156"/>
      <use xlink:href="#ArialMT-29" x="1031.900391"/>
     </g>
    </g>
   </g>
  </g>
  <g id="legend_2">
   <g id="text_18">
    <!-- Probability of Change Point: -->
    <g style="fill: #262626" transform="translate(993.982 127.114125) scale(0.144 -0.144)">
     <use xlink:href="#ArialMT-50"/>
     <use xlink:href="#ArialMT-72" x="66.699219"/>
     <use xlink:href="#ArialMT-6f" x="100"/>
     <use xlink:href="#ArialMT-62" x="155.615234"/>
     <use xlink:href="#ArialMT-61" x="211.230469"/>
     <use xlink:href="#ArialMT-62" x="266.845703"/>
     <use xlink:href="#ArialMT-69" x="322.460938"/>
     <use xlink:href="#ArialMT-6c" x="344.677734"/>
     <use xlink:href="#ArialMT-69" x="366.894531"/>
     <use xlink:href="#ArialMT-74" x="389.111328"/>
     <use xlink:href="#ArialMT-79" x="416.894531"/>
     <use xlink:href="#ArialMT-20" x="466.894531"/>
     <use xlink:href="#ArialMT-6f" x="494.677734"/>
     <use xlink:href="#ArialMT-66" x="550.292969"/>
     <use xlink:href="#ArialMT-20" x="578.076172"/>
     <use xlink:href="#ArialMT-43" x="605.859375"/>
     <use xlink:href="#ArialMT-68" x="678.076172"/>
     <use xlink:href="#ArialMT-61" x="733.691406"/>
     <use xlink:href="#ArialMT-6e" x="789.306641"/>
     <use xlink:href="#ArialMT-67" x="844.921875"/>
     <use xlink:href="#ArialMT-65" x="900.537109"/>
     <use xlink:href="#ArialMT-20" x="956.152344"/>
     <use xlink:href="#ArialMT-50" x="983.935547"/>
     <use xlink:href="#ArialMT-6f" x="1050.634766"/>
     <use xlink:href="#ArialMT-69" x="1106.25"/>
     <use xlink:href="#ArialMT-6e" x="1128.466797"/>
     <use xlink:href="#ArialMT-74" x="1184.082031"/>
     <use xlink:href="#ArialMT-3a" x="1211.865234"/>
    </g>
   </g>
   <g id="line2d_22">
    <path d="M 1002.524125 140.53425 
L 1014.524125 140.53425 
L 1026.524125 140.53425 
" style="fill: none; stroke: #000000; stroke-opacity: 0.46; stroke-linecap: round"/>
   </g>
   <g id="text_19">
    <!-- Combined Predictions -->
    <g style="fill: #262626" transform="translate(1036.124125 144.73425) scale(0.12 -0.12)">
     <use xlink:href="#ArialMT-43"/>
     <use xlink:href="#ArialMT-6f" x="72.216797"/>
     <use xlink:href="#ArialMT-6d" x="127.832031"/>
     <use xlink:href="#ArialMT-62" x="211.132812"/>
     <use xlink:href="#ArialMT-69" x="266.748047"/>
     <use xlink:href="#ArialMT-6e" x="288.964844"/>
     <use xlink:href="#ArialMT-65" x="344.580078"/>
     <use xlink:href="#ArialMT-64" x="400.195312"/>
     <use xlink:href="#ArialMT-20" x="455.810547"/>
     <use xlink:href="#ArialMT-50" x="483.59375"/>
     <use xlink:href="#ArialMT-72" x="550.292969"/>
     <use xlink:href="#ArialMT-65" x="583.59375"/>
     <use xlink:href="#ArialMT-64" x="639.208984"/>
     <use xlink:href="#ArialMT-69" x="694.824219"/>
     <use xlink:href="#ArialMT-63" x="717.041016"/>
     <use xlink:href="#ArialMT-74" x="767.041016"/>
     <use xlink:href="#ArialMT-69" x="794.824219"/>
     <use xlink:href="#ArialMT-6f" x="817.041016"/>
     <use xlink:href="#ArialMT-6e" x="872.65625"/>
     <use xlink:href="#ArialMT-73" x="928.271484"/>
    </g>
   </g>
   <g id="line2d_23">
    <path d="M 1002.524125 157.508625 
L 1014.524125 157.508625 
L 1026.524125 157.508625 
" style="fill: none; stroke: #800080; stroke-opacity: 0.66; stroke-linecap: round"/>
   </g>
   <g id="text_20">
    <!-- NPHI Predictions -->
    <g style="fill: #262626" transform="translate(1036.124125 161.708625) scale(0.12 -0.12)">
     <use xlink:href="#ArialMT-4e"/>
     <use xlink:href="#ArialMT-50" x="72.216797"/>
     <use xlink:href="#ArialMT-48" x="138.916016"/>
     <use xlink:href="#ArialMT-49" x="211.132812"/>
     <use xlink:href="#ArialMT-20" x="238.916016"/>
     <use xlink:href="#ArialMT-50" x="266.699219"/>
     <use xlink:href="#ArialMT-72" x="333.398438"/>
     <use xlink:href="#ArialMT-65" x="366.699219"/>
     <use xlink:href="#ArialMT-64" x="422.314453"/>
     <use xlink:href="#ArialMT-69" x="477.929688"/>
     <use xlink:href="#ArialMT-63" x="500.146484"/>
     <use xlink:href="#ArialMT-74" x="550.146484"/>
     <use xlink:href="#ArialMT-69" x="577.929688"/>
     <use xlink:href="#ArialMT-6f" x="600.146484"/>
     <use xlink:href="#ArialMT-6e" x="655.761719"/>
     <use xlink:href="#ArialMT-73" x="711.376953"/>
    </g>
   </g>
   <g id="line2d_24">
    <path d="M 1002.524125 174.483 
L 1014.524125 174.483 
L 1026.524125 174.483 
" style="fill: none; stroke: #008000; stroke-opacity: 0.66; stroke-linecap: round"/>
   </g>
   <g id="text_21">
    <!-- RHOB Predictions -->
    <g style="fill: #262626" transform="translate(1036.124125 178.683) scale(0.12 -0.12)">
     <use xlink:href="#ArialMT-52"/>
     <use xlink:href="#ArialMT-48" x="72.216797"/>
     <use xlink:href="#ArialMT-4f" x="144.433594"/>
     <use xlink:href="#ArialMT-42" x="222.216797"/>
     <use xlink:href="#ArialMT-20" x="288.916016"/>
     <use xlink:href="#ArialMT-50" x="316.699219"/>
     <use xlink:href="#ArialMT-72" x="383.398438"/>
     <use xlink:href="#ArialMT-65" x="416.699219"/>
     <use xlink:href="#ArialMT-64" x="472.314453"/>
     <use xlink:href="#ArialMT-69" x="527.929688"/>
     <use xlink:href="#ArialMT-63" x="550.146484"/>
     <use xlink:href="#ArialMT-74" x="600.146484"/>
     <use xlink:href="#ArialMT-69" x="627.929688"/>
     <use xlink:href="#ArialMT-6f" x="650.146484"/>
     <use xlink:href="#ArialMT-6e" x="705.761719"/>
     <use xlink:href="#ArialMT-73" x="761.376953"/>
    </g>
   </g>
   <g id="line2d_25">
    <path d="M 1002.524125 191.457375 
L 1014.524125 191.457375 
L 1026.524125 191.457375 
" style="fill: none; stroke: #ffa500; stroke-opacity: 0.66; stroke-linecap: round"/>
   </g>
   <g id="text_22">
    <!-- GR Predictions -->
    <g style="fill: #262626" transform="translate(1036.124125 195.657375) scale(0.12 -0.12)">
     <use xlink:href="#ArialMT-47"/>
     <use xlink:href="#ArialMT-52" x="77.783203"/>
     <use xlink:href="#ArialMT-20" x="150"/>
     <use xlink:href="#ArialMT-50" x="177.783203"/>
     <use xlink:href="#ArialMT-72" x="244.482422"/>
     <use xlink:href="#ArialMT-65" x="277.783203"/>
     <use xlink:href="#ArialMT-64" x="333.398438"/>
     <use xlink:href="#ArialMT-69" x="389.013672"/>
     <use xlink:href="#ArialMT-63" x="411.230469"/>
     <use xlink:href="#ArialMT-74" x="461.230469"/>
     <use xlink:href="#ArialMT-69" x="489.013672"/>
     <use xlink:href="#ArialMT-6f" x="511.230469"/>
     <use xlink:href="#ArialMT-6e" x="566.845703"/>
     <use xlink:href="#ArialMT-73" x="622.460938"/>
    </g>
   </g>
   <g id="line2d_26">
    <path d="M 1002.524125 208.578 
L 1014.524125 208.578 
L 1026.524125 208.578 
" style="fill: none; stroke: #0000ff; stroke-opacity: 0.6; stroke-linecap: round"/>
   </g>
   <g id="text_23">
    <!-- From f11A (Comparitee) -->
    <g style="fill: #262626" transform="translate(1036.124125 212.778) scale(0.12 -0.12)">
     <use xlink:href="#ArialMT-46"/>
     <use xlink:href="#ArialMT-72" x="61.083984"/>
     <use xlink:href="#ArialMT-6f" x="94.384766"/>
     <use xlink:href="#ArialMT-6d" x="150"/>
     <use xlink:href="#ArialMT-20" x="233.300781"/>
     <use xlink:href="#ArialMT-66" x="261.083984"/>
     <use xlink:href="#ArialMT-31" x="288.867188"/>
     <use xlink:href="#ArialMT-31" x="337.107422"/>
     <use xlink:href="#ArialMT-41" x="392.722656"/>
     <use xlink:href="#ArialMT-20" x="453.921875"/>
     <use xlink:href="#ArialMT-28" x="481.705078"/>
     <use xlink:href="#ArialMT-43" x="515.005859"/>
     <use xlink:href="#ArialMT-6f" x="587.222656"/>
     <use xlink:href="#ArialMT-6d" x="642.837891"/>
     <use xlink:href="#ArialMT-70" x="726.138672"/>
     <use xlink:href="#ArialMT-61" x="781.753906"/>
     <use xlink:href="#ArialMT-72" x="837.369141"/>
     <use xlink:href="#ArialMT-69" x="870.669922"/>
     <use xlink:href="#ArialMT-74" x="892.886719"/>
     <use xlink:href="#ArialMT-65" x="920.669922"/>
     <use xlink:href="#ArialMT-65" x="976.285156"/>
     <use xlink:href="#ArialMT-29" x="1031.900391"/>
    </g>
   </g>
  </g>
  <g id="legend_3">
   <g id="text_24">
    <!-- Comparitee (f11A) -->
    <g style="fill: #262626" transform="translate(1039.36525 253.302562) scale(0.144 -0.144)">
     <use xlink:href="#ArialMT-43"/>
     <use xlink:href="#ArialMT-6f" x="72.216797"/>
     <use xlink:href="#ArialMT-6d" x="127.832031"/>
     <use xlink:href="#ArialMT-70" x="211.132812"/>
     <use xlink:href="#ArialMT-61" x="266.748047"/>
     <use xlink:href="#ArialMT-72" x="322.363281"/>
     <use xlink:href="#ArialMT-69" x="355.664062"/>
     <use xlink:href="#ArialMT-74" x="377.880859"/>
     <use xlink:href="#ArialMT-65" x="405.664062"/>
     <use xlink:href="#ArialMT-65" x="461.279297"/>
     <use xlink:href="#ArialMT-20" x="516.894531"/>
     <use xlink:href="#ArialMT-28" x="544.677734"/>
     <use xlink:href="#ArialMT-66" x="577.978516"/>
     <use xlink:href="#ArialMT-31" x="605.761719"/>
     <use xlink:href="#ArialMT-31" x="654.001953"/>
     <use xlink:href="#ArialMT-41" x="709.617188"/>
     <use xlink:href="#ArialMT-29" x="776.316406"/>
    </g>
   </g>
   <g id="line2d_27">
    <path d="M 1022.82625 266.868937 
L 1034.82625 266.868937 
L 1046.82625 266.868937 
" style="fill: none; stroke: #ff0000; stroke-opacity: 0.6; stroke-linecap: round"/>
   </g>
   <g id="text_25">
    <!-- Gamma Ray log -->
    <g style="fill: #262626" transform="translate(1056.42625 271.068937) scale(0.12 -0.12)">
     <use xlink:href="#ArialMT-47"/>
     <use xlink:href="#ArialMT-61" x="77.783203"/>
     <use xlink:href="#ArialMT-6d" x="133.398438"/>
     <use xlink:href="#ArialMT-6d" x="216.699219"/>
     <use xlink:href="#ArialMT-61" x="300"/>
     <use xlink:href="#ArialMT-20" x="355.615234"/>
     <use xlink:href="#ArialMT-52" x="383.398438"/>
     <use xlink:href="#ArialMT-61" x="455.615234"/>
     <use xlink:href="#ArialMT-79" x="511.230469"/>
     <use xlink:href="#ArialMT-20" x="561.230469"/>
     <use xlink:href="#ArialMT-6c" x="589.013672"/>
     <use xlink:href="#ArialMT-6f" x="611.230469"/>
     <use xlink:href="#ArialMT-67" x="666.845703"/>
    </g>
   </g>
   <g id="line2d_28">
    <path d="M 1022.82625 284.130187 
L 1034.82625 284.130187 
L 1046.82625 284.130187 
" style="fill: none; stroke: #a52a2a; stroke-opacity: 0.7; stroke-width: 1.5; stroke-linecap: round"/>
   </g>
   <g id="text_26">
    <!-- Known formation tops -->
    <g style="fill: #262626" transform="translate(1056.42625 288.330187) scale(0.12 -0.12)">
     <defs>
      <path id="ArialMT-4b" d="M 469 0 
L 469 4581 
L 1075 4581 
L 1075 2309 
L 3350 4581 
L 4172 4581 
L 2250 2725 
L 4256 0 
L 3456 0 
L 1825 2319 
L 1075 1588 
L 1075 0 
L 469 0 
z
" transform="scale(0.015625)"/>
      <path id="ArialMT-77" d="M 1034 0 
L 19 3319 
L 600 3319 
L 1128 1403 
L 1325 691 
Q 1338 744 1497 1375 
L 2025 3319 
L 2603 3319 
L 3100 1394 
L 3266 759 
L 3456 1400 
L 4025 3319 
L 4572 3319 
L 3534 0 
L 2950 0 
L 2422 1988 
L 2294 2553 
L 1622 0 
L 1034 0 
z
" transform="scale(0.015625)"/>
     </defs>
     <use xlink:href="#ArialMT-4b"/>
     <use xlink:href="#ArialMT-6e" x="66.699219"/>
     <use xlink:href="#ArialMT-6f" x="122.314453"/>
     <use xlink:href="#ArialMT-77" x="177.929688"/>
     <use xlink:href="#ArialMT-6e" x="250.146484"/>
     <use xlink:href="#ArialMT-20" x="305.761719"/>
     <use xlink:href="#ArialMT-66" x="333.544922"/>
     <use xlink:href="#ArialMT-6f" x="361.328125"/>
     <use xlink:href="#ArialMT-72" x="416.943359"/>
     <use xlink:href="#ArialMT-6d" x="450.244141"/>
     <use xlink:href="#ArialMT-61" x="533.544922"/>
     <use xlink:href="#ArialMT-74" x="589.160156"/>
     <use xlink:href="#ArialMT-69" x="616.943359"/>
     <use xlink:href="#ArialMT-6f" x="639.160156"/>
     <use xlink:href="#ArialMT-6e" x="694.775391"/>
     <use xlink:href="#ArialMT-20" x="750.390625"/>
     <use xlink:href="#ArialMT-74" x="778.173828"/>
     <use xlink:href="#ArialMT-6f" x="805.957031"/>
     <use xlink:href="#ArialMT-70" x="861.572266"/>
     <use xlink:href="#ArialMT-73" x="917.1875"/>
    </g>
   </g>
  </g>
 </g>
 <defs>
  <clipPath id="p74193c8fba">
   <rect x="60.08125" y="24.8475" width="892.8" height="388.08"/>
  </clipPath>
 </defs>
</svg>
